<?xml version="1.0" encoding="utf-8"?>
<!-- Generator: Adobe Illustrator 26.0.3, SVG Export Plug-In . SVG Version: 6.00 Build 0)  -->
<svg version="1.1" id="Layer_1" xmlns="http://www.w3.org/2000/svg" xmlns:xlink="http://www.w3.org/1999/xlink" x="0px" y="0px"
	 viewBox="0 0 250.3 315.7" style="enable-background:new 0 0 250.3 315.7;" xml:space="preserve">
<style type="text/css">
	.st0{fill:#FFFFFF;}
	.st1{fill:#405E76;}
	.st2{enable-background:new    ;}
	.st3{fill:#E89D52;}
</style>
<g id="Group_1540" transform="translate(-320 -4134.155)">
	<g id="Group_371" transform="translate(320 4152.345)">
		<path id="Path_1318" class="st0" d="M13.5,0C6.1,0,0,5.1,0,11.5V286c0,6.3,6.1,11.5,13.5,11.5h223.2c7.5,0,13.5-5.1,13.5-11.5
			V11.5c0-6.3-6.1-11.5-13.5-11.5H13.5z"/>
	</g>
	<g id="Group_372" transform="translate(320 4134.155)">
		<path id="Path_1320" class="st1" d="M13.5,0C6.1,0,0,6.1,0,13.5v27.3c0,7.5,125.1,89.3,125.1,89.3s125.2-81.8,125.2-89.3V13.5
			c0-7.5-6.1-13.5-13.5-13.5H13.5z"/>
	</g>
	<g id="Group_162" transform="translate(407.516 4154.642)">
		<path id="Path_1323" class="st0" d="M37.5,0.5c20.4,0,37,16.6,37,37s-16.6,37-37,37s-37-16.6-37-37S17,0.5,37.5,0.5z"/>
		<g class="st2">
			<path class="st3" d="M44.7,17.2v41.3h-9.6V24.9h-8.3v-7.7H44.7z"/>
		</g>
	</g>
	<g class="st2">
		<path class="st1" d="M385.1,4290v-10.1h5.1v9.9c0,3.1,1.3,4.4,3.5,4.4c2.1,0,3.4-1.2,3.4-4.4v-9.9h5.1v10.1c0,5.4-3.2,8.5-8.6,8.5
			S385.1,4295.4,385.1,4290z"/>
		<path class="st1" d="M415.1,4297.6c-0.9,0.5-2.1,0.8-3.4,0.8c-3.6,0-5.7-1.8-5.7-5.4v-4.7h-2.1v-3.7h2.1v-3.7h4.9v3.7h3.2v3.7
			h-3.2v4.7c0,1,0.6,1.6,1.5,1.6c0.5,0,1.1-0.2,1.5-0.4L415.1,4297.6z"/>
		<path class="st1" d="M416.5,4279.8c0-1.5,1.2-2.6,3-2.6s3,1.1,3,2.5c0,1.6-1.2,2.7-3,2.7S416.5,4281.3,416.5,4279.8z M417,4284
			h4.9v14.1H417V4284z"/>
		<path class="st1" d="M425.2,4278.8h4.9v19.3h-4.9V4278.8z"/>
		<path class="st1" d="M432.8,4279.8c0-1.5,1.2-2.6,3-2.6s3,1.1,3,2.5c0,1.6-1.2,2.7-3,2.7S432.8,4281.3,432.8,4279.8z M433.3,4284
			h4.9v14.1h-4.9V4284z"/>
		<path class="st1" d="M453.7,4294.4v3.7h-13v-2.9l6.5-7.5h-6.3v-3.7h12.6v2.9l-6.5,7.5H453.7z"/>
		<path class="st1" d="M455.4,4279.8c0-1.5,1.2-2.6,3-2.6c1.8,0,3,1.1,3,2.5c0,1.6-1.2,2.7-3,2.7
			C456.6,4282.5,455.4,4281.3,455.4,4279.8z M455.9,4284h4.9v14.1h-4.9V4284z"/>
		<path class="st1" d="M479.1,4290.1v8.1h-4.9v-7.3c0-2-0.9-2.9-2.3-2.9c-1.6,0-2.8,1-2.8,3.3v6.8h-4.9V4284h4.7v1.5
			c1.1-1.2,2.7-1.8,4.5-1.8C476.5,4283.8,479.1,4285.7,479.1,4290.1z"/>
		<path class="st1" d="M497.5,4284v11.5c0,5.3-3,7.9-8.3,7.9c-2.7,0-5.3-0.6-7-1.8l1.8-3.5c1.2,0.9,3.1,1.5,4.8,1.5
			c2.7,0,3.8-1.2,3.8-3.4v-0.5c-1,1.1-2.4,1.7-4.2,1.7c-3.7,0-6.9-2.7-6.9-6.8c0-4.1,3.2-6.8,6.9-6.8c2,0,3.5,0.6,4.4,1.9v-1.7
			H497.5z M492.6,4290.6c0-1.7-1.3-2.9-3.1-2.9c-1.8,0-3.1,1.1-3.1,2.9s1.3,2.9,3.1,2.9C491.3,4293.5,492.6,4292.3,492.6,4290.6z"/>
	</g>
	<g class="st2">
		<path class="st1" d="M385.1,4316h-5.6v-4.1h16.3v4.1h-5.6v14.1h-5.1V4316z"/>
		<path class="st1" d="M406.6,4315.8v4.4c-0.4-0.1-0.8-0.1-1.1-0.1c-2,0-3.4,1-3.4,3.5v6.5h-4.9V4316h4.7v1.7
			C402.9,4316.4,404.6,4315.8,406.6,4315.8z"/>
		<path class="st1" d="M423.6,4316v14.1h-4.7v-1.5c-1.1,1.2-2.6,1.7-4.2,1.7c-3.5,0-6-2-6-6.4v-7.9h4.9v7.1c0,2.2,0.9,3,2.3,3
			c1.5,0,2.7-1,2.7-3.3v-6.8H423.6z"/>
		<path class="st1" d="M425.8,4323.1c0-4.2,3.4-7.3,8.1-7.3c3.2,0,5.6,1.4,6.6,3.9l-3.8,1.9c-0.7-1.3-1.7-1.9-2.8-1.9
			c-1.7,0-3.1,1.2-3.1,3.3c0,2.2,1.4,3.4,3.1,3.4c1.1,0,2.1-0.6,2.8-1.9l3.8,1.9c-1,2.4-3.4,3.9-6.6,3.9
			C429.2,4330.4,425.8,4327.3,425.8,4323.1z"/>
		<path class="st1" d="M448.7,4325.2l-1.5,1.5v3.5h-4.9v-19.3h4.9v10.1l5-4.9h5.9l-5.9,6l6.3,8.1h-6L448.7,4325.2z"/>
		<path class="st1" d="M459.6,4311.8c0-1.5,1.2-2.6,3-2.6c1.8,0,3,1.1,3,2.5c0,1.6-1.2,2.7-3,2.7
			C460.8,4314.5,459.6,4313.3,459.6,4311.8z M460.1,4316h4.9v14.1h-4.9V4316z"/>
		<path class="st1" d="M483.3,4322.1v8.1h-4.9v-7.3c0-2-0.9-2.9-2.3-2.9c-1.6,0-2.8,1-2.8,3.3v6.8h-4.9V4316h4.7v1.5
			c1.1-1.2,2.7-1.8,4.5-1.8C480.7,4315.8,483.3,4317.7,483.3,4322.1z"/>
		<path class="st1" d="M501.7,4316v11.5c0,5.3-3,7.9-8.3,7.9c-2.7,0-5.3-0.6-7-1.8l1.8-3.5c1.2,0.9,3.1,1.5,4.8,1.5
			c2.7,0,3.8-1.2,3.8-3.4v-0.5c-1,1.1-2.4,1.7-4.2,1.7c-3.7,0-6.9-2.7-6.9-6.8c0-4.1,3.2-6.8,6.9-6.8c2,0,3.5,0.6,4.4,1.9v-1.7
			H501.7z M496.8,4322.6c0-1.7-1.3-2.9-3.1-2.9c-1.8,0-3.1,1.1-3.1,2.9c0,1.7,1.3,2.9,3.1,2.9
			C495.5,4325.5,496.8,4324.3,496.8,4322.6z"/>
	</g>
	<g class="st2">
		<path class="st1" d="M409.7,4362.1l-0.1-9.6l-4.7,7.9h-2.3l-4.7-7.6v9.4h-4.8v-18.2h4.2l6.4,10.5l6.2-10.5h4.2l0.1,18.2H409.7z"/>
		<path class="st1" d="M431,4354.3v7.8h-4.6v-1.8c-0.7,1.4-2.1,2.1-4.2,2.1c-3.4,0-5.3-1.9-5.3-4.3c0-2.6,1.9-4.2,6.3-4.2h2.8
			c-0.1-1.4-1-2.2-3-2.2c-1.4,0-2.9,0.5-3.8,1.2l-1.7-3.4c1.6-1.1,4-1.6,6.2-1.6C428.4,4347.8,431,4349.8,431,4354.3z M426.1,4357.6
			v-1.2h-2.1c-1.6,0-2.2,0.6-2.2,1.4c0,0.8,0.7,1.4,1.8,1.4C424.7,4359.2,425.7,4358.7,426.1,4357.6z"/>
		<path class="st1" d="M443.6,4347.8v4.4c-0.4-0.1-0.8-0.1-1.1-0.1c-2,0-3.4,1-3.4,3.5v6.5h-4.9V4348h4.7v1.7
			C439.8,4348.4,441.5,4347.8,443.6,4347.8z"/>
		<path class="st1" d="M452,4357.2l-1.5,1.5v3.5h-4.9v-19.3h4.9v10.1l5-4.9h5.9l-5.9,6l6.3,8.1h-6L452,4357.2z"/>
		<path class="st1" d="M477.1,4356.3h-10.2c0.4,1.4,1.6,2.3,3.5,2.3c1.4,0,2.3-0.4,3.2-1.2l2.6,2.7c-1.4,1.5-3.3,2.3-6,2.3
			c-5,0-8.3-3.1-8.3-7.3c0-4.2,3.3-7.3,7.7-7.3c4.2,0,7.5,2.7,7.5,7.3C477.2,4355.5,477.1,4355.9,477.1,4356.3z M466.8,4353.7h5.8
			c-0.3-1.5-1.4-2.4-2.9-2.4S467.1,4352.2,466.8,4353.7z"/>
		<path class="st1" d="M489.2,4361.6c-0.9,0.5-2.1,0.8-3.4,0.8c-3.6,0-5.7-1.8-5.7-5.4v-4.7H478v-3.7h2.1v-3.7h4.9v3.7h3.2v3.7H485
			v4.7c0,1,0.6,1.6,1.5,1.6c0.5,0,1.1-0.2,1.5-0.4L489.2,4361.6z"/>
	</g>
	<g class="st2">
		<path class="st1" d="M400.7,4375.9l-7.8,18.2h-5.1l-7.8-18.2h5.6l4.9,11.9l5-11.9H400.7z"/>
		<path class="st1" d="M401.4,4375.8c0-1.5,1.2-2.6,3-2.6s3,1.1,3,2.5c0,1.6-1.2,2.7-3,2.7S401.4,4377.3,401.4,4375.8z M401.9,4380
			h4.9v14.1h-4.9V4380z"/>
		<path class="st1" d="M408.9,4392.9l1.5-3.4c1.3,0.8,3.2,1.3,4.9,1.3c1.7,0,2.2-0.4,2.2-1c0-1.9-8.3,0.3-8.3-5.4
			c0-2.7,2.4-4.7,6.9-4.7c2,0,4.2,0.4,5.6,1.2l-1.5,3.4c-1.4-0.8-2.8-1-4.1-1c-1.7,0-2.3,0.5-2.3,1c0,2,8.3-0.2,8.3,5.4
			c0,2.6-2.4,4.6-7,4.6C412.8,4394.4,410.3,4393.8,408.9,4392.9z"/>
		<path class="st1" d="M423.7,4375.8c0-1.5,1.2-2.6,3-2.6s3,1.1,3,2.5c0,1.6-1.2,2.7-3,2.7S423.7,4377.3,423.7,4375.8z M424.3,4380
			h4.9v14.1h-4.9V4380z"/>
		<path class="st1" d="M448.2,4387.1c0,4.5-3.1,7.3-6.9,7.3c-1.8,0-3.2-0.5-4.2-1.6v1.4h-4.7v-19.3h4.9v6.4c1-1,2.3-1.5,3.9-1.5
			C445.1,4379.8,448.2,4382.6,448.2,4387.1z M443.2,4387.1c0-2.1-1.3-3.3-3-3.3s-3,1.2-3,3.3c0,2.2,1.3,3.4,3,3.4
			S443.2,4389.2,443.2,4387.1z"/>
		<path class="st1" d="M449.9,4375.8c0-1.5,1.2-2.6,3-2.6s3,1.1,3,2.5c0,1.6-1.2,2.7-3,2.7S449.9,4377.3,449.9,4375.8z M450.5,4380
			h4.9v14.1h-4.9V4380z"/>
		<path class="st1" d="M458.6,4374.8h4.9v19.3h-4.9V4374.8z"/>
		<path class="st1" d="M466.2,4375.8c0-1.5,1.2-2.6,3-2.6s3,1.1,3,2.5c0,1.6-1.2,2.7-3,2.7S466.2,4377.3,466.2,4375.8z M466.7,4380
			h4.9v14.1h-4.9V4380z"/>
		<path class="st1" d="M484.6,4393.6c-0.9,0.5-2.1,0.8-3.4,0.8c-3.6,0-5.7-1.8-5.7-5.4v-4.7h-2.1v-3.7h2.1v-3.7h4.9v3.7h3.2v3.7
			h-3.2v4.7c0,1,0.6,1.6,1.5,1.6c0.5,0,1.1-0.2,1.5-0.4L484.6,4393.6z"/>
		<path class="st1" d="M501.1,4380l-6.1,14.7c-1.5,3.6-3.6,4.7-6.3,4.7c-1.5,0-3.1-0.5-4.1-1.3l1.7-3.5c0.6,0.5,1.4,0.8,2.2,0.8
			c1,0,1.5-0.4,1.9-1.2l-6-14.3h5.1l3.5,8.6l3.5-8.6H501.1z"/>
	</g>
</g>
</svg>
