<?xml version="1.0" encoding="utf-8"?>
<!-- Generator: Adobe Illustrator 26.0.3, SVG Export Plug-In . SVG Version: 6.00 Build 0)  -->
<svg version="1.1" id="Layer_1" xmlns="http://www.w3.org/2000/svg" xmlns:xlink="http://www.w3.org/1999/xlink" x="0px" y="0px"
	 viewBox="0 0 250.3 315.7" style="enable-background:new 0 0 250.3 315.7;" xml:space="preserve">
<style type="text/css">
	.st0{fill:#FFFFFF;}
	.st1{fill:#405E76;}
	.st2{enable-background:new    ;}
	.st3{fill:#E89D52;}
</style>
<g id="Group_1541" transform="translate(-594.859 -4134.155)">
	<g id="Group_379" transform="translate(594.859 4152.345)">
		<path id="Path_1318" class="st0" d="M13.5,0C6.1,0,0,5.1,0,11.5V286c0,6.3,6.1,11.5,13.5,11.5h223.2c7.5,0,13.5-5.1,13.5-11.5
			V11.5c0-6.3-6.1-11.5-13.5-11.5H13.5z"/>
	</g>
	<g id="Group_378" transform="translate(594.859 4134.155)">
		<path id="Path_1320" class="st1" d="M13.5,0C6.1,0,0,6.1,0,13.5v27.3c0,7.5,125.1,89.3,125.1,89.3s125.2-81.8,125.2-89.3V13.5
			c0-7.5-6.1-13.5-13.5-13.5H13.5z"/>
	</g>
	<g id="Group_380" transform="translate(682.516 4151.642)">
		<circle id="Ellipse_203" class="st0" cx="37.5" cy="37.5" r="37"/>
		<g class="st2">
			<path class="st3" d="M54.6,50.7v7.8H23.4v-6.2l15.9-15c3.7-3.5,4.3-5.6,4.3-7.6c0-3.2-2.2-5.1-6.6-5.1c-3.5,0-6.5,1.4-8.6,4.1
				l-7-4.5c3.2-4.7,9-7.7,16.4-7.7c9.2,0,15.3,4.7,15.3,12.2c0,4-1.1,7.7-6.9,13l-9.5,9H54.6z"/>
		</g>
	</g>
	<g class="st2">
		<path class="st1" d="M663.9,4290v-10.1h5.1v9.9c0,3.1,1.3,4.4,3.5,4.4c2.1,0,3.4-1.2,3.4-4.4v-9.9h5.1v10.1c0,5.4-3.2,8.5-8.6,8.5
			S663.9,4295.4,663.9,4290z"/>
		<path class="st1" d="M694,4297.6c-0.9,0.5-2.1,0.8-3.4,0.8c-3.6,0-5.7-1.8-5.7-5.4v-4.7h-2.1v-3.7h2.1v-3.7h4.9v3.7h3.2v3.7h-3.2
			v4.7c0,1,0.6,1.6,1.5,1.6c0.5,0,1.1-0.2,1.5-0.4L694,4297.6z"/>
		<path class="st1" d="M695.3,4279.8c0-1.5,1.2-2.6,3-2.6s3,1.1,3,2.5c0,1.6-1.2,2.7-3,2.7S695.3,4281.3,695.3,4279.8z M695.9,4284
			h4.9v14.1h-4.9V4284z"/>
		<path class="st1" d="M704,4278.8h4.9v19.3H704V4278.8z"/>
		<path class="st1" d="M711.6,4279.8c0-1.5,1.2-2.6,3-2.6s3,1.1,3,2.5c0,1.6-1.2,2.7-3,2.7S711.6,4281.3,711.6,4279.8z M712.2,4284
			h4.9v14.1h-4.9V4284z"/>
		<path class="st1" d="M732.6,4294.4v3.7h-13v-2.9l6.5-7.5h-6.3v-3.7h12.6v2.9l-6.5,7.5H732.6z"/>
		<path class="st1" d="M734.2,4279.8c0-1.5,1.2-2.6,3-2.6s3,1.1,3,2.5c0,1.6-1.2,2.7-3,2.7S734.2,4281.3,734.2,4279.8z M734.8,4284
			h4.9v14.1h-4.9V4284z"/>
		<path class="st1" d="M757.9,4290.1v8.1H753v-7.3c0-2-0.9-2.9-2.3-2.9c-1.6,0-2.8,1-2.8,3.3v6.8h-4.9V4284h4.7v1.5
			c1.1-1.2,2.7-1.8,4.5-1.8C755.4,4283.8,757.9,4285.7,757.9,4290.1z"/>
		<path class="st1" d="M776.4,4284v11.5c0,5.3-3,7.9-8.3,7.9c-2.7,0-5.3-0.6-7-1.8l1.8-3.5c1.2,0.9,3.1,1.5,4.8,1.5
			c2.7,0,3.8-1.2,3.8-3.4v-0.5c-1,1.1-2.4,1.7-4.2,1.7c-3.7,0-6.9-2.7-6.9-6.8c0-4.1,3.2-6.8,6.9-6.8c2,0,3.5,0.6,4.4,1.9v-1.7
			H776.4z M771.5,4290.6c0-1.7-1.3-2.9-3.1-2.9c-1.8,0-3.1,1.1-3.1,2.9s1.3,2.9,3.1,2.9C770.2,4293.5,771.5,4292.3,771.5,4290.6z"/>
	</g>
	<g class="st2">
		<path class="st1" d="M633.9,4316h-5.6v-4.1h16.3v4.1h-5.6v14.1h-5.1V4316z"/>
		<path class="st1" d="M659.2,4324.3H649c0.4,1.4,1.6,2.3,3.5,2.3c1.4,0,2.3-0.4,3.2-1.2l2.6,2.7c-1.4,1.5-3.3,2.3-6,2.3
			c-5,0-8.3-3.1-8.3-7.3c0-4.2,3.3-7.3,7.7-7.3c4.2,0,7.5,2.7,7.5,7.3C659.3,4323.5,659.3,4323.9,659.2,4324.3z M648.9,4321.7h5.8
			c-0.3-1.5-1.4-2.4-2.9-2.4C650.3,4319.3,649.2,4320.2,648.9,4321.7z"/>
		<path class="st1" d="M660.7,4323.1c0-4.2,3.4-7.3,8.1-7.3c3.2,0,5.6,1.4,6.6,3.9l-3.8,1.9c-0.7-1.3-1.7-1.9-2.8-1.9
			c-1.7,0-3.1,1.2-3.1,3.3c0,2.2,1.4,3.4,3.1,3.4c1.1,0,2.1-0.6,2.8-1.9l3.8,1.9c-1,2.4-3.4,3.9-6.6,3.9
			C664.1,4330.4,660.7,4327.3,660.7,4323.1z"/>
		<path class="st1" d="M692.2,4322.1v8.1h-4.9v-7.3c0-2-0.9-2.9-2.3-2.9c-1.6,0-2.8,1-2.8,3.3v6.8h-4.9v-19.3h4.9v6.5
			c1.1-1,2.6-1.5,4.2-1.5C689.7,4315.8,692.2,4317.7,692.2,4322.1z"/>
		<path class="st1" d="M710.3,4322.1v8.1h-4.9v-7.3c0-2-0.9-2.9-2.3-2.9c-1.6,0-2.8,1-2.8,3.3v6.8h-4.9V4316h4.7v1.5
			c1.1-1.2,2.7-1.8,4.5-1.8C707.8,4315.8,710.3,4317.7,710.3,4322.1z"/>
		<path class="st1" d="M712.7,4323.1c0-4.2,3.4-7.3,8-7.3c4.7,0,8,3,8,7.3c0,4.3-3.3,7.3-8,7.3
			C716.1,4330.4,712.7,4327.3,712.7,4323.1z M723.7,4323.1c0-2.1-1.3-3.3-3-3.3c-1.7,0-3,1.2-3,3.3c0,2.2,1.3,3.4,3,3.4
			C722.4,4326.4,723.7,4325.2,723.7,4323.1z"/>
		<path class="st1" d="M730.9,4310.8h4.9v19.3h-4.9V4310.8z"/>
		<path class="st1" d="M738.2,4323.1c0-4.2,3.4-7.3,8-7.3c4.7,0,8,3,8,7.3c0,4.3-3.3,7.3-8,7.3
			C741.6,4330.4,738.2,4327.3,738.2,4323.1z M749.1,4323.1c0-2.1-1.3-3.3-3-3.3c-1.7,0-3,1.2-3,3.3c0,2.2,1.3,3.4,3,3.4
			C747.8,4326.4,749.1,4325.2,749.1,4323.1z"/>
		<path class="st1" d="M771.6,4316v11.5c0,5.3-3,7.9-8.3,7.9c-2.7,0-5.3-0.6-7-1.8l1.8-3.5c1.2,0.9,3.1,1.5,4.8,1.5
			c2.7,0,3.8-1.2,3.8-3.4v-0.5c-1,1.1-2.4,1.7-4.2,1.7c-3.7,0-6.9-2.7-6.9-6.8c0-4.1,3.2-6.8,6.9-6.8c2,0,3.5,0.6,4.4,1.9v-1.7
			H771.6z M766.7,4322.6c0-1.7-1.3-2.9-3.1-2.9c-1.8,0-3.1,1.1-3.1,2.9c0,1.7,1.3,2.9,3.1,2.9
			C765.4,4325.5,766.7,4324.3,766.7,4322.6z"/>
		<path class="st1" d="M774.2,4311.8c0-1.5,1.2-2.6,3-2.6s3,1.1,3,2.5c0,1.6-1.2,2.7-3,2.7S774.2,4313.3,774.2,4311.8z M774.7,4316
			h4.9v14.1h-4.9V4316z"/>
		<path class="st1" d="M797.2,4324.3h-10.2c0.4,1.4,1.6,2.3,3.5,2.3c1.4,0,2.3-0.4,3.2-1.2l2.6,2.7c-1.4,1.5-3.3,2.3-6,2.3
			c-5,0-8.3-3.1-8.3-7.3c0-4.2,3.3-7.3,7.7-7.3c4.2,0,7.5,2.7,7.5,7.3C797.3,4323.5,797.2,4323.9,797.2,4324.3z M786.9,4321.7h5.8
			c-0.3-1.5-1.4-2.4-2.9-2.4C788.2,4319.3,787.2,4320.2,786.9,4321.7z"/>
		<path class="st1" d="M798.4,4328.9l1.5-3.4c1.3,0.8,3.2,1.3,4.9,1.3c1.7,0,2.2-0.4,2.2-1c0-1.9-8.3,0.3-8.3-5.4
			c0-2.7,2.4-4.7,6.9-4.7c2,0,4.2,0.4,5.6,1.2l-1.5,3.4c-1.4-0.8-2.8-1-4.1-1c-1.7,0-2.3,0.5-2.3,1c0,2,8.3-0.2,8.3,5.4
			c0,2.6-2.4,4.6-7,4.6C802.3,4330.4,799.8,4329.8,798.4,4328.9z"/>
	</g>
</g>
</svg>
