<svg xmlns="http://www.w3.org/2000/svg" width="231.797" height="217.103" viewBox="0 0 231.797 217.103">
  <g id="Group_447" data-name="Group 447" transform="matrix(0.848, -0.53, 0.53, 0.848, -4703.762, -5320.324)">
    <path id="Path_1429" data-name="Path 1429" d="M100.617,0,77.478,31.879,0,130.211l.67,1.675L107.988,5.137Z" transform="translate(1120 7084)" fill="#e89d52"/>
    <path id="Path_1430" data-name="Path 1430" d="M98.976,64.531l29.643-27.449,4.6,5.7L7.749,151.586l-.405-1.758Z" transform="translate(1117.013 7068.917)" fill="#e89d52"/>
    <path id="Path_1431" data-name="Path 1431" d="M161.159,153.68,151.4,134.109l-4.475-8.285-.829-1.51a7.53,7.53,0,0,0-1.426-1.469c-1.479-.864-3.037-1.594-4.563-2.377l-2.373-1.194c-1.042-.626-2.049-1.322-3.132-1.868-6.3-3.173-11.946-6.9-15.223-13.631-2.524-5.181-5.652-10.125-11.3-12.662-3.172-1.828-6.3-3.731-9.531-5.456a57.579,57.579,0,0,0-5.332-2.227L92.077,82.8l-.3-.29-.852-.944c-.382-1.143-.81-1.313-1.626-.246-2,2.611-4.081,5.156-6.13,7.727.294-4.52.376-9.069.975-13.548a12.1,12.1,0,0,1,2.47-5.911,143,143,0,0,1,10.854-11.5,12.563,12.563,0,0,1,5.161-2.518c2.833-.813,5.777-1.243,8.674-1.835l-6.433,8.043-2.9-.767,1.053,3.1-5.034,6.537-.607.925,2.407.812,1.063.131a1.86,1.86,0,0,1-.189.21c.131.144.236.362.4.419q8.862,3.116,17.741,6.182l4.4,1.554,9.82,2.041c.041-.184.081-.367.122-.551-1.339-.347-4.507-.985-5.846-1.332.364-.1,9.052-7.552,9.449-7.887,2.126-1.8,4.219-3.631,6.324-5.452.435.874.807,1.786,1.314,2.616Q156.226,89.71,168.1,109.078c.592.965,1.3,1.859,1.954,2.787a16.441,16.441,0,0,0,1.125,1.888c5.034,6.392,10.076,12.777,15.3,19.387l6.4,8.1c.568.8,10.838,12.375,8.662,13.882L179.5,190.393c-1.281-2.868-14.683-28.8-15.965-31.671l-2.378-5.042M99.478,84.3a3.63,3.63,0,0,0,.537-.667c1.159-2.448,2.327-4.894,3.4-7.381.1-.23-.384-.986-.718-1.083-2.638-.768-10.836-.692-11.046-1.174.47-1.083,2.534-1.962,2.8-2.156.286-.205.327-.266,0-.183a9.205,9.205,0,0,0-1.744.607c-1.805.743-3.164,3.449-2.677,4.761,1.552-3.1,1.354-4.145,4.265-3.672-3.923,4.926-3.812,6.91,1.027,8.878L99.478,84.3" transform="translate(1086.171 7062.144)" fill="#405e76"/>
    <path id="Path_1432" data-name="Path 1432" d="M140.845,48.855c.661.087,1.422.433,1.967.222,5.012-1.944,8.511-.184,11.066,4.251A23.187,23.187,0,0,0,155.964,56l2.978,4.136-16.61,15.422c-.676-.132-1.5-.06-2-.431-2.452-1.818-2.051-6.266.628-8.69,1.21-1.1,2.273-2.353,3.4-3.536a1.534,1.534,0,0,0-1.227.447,37.089,37.089,0,0,1-5.364,3.575c-.774.36-2.111-.493-3.192-.794a22,22,0,0,1,.675-2.178c.488-1.153,1.061-2.27,1.6-3.4a41.207,41.207,0,0,0-3.835,4c-.352.373-1.139.336-1.726.486-.1-.535-.425-1.163-.253-1.588.826-2.031,1.787-4.007,2.7-6l7.111-8.583" transform="translate(1066.724 7064.358)" fill="#405e76"/>
    <path id="Path_1433" data-name="Path 1433" d="M102.183,125.324c-.257-.469-2.44-4.562-2.681-5.04a7.668,7.668,0,0,1-.607-1.616c-.33-2.329-2.2-5.935,0-9.278,1.219-.23,2.937.738,3.932,1.109,1.4.523,2.153,2.411,2.929,4.415a27.653,27.653,0,0,1,2.235,4.9" transform="translate(1080.036 7038.678)" fill="#405e76"/>
    <path id="Path_1434" data-name="Path 1434" d="M132.525,136.574c-2.531,3.122-3.851,3.576-6.008,2-1.106-.81-1.144-1.143-2.218-2-.013-.584.093-2.207,0-2.777-.215-1.322-1.655-4.859-1.449-5.148,1.664-1.394,4.157-3.952,4.913-3.351,2.848,2.269,4.184,7.7,4.716,11.114a.906.906,0,0,0,.046.163" transform="translate(1069.513 7034.125)" fill="#405e76"/>
    <path id="Path_1435" data-name="Path 1435" d="M113.352,134.962l2.5-1.137c.235,1.316.5,2.627.694,3.949a13.914,13.914,0,0,1,.048,1.747,2.421,2.421,0,0,0-.628.487c-2.1,3.215-4.519,3.333-7.01.336a5.1,5.1,0,0,0-.726-.607q.01-.156.019-.311l.471-.354,4.633-4.111" transform="translate(1076.277 7030.757)" fill="#405e76"/>
    <path id="Path_1437" data-name="Path 1437" d="M92.311,114.743c.148,4.291-1.882,5.1-2.051,5.184-2.356,1.109-2.491-.009-4.526-1.5,2.149-2.485,4.427-5.571,6.577-8.056" transform="translate(1085.129 7039.108)" fill="#405e76"/>
    <path id="Path_1439" data-name="Path 1439" d="M176.637,65.037l-.57.378-2.978-4.137c1.681,2.432,3.937,1.807,6.2,1.168l-2.649,2.591" transform="translate(1049.599 7059.076)" fill="#f5f5f5"/>
    <path id="Path_1440" data-name="Path 1440" d="M214.625,222.2,217,227.244q-1.189-2.52-2.378-5.041" transform="translate(1032.704 6993.622)" fill="#dfdfdf"/>
    <path id="Path_1441" data-name="Path 1441" d="M100.978,95.459c-4.839-1.968-5.106-3.972-1.183-8.9l.59-.3c2.659.7,5.327,1.365,7.965,2.132.334.1.818.853.718,1.083-1.071,2.487-2.239,4.932-3.4,7.381a3.611,3.611,0,0,1-.537.667,28.632,28.632,0,0,1-4.156-2.069" transform="translate(1080.515 7048.913)" fill="#fff"/>
    <path id="Path_1448" data-name="Path 1448" d="M99.937,103.818c3.086,1.569,10.891,5.513,12.817,7.286-.636.555-3.617,3.467-4.254,4.023a12.88,12.88,0,0,1-2.529-4.023c-1.12-2.08-1.123-3.68-2.4-4.171-.908-.349-3.867-2.566-3.632-3.115" transform="translate(1080.625 7042.623)" fill="#405e76"/>
    <path id="Path_1451" data-name="Path 1451" d="M138.363,133.217a17.436,17.436,0,0,1,1.261,2.875c-1.277-.134-2.553,1.448-3.817-1.01-.533-3.41-1.482-4.563-2.947-8.037-.848-.955-.91-2-1.883-2.329.814-.9.355-.379,1.169-1.283,0-.088,1.709,1.781,1.716,1.693" transform="translate(1066.727 7033.797)" fill="#405e76"/>
    <path id="Path_1452" data-name="Path 1452" d="M118.658,81.964c-1.187-.218-.735-1.337.263-2.584.939-1.173,1.983-2.261,2.981-3.387.273.192,1.128-1.108,1.428-1.041,1.792,1.4.918.806,3.8,1.456l2.555,1.378,2.543.645c-1.056,3.539.512,7.508-.847,7.831-2.7-1.158-8.451-3.026-12.72-4.3" transform="translate(1072.456 7054.052)" fill="#405e76"/>
    <rect id="Rectangle_305" data-name="Rectangle 305" width="176.893" height="145.468" transform="translate(1120 7084)" fill="none"/>
  </g>
</svg>
