<?xml version="1.0" encoding="utf-8"?>
<!-- Generator: Adobe Illustrator 26.0.3, SVG Export Plug-In . SVG Version: 6.00 Build 0)  -->
<svg version="1.1" id="Layer_1" xmlns="http://www.w3.org/2000/svg" xmlns:xlink="http://www.w3.org/1999/xlink" x="0px" y="0px"
	 viewBox="0 0 250.3 315.7" style="enable-background:new 0 0 250.3 315.7;" xml:space="preserve">
<style type="text/css">
	.st0{fill:#FFFFFF;}
	.st1{fill:#405E76;}
	.st2{enable-background:new    ;}
	.st3{fill:#E89D52;}
</style>
<g id="Group_1542" transform="translate(-869.717 -4134.155)">
	<g id="Group_382" transform="translate(869.717 4152.345)">
		<path id="Path_1318" class="st0" d="M13.5,0C6.1,0,0,5.1,0,11.5V286c0,6.3,6.1,11.5,13.5,11.5h223.2c7.5,0,13.5-5.1,13.5-11.5
			V11.5c0-6.3-6.1-11.5-13.5-11.5H13.5z"/>
	</g>
	<g id="Group_381" transform="translate(869.717 4134.155)">
		<path id="Path_1320" class="st1" d="M13.5,0C6.1,0,0,6.1,0,13.5v27.3c0,7.5,125.1,89.3,125.1,89.3s125.2-81.8,125.2-89.3V13.5
			c0-7.5-6.1-13.5-13.5-13.5H13.5z"/>
	</g>
	<g id="Group_383" transform="translate(957.516 4151.642)">
		<circle id="Ellipse_203" class="st0" cx="37.5" cy="37.5" r="37"/>
		<g class="st2">
			<path class="st3" d="M54.3,45.9c0,7-5.4,13.3-17.1,13.3c-5.8,0-11.7-1.6-15.8-4.4l3.7-7.3c3.1,2.4,7.5,3.7,11.8,3.7
				c4.8,0,7.7-1.9,7.7-5.3c0-3.1-2.3-5.1-7.7-5.1h-4.4v-6.3l8.5-9.6H23.5v-7.7h28.9v6.2L43.1,34C50.5,35.2,54.3,39.8,54.3,45.9z"/>
		</g>
	</g>
	<g class="st2">
		<path class="st1" d="M943,4279.9h5.1v14.1h8.7v4.1H943V4279.9z"/>
		<path class="st1" d="M972.9,4292.3h-10.2c0.4,1.4,1.6,2.3,3.5,2.3c1.4,0,2.3-0.4,3.2-1.2l2.6,2.7c-1.4,1.5-3.3,2.3-6,2.3
			c-5,0-8.3-3.1-8.3-7.3c0-4.2,3.3-7.3,7.7-7.3c4.2,0,7.5,2.7,7.5,7.3C972.9,4291.5,972.9,4291.9,972.9,4292.3z M962.5,4289.7h5.8
			c-0.3-1.5-1.4-2.4-2.9-2.4C963.9,4287.3,962.8,4288.2,962.5,4289.7z"/>
		<path class="st1" d="M988,4290.3v7.8h-4.6v-1.8c-0.7,1.4-2.1,2.1-4.2,2.1c-3.4,0-5.3-1.9-5.3-4.3c0-2.6,1.9-4.2,6.3-4.2h2.8
			c-0.1-1.4-1-2.2-3-2.2c-1.4,0-2.9,0.5-3.8,1.2l-1.7-3.4c1.6-1.1,4-1.6,6.2-1.6C985.4,4283.8,988,4285.8,988,4290.3z M983.1,4293.6
			v-1.2H981c-1.6,0-2.2,0.6-2.2,1.4c0,0.8,0.7,1.4,1.8,1.4C981.8,4295.2,982.7,4294.7,983.1,4293.6z"/>
		<path class="st1" d="M1006.2,4290.1v8.1h-4.9v-7.3c0-2-0.9-2.9-2.3-2.9c-1.6,0-2.8,1-2.8,3.3v6.8h-4.9V4284h4.7v1.5
			c1.1-1.2,2.7-1.8,4.5-1.8C1003.6,4283.8,1006.2,4285.7,1006.2,4290.1z"/>
		<path class="st1" d="M1008.7,4279.8c0-1.5,1.2-2.6,3-2.6c1.8,0,3,1.1,3,2.5c0,1.6-1.2,2.7-3,2.7
			C1009.9,4282.5,1008.7,4281.3,1008.7,4279.8z M1009.3,4284h4.9v14.1h-4.9V4284z"/>
		<path class="st1" d="M1032.4,4290.1v8.1h-4.9v-7.3c0-2-0.9-2.9-2.3-2.9c-1.6,0-2.8,1-2.8,3.3v6.8h-4.9V4284h4.7v1.5
			c1.1-1.2,2.7-1.8,4.5-1.8C1029.9,4283.8,1032.4,4285.7,1032.4,4290.1z"/>
		<path class="st1" d="M1050.9,4284v11.5c0,5.3-3,7.9-8.3,7.9c-2.7,0-5.3-0.6-7-1.8l1.8-3.5c1.2,0.9,3.1,1.5,4.8,1.5
			c2.7,0,3.8-1.2,3.8-3.4v-0.5c-1,1.1-2.4,1.7-4.2,1.7c-3.7,0-6.9-2.7-6.9-6.8c0-4.1,3.2-6.8,6.9-6.8c2,0,3.5,0.6,4.4,1.9v-1.7
			H1050.9z M1046,4290.6c0-1.7-1.3-2.9-3.1-2.9c-1.8,0-3.1,1.1-3.1,2.9s1.3,2.9,3.1,2.9C1044.7,4293.5,1046,4292.3,1046,4290.6z"/>
	</g>
	<g class="st2">
		<path class="st1" d="M938,4321c0-5.5,4.3-9.5,10.1-9.5s10.1,4,10.1,9.5c0,5.5-4.3,9.5-10.1,9.5S938,4326.5,938,4321z M953.1,4321
			c0-3.1-2.2-5.2-4.9-5.2c-2.8,0-4.9,2.1-4.9,5.2s2.2,5.2,4.9,5.2C950.9,4326.2,953.1,4324.2,953.1,4321z"/>
		<path class="st1" d="M975.7,4322.1v8.1h-4.9v-7.3c0-2-0.9-2.9-2.3-2.9c-1.6,0-2.8,1-2.8,3.3v6.8h-4.9V4316h4.7v1.5
			c1.1-1.2,2.7-1.8,4.5-1.8C973.2,4315.8,975.7,4317.7,975.7,4322.1z"/>
		<path class="st1" d="M990.5,4316h-5.6v-4.1h16.3v4.1h-5.6v14.1h-5.1V4316z"/>
		<path class="st1" d="M1017.9,4322.1v8.1h-4.9v-7.3c0-2-0.9-2.9-2.3-2.9c-1.6,0-2.8,1-2.8,3.3v6.8h-4.9v-19.3h4.9v6.5
			c1.1-1,2.6-1.5,4.2-1.5C1015.4,4315.8,1017.9,4317.7,1017.9,4322.1z"/>
		<path class="st1" d="M1035.5,4324.3h-10.2c0.4,1.4,1.6,2.3,3.5,2.3c1.4,0,2.3-0.4,3.2-1.2l2.6,2.7c-1.4,1.5-3.3,2.3-6,2.3
			c-5,0-8.3-3.1-8.3-7.3c0-4.2,3.3-7.3,7.7-7.3c4.2,0,7.5,2.7,7.5,7.3C1035.6,4323.5,1035.6,4323.9,1035.5,4324.3z M1025.2,4321.7
			h5.8c-0.3-1.5-1.4-2.4-2.9-2.4S1025.5,4320.2,1025.2,4321.7z"/>
		<path class="st1" d="M1037.3,4311.8c0-1.5,1.2-2.6,3-2.6c1.8,0,3,1.1,3,2.5c0,1.6-1.2,2.7-3,2.7
			C1038.5,4314.5,1037.3,4313.3,1037.3,4311.8z M1037.9,4316h4.9v14.1h-4.9V4316z"/>
		<path class="st1" d="M1055.5,4315.8v4.4c-0.4-0.1-0.8-0.1-1.1-0.1c-2,0-3.4,1-3.4,3.5v6.5h-4.9V4316h4.7v1.7
			C1051.7,4316.4,1053.4,4315.8,1055.5,4315.8z"/>
	</g>
	<g class="st2">
		<path class="st1" d="M898.8,4348h-5.6v-4.1h16.3v4.1H904v14.1h-5.1V4348z"/>
		<path class="st1" d="M920.4,4347.8v4.4c-0.4-0.1-0.8-0.1-1.1-0.1c-2,0-3.4,1-3.4,3.5v6.5H911V4348h4.7v1.7
			C916.7,4348.4,918.3,4347.8,920.4,4347.8z"/>
		<path class="st1" d="M935.5,4354.3v7.8h-4.6v-1.8c-0.7,1.4-2.1,2.1-4.2,2.1c-3.4,0-5.3-1.9-5.3-4.3c0-2.6,1.9-4.2,6.3-4.2h2.8
			c-0.1-1.4-1-2.2-3-2.2c-1.4,0-2.9,0.5-3.8,1.2l-1.7-3.4c1.6-1.1,4-1.6,6.2-1.6C932.9,4347.8,935.5,4349.8,935.5,4354.3z
			 M930.6,4357.6v-1.2h-2.1c-1.6,0-2.2,0.6-2.2,1.4c0,0.8,0.7,1.4,1.8,1.4C929.2,4359.2,930.2,4358.7,930.6,4357.6z"/>
		<path class="st1" d="M953.6,4354.1v8.1h-4.9v-7.3c0-2-0.9-2.9-2.3-2.9c-1.6,0-2.8,1-2.8,3.3v6.8h-4.9V4348h4.7v1.5
			c1.1-1.2,2.7-1.8,4.5-1.8C951.1,4347.8,953.6,4349.7,953.6,4354.1z"/>
		<path class="st1" d="M955.6,4360.9l1.5-3.4c1.3,0.8,3.2,1.3,4.9,1.3c1.7,0,2.2-0.4,2.2-1c0-1.9-8.3,0.3-8.3-5.4
			c0-2.7,2.4-4.7,6.9-4.7c2,0,4.2,0.4,5.6,1.2l-1.5,3.4c-1.4-0.8-2.8-1-4.1-1c-1.7,0-2.3,0.5-2.3,1c0,2,8.3-0.2,8.3,5.4
			c0,2.6-2.4,4.6-7,4.6C959.5,4362.4,957,4361.8,955.6,4360.9z"/>
		<path class="st1" d="M986.7,4355.1c0,4.5-3.1,7.3-6.9,7.3c-1.6,0-3-0.5-3.9-1.5v6.3H971V4348h4.7v1.4c0.9-1.1,2.3-1.6,4.2-1.6
			C983.6,4347.8,986.7,4350.6,986.7,4355.1z M981.8,4355.1c0-2.1-1.3-3.4-3-3.4s-3,1.2-3,3.4c0,2.1,1.3,3.4,3,3.4
			S981.8,4357.2,981.8,4355.1z"/>
		<path class="st1" d="M988.1,4355.1c0-4.2,3.4-7.3,8-7.3c4.7,0,8,3,8,7.3c0,4.3-3.3,7.3-8,7.3
			C991.5,4362.4,988.1,4359.3,988.1,4355.1z M999.1,4355.1c0-2.1-1.3-3.3-3-3.3c-1.7,0-3,1.2-3,3.3c0,2.2,1.3,3.4,3,3.4
			C997.8,4358.4,999.1,4357.2,999.1,4355.1z"/>
		<path class="st1" d="M1015.8,4347.8v4.4c-0.4-0.1-0.8-0.1-1.1-0.1c-2,0-3.4,1-3.4,3.5v6.5h-4.9V4348h4.7v1.7
			C1012.1,4348.4,1013.7,4347.8,1015.8,4347.8z"/>
		<path class="st1" d="M1028,4361.6c-0.9,0.5-2.1,0.8-3.4,0.8c-3.6,0-5.7-1.8-5.7-5.4v-4.7h-2.1v-3.7h2.1v-3.7h4.9v3.7h3.2v3.7h-3.2
			v4.7c0,1,0.6,1.6,1.5,1.6c0.5,0,1.1-0.2,1.5-0.4L1028,4361.6z"/>
		<path class="st1" d="M1043.1,4354.3v7.8h-4.6v-1.8c-0.7,1.4-2.1,2.1-4.2,2.1c-3.4,0-5.3-1.9-5.3-4.3c0-2.6,1.9-4.2,6.3-4.2h2.8
			c-0.1-1.4-1-2.2-3-2.2c-1.4,0-2.9,0.5-3.8,1.2l-1.7-3.4c1.6-1.1,4-1.6,6.2-1.6C1040.5,4347.8,1043.1,4349.8,1043.1,4354.3z
			 M1038.1,4357.6v-1.2h-2.1c-1.6,0-2.2,0.6-2.2,1.4c0,0.8,0.7,1.4,1.8,1.4C1036.8,4359.2,1037.8,4358.7,1038.1,4357.6z"/>
		<path class="st1" d="M1055.9,4361.6c-0.9,0.5-2.1,0.8-3.4,0.8c-3.6,0-5.7-1.8-5.7-5.4v-4.7h-2.1v-3.7h2.1v-3.7h4.9v3.7h3.2v3.7
			h-3.2v4.7c0,1,0.6,1.6,1.5,1.6c0.5,0,1.1-0.2,1.5-0.4L1055.9,4361.6z"/>
		<path class="st1" d="M1057.3,4343.8c0-1.5,1.2-2.6,3-2.6s3,1.1,3,2.5c0,1.6-1.2,2.7-3,2.7S1057.3,4345.3,1057.3,4343.8z
			 M1057.8,4348h4.9v14.1h-4.9V4348z"/>
		<path class="st1" d="M1065.1,4355.1c0-4.2,3.4-7.3,8-7.3c4.7,0,8,3,8,7.3c0,4.3-3.3,7.3-8,7.3
			C1068.4,4362.4,1065.1,4359.3,1065.1,4355.1z M1076,4355.1c0-2.1-1.3-3.3-3-3.3c-1.7,0-3,1.2-3,3.3c0,2.2,1.3,3.4,3,3.4
			C1074.7,4358.4,1076,4357.2,1076,4355.1z"/>
		<path class="st1" d="M1098.3,4354.1v8.1h-4.9v-7.3c0-2-0.9-2.9-2.3-2.9c-1.6,0-2.8,1-2.8,3.3v6.8h-4.9V4348h4.7v1.5
			c1.1-1.2,2.7-1.8,4.5-1.8C1095.8,4347.8,1098.3,4349.7,1098.3,4354.1z"/>
	</g>
	<g class="st2">
		<path class="st1" d="M940,4375.9h5.1v18.2H940V4375.9z"/>
		<path class="st1" d="M963.5,4386.1v8.1h-4.9v-7.3c0-2-0.9-2.9-2.3-2.9c-1.6,0-2.8,1-2.8,3.3v6.8h-4.9V4380h4.7v1.5
			c1.1-1.2,2.7-1.8,4.5-1.8C961,4379.8,963.5,4381.7,963.5,4386.1z"/>
		<path class="st1" d="M981.8,4374.8v19.3h-4.7v-1.4c-0.9,1.1-2.3,1.6-4.1,1.6c-3.8,0-6.9-2.8-6.9-7.3c0-4.5,3.1-7.3,6.9-7.3
			c1.6,0,3,0.5,3.9,1.5v-6.4H981.8z M977,4387.1c0-2.1-1.3-3.3-2.9-3.3c-1.7,0-3,1.2-3,3.3c0,2.2,1.3,3.4,3,3.4
			C975.7,4390.4,977,4389.2,977,4387.1z"/>
		<path class="st1" d="M999.8,4380v14.1h-4.7v-1.5c-1.1,1.2-2.6,1.7-4.2,1.7c-3.5,0-6-2-6-6.4v-7.9h4.9v7.1c0,2.2,0.9,3,2.3,3
			c1.5,0,2.7-1,2.7-3.3v-6.8H999.8z"/>
		<path class="st1" d="M1001.9,4392.9l1.5-3.4c1.3,0.8,3.2,1.3,4.9,1.3c1.7,0,2.2-0.4,2.2-1c0-1.9-8.3,0.3-8.3-5.4
			c0-2.7,2.4-4.7,6.9-4.7c2,0,4.2,0.4,5.6,1.2l-1.5,3.4c-1.4-0.8-2.8-1-4.1-1c-1.7,0-2.3,0.5-2.3,1c0,2,8.3-0.2,8.3,5.4
			c0,2.6-2.4,4.6-7,4.6C1005.7,4394.4,1003.2,4393.8,1001.9,4392.9z"/>
		<path class="st1" d="M1026.9,4393.6c-0.9,0.5-2.1,0.8-3.4,0.8c-3.6,0-5.7-1.8-5.7-5.4v-4.7h-2.1v-3.7h2.1v-3.7h4.9v3.7h3.2v3.7
			h-3.2v4.7c0,1,0.6,1.6,1.5,1.6c0.5,0,1.1-0.2,1.5-0.4L1026.9,4393.6z"/>
		<path class="st1" d="M1038.3,4379.8v4.4c-0.4-0.1-0.8-0.1-1.1-0.1c-2,0-3.4,1-3.4,3.5v6.5h-4.9V4380h4.7v1.7
			C1034.6,4380.4,1036.2,4379.8,1038.3,4379.8z"/>
		<path class="st1" d="M1055.6,4380l-6.1,14.7c-1.5,3.6-3.6,4.7-6.3,4.7c-1.5,0-3.1-0.5-4.1-1.3l1.7-3.5c0.6,0.5,1.4,0.8,2.2,0.8
			c1,0,1.5-0.4,1.9-1.2l-6-14.3h5.1l3.5,8.6l3.5-8.6H1055.6z"/>
	</g>
	<g class="st2">
		<path class="st1" d="M947.6,4422.1v4H933v-18.2h14.3v4h-9.2v3.1h8.1v3.8h-8.1v3.3H947.6z"/>
		<path class="st1" d="M959.1,4426.1l-2.5-3.7l-2.7,3.7h-5.4l5.4-7l-5.2-7h5.6l2.5,3.6l2.6-3.6h5.2l-5.2,6.9l5.4,7.2H959.1z"/>
		<path class="st1" d="M982,4419.1c0,4.5-3.1,7.3-6.9,7.3c-1.6,0-3-0.5-3.9-1.5v6.3h-4.9V4412h4.7v1.4c0.9-1.1,2.3-1.6,4.2-1.6
			C978.9,4411.8,982,4414.6,982,4419.1z M977,4419.1c0-2.1-1.3-3.4-3-3.4s-3,1.2-3,3.4c0,2.1,1.3,3.4,3,3.4S977,4421.2,977,4419.1z"
			/>
		<path class="st1" d="M998.6,4420.3h-10.2c0.4,1.4,1.6,2.3,3.5,2.3c1.4,0,2.3-0.4,3.2-1.2l2.6,2.7c-1.4,1.5-3.3,2.3-6,2.3
			c-5,0-8.3-3.1-8.3-7.3c0-4.2,3.3-7.3,7.7-7.3c4.2,0,7.5,2.7,7.5,7.3C998.7,4419.5,998.6,4419.9,998.6,4420.3z M988.3,4417.7h5.8
			c-0.3-1.5-1.4-2.4-2.9-2.4C989.6,4415.3,988.6,4416.2,988.3,4417.7z"/>
		<path class="st1" d="M1010.4,4411.8v4.4c-0.4-0.1-0.8-0.1-1.1-0.1c-2,0-3.4,1-3.4,3.5v6.5h-4.9V4412h4.7v1.7
			C1006.7,4412.4,1008.3,4411.8,1010.4,4411.8z"/>
		<path class="st1" d="M1022.6,4425.6c-0.9,0.5-2.1,0.8-3.4,0.8c-3.6,0-5.7-1.8-5.7-5.4v-4.7h-2.1v-3.7h2.1v-3.7h4.9v3.7h3.2v3.7
			h-3.2v4.7c0,1,0.6,1.6,1.5,1.6c0.5,0,1.1-0.2,1.5-0.4L1022.6,4425.6z"/>
		<path class="st1" d="M1024,4407.8c0-1.5,1.2-2.6,3-2.6c1.8,0,3,1.1,3,2.5c0,1.6-1.2,2.7-3,2.7
			C1025.2,4410.5,1024,4409.3,1024,4407.8z M1024.5,4412h4.9v14.1h-4.9V4412z"/>
		<path class="st1" d="M1031.5,4424.9l1.5-3.4c1.3,0.8,3.2,1.3,4.9,1.3c1.7,0,2.2-0.4,2.2-1c0-1.9-8.3,0.3-8.3-5.4
			c0-2.7,2.4-4.7,6.9-4.7c2,0,4.2,0.4,5.6,1.2l-1.5,3.4c-1.4-0.8-2.8-1-4.1-1c-1.7,0-2.3,0.5-2.3,1c0,2,8.3-0.2,8.3,5.4
			c0,2.6-2.4,4.6-7,4.6C1035.4,4426.4,1032.9,4425.8,1031.5,4424.9z"/>
		<path class="st1" d="M1061.2,4420.3h-10.2c0.4,1.4,1.6,2.3,3.5,2.3c1.4,0,2.3-0.4,3.2-1.2l2.6,2.7c-1.4,1.5-3.3,2.3-6,2.3
			c-5,0-8.3-3.1-8.3-7.3c0-4.2,3.3-7.3,7.7-7.3c4.2,0,7.5,2.7,7.5,7.3C1061.3,4419.5,1061.2,4419.9,1061.2,4420.3z M1050.9,4417.7
			h5.8c-0.3-1.5-1.4-2.4-2.9-2.4C1052.2,4415.3,1051.2,4416.2,1050.9,4417.7z"/>
	</g>
</g>
</svg>
