<?xml version="1.0" encoding="utf-8"?>
<!-- Generator: Adobe Illustrator 26.3.1, SVG Export Plug-In . SVG Version: 6.00 Build 0)  -->
<svg version="1.1" id="Group_114" xmlns="http://www.w3.org/2000/svg" xmlns:xlink="http://www.w3.org/1999/xlink" x="0px" y="0px"
	 viewBox="0 0 197.9 80.3" style="enable-background:new 0 0 197.9 80.3;" xml:space="preserve">
<style type="text/css">
	.st0{fill:#AAAAAA;}
	.st1{fill:#AAAAAA;stroke:#888888;stroke-width:2;}
	.st2{opacity:0.701;fill:#FFFFFF;enable-background:new    ;}
	.st3{opacity:0.703;fill:#FFFFFF;enable-background:new    ;}
	.st4{fill:#FFEDA3;}
	.st5{fill:#FFDC4A;}
	.st6{fill:#387C7E;}
	.st7{fill:#FFFFFF;}
	.st8{fill:#E6E6E6;}
	.st9{fill:#999999;stroke:#B3B3B3;}
	.st10{fill:none;stroke:#B3B3B3;stroke-width:2;}
	.st11{fill:#AAAAAA;stroke:#888888;}
	.st12{fill:#E6E6E6;stroke:#888888;}
	.st13{enable-background:new    ;}
	.st14{fill:#333333;}
</style>
<g id="Group_111" transform="translate(0 0.324)">
	<g id="Group_108" transform="translate(3.651)">
		<path id="Path_1047" class="st0" d="M35.9,0c19.8,0,35.9,16.1,35.9,35.9S55.7,71.8,35.9,71.8S0,55.7,0,35.9C0,16.1,16.1,0,35.9,0z
			"/>
		<circle id="Ellipse_14" class="st1" cx="35.7" cy="35.7" r="31.1"/>
	</g>
	<ellipse id="Ellipse_15" class="st2" cx="36.9" cy="18.3" rx="8.6" ry="8.6"/>
	<ellipse id="Ellipse_16" class="st3" cx="48" cy="20.1" rx="8.6" ry="8.6"/>
	<ellipse id="Ellipse_17" class="st3" cx="51" cy="32.4" rx="8.6" ry="8.6"/>
	<ellipse id="Ellipse_18" class="st3" cx="34.5" cy="17.7" rx="8.6" ry="8.6"/>
	
		<ellipse id="Ellipse_19" transform="matrix(0.961 -0.2766 0.2766 0.961 -8.1897 9.1518)" class="st3" cx="28.3" cy="33.6" rx="8.6" ry="15.9"/>
	<g id="Group_109" transform="translate(23.362 16.518)">
		<path id="Rectangle_165" class="st4" d="M4.3,7.4l8.4-4.9c2.4-1.4,5.4-0.6,6.8,1.8l10.1,17.5c1.4,2.4,0.6,5.4-1.8,6.8l-8.4,4.9
			c-2.4,1.4-5.4,0.6-6.8-1.8L2.5,14.2C1.1,11.8,1.9,8.8,4.3,7.4z"/>
		<ellipse id="Ellipse_20" class="st5" cx="10.5" cy="12" rx="0.7" ry="1.1"/>
		<ellipse id="Ellipse_21" class="st5" cx="22" cy="25.4" rx="0.4" ry="0.7"/>
		<ellipse id="Ellipse_22" class="st5" cx="22.3" cy="13.9" rx="0.7" ry="0.9"/>
		
			<ellipse id="Ellipse_23" transform="matrix(0.7071 -0.7071 0.7071 0.7071 -15.7717 17.4042)" class="st5" cx="13.1" cy="27.7" rx="0.7" ry="0.4"/>
		<ellipse id="Ellipse_24" class="st5" cx="7.3" cy="13.9" rx="0.4" ry="0.9"/>
		<ellipse id="Ellipse_25" class="st5" cx="15.7" cy="26.9" rx="0.7" ry="0.5"/>
		<ellipse id="Ellipse_26" class="st5" cx="15.1" cy="19.8" rx="0.4" ry="0.7"/>
		<ellipse id="Ellipse_27" class="st5" cx="21.2" cy="11.5" rx="0.4" ry="0.7"/>
		
			<ellipse id="Ellipse_28" transform="matrix(0.3572 -0.934 0.934 0.3572 2.845 24.7239)" class="st5" cx="19.4" cy="10.3" rx="0.7" ry="0.5"/>
		<circle id="Ellipse_29" class="st5" cx="13.3" cy="13.5" r="0.4"/>
		
			<ellipse id="Ellipse_30" transform="matrix(9.296910e-02 -0.9957 0.9957 9.296910e-02 0.2322 49.8471)" class="st5" cx="27.5" cy="24.8" rx="0.9" ry="0.7"/>
		<circle id="Ellipse_31" class="st5" cx="23.8" cy="21.8" r="0.4"/>
		<circle id="Ellipse_32" class="st5" cx="18.3" cy="30.2" r="0.7"/>
		<circle id="Ellipse_33" class="st5" cx="11.4" cy="25.9" r="0.7"/>
		<circle id="Ellipse_34" class="st5" cx="14.4" cy="8.1" r="0.7"/>
		<ellipse id="Ellipse_35" class="st5" cx="20.5" cy="19.6" rx="0.7" ry="0.4"/>
		<circle id="Ellipse_36" class="st5" cx="17.7" cy="7.4" r="0.4"/>
		<circle id="Ellipse_37" class="st5" cx="11.8" cy="16.3" r="0.7"/>
		<circle id="Ellipse_38" class="st5" cx="25.5" cy="17.8" r="0.4"/>
		<circle id="Ellipse_39" class="st5" cx="17.9" cy="23.3" r="0.7"/>
		<circle id="Ellipse_40" class="st5" cx="8.6" cy="17.8" r="0.4"/>
		<circle id="Ellipse_41" class="st5" cx="6.2" cy="16.3" r="0.2"/>
		<circle id="Ellipse_42" class="st5" cx="4.4" cy="13.3" r="0.2"/>
		<circle id="Ellipse_43" class="st5" cx="6.7" cy="11.1" r="0.3"/>
		<circle id="Ellipse_44" class="st5" cx="12.3" cy="18.9" r="0.2"/>
		<circle id="Ellipse_45" class="st5" cx="28.6" cy="23.1" r="0.4"/>
		<circle id="Ellipse_46" class="st5" cx="17.5" cy="25.9" r="0.2"/>
		<circle id="Ellipse_47" class="st5" cx="25.1" cy="25.2" r="0.4"/>
		<circle id="Ellipse_48" class="st5" cx="21.4" cy="22.4" r="0.2"/>
		<circle id="Ellipse_49" class="st5" cx="19.9" cy="16.1" r="0.4"/>
		<circle id="Ellipse_50" class="st5" cx="4.6" cy="15.2" r="0.4"/>
		<circle id="Ellipse_51" class="st5" cx="16.6" cy="16.8" r="0.2"/>
		<circle id="Ellipse_52" class="st5" cx="10.5" cy="13.7" r="0.2"/>
		<ellipse id="Ellipse_53" class="st5" cx="15.8" cy="14.8" rx="0.4" ry="0.7"/>
		<ellipse id="Ellipse_54" class="st5" cx="23.8" cy="25.5" rx="0.3" ry="0.4"/>
		<ellipse id="Ellipse_55" class="st5" cx="23.6" cy="17" rx="0.4" ry="0.6"/>
		
			<ellipse id="Ellipse_56" transform="matrix(0.7071 -0.7071 0.7071 0.7071 -10.9136 17.5264)" class="st5" cx="15.7" cy="21.9" rx="0.7" ry="0.5"/>
		<ellipse id="Ellipse_57" class="st5" cx="24.5" cy="27.8" rx="0.3" ry="0.6"/>
		<ellipse id="Ellipse_58" class="st5" cx="19.1" cy="27.7" rx="0.7" ry="0.6"/>
		<ellipse id="Ellipse_59" class="st5" cx="18.8" cy="20.9" rx="0.3" ry="0.4"/>
		<ellipse id="Ellipse_60" class="st5" cx="19.1" cy="14.2" rx="0.3" ry="0.4"/>
		
			<ellipse id="Ellipse_61" transform="matrix(0.3572 -0.934 0.934 0.3572 -1.2549 30.7561)" class="st5" cx="21.7" cy="16.3" rx="0.4" ry="0.3"/>
		<circle id="Ellipse_62" class="st5" cx="18.3" cy="15.8" r="0.3"/>
		
			<ellipse id="Ellipse_63" transform="matrix(9.296910e-02 -0.9957 0.9957 9.296910e-02 2.6305 47.2631)" class="st5" cx="27.3" cy="22.2" rx="0.6" ry="0.4"/>
		<circle id="Ellipse_64" class="st5" cx="24.6" cy="22.2" r="0.3"/>
		<circle id="Ellipse_65" class="st5" cx="20.7" cy="27.4" r="0.4"/>
		<circle id="Ellipse_66" class="st5" cx="16.7" cy="24.7" r="0.4"/>
		<circle id="Ellipse_67" class="st5" cx="18.1" cy="12.8" r="0.4"/>
		<ellipse id="Ellipse_68" class="st5" cx="22.5" cy="20.7" rx="0.4" ry="0.3"/>
		<circle id="Ellipse_69" class="st5" cx="16.7" cy="18.6" r="0.4"/>
		<circle id="Ellipse_70" class="st5" cx="25.2" cy="19" r="0.3"/>
		<circle id="Ellipse_71" class="st5" cx="20.3" cy="23.1" r="0.4"/>
		<circle id="Ellipse_72" class="st5" cx="14.1" cy="19.6" r="0.3"/>
		<circle id="Ellipse_73" class="st5" cx="12.9" cy="18.6" r="0.1"/>
		<circle id="Ellipse_74" class="st5" cx="11.7" cy="16.5" r="0.1"/>
		<circle id="Ellipse_75" class="st5" cx="13.3" cy="15.1" r="0.2"/>
		<circle id="Ellipse_76" class="st5" cx="17" cy="20.3" r="0.1"/>
		<circle id="Ellipse_77" class="st5" cx="18.6" cy="24.2" r="0.3"/>
		<circle id="Ellipse_78" class="st5" cx="20.6" cy="25.5" r="0.1"/>
		<circle id="Ellipse_79" class="st5" cx="25.8" cy="23.3" r="0.3"/>
		<circle id="Ellipse_80" class="st5" cx="23.1" cy="22.6" r="0.1"/>
		<circle id="Ellipse_81" class="st5" cx="22" cy="18.4" r="0.3"/>
		<circle id="Ellipse_82" class="st5" cx="21" cy="17.3" r="0.3"/>
		<circle id="Ellipse_83" class="st5" cx="19.9" cy="18.9" r="0.1"/>
		<circle id="Ellipse_84" class="st5" cx="15.8" cy="16.8" r="0.1"/>
		<ellipse id="Ellipse_85" class="st5" cx="13.2" cy="6.5" rx="0.4" ry="0.7"/>
		<ellipse id="Ellipse_86" class="st5" cx="19.9" cy="17.3" rx="0.3" ry="0.4"/>
		<ellipse id="Ellipse_87" class="st5" cx="21" cy="8.7" rx="0.4" ry="0.6"/>
		
			<ellipse id="Ellipse_88" transform="matrix(0.7071 -0.7071 0.7071 0.7071 -2.7159 15.5715)" class="st5" cx="17.4" cy="11.1" rx="0.7" ry="0.5"/>
		<ellipse id="Ellipse_89" class="st5" cx="11" cy="8.7" rx="0.3" ry="0.6"/>
		<ellipse id="Ellipse_90" class="st5" cx="23.5" cy="19.4" rx="0.7" ry="0.6"/>
		<ellipse id="Ellipse_91" class="st5" cx="16.7" cy="13.1" rx="0.3" ry="0.4"/>
		<ellipse id="Ellipse_92" class="st5" cx="17.4" cy="5.5" rx="0.3" ry="0.4"/>
		
			<ellipse id="Ellipse_93" transform="matrix(0.3572 -0.934 0.934 0.3572 6.4111 21.8897)" class="st5" cx="19.1" cy="6.3" rx="0.4" ry="0.3"/>
		<circle id="Ellipse_94" class="st5" cx="15.7" cy="7.5" r="0.3"/>
		
			<ellipse id="Ellipse_95" transform="matrix(9.296910e-02 -0.9957 0.9957 9.296910e-02 8.0967 36.7375)" class="st5" cx="24.2" cy="13.9" rx="0.6" ry="0.4"/>
		<circle id="Ellipse_96" class="st5" cx="22" cy="13.9" r="0.3"/>
		<circle id="Ellipse_97" class="st5" cx="17.8" cy="19.6" r="0.4"/>
		<circle id="Ellipse_98" class="st5" cx="15.5" cy="4.5" r="0.4"/>
		<ellipse id="Ellipse_99" class="st5" cx="19.9" cy="12.5" rx="0.4" ry="0.3"/>
		<circle id="Ellipse_100" class="st5" cx="14.6" cy="10.9" r="0.4"/>
		<circle id="Ellipse_101" class="st5" cx="22.6" cy="10.7" r="0.3"/>
		<circle id="Ellipse_102" class="st5" cx="24.6" cy="15.7" r="0.4"/>
		<circle id="Ellipse_103" class="st5" cx="11.9" cy="11.3" r="0.3"/>
		<circle id="Ellipse_104" class="st5" cx="10.3" cy="10.3" r="0.1"/>
		<circle id="Ellipse_105" class="st5" cx="9.1" cy="8.3" r="0.1"/>
		<circle id="Ellipse_106" class="st5" cx="10.7" cy="6.8" r="0.2"/>
		<circle id="Ellipse_107" class="st5" cx="14.4" cy="12" r="0.1"/>
		<circle id="Ellipse_108" class="st5" cx="15.9" cy="16" r="0.3"/>
		<circle id="Ellipse_109" class="st5" cx="18.4" cy="17.3" r="0.1"/>
		<circle id="Ellipse_110" class="st5" cx="23.2" cy="16" r="0.3"/>
		<circle id="Ellipse_111" class="st5" cx="20.4" cy="14.4" r="0.1"/>
		<circle id="Ellipse_112" class="st5" cx="15.9" cy="9.3" r="0.3"/>
		<circle id="Ellipse_113" class="st5" cx="18.4" cy="9" r="0.3"/>
		<circle id="Ellipse_114" class="st5" cx="15.9" cy="11.5" r="0.1"/>
		<circle id="Ellipse_115" class="st5" cx="13.2" cy="8.6" r="0.1"/>
		<ellipse id="Ellipse_116" class="st5" cx="7.5" cy="10" rx="0.4" ry="0.7"/>
		<ellipse id="Ellipse_117" class="st5" cx="26" cy="20.7" rx="0.3" ry="0.4"/>
		<ellipse id="Ellipse_118" class="st5" cx="14.9" cy="13.1" rx="0.4" ry="0.6"/>
		
			<ellipse id="Ellipse_119" transform="matrix(0.7071 -0.7071 0.7071 0.7071 -9.951 10.2824)" class="st5" cx="7.4" cy="17.2" rx="0.7" ry="0.5"/>
		<ellipse id="Ellipse_120" class="st5" cx="5.4" cy="12.2" rx="0.3" ry="0.6"/>
		<ellipse id="Ellipse_121" class="st5" cx="10.9" cy="22.5" rx="0.7" ry="0.6"/>
		<ellipse id="Ellipse_122" class="st5" cx="10.6" cy="16.1" rx="0.3" ry="0.4"/>
		<ellipse id="Ellipse_123" class="st5" cx="12.2" cy="9.4" rx="0.3" ry="0.4"/>
		
			<ellipse id="Ellipse_124" transform="matrix(0.3572 -0.934 0.934 0.3572 -1.2851 19.4042)" class="st5" cx="13.5" cy="10.6" rx="0.4" ry="0.3"/>
		<circle id="Ellipse_125" class="st5" cx="9.1" cy="11.5" r="0.3"/>
		
			<ellipse id="Ellipse_126" transform="matrix(9.296910e-02 -0.9957 0.9957 9.296910e-02 -0.4946 34.2646)" class="st5" cx="18.6" cy="17.4" rx="0.6" ry="0.4"/>
		<circle id="Ellipse_127" class="st5" cx="16.4" cy="17.4" r="0.3"/>
		<circle id="Ellipse_128" class="st5" cx="12.2" cy="23.1" r="0.4"/>
		<circle id="Ellipse_129" class="st5" cx="8.4" cy="19.9" r="0.4"/>
		<circle id="Ellipse_130" class="st5" cx="9.9" cy="8" r="0.4"/>
		<ellipse id="Ellipse_131" class="st5" cx="14.2" cy="15.5" rx="0.4" ry="0.3"/>
		<circle id="Ellipse_132" class="st5" cx="9" cy="13.9" r="0.4"/>
		<circle id="Ellipse_133" class="st5" cx="17" cy="14.2" r="0.3"/>
		<circle id="Ellipse_134" class="st5" cx="10.7" cy="17.8" r="0.4"/>
		<circle id="Ellipse_135" class="st5" cx="6.2" cy="14.8" r="0.3"/>
		<circle id="Ellipse_136" class="st5" cx="4.6" cy="13.8" r="0.1"/>
		<circle id="Ellipse_137" class="st5" cx="3.5" cy="11.8" r="0.1"/>
		<circle id="Ellipse_138" class="st5" cx="5" cy="10.3" r="0.2"/>
		<circle id="Ellipse_139" class="st5" cx="8.7" cy="15.5" r="0.1"/>
		<circle id="Ellipse_140" class="st5" cx="10.3" cy="19.4" r="0.3"/>
		<circle id="Ellipse_141" class="st5" cx="12.8" cy="20.7" r="0.1"/>
		<circle id="Ellipse_142" class="st5" cx="25.8" cy="26.4" r="0.3"/>
		<circle id="Ellipse_143" class="st5" cx="14.8" cy="17.8" r="0.1"/>
		<circle id="Ellipse_144" class="st5" cx="14.6" cy="5.8" r="0.3"/>
		<circle id="Ellipse_145" class="st5" cx="12.3" cy="12.5" r="0.3"/>
		<circle id="Ellipse_146" class="st5" cx="11.6" cy="14.1" r="0.1"/>
		<circle id="Ellipse_147" class="st5" cx="7.5" cy="12" r="0.1"/>
		<ellipse id="Ellipse_148" class="st5" cx="6.7" cy="19.1" rx="0.4" ry="0.7"/>
		<ellipse id="Ellipse_149" class="st5" cx="20.3" cy="29.9" rx="0.3" ry="0.4"/>
		<ellipse id="Ellipse_150" class="st5" cx="19.7" cy="21.3" rx="0.4" ry="0.6"/>
		
			<ellipse id="Ellipse_151" transform="matrix(0.7071 -0.7071 0.7071 0.7071 -12.5255 17.113)" class="st5" cx="14.4" cy="23.7" rx="0.7" ry="0.5"/>
		<ellipse id="Ellipse_152" class="st5" cx="9.7" cy="21.3" rx="0.3" ry="0.6"/>
		<ellipse id="Ellipse_153" class="st5" cx="14.8" cy="31.2" rx="0.7" ry="0.6"/>
		<ellipse id="Ellipse_154" class="st5" cx="14.9" cy="25.2" rx="0.3" ry="0.4"/>
		<ellipse id="Ellipse_155" class="st5" cx="15.2" cy="18.6" rx="0.3" ry="0.4"/>
		
			<ellipse id="Ellipse_156" transform="matrix(0.3572 -0.934 0.934 0.3572 -0.8702 38.2731)" class="st5" cx="27.4" cy="19.8" rx="0.4" ry="0.3"/>
		<circle id="Ellipse_157" class="st5" cx="13.5" cy="21.9" r="0.3"/>
		
			<ellipse id="Ellipse_158" transform="matrix(9.296910e-02 -0.9957 0.9957 9.296910e-02 -2.652 44.9443)" class="st5" cx="23.3" cy="23.9" rx="0.6" ry="0.4"/>
		<circle id="Ellipse_159" class="st5" cx="22.5" cy="27" r="0.3"/>
		<circle id="Ellipse_160" class="st5" cx="16.5" cy="32.2" r="0.4"/>
		<circle id="Ellipse_161" class="st5" cx="12.8" cy="29" r="0.4"/>
		<circle id="Ellipse_162" class="st5" cx="14.2" cy="17.1" r="0.4"/>
		<ellipse id="Ellipse_163" class="st5" cx="18.6" cy="25.1" rx="0.4" ry="0.3"/>
		<circle id="Ellipse_164" class="st5" cx="13.8" cy="26.1" r="0.4"/>
		<circle id="Ellipse_165" class="st5" cx="21.3" cy="23.3" r="0.3"/>
		<circle id="Ellipse_166" class="st5" cx="17.7" cy="27.8" r="0.4"/>
		<circle id="Ellipse_167" class="st5" cx="10.6" cy="23.9" r="0.3"/>
		<circle id="Ellipse_168" class="st5" cx="9" cy="22.9" r="0.1"/>
		<circle id="Ellipse_169" class="st5" cx="7.8" cy="20.9" r="0.1"/>
		<circle id="Ellipse_170" class="st5" cx="9.4" cy="19.4" r="0.2"/>
		<circle id="Ellipse_171" class="st5" cx="13.1" cy="24.7" r="0.1"/>
		<circle id="Ellipse_172" class="st5" cx="14.6" cy="28.6" r="0.3"/>
		<circle id="Ellipse_173" class="st5" cx="17.1" cy="29.9" r="0.1"/>
		<circle id="Ellipse_174" class="st5" cx="21.9" cy="28.6" r="0.3"/>
		<circle id="Ellipse_175" class="st5" cx="19.6" cy="26.5" r="0.1"/>
		<circle id="Ellipse_176" class="st5" cx="18.1" cy="21.5" r="0.3"/>
		<circle id="Ellipse_177" class="st5" cx="16.7" cy="21.6" r="0.3"/>
		<circle id="Ellipse_178" class="st5" cx="15.9" cy="23.2" r="0.1"/>
		<circle id="Ellipse_179" class="st5" cx="11.9" cy="21.2" r="0.1"/>
	</g>
	<g id="Group_110" transform="translate(0 25.793)">
		<path id="Path_1044" class="st6" d="M0,38.5c-0.3-2.8,4.7-3.9,8.9-9c2.4-2.9,3.7-6,5-9.3c1.3-3.2,1.2-3.9,2.8-7.2
			c1.7-3.7,2.2-3.5,3.3-6.5c0.9-2.3,1.3-4.3,2.1-4.3c0.6,0,1.1,1,1.3,1.2c0.6,1.1,0.5,2.3-0.2,4.7c-0.8,2.8-1.3,3.6-2.1,6.3
			c-0.5,1.8-0.9,3.5-0.4,3.8c0.5,0.3,1.6-0.8,3.2-2.5c5.6-6,10.1-11,12.4-14.2c0.3-0.4,0.7-0.8,1.1-1c0.9-0.5,2.6-0.8,3.3,0
			c0.8,1-0.2,2.8-0.3,2.9c-0.2,0.4-0.4,0.7-0.7,1c-2.7,2.9-5.2,6-7.6,9.2c-1.1,1.4-2.5,3.3-2.3,3.5c0.3,0.3,2.5-1.7,3.3-2.4
			C36,12.4,43.7,5.3,45.7,3.6c0.3-0.3,0.8-0.5,1.2-0.6c1-0.3,2,0,2.7,0.8c0.4,0.8,0.4,1.8,0,2.7c-0.2,0.4-0.4,0.7-0.7,1
			C47,9.1,40.2,14.8,36.5,19c-0.5,0.5-2,2.3-1.8,2.5c0.1,0.1,0.4,0.1,3.9-2.4c6.1-4.4,9.1-6.6,10.4-7.9c0.4-0.5,1-0.8,1.5-1.1
			c0.1,0,2.4-1,3.3,0c0.8,0.9-0.2,2.8-0.3,3c-0.2,0.4-0.4,0.7-0.7,1c-2,2-9.8,7.5-13.8,11c-1.1,0.9-1.9,1.8-1.8,2
			c0.2,0.3,2.1-0.6,2.8-0.9c3.7-1.8,7.3-3.9,10.6-6.3c0.5-0.3,1-0.6,1.6-0.7c0.2,0,2-0.3,2.7,0.8s-0.4,2.6-0.5,2.8
			c-0.3,0.4-0.7,0.8-1.1,1c-4.2,2.4-8.3,5.1-12.6,7.4c-1.4,0.8-3.6,2.3-8.2,5.5c-5.1,3.5-7.6,5.3-8.9,6.4c-6.6,5.9-8.4,11.7-11.2,11
			c-0.5-0.1-1-0.7-2-1.8c-3.4-3.8-6.5-7.7-9.4-11.9C0.2,39.2,0.1,39,0,38.5z"/>
	</g>
	<circle id="Ellipse_180" class="st7" cx="32.1" cy="32.4" r="2.4"/>
	<circle id="Ellipse_181" class="st7" cx="47.6" cy="34.4" r="1.7"/>
	<circle id="Ellipse_182" class="st7" cx="40.6" cy="44.4" r="1.7"/>
	<circle id="Ellipse_183" class="st7" cx="46.7" cy="13.9" r="1.7"/>
	<circle id="Ellipse_184" class="st7" cx="58.9" cy="17" r="1.7"/>
	<circle id="Ellipse_185" class="st7" cx="54.1" cy="22.2" r="2.4"/>
</g>
<g id="Group_113" transform="translate(120.88)">
	<path id="Path_1048" d="M8.8,0H67c1.4,0,2.5,1.1,2.5,2.5l0,0v58.2c0,1.4-1.1,2.5-2.5,2.5l0,0H8.8c-1.4,0-2.5-1.1-2.5-2.5
		c0,0,0,0,0,0V2.5C6.3,1.1,7.4,0,8.8,0z"/>
	<path id="Rectangle_167" class="st8" d="M9.4,0h57c1.7,0,3.1,1.4,3.1,3.1v2.2c0,1.7-1.4,3.1-3.1,3.1h-57C7.7,8.4,6.3,7,6.3,5.3V3.1
		C6.3,1.4,7.7,0,9.4,0z"/>
	<path id="Rectangle_168" class="st9" d="M31.4,2.1H44c0.3,0,0.6,0.3,0.6,0.6v3.1c0,0.3-0.3,0.6-0.6,0.6H31.4
		c-0.3,0-0.6-0.3-0.6-0.6V2.7C30.9,2.4,31.1,2.1,31.4,2.1z"/>
	<circle id="Ellipse_186" class="st9" cx="50.2" cy="4.2" r="1.8"/>
	<circle id="Ellipse_187" class="st9" cx="57.9" cy="4.2" r="1.8"/>
	<rect id="Rectangle_169" x="6.3" y="8.4" class="st8" width="3.9" height="54.7"/>
	<rect id="Rectangle_170" x="65.8" y="6" class="st8" width="3.9" height="56.3"/>
	<line id="Line_16" class="st10" x1="6.5" y1="7.9" x2="69.6" y2="7.9"/>
	<circle id="Ellipse_188" class="st0" cx="21.1" cy="19" r="7.5"/>
	<circle id="Ellipse_189" class="st11" cx="21.1" cy="18.9" r="5.9"/>
	<circle id="Ellipse_190" class="st0" cx="37.6" cy="19" r="7.5"/>
	<circle id="Ellipse_191" class="st11" cx="37.5" cy="18.9" r="5.9"/>
	<circle id="Ellipse_192" class="st0" cx="54.6" cy="19" r="7.5"/>
	<circle id="Ellipse_193" class="st11" cx="54.6" cy="18.9" r="5.9"/>
	<g id="Group_112" transform="translate(0 21.581)">
		<path id="Path_1045" class="st0" d="M0.3,0h76.4C76.9,0,77,0.2,77,0.3c0,0,0,0,0,0l-6.7,49.1c0,0.2-1.1,9.3-1.2,9.3H7.6
			c-0.2,0-1.1-9.1-1.1-9.3L0,0.4C0,0.2,0.1,0,0.3,0C0.3,0,0.3,0,0.3,0z"/>
		<path id="Path_1046" class="st8" d="M76.1,4.5H0.9c-0.1,0-0.2-0.1-0.2-0.2L0,0.2C0,0.1,0.1,0,0.2,0c0,0,0,0,0,0h76.6
			C76.9,0,77,0.1,77,0.2c0,0,0,0,0,0c-0.2,1.4-0.4,2.7-0.7,4.1C76.3,4.4,76.2,4.5,76.1,4.5z"/>
	</g>
	<path id="Rectangle_171" class="st12" d="M31.2,29.5h13c0.8,0,1.4,0.6,1.4,1.4l0,0c0,0.8-0.6,1.4-1.4,1.4h-13
		c-0.8,0-1.4-0.6-1.4-1.4l0,0C29.8,30.1,30.4,29.5,31.2,29.5z"/>
</g>
<g class="st13">
	<path class="st14" d="M79.8,35.2c0-3.8,3-6.7,7-6.7s7,2.8,7,6.7s-3,6.7-7,6.7S79.8,39.1,79.8,35.2z M91.4,35.2
		c0-2.7-1.9-4.6-4.6-4.6s-4.6,1.9-4.6,4.6s1.9,4.6,4.6,4.6S91.4,37.9,91.4,35.2z"/>
	<path class="st14" d="M104.9,41.7l-2.7-3.8c-0.2,0-0.3,0-0.5,0h-2.9v3.8h-2.4v-13h5.3c3.4,0,5.5,1.7,5.5,4.6c0,2-1,3.4-2.8,4.1
		l3,4.3H104.9z M101.6,30.8h-2.8V36h2.8c2.1,0,3.2-1,3.2-2.6S103.7,30.8,101.6,30.8z"/>
</g>
</svg>
