<?xml version="1.0" encoding="utf-8"?>
<!-- Generator: Adobe Illustrator 26.3.1, SVG Export Plug-In . SVG Version: 6.00 Build 0)  -->
<svg version="1.1" id="Layer_1" xmlns="http://www.w3.org/2000/svg" xmlns:xlink="http://www.w3.org/1999/xlink" x="0px" y="0px"
	 viewBox="0 0 213.4 61.1" style="enable-background:new 0 0 213.4 61.1;" xml:space="preserve">
<style type="text/css">
	.st0{fill:#E89D52;stroke:#8FBBDE;}
	.st1{fill:#405E76;}
	.st2{fill:#999999;}
	.st3{fill:#39B54A;}
	.st4{fill:#8CC63F;}
	.st5{fill:#009245;}
	.st6{enable-background:new    ;}
	.st7{fill:#333333;}
</style>
<g id="Group_105" transform="translate(0.294)">
	<g id="Group_103" transform="translate(0)">
		<ellipse id="Ellipse_12" class="st0" cx="44.6" cy="18.8" rx="44.4" ry="12.7"/>
		<path id="Path_1023" class="st1" d="M0,19.4c0.1,4.7,0.9,9.3,2.3,13.8c1,3.3,2.4,6.5,4.1,9.4c1.7,3.2,3.9,6.1,6.6,8.6
			c4.3,4,8.7,5.5,13.1,7c6.1,2,12.5,2.9,18.9,2.9c6.7,0,13.4-1.1,19.7-3.3c4-1.2,7.7-3,11.1-5.3c3.7-2.5,6.7-5.7,9-9.4l0.1-0.2
			c1.8-3.1,3-6.5,3.6-10.1c0.8-4.5,1.1-9.2,0.6-13.8c-1.5,2.4-3.4,4.5-5.8,6.2c-2.3,0.9-4.6,1.8-7,2.5c-3.9,1.1-7.9,1.9-11.9,2.5
			c-2.3,0.3-6.5,0.9-11.9,1.2c-5.5,0.3-11,0.3-16.4,0c-5.8-0.3-9.8-0.8-13.1-1.2c0,0-8.5-1.1-14.4-3.7c-0.9-0.4-1.9-0.9-2.7-1.5
			c-0.6-0.4-1.2-0.9-1.8-1.4C2.6,22.3,1.3,20.9,0,19.4z"/>
		<path id="Path_1024" class="st1" d="M4.7,24.6c-0.2-0.4-0.4-0.8-0.4-1.2c-0.1-3.5,8.5-6.4,11.5-7.4c19-6.4,67.4-4.7,69,7
			c0.1,0.4,0.1,0.8,0,1.2c0.7-0.4,4.2-2.3,4.3-5.1c0-1.7-1.2-3.2-2.8-4.5c-3.2-2.7-11.8-7.7-41-8.4h0c-8.1-0.2-16.1,0.5-24,1.8
			C9.5,10.1,5.5,12.8,3.7,14.1c-0.9,0.6-1.7,1.3-2.5,2.1c-0.7,1.3-1,2.8-0.7,4.2C1.2,22.4,2.7,23.9,4.7,24.6z"/>
		<path id="Path_1025" class="st2" d="M72.9,18.8c1.4-2.9,2.7-5.2,3.7-6.9c2.6-4.4,5.4-8,9.2-10.6c1.4-1,2.8-1.6,4.1-1.2
			c1.3,0.4,2.3,1.5,2.5,2.9c0.1,2.2-3.2,2.6-7,7c-1.4,1.7-2.6,3.5-3.7,5.3c-1.2,1.9-2.2,3.6-2.9,4.9"/>
	</g>
	<g id="Group_104" transform="translate(127.679 2.395)">
		<path id="Path_1026" class="st1" d="M4.2,23.4c-0.2-0.4-0.4-0.8-0.4-1.2c-0.1-3.3,8.2-6.1,11.1-7.1c18.3-6.1,64.8-4.6,66.3,6.7
			c0.1,0.4,0.1,0.8,0,1.2c0.7-0.4,4.1-2.2,4.1-4.9c0-1.7-1.1-3.1-2.7-4.3c-3.1-2.6-11.3-7.4-39.3-8.1h0c-7.7-0.2-15.5,0.4-23.1,1.8
			C10.2,9.2,6,11.4,4,12.8c-0.4,0.3-0.8,0.6-0.8,0.6c-0.9,0.6-1.7,1.2-2.4,2c-0.8,1.2-1,2.7-0.6,4.1C0.8,21.3,2.2,22.8,4.2,23.4z"/>
		<path id="Path_1027" class="st2" d="M65.3,18.1c1.3-2.8,2.6-5,3.5-6.6c2.5-4.2,5.2-7.7,8.9-10.2c1.4-0.9,2.7-1.6,3.9-1.2
			c1.3,0.4,2.2,1.5,2.4,2.8C84.2,5,81,5.4,77.4,9.6c-1.3,1.6-2.5,3.3-3.6,5.1c-1.2,1.9-2.1,3.5-2.8,4.7"/>
		<path id="Path_1028" class="st3" d="M49.2,9.7c0,0-4.6-6.9-12.9-1.7c-2,1.6-2.8-3.8-10.3-1.5s-4.8,8.7,1.7,10.4
			c6.5,1.7-0.6,1.7,4.2,5.3s-3.3,2.9,6.8,3.8c-0.1,0.1,20.8-4,20.8-4l-3.2-8.5L49.2,9.7z"/>
		<path id="Path_1029" class="st4" d="M54,19.5c-3.6-0.7-6-3.7-5.9-6.7c0.1-2.2,1.5-4.2,3.6-5.1c2.5-0.9,3.5,1.2,6.7,0.8
			c3.5-0.5,3.8-3.2,7.5-3.6c0.5,0,3.3-0.3,4.5,1.4c0.6,1,0.8,2.1,0.6,3.2C69.9,16.7,58.7,20,58.7,20L54,19.5z"/>
		<path id="Path_1030" class="st1" d="M0,18.5c0.1,4.5,0.8,8.9,2.2,13.2c1,3.2,2.3,6.2,3.9,9.1c1.7,3.1,3.8,5.9,6.3,8.3
			c4.1,3.8,8.3,5.3,12.6,6.7c5.8,1.9,11.9,2.8,18.1,2.8c6.4,0,12.8-1.1,18.9-3.2c3.8-1.1,7.4-2.9,10.6-5.1c3.5-2.4,6.5-5.5,8.6-9.1
			c0-0.1,0.1-0.1,0.1-0.2c1.7-3,2.8-6.3,3.4-9.7c0.8-4.4,1-8.8,0.6-13.2c-1.4,2.3-3.3,4.4-5.5,5.9c-2.2,0.9-4.4,1.7-6.7,2.4
			c-3.7,1.1-7.5,1.9-11.4,2.4c-2.2,0.3-6.3,0.9-11.4,1.2c-5.2,0.3-10.5,0.3-15.7,0c-5.6-0.3-9.4-0.8-12.6-1.2c0,0-8.2-1.1-13.8-3.6
			c-0.9-0.4-1.8-0.9-2.6-1.4c-0.6-0.4-1.2-0.8-1.7-1.3C2.5,21.2,1.2,19.9,0,18.5z"/>
		<path id="Path_1031" class="st3" d="M58.6,18.1c0.2-0.9,0.7-1.6,1.4-2.2c1.6-1.1,3.2,0,5.1-0.8c1.8-0.8,1.6-2.4,3.2-3.9
			c3.2-3.2,10.6-2.8,12.2,0c0.9,1.4-0.5,2.2,0,5.5c0.5,3.3,2.2,4.8,1.4,6.2c-0.6,0.8-1.5,1.3-2.5,1.3c-2.4-0.9-5-1-7.5-0.4l-3.9-1.2
			L63.6,25c0.4-1.4,0.3-2.9-0.4-4.2C62.2,19.2,60.5,18.2,58.6,18.1z"/>
		<path id="Path_1032" class="st5" d="M38.2,30.1c0,0-1.1-8,8.6-8.5s5-3.3,11.9-3.5c5.2-0.1,4.4,4.4,6.2,5.2c1.1,0.5,2.2-0.3,3-0.6
			c2-0.9,5.4-1.3,11.5,1.5c-1.5,0.6-3.6,1.4-6.3,2.2c-4.2,1.2-8.4,2-12.7,2.6c-4.1,0.6-8.1,1-12.2,1.2
			C44.3,30.3,40.9,30.2,38.2,30.1z"/>
		<path id="Path_1033" class="st4" d="M43,22.6c0.4-1.7-1.2-4.1-3.2-5.1c-2.7-1.4-4.2,0.8-8.3,0c-4-0.7-4.1-3.1-7.5-3.2
			c-2.8,0-5.4,1.3-7.1,3.6c-1,1.4-1.5,3-1.6,4.7c-0.1,1.8,0.3,3.6,1.2,5.1c2.3,0.4,4.6,0.8,7.1,1.2c4.8,0.7,9.7,1.1,14.6,1.2
			c0.2-1.4,0.8-2.8,1.6-3.9C41.3,24.1,42.7,24,43,22.6z"/>
		<path id="Path_1034" class="st5" d="M16.6,27.7c-0.4-2.7-0.3-5.8,1.6-7.5c3-2.7,8.2,0.5,10.3-2c1.7-2.1,0.4-7-2-7.9
			c-1.7-0.7-2.8,1.3-6.3,1.6c-2.9,0.2-3.3-1-6.3-1.2c-3.7-0.2-7.3,1.3-9.9,4c-1.7,1.9-3.5,5.2-2.4,7.1c0.3,0.5,0.6,0.3,3.9,2
			c1,0.5,1.4,0.7,2.4,1.2c0.2,0.1,1.5,0.7,2.8,1.2C12.6,26.9,14.6,27.4,16.6,27.7z"/>
	</g>
	<g class="st6">
		<path class="st7" d="M93.4,30.6c0-3.8,3-6.7,7-6.7s7,2.8,7,6.7s-3,6.7-7,6.7S93.4,34.5,93.4,30.6z M104.9,30.6
			c0-2.7-1.9-4.6-4.6-4.6s-4.6,1.9-4.6,4.6s1.9,4.6,4.6,4.6S104.9,33.3,104.9,30.6z"/>
		<path class="st7" d="M118.4,37.1l-2.7-3.8c-0.2,0-0.3,0-0.5,0h-2.9v3.8h-2.4v-13h5.3c3.4,0,5.5,1.7,5.5,4.6c0,2-1,3.4-2.8,4.1
			l3,4.3H118.4z M115.2,26.2h-2.8v5.2h2.8c2.1,0,3.2-1,3.2-2.6S117.3,26.2,115.2,26.2z"/>
	</g>
</g>
</svg>
