<?xml version="1.0" encoding="utf-8"?>
<!-- Generator: Adobe Illustrator 26.3.1, SVG Export Plug-In . SVG Version: 6.00 Build 0)  -->
<svg version="1.1" id="Layer_1" xmlns="http://www.w3.org/2000/svg" xmlns:xlink="http://www.w3.org/1999/xlink" x="0px" y="0px"
	 viewBox="0 0 192.4 85.1" style="enable-background:new 0 0 192.4 85.1;" xml:space="preserve">
<style type="text/css">
	.st0{fill:#8FBBDE;stroke:#000000;}
	.st1{fill:#387C7E;}
	.st2{fill:#387C7E;stroke:#405E76;stroke-width:2;}
	.st3{fill:none;stroke:#C1272D;stroke-width:2;}
	.st4{fill:#405E76;stroke:#405E76;stroke-width:2;}
	.st5{fill:none;stroke:#405E76;stroke-width:2;}
	.st6{enable-background:new    ;}
	.st7{fill:#333333;}
</style>
<g id="Group_107" transform="translate(1.001 0.849)">
	<path id="Path_1035" class="st0" d="M81.8,22.2"/>
	<path id="Path_1036" class="st1" d="M152.4,14c3.7,0.1,6.9-2.3,7.9-5.9c3.8-1.3,7.9-1.5,11.8-0.8c3.7,0.5,7.1,2.2,9.8,4.7
		c1.5,1.6,2.7,3.5,3.5,5.5c2.6,6.5,4.5,13.3,5.7,20.2c0.1,0.5,0.2,1,0.2,1.5L178,42.8c-0.1-0.4-0.2-0.8-0.3-1.2
		c-0.7-2.7-1.5-5.1-2-5.1c-0.8,0.1-0.6,5.8-0.4,10.2c0.3,7,0.8,17.1,1.6,29.9c-15.1,6.3-32.1,6.3-47.3,0c1.2-12.2,1.7-21.9,2-28.8
		c0.2-5.6,0.3-10.6-0.4-10.6c-0.5-0.1-1.3,2.9-2,5.5l-13.8-3.9c0.1-5,0.7-14.6,4.7-22.5c0.9-1.8,2.1-3.4,3.5-4.7
		c3.4-3,7.5-3.4,11.8-3.9c3.1-0.4,6.3-0.4,9.5,0C145.6,11.3,148.7,13.9,152.4,14z"/>
	<g id="Group_106">
		<path id="Path_1037" class="st2" d="M41.8,16.9c1.6-1.2,3.3-2.2,5.1-3.2c4-2.1,8.1-4.4,13-4.5c0.7,0,1.4,0,2.1,0.1
			c2.7,0.2,5.3,1.2,7.5,2.7c2.8,2.1,4.4,5,7.1,14.5c1.4,4.9,2.2,8.7,3.9,16.9c2.7,12.9,3,14.9,3.1,17.7c0.2,4.6,0,9.2-0.8,13.7
			c-3.9,1.6-8.4,1-11.8-1.6c0.1-2.8,0-5.5-0.4-8.2c-0.8-5.9-2.2-7.8-3.9-14.9c-1.8-7.3-1.9-11.8-2.4-11.8c-0.5,0-0.6,5.2-0.4,10.2
			c0.5,10,2.5,13.3,2.4,21.6c0,2.8-0.3,5.5-0.8,8.2c-15.1,6.3-32.1,6.3-47.1,0c-0.1-1.9-0.2-4.9,0-8.6c0.4-8.1,1.5-11.3,2-20
			c0-0.9,0.5-10.5-0.4-10.6c-0.4,0-0.9,2-2.8,9.4c-2.7,10.6-3.2,12.1-3.5,15.7c-0.3,3-0.3,6,0,9C9.7,76,4.9,76.6,0.4,75.1
			c-0.5-4.7-0.6-9.5-0.2-14.2c0.4-4.9,1-7.8,3.9-20c4.9-20.7,6.2-25.4,11-28.7c2-1.5,4.4-2.4,6.9-2.7c0.5-0.1,1-0.1,1.6-0.1
			c5.2-0.1,9.9,2.7,14.3,5.2C39.7,15.4,41,16.3,41.8,16.9z"/>
		<path id="Path_1038" class="st2" d="M23.9,0.3c-1.8,1.4-2.6,3.6-2.2,5.9c0.3,1.2,1,2.3,2,3.1c2.6,0.3,5.2,0.8,7.6,1.7
			c4.8,1.7,10.5,6,10.5,6c3.3-2.5,6.9-4.5,10.8-6c2.4-0.8,4.9-1.4,7.5-1.6c1.3-0.6,2.3-1.8,2.8-3.1c0.6-2.2-0.2-4.5-2-5.9
			c-0.5,0.1-1.3,0.3-2.3,0.5C53,1.9,48.7,2.6,48.2,2.7C42.1,3.7,29.5,1.5,23.9,0.3z"/>
		<path id="Path_1039" class="st3" d="M44.7,10.6"/>
		<path id="Path_1040" class="st4" d="M44.7,10.6c4.4-0.8,8.6-2.7,12.2-5.5L57,4.9c1.6-1.3,4.2-3.8,3.8-4.6C60.4-0.5,56.5,1,51,1.9
			c-5.7,0.9-11.6,0.9-17.3,0c-5.7-1-9.2-2.6-9.8-1.6c-0.6,1,1.8,3.3,2.6,4.1c3.4,3.2,7.6,5.3,12.2,6.1l3.1,6.3L44.7,10.6z"/>
		<line id="Line_15" class="st5" x1="41.9" y1="83.2" x2="41.8" y2="16.9"/>
		<path id="Path_1041" class="st4" d="M83.2,70.6c-1.9,0.7-4,1-6.1,0.8c-2.2-0.3-4.3-1.1-6.1-2.4v4.3c3.2,2.6,7.6,3.2,11.4,1.6
			L83.2,70.6z"/>
		<path id="Path_1042" class="st4" d="M0.3,70.6c1.6,0.7,3.3,1.1,5.1,1.2c2.9,0,5.7-0.8,8-2.5l0.2,4.1C9.7,76,4.9,76.6,0.4,75.1
			L0.3,70.6z"/>
		<path id="Path_1043" class="st4" d="M18.4,73.4c3,1.6,6.2,2.9,9.4,3.9c16.6,5,31.5-0.1,38.3-3l-0.6,4.1c0,0-20.8,10.6-47.1,0
			L18.4,73.4z"/>
	</g>
	<g class="st6">
		<path class="st7" d="M82.9,41c0-3.8,3-6.7,7-6.7s7,2.8,7,6.7c0,3.9-3,6.7-7,6.7S82.9,44.8,82.9,41z M94.4,41
			c0-2.7-1.9-4.6-4.6-4.6s-4.6,1.9-4.6,4.6c0,2.7,1.9,4.6,4.6,4.6S94.4,43.6,94.4,41z"/>
		<path class="st7" d="M107.9,47.5l-2.7-3.8c-0.2,0-0.3,0-0.5,0h-2.9v3.8h-2.4v-13h5.3c3.4,0,5.5,1.7,5.5,4.6c0,2-1,3.4-2.8,4.1
			l3,4.3H107.9z M104.7,36.5h-2.8v5.2h2.8c2.1,0,3.2-1,3.2-2.6S106.8,36.5,104.7,36.5z"/>
	</g>
</g>
</svg>
