<?xml version="1.0" encoding="UTF-8"?><svg id="Layer_2" xmlns="http://www.w3.org/2000/svg" viewBox="0 0 701.39 403.33"><defs><style>.cls-1{fill:#fff;}.cls-2{fill:#95a4b0;}.cls-3{fill:#384c6c;}</style></defs><g id="Layer_5"><g><g><path class="cls-3" d="M45.67,14.36c.7,.31,.87,.51,.81,.96-.02,.14,0,.3-.07,.4-.5,.72-.19,1.44,.06,2.06l-.77,.8-.43,.43s-.1,.04-.14,.08c-.02,.02-.03,.07-.04,.1l.16-.21,.43-.43q.94-.13,1.51-1.1c.15,.14,.41,.27,.43,.43,.09,.76,.11,1.52,.16,2.28-.58,.5-.42,1.2-.53,1.84-.11,.6-.44,1.15-.68,1.73,.27,.5,.56,.95,.77,1.44,.19,.44,.31,.92,.46,1.38l-2.42,.1,1.23,.95,1.17-1.07c.09-.09,.28-.18,.27-.26-.05-.73-.12-1.46-.21-2.19-.06-.52,.05-.94,.6-1.1l-.41-.78c.2-.76,.37-1.48,.59-2.19,.1-.31,.27-.64,.49-.87,.4-.41,.7-.84,.76-1.42l1.47-.61c-.03-.13-.03-.22-.07-.26-.85-.97-2.22-1.39-2.82-2.63,0,0-.1,.03-.22,.07l-.19,.6c.48,.44,.87,.82,1.27,1.17,.52,.45,.64,1.03,.59,1.68-.12,.07-.25,.13-.37,.2-.35,.21-.66,.18-.87-.19-.14-.24-.2-.64-.38-.7-1.49-.52-1.19-1.67-1.03-2.77-1.4-1.6-1.66-1.77-.08-3.67,.13-.16,.26-.33,.37-.47,.14-.67-.2-1.38,.34-1.97,.28-.31-.09-.4-.27-.6-.33-.36-.29-.4,.35-.95,.27,.31,.56,.6,.79,.93,.1,.14,.14,.4,.08,.56-.26,.74,.33,.79,.76,1.01,.63-.5-.06-.99-.02-1.54l.89-.08c-.03-.83-.51-1.59-.27-2.44,.02-.07-.16-.27-.25-.27-.19-.01-.5,0-.56,.12-.22,.39-.35,.83-.52,1.25-.61-.24-.68-.74-.82-1.2l.55-.65c-.36-1.04-.8-2.05-.62-3.18,.41-.29,.8-.45,1.35-.34,1.97,.42,3.96,.78,5.94,1.17,3.14,.62,6.28,1.27,9.42,1.89,4.1,.8,8.19,1.61,12.3,2.38,2.67,.5,5.35,.94,8.02,1.41,4.52,.8,9.04,1.63,13.56,2.41,2.19,.38,4.41,.64,6.61,.98,1.93,.3,3.85,.62,5.77,.94,1.37,.23,2.74,.46,4.12,.68,2.47,.4,4.94,.8,7.42,1.17,1.38,.21,2.76,.34,4.14,.53,1.45,.2,2.89,.43,4.33,.65,1.24,.19,2.47,.4,3.72,.55,2.62,.33,5.26,.6,7.88,.94,2.55,.34,5.09,.76,7.64,1.1,1.66,.22,3.33,.34,4.99,.54,1.73,.2,3.45,.43,5.18,.66,.21,.03,.41,.09,.62,.11,1.87,.17,3.75,.31,5.62,.52,1.8,.2,3.58,.48,5.38,.71,1.38,.18,2.77,.18,4.16,.41,2.05,.34,4.16,.35,6.24,.55,2.01,.2,4.01,.47,6.01,.71,.14,.02,.28,.03,.42,.04,2.29,.17,4.61,.17,6.87,.54,2.35,.39,4.75,.11,7.07,.69,.07,.02,.14,.02,.21,.02,2.5,.16,5.01,.32,7.51,.5,.83,.06,1.66,.19,2.49,.27,.56,.05,1.11,.09,1.67,.11,1.53,.07,3.07-.02,4.58,.36,.53,.13,1.11,.05,1.67,.08,1.53,.07,3.07-.07,4.58,.34,.33,.09,.7,.04,1.04,.06,1.81,.09,3.63-.05,5.42,.37,.53,.12,1.11,.03,1.67,.06,1.95,.09,3.89,.04,5.85,.33,1.58,.24,3.21,.08,4.82,.15,.9,.04,1.8,.17,2.7,.25,.56,.05,1.11,.08,1.67,.09,1.68,.03,3.36,.03,5.03,.09,.83,.03,1.66,.16,2.49,.23,.56,.05,1.11,.09,1.67,.1,1.89,.03,3.77,.03,5.66,.08,1.6,.04,3.21-.09,4.8,.3,.46,.11,.97,.04,1.46,.05,3.56,.03,7.13,.05,10.69,.1,1.53,.02,3.07-.11,4.59,.27,.4,.1,.83,.04,1.25,.04,14.4,0,28.8,.01,43.2-.01,1.53,0,3.05-.25,4.58-.27,3.91-.07,7.83-.08,11.74-.12,1.11-.01,2.23,.04,3.33-.25,.46-.12,.97-.07,1.46-.07,1.68-.02,3.36-.09,5.03-.05,2.59,.07,5.15-.29,7.75-.46,.54-.86,.27-1.77,.2-2.64-.05-.62-.17-1.24-.2-1.86-.02-.26,.1-.52,.18-.86,1.36-.11,2.67-.41,3.74,.55,.56,1.9,1.11,3.69,1.61,5.5,.2,.73,.29,1.5,.45,2.39,.96,.99,2.23,1.39,3.71,1.05,.62-.14,1.11-.06,1.5,.43,.3,.37,.67,.46,1.11,.46,.84,0,1.68,.02,2.52,0,.71-.02,1.2,.25,1.5,.91,.11,.24,.3,.45,.5,.73,.64-.11,1.24-.24,1.85-.3,.66-.06,1.19-.28,1.64-.8,.58-.67,1.4-.9,2.26-.92,1.67-.04,3.34-.13,4.95,.55,.56,.24,1.23,.22,1.84,.37,.24,.06,.44,.29,.62,.41-.09,.43-.59,.53-.46,.97,.39,.31,.79,.08,1.19,.02,.61-.09,.95,.09,1.17,.61,.17,.38,.26,.8,.42,1.18,.24,.58,.55,1.12,1.2,1.28,.65-.26,.26-.92,.58-1.29,.09-.08,.19-.21,.31-.25,.53-.16,1.07-.33,1.61-.43,.44-.08,.83,.1,1.09,.47,.12,.17,.21,.36,.31,.54,.38,.66,.95,.99,1.7,1.05,.71,.05,1.42,.14,1.88,.76,.24,.32,.27,.74,.79,.87,1.01,.24,2,.67,3.06,.37,.87-.24,1.71-.54,2.37-1.25,.47-.5,1.07-.89,1.66-1.26,.52-.33,1.1-.56,1.62-.82,.8,.41,.9,1.17,1.3,1.72,.22,.3,.57,.5,.91,.38,1.67-.59,3.49-.1,5.15-.77,.25-.1,.55-.05,.83-.07,.88-.07,1.66,.05,2.18,.91,.16,.27,.53,.42,.81,.64,1.18-.07,2.24-.98,3.55-.42-.41,.85-1.1,1.39-1.86,1.88-2.18,1.41-4.55,2.43-6.96,3.36-1.71,.66-3.26,1.57-4.59,2.85-.35,.34-.74,.64-1.09,.97-.67,.61-1.38,1.18-1.98,1.86-1.01,1.15-1.89,2.42-2.93,3.55-1.08,1.18-2.24,2.28-3.43,3.35-1.04,.93-2.16,1.75-3.24,2.63-.27,.22-.52,.47-.75,.73-.23,.25-.2,.75,.07,.94,.7,.49,1.4,.87,2.32,.51,1.76-.67,3.54-1.27,5.3-1.93,.31-.12,.6-.35,.85-.58,.63-.56,1.22-1.07,2.19-1.03,.74,.03,1.22-.6,1.58-1.22,.1-.18,.12-.4,.22-.58,.05-.09,.22-.11,.33-.16l.19,.49h2.61c-.28,.82-.55,1.58-.81,2.34l.03-.03-.69,.74c.49,.89-.16,1.56-.58,2.31q1.27-.2,2.36-1.22c.9,.82,2.04,1.11,3.31,1.33,1.32-.57,2.71-1.19,4.12-1.78,.74-.31,1.26-.87,1.76-1.45,.82-.92,1.76-1.57,3.03-1.67,.2-.02,.4-.13,.61-.15,2.02-.21,3.76-.97,5.04-2.63,.32-.42,.82-.48,1.32-.53,.52-.05,.9-.33,1.13-.81,.68-1.44,1.96-2.33,3.18-3.22,.63-.46,1.21-.91,1.68-1.53,1.47-1.94,3.51-2.87,5.84-3.23,.55-.09,1.11-.06,1.67-.05,.27,0,.55,.07,.81,.17,.25,.1,.51,.29,.42,.61-.05,.17-.24,.39-.41,.42-.6,.13-1.22,.2-1.64,.26-.7,.82-1.22,1.56-1.88,2.15-1.7,1.54-2.66,3.52-3.54,5.57-.22,.51-.36,1.06,.04,1.67,.98-.64,1.76-1.48,2.64-2.22,.33-.28,.64-.15,.85,.22l-.12,.15,.09-.18c.7,0,1.4,.02,2.1-.02,1.95-.1,3.51,.62,4.79,2.09,1,1.14,2.1,2.2,3.17,3.32,1.42,.38,2.71-.16,3.98-.82,.59,.42,1.14,.82,1.77,1.27,.3-.18,.56-.42,.87-.5,.31-.09,.65-.02,1.06-.02-.04-.32-.13-.64-.1-.95,.01-.16,.21-.4,.35-.42,.14-.02,.35,.16,.46,.3,.12,.16,.16,.37,.23,.54,.38,.18,.5-.08,.68-.28,.23-.26,.48-.5,.76-.71,.45-.33,.93-.61,1.4-.92,.81-.53,1.58-1.16,2.45-1.57,.81-.37,1.72-.53,2.6-.73,.47-.11,.96-.15,1.45-.17,.77-.03,1.54,.03,2.3-.04,.54-.05,1.1-.2,1.59-.42,.57-.26,1.06-.68,1.6-.98,.61-.34,1.23-.64,1.96-.7,.62-.05,1.23-.2,1.84-.3,.37,.25,.09,.49-.04,.69-.25,.38-.26,.77-.18,1.2,.13,.75,.23,1.51,.35,2.32,1.42,.26,2.9,.8,4.27-.4l1.18,.94c.13-.02,.29,0,.38-.08,.31-.27,.63-.55,.89-.88,.48-.6,1.05-.61,1.68-.32,.5-.23,.61-.99,1.28-.97,.19,0,.38,.11,.56,.17-.13,1.11-.11,1.11,.47,2.54,.21,.51,.46,1.09,.38,1.59-.08,.53-1.11,.19-1.25,.96,.59,.12,1.19,.22,1.77,.38,.4,.11,.75,.32,.85,.82,.14,.74,.7,.99,1.39,1.04,.35,.02,.7,.02,1.05,.02,.7,0,1.23-.27,1.39-1.01,.06-.28,.12-.59,.44-.62,.33-.03,.74-.06,1,.1,.41,.24,.72,.64,1.09,.96,.37,.31,.46,.7,.28,1.12-.18,.41-.54,.76-.97,.64-.64-.18-1.25,.1-1.84,.02-1.03-.14-1.98-.27-3.04,.03-.91,.25-1.94,.11-2.92,.05-.7-.04-1.15,.34-1.66,.75-1.04-.31-2.09-.63-3.14-.95-.39,.13-.51,.46-.54,.81-.05,.56-.06,1.11-.09,1.67-.03,.47-.49,.79-.88,.58-.78-.43-1.59-.85-2.3-1.39-.52-.4-1.05-.67-1.67-.8-1.76-.37-3.51-.79-5.38-.12-.33,.56-.68,1.15-1.01,1.7-.87,.22-1.69,.39-2.47,.64-.31,.1-.55,.4-.82,.62-.27-.05-.54-.15-.81-.15-2.81-.02-3.47,.52-4.03,2.69-1.16,.93-2.54,1.71-2.66,3.44-.66,.16-.89-.29-1.16-.7,0-.13-.04-.28,0-.4,.28-.71,.59-1.4,1.19-1.93,.28-.25,.24-.63-.05-.92-.71-.15-1.06,1.21-1.88,.27-.72,1.21-.78,2.82-2.63,2.84-.16-.46-.33-.95-.5-1.46-.2,.11-.39,.15-.41,.23-.15,.52-.27,1.06-.4,1.59-.93,.43-.96,1.49-1.51,2.19-.13,.16-.23,.36-.27,.56-.41,2.03-1.55,3.72-2.52,5.5-.27,.5-.5,.95-.55,1.54-.06,.68-.29,1.35-.46,2.11-.57,.33-1.17,.68-1.81,1.05-.34,.55-.38,1.26-.71,1.88-.54,1.03-.83,2.21-1.14,3.34-.13,.47-.04,.99,.75,1.12,.52-.73,1-1.58,1.89-2.07,.26-.14,.38-.56,.52-.88,.14-.32,.18-.67,.31-1,.27-.66,.65-1.22,1.38-1.48,.52-.19,1.01-.48,1.62-.78,.16-.96,.45-1.94,1.12-2.78,.2-.25,.2-.65,.32-.97,.12-.31,.21-.76,.44-.89,.68-.37,.96-.97,1.27-1.6,.14-.29,.43-.56,.72-.69,.19-.08,.54,.06,.74,.2,.11,.08,.18,.48,.09,.56-.6,.58-.77,1.28-.71,2.07,.01,.14,.03,.33-.05,.41-1.28,1.36-.71,3.56-2.22,4.83-.18,.15-.21,.5-.25,.77-.13,.98-.39,1.91-.93,2.75-.15,.23-.25,.5-.3,.77-.15,.82-.27,1.65-.38,2.48-.18,1.37-.12,1.63,.68,3.25-.19,.31-.33,.73-.62,1-1.54,1.42-1.75,3.2-1.43,5.13,.06,.34,.21,.66,.31,.99,.21,.69,.21,1.38-.13,2.04-.43,.82-.62,1.68-.57,2.62,.02,.4-.12,.83-.3,1.2-.6,1.27-.59,2.51-.21,3.86,.19,.68,.62,1.44,.24,2.23-.04,.08,.04,.29,.13,.37,.48,.39,.55,.92,.68,1.48,.1,.46,.33,.94,.63,1.3,.57,.66,.66,1.43,.46,2.17-.22,.78-.11,1.49,0,2.25,.13,.89,.12,1.81,.11,2.72-.02,1.77,.52,3.31,1.82,4.51,.49,.46,.73,1.01,.97,1.59,.21,.52,.37,1.05,.59,1.56,1.06,2.47,1.49,2.86,4.11,3.89,2.87-.7,5.29-2.27,7.32-4.48,.58-.63,.91-1.39,1.12-2.22,.39-1.49,1-2.89,1.66-4.28,.78-1.64,1.23-3.4,1.21-5.26,0-.49,0-.98,.02-1.47,.14-2.84-.4-5.54-1.67-8.1-.21-.43-.3-.91-.45-1.37l.11-.15-.09,.18c-.22-.17-.52-.28-.65-.5-1.06-1.88-2.26-3.69-3.06-5.81,.13-.33,.21-.77,.44-1.09,1.08-1.51,.42-2.9-.22-4.3-.2-.44-.47-.84-.69-1.23,.1-.27,.11-.51,.24-.64,1.08-1.08,1.35-2.56,1.92-3.89,.11-.25,.27-.53,.26-.79-.08-1.45,.25-2.91-.27-4.35-.34-.95-.12-1.25,.9-1.78,.12-.06,.27-.08,.39-.14,.06-.03,.09-.1,.24-.26,.03-.64,.07-1.39,.11-2.13,.51-.49,1-.96,1.59-1.52l1.14,.12c.73-1.38,1.12-2.98,2.35-4.07,.13-.12,.36-.12,.67-.21,.1,.73-.41,1.32-.16,2.06,.22,.64,.03,1.45,.04,2.19,.01,.66-.34,1.32-.08,2.07,.68-.87,.54-1.9,.87-2.8,.03-.08,.22-.12,.34-.16,.04-.01,.12,.05,.15,.1,.06,.12,.15,.24,.15,.37,.03,.49,.03,.98,.04,1.46-.34,.26-.57,.54-.11,1.06,.03-.43,.06-.76,.09-1.08,1.02-1.25,.87-2.72,.73-4.17-.02-.27-.19-.53-.25-.8-.32-1.56-.08-2.09,1.22-3.01,.76-.54,1.53-.94,2.5-.88,.33,.02,.33-.03,.95-.48-.53-.36-1.16-.67-1.62-1.14-.76-.78-.74-1.56-.09-2.44,.25-.34,.56-.63,.75-1,.15-.29,.17-.65,.26-.99,.78-.31,1.6-.64,2.52-1,.36,.12,.84,.21,1.27,.42,1.28,.62,2.57,1.03,4.02,.81,.66-.1,1.24,.21,1.69,.68,.38,.4,.72,.84,1.14,1.36,.4,.01,.88,.02,1.36,.05,.34,.02,.73,0,1.02,.14,1.45,.74,3.03,.94,4.6,1.2,1.05,.18,2.03,.58,2.26,1.85,.05,.25,.21,.58,.42,.69,.85,.47,.97,1.3,1.16,2.11-.42,.59-.9-.22-1.46,.2-.3,.57-.2,1.27,.44,1.7,1.67,1.11,1.97,2.75,1.96,4.56,0,1.05,.06,2.08,.32,3.11,.31,1.25-.28,2.48-1.54,3.05-.55,.25-.77,.51-.82,1.02-.04,.42,0,.84,0,1.26-.03,1.26-.75,2.21-1.97,2.62-.2,.07-.42,.05-.62,.12-.44,.14-.74,.45-.76,.9-.05,1.11-.06,2.23-.04,3.35,0,.45,.31,.79,.73,.94,.33,.12,.68,.15,1.02,.24q1.54,.41,2.4-.82c.12-.17,.17-.45,.33-.52,1.16-.56,1.36-1.71,1.68-2.75,.19-.62,.46-1.14,.85-1.65,.27-.35,.54-.6,.97-.72,.75-.22,1.38-.65,1.93-1.21,.6-.62,1.31-.64,2.12-.4,1.96,.57,2.88,2.1,3.57,3.82,.39,.97,.64,1.99,1.01,2.97,.59,1.56,1.1,3.15,1.58,4.75,.34,1.12,.84,2.23,1.46,3.23,.48,.79,.66,1.54,.43,2.38-.22,.76-.22,1.46-.02,2.24,.27,1.1,.13,2.23-.48,3.24-.17,.28-.47,.48-.81,.82-.33-.71-.61-1.3-.94-2.01l-1.3,.63c0,.66,.34,1.26-.36,1.75-.23,.16-.24,.78-.2,1.17,.13,1.11-.32,1.79-1.25,2.41-1.06,.71-1.6,1.7-1.4,3.19,.19,1.41-.17,2.92-1.19,4.07-.87,.98-1.31,2.09-1.38,3.46,.26,.04,.53,.09,.79,.11,.28,.02,.62-.09,.83,.03,.97,.57,2.05,.78,3.12,1.06,.25,.07,.45,.33,.69,.47,1.17,.68,1.41,.63,2.49-.47,.68,.21,1.56,.06,1.88,.99l-1.04,.1c.4,.64,.42,.65,.88,.28,.1-.08,.13-.23,.2-.35,.38,.18,.78,.33,1.13,.55,1.04,.68,1.94,.77,3.02-.12,.84-.69,1.96-1.04,2.96-1.55,.76-.39,1.53-.6,2.4-.59,1.44,.01,2.73-.43,3.68-1.62,.65-.82,1.36-1.59,2.05-2.38,.23-.26,.43-.57,.71-.76,1.38-.94,2.78-1.86,4.17-2.77,.29-.19,.64-.3,.92-.5,1.42-1.02,2.93-1.89,4.51-2.64,1.47-.7,2.71-1.71,3.79-2.91,.42-.46,.81-.97,1.49-1.08,.2-.03,.39-.15,.55-.28,1.67-1.35,3.34-2.71,5-4.09,.27-.22,.55-.47,.71-.77,.69-1.26,1.81-2.11,2.84-3.04,.37-.34,.75-.64,.9-1.12,.33-1.03,.94-1.82,1.77-2.52,.71-.59,.73-1.01,.19-1.82-.41-.61-.65-1.39-1.52-1.63-.25-.07-.52-.51-.55-.8-.07-.68-.93-.83-.89-1.59,.03-.61-.17-1.23-.28-1.96,.29-.2,.6-.46,.96-.66,1.66-.89,3.29-1.86,5.11-2.37,2.88-.8,5.78-1.53,8.82-1.36,.73,.04,1.37,.23,1.99,.56,.67,.36,1.34,.46,1.98,.02,1.57-1.08,3.44-1.06,5.2-1.35,.79-.13,1.45-.31,2.08-.8,.49-.38,1.07-.66,1.58-1.01,.22-.15,.46-.37,.53-.61,.43-1.48,1.94-1.92,2.84-2.96,.23-.26,.79-.22,1.17-.37,.63-.25,.91-.64,.77-1.31-.27-1.28-.37-2.64-1.5-3.56-.09-.07-.1-.25-.14-.37,.06-.71,.82-.42,1.07-.73,.29-.36,.37-.88,.55-1.33,.05-.03,.1-.05,.14-.08,.02-.02,.03-.06,.05-.09l-.15,.2-1.93,.07c-.17-.21-.39-.57-.7-.82-1.18-.98-.77-1.51,.07-2.33,.54-.52,1.11-1.01,1.66-1.51l.08-.08,.4-.4-.02,.03c.31-.15,.33-.3,0-.45l.02,.03c-.06-.67,.34-1.04,.88-1.29,.77-.35,1.51-.73,1.9-1.58-.15-.59-.29-1.18,.12-1.77,.68-.97,1.31-1.97,1.98-2.95,.24-.34,.58-.62,.78-.99,1.11-2.1,2.96-3.5,4.74-4.94,.55-.44,1.14-.77,1.89-.82,.62-.05,1.23-.22,1.84-.37,6.5-1.57,13-3.12,19.48-4.75,5.27-1.33,10.51-2.76,15.76-4.15,.4-.11,.77-.3,1.24-.48,.1-1.15,.88-2.2,.34-3.42,1.2-1.96,1-1.48,2.88-1.2,.35-.46,.72-.96,1.11-1.45,.52-.66,.69-.66,1.55-.07,.11,.08,.23,.16,.35,.24,.47-.18,.62-.52,.48-.99-.06-.2-.15-.4-.18-.6-.1-.78,.3-1.14,1.11-1,.19,.03,.39,.08,.75,.17-.15-.27-.19-.5-.3-.55-.93-.41-.96-1.18-.7-1.94,.34-.99,.77-1.96,1.64-2.64,.22-.17,.43-.34,.73-.57,.01-.31,.07-.65,.03-.98-.09-.7,.29-1.18,.65-1.71,.28-.42,.44-.95,.02-1.35-.78-.75-.78-1.57-.42-2.48,.05-.13,.05-.27,.08-.45l-.67-1.06c.19-1.51,.57-2.97,1.59-4.19-.09-.39-.17-.73-.24-1.07-.35-1.82-.23-3.57,.49-5.32,1.38-3.35,2.64-6.76,3.94-10.14,.08-.19,.14-.39,.21-.59,.26-.84,.87-1.22,1.7-1.32,.81-.1,1.26,.22,1.48,1.08,.05,.2,.04,.42,.1,.62,.19,.64,.52,1.13,1.26,1.23,.27,.03,.53,.17,.87,.29,1.12-1.12,2.73-1.59,3.81-2.83,.21-.24,.62-.28,.92-.45,.23-.13,.49-.29,.6-.51,.51-.95,1.36-.99,2.17-.71,1.3,.46,2.68,.77,3.81,1.67,.54,.43,1.18,.72,1.92,1.16,.62,2,1.25,4.13,1.93,6.25,1.17,3.65,2.41,7.28,3.55,10.94,.31,.98,.41,2.03,.63,3.19,1.21,.42,2.47,.92,3.92,.55,.78-.2,1.31,.41,1.17,1.23-.05,.27-.17,.52-.27,.81,.51,.9,1.42,1.66,.82,2.84,.76,.55,1.37,.99,2.06,1.49,.36-.35,.69-.67,1.01-.98,1.62,.15,2.43,1.3,3.18,2.47,.18,.28,.03,.79,.03,1.34,.24,.05,.62,.09,.97,.21,.65,.22,.83,.75,.5,1.31-.39,.66-.75,1.33-1.14,1.99-.18,.29-.37,.61-.64,.81-.26,.2-.62,.34-.95,.35-.2,0-.42-.26-.64-.41-.32,1.72-.63,1.56-2.05,1.66-.33,.4,.06,.8,0,1.32-.49,.31-1.03,.69-1.61,1.01-.13,.07-.38-.05-.57-.1-.25-.07-.5-.16-.84-.27-.05,.86-.1,1.61-.15,2.37-.33,.29-.66,.55-.94,.85-.23,.24-.4,.53-.56,.75-.9-.1-.94-.88-1.38-1.33-.47,.12-1.03-.33-1.53,.28,.19,.61,.78,.88,1.24,1.26,.34,.28,.36,.78,.01,1.11-.39,.36-.83,.62-.87,1.27-.02,.33-.55,.42-.87,.25-.52-.28-.89-.67-.96-1.29-.03-.27-.04-.55-.06-.83-.49,.1-1.02-.24-1.36,.27-.05,.62,.34,1.06,.54,1.57,.19,.48,.02,.68-.78,.87l.03,.03c-.81-.67-1.79-.52-2.75-.54-.21-.5-.42-1.01-.64-1.51-.05-.12-.17-.21-.27-.33-.65,0-.92,.52-1.32,1.04l.69,1.2q-.86,2.68-.34,4.71c-.39,.75-.8,1.54-1.25,2.42l-2.18-.26c-.61,.63-.23,1.39-.49,2.18l-1.16,.92q-.98-.29-1.51-1.6c-.51,.19-.52,.61-.44,1.03,.04,.19,.19,.37,.32,.53,.46,.57,.51,1.11,0,1.69-.22,.26-.39,.57-.64,.96-.21-.2-.4-.36-.58-.54-.14-.14-.26-.3-.44-.51l-1.15,1.16c-.15-.17-.31-.26-.3-.34,.03-.33,.31-.64,.03-.98-.06-.02-.13-.07-.17-.05-1.1,.62-1.76,1.55-1.99,2.93,.08,.13,.23,.35,.36,.59,.48,.9,.48,1.14-.31,1.74-.58,.44-.8,.85-.54,1.59,.12,.32-.06,.82-.25,1.15-.46,.77-1.18,1.42-1.47,2.24-.26,.75-.08,1.65-.12,2.49-.03,.5-.2,.94-.66,1.24-.13,.09-.3,.34-.27,.44,.32,.78,.08,1.5-.14,2.24-.09,.32-.08,.69,0,1.02,.21,1.02,.84,1.97,1.93,2.98,.19-.16,.4-.32,.59-.5,.27-.25,.52-.15,.74,.03,.31,.25,.36,.65,.11,.91-.29,.3-.59,.6-.92,.84-.5,.37-1.04,.69-1.53,1.01,.03,.35,.15,.67,.05,.88-.24,.49-.8,.91-.84,1.38-.04,.57-.02,1.09-.66,1.5l1.28,.9c.46,.02,.6-.31,.77-.6h-.01c1.21-.12,2.14,.26,2.87,1.31,.5,.72,1.26,1.27,1.75,2.04-.19,.11-.3,.17-.4,.23-.1,.06-.21,.11-.29,.19-.02,.02,.02,.13,.06,.19,.04,.05,.1,.11,.16,.12,1.16,.08,1.96,.57,2.2,1.81,.1,.55,.58,.77,1.09,.81,.63,.04,1.26,.05,1.88,.02,.26-.01,.56-.1,.77-.25,.68-.48,1.36-.97,2-1.51,.52-.44,.48-1.12-.03-1.65-1.15-.04-1.15-1.24-1.87-1.86-.38,.06-.83,.16-1.28,.2-.1,0-.3-.17-.29-.24,.03-.18,.12-.45,.24-.49,1.17-.31,2.27-.06,3.09,.8,.64,.68,1.37,1.39,1.37,2.47,0,.17,.13,.37,.24,.52,.42,.56,.42,1.15,.18,1.89-1.31,.61-2.67,1.27-4.06,1.89-.7,.31-1.45,.52-1.74,1.37-.06,.18-.25,.35-.42,.45-.54,.31-1.1,.58-1.64,.85-.59-.35-.25-.92-.43-1.33-.18-.42-.36-.84-.61-1.41-.58,.84-.98,1.58-1.54,2.16-.29,.3-.8,.31-.76,.95,.03,.65-.48,.98-1.06,1.12-.33,.08-.77-.03-.93,.33-.31,.69-.93,.67-1.52,.8-.39,.09-.75,.35-1.12,.54v-2.97l.43-.43c.09-.08,.23-.14,.27-.24,.04-.08-.02-.21-.04-.33-.06,.07-.16,.13-.18,.21-.04,.12-.02,.25-.03,.38l-.43,.43-1.04-.69c-.74,.67-.54,1.46-.33,2.25,.37,.17,.85,.12,.97,.67,.05,.25,.26,.46,.4,.69-.04,.06-.07,.15-.12,.17-.82,.25-1.26,.79-1.2,1.68-.48,.22-.93,.4-1.35,.63-.37,.2-.72,.43-1.06,.68-.74,.54-1.49,1.01-2.49,.78-.23-.05-.54,.1-.79,.21-2.04,.87-4.07,1.76-6.11,2.64-.32,.14-.64,.26-.97,.35-1.06,.31-2.12,.61-3.19,.89-.39,.1-.8,.11-1.37,.19-.75,1.07-1.78,2.07-3.07,2.79-.86,.48-1.59,1.12-2.25,1.85-.38,.41-.8,.79-1.24,1.13-.32,.25-.85,.32-1.04,.63-.54,.88-.96,1.83-1.4,2.76-.04,.09,.07,.25,.13,.44,.28-.32,.53-.63,.8-.92,.28-.29,.55-.61,.87-.84,.6-.44,1.2-1.03,1.88-1.17,.61-.13,1.19-.52,1.93-.31,.76,.21,1.49,.06,1.93-.82,.15-.31,.65-.51,1.03-.63,.8-.24,1.63-.38,2.44-.58,.61-.15,1.21-.32,1.8-.54,.66-.25,1.19-.67,1.64-1.24,.73-.93,1.54-1.79,2.35-2.66,.18-.19,.45-.3,.71-.4,.07-.03,.23,.11,.32,.2,.04,.03,.04,.16,0,.2-.14,.15-.29,.28-.44,.42-.26,.23-.55,.43-.78,.69-.43,.48-.11,1.29-.71,1.68-.49,.32-.83,.74-1.03,1.28-.02,.06-.03,.13-.04,.2,.42,.27,.8,.19,1.11-.16,.18-.2,.3-.47,.41-.72,.53-1.31,1.69-1.8,2.88-2.21,.28-.1,.67,.1,1.04,.17,.85-.29,1.16-1.58,2.36-1.43-.02,.15,.01,.31-.05,.36-.63,.55-1.27,1.09-1.91,1.62-.59,.49-1.24,.91-1.79,1.44-.71,.68-1.41,1.35-2.38,1.65-.23,.07-.44,.29-.61,.49-.6,.72-1.38,1.25-2.24,1.46-.62,.15-.91,.33-1.09,.94-.06,.2-.59,.26-.9,.39l.02,.02c-.15-.3-.3-.31-.46,0l.03-.03c-.33,.06-.7,.06-.87,.45l.03-.03c-1.53,.45-2.89,1.24-4.21,2.11h0l-.42,.42h0c-.79,0-1.5,.25-2.09,.75-.22,.18-.28,.54-.42,.82-1.1-.32-1.7,.7-2.58,.97-.38,.12-.7,.36-1.16,.28-.58-.09-1.22,.15-1.74-.29-.03-.47-.06-.93-.09-1.47q-.58,.81,.12,1.44c-.27,.48-.5,.99-.84,1.42-.33,.41-.78,.73-1.25,1.15,.59,.59,1.23,.32,1.8,.34,.61,.01,1.27,.16,1.68-.59,.87,1.4,1.03,2.86,.87,4.35-.07,.7,0,1.33,.11,2.03,.19,1.14,.09,2.33,.11,3.51l.03-.02-.44,.03c-.02-.05-.03-.11-.05-.15-.02-.03-.06-.03-.1-.05l.18,.18c-.13,.32-.3,.64-.36,.97-.05,.26-.07,.68,.08,.79,1.04,.83,.69,1.68,.13,2.57-.17-.09-.34-.18-.5-.28-.6,.58-.64,1.3-.44,2.11l-1.15-.18c-.02,.85,.81,.6,1.2,1.03-.72,1.26-1.13,2.79-2.86,3.21,.1,.17,.2,.34,.27,.47-.61,1.73-1.22,3.42-1.81,5.13-.22,.63-.64,1.06-1.23,1.35-.28,.14-.82-.09-.82-.4,0-.55,.05-1.1,.1-1.65,.03-.41,.15-.83,.12-1.23-.03-.36-.32-.76-.66-.68-.84,.19-1.81-.2-2.51,.61-.43-.34-.79-.67-1.19-.91-.36-.21-.79-.26-1.16-.45-.75-.38-1.46-.81-2.21-1.19-.3-.15-.64-.24-.95-.35-.12-.16-.22-.34-.36-.48-.06-.06-.21-.04-.31-.05,.03,.11,.04,.29,.11,.33,.17,.1,.38,.13,.57,.2,0,.55,.29,.93,.75,1.16,.88,.45,1.31,1.14,1.48,2.12,.17,.96,.59,1.85,1.33,2.55,.2,.19,.39,.41,.52,.65,.75,1.49,2.02,2.22,3.69,2.49,.14,.35,.31,.73,.44,1.11,.13,.37,0,.53-.54,.74l.16,1.29,.81-.16c.28,.69,.63,1.37,.83,2.09,.18,.64,.46,1.37-.26,1.91v-1.06c-.7,.4-.71,.42-.31,.82,.09,.09,.23,.14,.34,.21,.02,1.62,0,3.23-.46,4.8-.07,.24-.27,.44-.41,.65l.03,.02c.06-1.02,.13-2.05,.19-3.12-.33-.27-.7-.08-.76,.26-.15,.81-.13,1.67-.87,2.25-.15,.94-.63,1.84-.42,2.81,.09,.43,.1,.81-.08,1.22-.69,1.62-1.11,3.29-.98,5.08,.06,.78-.24,1.35-1.08,1.55-.82,.19-1.07,.78-1.04,1.58,.03,.91,0,1.81,.01,2.72,.02,.74-.17,1.38-.73,1.88-.42,.11-.64-.17-.83-.46-.56-.84-.83-1.71-.7-2.76,.13-1.03,.04-2.09,.1-3.14,.03-.55,.05-1.15,.29-1.62,.45-.9,.73-1.8,.58-2.78,.34-.28,.64-.47,.86-.72,.3-.33,.43-.72,.06-1.11-.19-.19-.41-.35-.33-.7,.11-.45-.29-.44-.5-.36-.49,.2-.95,.48-1.42,.73-.71-.85-.25-1.48,.22-2.16l-.89-1.07c-.21,.06-.4,.12-.61,.16-.46,.1-.74-.12-.59-.48,.12-.31,.3-.61,.44-.89-.31-.72-.94-.5-1.47-.55-.02-.05-.04-.11-.07-.16-.02-.03-.07-.03-.1-.05l.19,.18-.39,.61c-.44,.19-.57-.15-.8-.26-.71-.34-1.22-1.12-2.15-.96-.53-.53-1.07-1.06-1.54-1.53,.4-.62,.73-1.13,1.07-1.64,.05-.02,.11-.03,.15-.06,.03-.02,.03-.07,.05-.1l-.17,.19c-.34,0-.73,.04-.82-.43-.09-.45,.16-.73,.71-.83,.2-.04,.42-.02,.62-.04,.14-.01,.27-.05,.49-.1-.33-.39-.74-.55-1.13-.76-.35-.18-.68-.42-1.03-.65l-.71,.82c-.09-.07-.24-.14-.24-.22-.03-.42-.05-.84-.04-1.25,.03-1.14,.29-1.26,1.49-.6,.12-.37,.24-.73,.39-1.16l-1.27-1.01-1.33,1.46c-.16-.87-.24-1.67-.01-2.55,.47,.05,.87,.13,1.26,.13,.18,0,.37-.16,.55-.24-.08-.16-.12-.39-.26-.48-.93-.63-1.45-1.54-1.22-2.58,.27-1.19,.33-2.53,1.67-3.19,.2-.1,.28-.45,.39-.7,.16-.38,.3-.78,.45-1.17,.19-.05,.4-.08,.58-.17,.07-.04,.07-.21,.11-.33-.1,0-.25-.02-.31,.03-.14,.14-.24,.33-.35,.49-.56-.1-.35-.68-.67-1.07-.45,.16-.99,.19-1.24,.86l.58,.96c-.05,.16-.06,.32-.14,.41-.45,.57-.8,1.28-1.72,1.25-.08,0-.17,.47-.27,.76l-.76-.24c-.02-.05-.02-.12-.06-.16-.02-.03-.07-.04-.11-.05l.19,.19c-.23,.6-.78,1.03-.53,1.86,.25,.82-.53,.97-1.16,1.09-.15-.42-.5-.41-.85-.41l-.15-.12,.18,.1c.17,.35,.48,.42,.83,.43,.92,.7,1.83,1.42,1.89,2.84-.06,.3-.74,.53-.35,1.14,.16,.25-.02,.52-.29,.66-.02-.05-.03-.11-.06-.15-.02-.03-.07-.03-.11-.04l.2,.17c-.08,.32-.34,.84-.23,.94,.59,.52,.29,.95,.06,1.32,.34,.9,.79,1.7,.94,2.56,.15,.82,.49,1.41,1.09,1.92,.32,.27,.6,.58,.91,.85,.57,.5,.54,1.06,.17,1.66h-.87l-.43-.42c-.02-.05-.03-.12-.06-.16-.02-.03-.08-.03-.12-.04l.21,.18,.42,.43q.41,.39,.82,0c.12,.07,.3,.1,.35,.2,.2,.42,.3,.89,.54,1.27,.22,.35,.61,.57,.85,.91,.33,.47,.47,1,.12,1.66l-1.83-.99c-.23,.06-.49,.13-.76,.2-.12-.05-.3-.07-.36-.16-.49-.81-1.2-1.19-2.11-.92-.71,.21-1.34,.28-1.92-.26-.99,.47-1.48-.46-2.16-.82-.33,.32-.29,.65-.05,.93,.27,.32,.56,.62,.88,.89,.2,.17,.48,.4,.7,.39,.96-.05,1.89,.42,2.86,.11,.57-.18,1.09-.03,1.53,.41,1.17,1.16,2.63,1.74,4.22,2.02,.44,.08,.8,.22,.92,.7,.13,.54-.09,.94-.56,1.24,.15,.98,.7,1.94,.05,3.17-.28,.19-.79-.03-1.31-.24-.5-.2-1.09,.27-1.55-.2l-.43-.42-.42-.42c-.3-.8-.97-.84-1.67-.84l-.42-.42-.43-.43-.42-.42-.83-.41-.43-.43-.16-.11,.19,.08,.43,.43c.15,.39,.51,.37,.83,.41l.42,.42,.43,.42,.42,.42c.4,.59,1.02,.74,1.67,.83l.42,.42,.42,.43c.02,.37,.13,.75,.54,.76,1.04,.02,1.97,.44,2.92,.57,.1,.4-.52,.43-.23,.77,.1,.12,.36,.12,.54,.13,.13,.01,.27-.04,.49-.08,.68,.81,1.03,1.69,.59,2.75-.76,.24-1.34-.87-2.19-.19,.35,.48,.66,.91,.97,1.33-.48,.47-.96,.7-1.55,.71-.16-.39-.52-.37-.84-.42l-.16-.11,.18,.08c.16,.38,.5,.39,.84,.42,.35,.57,.85,.31,1.31,.23,.9,.52,1.58,1.29,2.25,2.06,.27,.31,.22,.9-.09,1.14-.49,.37-1.02,.7-1.59,1.1-.69-1.35-2.08-1.41-3.17-1.98,0-.2,.02-.4-.03-.59-.18-.73-.52-.8-1.21-.26h-.87c-.38-.52-.89-.5-1.42-.28-.06,.03-.06,.21-.11,.39l1.56-.13q.46,.42,.83,0c.69-.13,.82,.6,1.28,.84l.07,.99c1.12,.55,2.22,.99,2.87,2.14l1.75-.31c.07-.9,.19-1.12,.63-1.12,1.25-.01,2.49,0,3.74,0,.8,1.08,1.31,2.22,1.82,3.36l.02-.02-.69,.23c.34,.52,.1,1.17,.47,1.66,.66-.18,.58-.64,.64-1.04h-.01c.94,.94,1.35,2.13,1.67,3.37l.03-.02-1.1-.95h-1.67c-.01,.08-.09,.23-.04,.31,.1,.18,.24,.33,.39,.48,.49,.48,1.33,.47,1.59,1.36,.18,.62,.8,1.11,1.18,1.68,.42,.63,.8,1.29,1.16,1.96,.06,.1-.09,.35-.2,.49-.04,.04-.29,0-.37-.09-.23-.24-.41-.54-.64-.78-.23-.24-.49-.44-.74-.66-.02-.14-.02-.27-.06-.41-.01-.06-.08-.11-.12-.17-.04,.11-.15,.25-.11,.32,.05,.11,.2,.16,.31,.24-.48,.67-1.09,.53-1.66,.21-.42-.23-.77-.59-1.3-.61l-.16-.11,.19,.08c.36,.48,.72,.95,1.14,1.51-1.14,.51-1.88,1.66-3.26,1.45l-.16-.12,.19,.09c-.46,.6-1.12,.98-1.53,1.65-.33,.53-.95,.76-1.66,.59-.47-.11-.96-.09-1.45-.12l-.43-.42c-.02-.34-.01-.69-.41-.83-.02-.05-.03-.1-.06-.15-.02-.03-.06-.04-.09-.06l.18,.18c.01,.34,.08,.65,.41,.83l.43,.43c.07,.46,.15,.92,.22,1.39,.98-.05,1.9-.26,2.73-.81,.47-.31,.97-.5,1.57-.21,.33,.16,.69,.02,.94-.27,.76-.84,1.75-1.07,2.83-1.1,.61,.24,.6,.87,.84,1.35-.35,1.29,.48,2.33,.74,3.87,.21-1.13,.24-1.88-.06-2.62-.37-.94-.1-1.6,.78-2.1,.28-.16,.45-.52,.67-.79,1.11,.19,1.8,.89,2.04,1.72,.24,.81,.79,1.66,.36,2.61-.07,.15,.09,.38,.11,.58,.08,.88-.06,1.26-.82,1.4-.64,.12-.99,.43-1.25,.96-.39,.82-.84,1.61-1.14,2.46-.27,.76-.82,1.12-1.5,1.32-.72,.22-1.49,.33-2.14-.25l-.35,.71c-.6,.09-.54-.57-.9-.73l-.7,.55c-.55-.4-1.09-.8-1.64-1.2v-.86l1.06-.09c-.49-.36-.8-.28-1.04,.11-.46,.37-.46,.38,0,.82,.06,.34,.11,.68,.19,1.15-1.19,.24-2.41,.12-3.63,.27,1.13,.24,2.18,.73,3.35,.7,.35,0,.71,.01,1.03,.11,.45,.13,1,.2,1.13,.78,.13,.58-.25,.9-.66,1.18-.27,.19-.55,.37-.88,.6l1.07,.44c-.21,1.37-1.19,2.11-2.01,2.93-.43,.42-1.05,.39-1.59,.24-.52-.14-1.01-.41-1.53-.63-.34,.44,.08,.62,.3,.82,.14,.13,.37,.19,.57,.23,.75,.13,1.5,.24,2.36,.38,.3-.28,.62-.64,1.02-.91,.27-.18,.63-.22,.95-.32,.02,.05,.04,.11,.07,.15,.02,.02,.07,.02,.11,.04l-.2-.16c.53-.48,1.3-.73,1.51-1.54,0,0,.3,.01,.34,.08,.17,.37,.3,.75,.46,1.15,.7,.16,.57-.85,1.15-.88,.77,.49,.76,.49,.61,1.04-.09,.33-.18,.65-.27,.98h0l-.44,.43,.02-.03c-.37,.18-.44,.5-.44,.87l.03-.03c-.83,.25-.68,1.28-1.26,1.72l-1.07-.11c-.48,.86,.49,.88,.64,1.35h0c-.8,.2-1.17-.47-1.7-.83-.05-.2-.06-.41-.15-.58-.03-.07-.22-.07-.33-.1,0,.11-.04,.27,.01,.32,.14,.14,.33,.23,.49,.34-.26,.77-.39,.88-.89,.78-.33-.07-.65-.23-.97-.23-.23,0-.45,.2-.68,.31l.03-.02c-.12,.02-.26,.02-.37,.08-.07,.04-.11,.15-.16,.23,.05,.03,.1,.08,.16,.09,.12,.03,.25,.03,.37,.05l-.03-.02c-.56,.55-1.36,.64-2.02,1.02-.15,.09-.42,.06-.59,0-.5-.2-.81,.05-1.07,.4-.59,.76-.98,1.69-1.93,2.14-.14,.06-.16,.36-.25,.54-.12,.24-.2,.56-.41,.71-.9,.65-1.56,1.57-2.41,2.24-1.23,.98-1.67,2.35-2.14,3.71-.24,.7-.36,1.53-.23,2.25,.18,1.03-.24,1.71-.86,2.38q.47,.59,.13,1.16c-.87-.15-1.75-.42-2.62-.4-.81,.03-1.6,.43-2.42,.58-1.2,.22-2.21,.74-3.1,1.57-.66,.61-1.48,1.06-2.1,1.71-.86,.91-1.59,1.94-2.12,3.09-.55,1.2-1.33,2.34-1.66,3.6-.33,1.26-.22,2.63-.31,4.11-.41,.91-1.82,1.43-1.57,2.93-.84,.2-1.46,.88-2.4,.43-.32-.16-.7,.17-.79,.52-.09,.38-.02,.79-.02,1.4-.33,.49-.84,1.15-1.26,1.86-.53,.88-1.25,1.27-2.26,1.13-.02-.06-.03-.12-.07-.17-.02-.03-.08-.03-.12-.04l.22,.19c.1,.18,.2,.36,.3,.54,.23,.42,.2,.86-.15,1.15-.89,.75-1.6,1.72-2.77,2.15-.44,.16-.87,.48-1.16,.85-.72,.89-1.62,1.28-2.74,1.27-.18,0-.35,.14-.62,.25,.25,.4,.48,.73,.66,1.09,.32,.63,.25,1.26-.26,1.72-.46,.41-1.01,.71-1.52,1.07-.45-.19-.83-.34-1.21-.51-.38-.17-.75-.36-1.12-.54-.37,.22-.21,.48-.02,.65,.26,.23,.58,.38,.86,.58,.58,.41,.65,.78,.35,1.43-.31,.66-.79,1.11-1.41,1.49-.61,.37-.58,.61-.08,1.36,.08,.11,.14,.24,.24,.43-.21,.23-.43,.5-.68,.73-.2,.18-.45,.3-.66,.43,.18,1.08,.06,1.28-.74,1.27-.27,0-.54-.01-.81,0-.05,0-.1,.09-.2,.18,.11,.15,.22,.31,.34,.46,.43,.56,.44,1.04-.03,1.44-.31,.27-.7,.45-1.03,.7-.09,.07-.17,.25-.16,.36,.04,.29,.26,.17,.45,.16,.35-.03,.48,.23,.5,.52,.07,.85-.53,1.35-1.04,1.9l-1.1,.06c.53,.45,.83,.32,1.08-.09l.89,.27c-.78,1.21-.72,2.6-1.37,3.77,.19,.18,.45,.4,.79,.71-.41,.81-.89,1.54-1.31,2.22-.49,.17-.67-.19-.97-.47l-.06,.95c.37,.34,1.1,.42,.72,1.18-.29,.58-.58,1.16,.2,1.61,.1,.06,.17,.22,.2,.35,.15,.51-.01,2.65-.23,3.23-.04,.11-.13,.21-.19,.32,.45,.18,.94,.29,.95,.94,.03,1.35,.48,2.58,1.03,3.79,.34,.75,.41,1.64,.78,2.38,1.68,3.29,2.71,6.88,4.58,10.08,.25,.42,.52,.83,.78,1.24,.71,1.11,1.45,2.21,2.14,3.34,1.09,1.8,2.38,3.44,3.71,5.05,1.59,1.94,3.26,3.81,4.86,5.73,.39,.47,.68,1.03,1.03,1.57-.81,1.7-.55,3.33,.1,4.91,.53,1.29,1.05,2.61,2.2,3.5,.44,.35,.26,.9,.56,1.27,.3,.37,.6,.75,.89,1.14,.67,.9,1.25,1.83,1.73,2.85,.54,1.13,1.26,2.17,1.86,3.27,.53,.97,1.31,1.82,1.51,2.97,.03,.19,.2,.37,.34,.52,1.16,1.25,1.73,2.85,2.4,4.36,.65,1.45,1.05,3.03,.99,4.67-.04,1.33-.02,2.64,.29,3.95,.14,.6,.06,1.25,.08,1.88,.04,1.32-.1,2.65,.33,3.95,.2,.59,.14,1.24-.32,1.78-.17,.2-.33,.5-.32,.75,.05,1.15-.47,2.16-.76,3.22-.22,.8-.36,1.62-.48,2.44-.04,.26,.03,.55,.11,.81,.18,.59,.41,1.18,.61,1.76l-.42,.42c-.06,.02-.12,.04-.16,.07-.03,.02-.02,.08-.03,.13l.17-.22,.42-.42c.2-.06,.39-.12,.59-.18,.08,.09,.23,.21,.21,.27-.65,2.58-1.56,4.38-3.11,6.15-.04,.04-.13,.05-.19,.07h0c.22-.57,.34-1.21,.69-1.67,.37-.48,.19-1.19,.74-1.57,.04-.03-.12-.36-.19-.55,.24-.21,.51-.4,.71-.65,.05-.07-.12-.32-.19-.48-.11,.06-.29,.1-.32,.18-.09,.32-.12,.65-.17,.97-.2-.07-.53-.24-.57-.18-.49,.64-.95,.17-1.34-.09-.52,.51-.96,.94-1.4,1.36-.64,.62-1.42,.9-2.29,.7-.54-.12-.9,.06-1.35,.31-.66,.37-1.4,.62-2.13,.81-.87,.23-1.44-.11-1.92-.88-.55-.88-.37-1.73,.09-2.67-.97-1.51-1.83-3.13-2.97-4.51-.71-.87-1.55-1.76-2.8-2.04-.51-.11-1.09-.28-1.4-.82,.05-.02,.1-.03,.15-.06,.03-.02,.04-.06,.05-.09l-.17,.18c-.51-.19-1.02-.39-1.64-.63l-.7,.92c-.6,.08-.85-.31-.93-.82-.02-.13,.23-.31,.42-.55-.81-.53-1.29-1.41-1.89-2.19-.25-.32-.45-.71-.57-1.1-.4-1.25-.76-2.51-1.17-3.88-.37-.05-.76-.15-1.16-.16-.6-.02-1.06-.23-1.44-.71-.1-.13-.38-.11-.58-.15l.02,.03c-.15-.77-.08-1.62-.86-2.14l.02,.03c0-.68-.02-1.35-.02-2.03,0-.62,0-1.21-.51-1.69-.31-.3,0-.62,.08-.93,.05-.02,.1-.04,.15-.07,.03-.02,.03-.06,.05-.1l-.17,.2-.98,.35c-.34,.52-.04,.81,.04,1.13,.17,.66-.04,.97-.61,1.03-.74,.07-1.34-.13-1.89-.67-1.06-1.03-1.92-2.21-2.75-3.41-.51-.74-.84-1.59-1.5-2.26-.21-.22-.2-.64-.33-.96-.1-.25-.26-.47-.39-.7l.02,.02c-.04-.54-.31-.85-.87-.87l.03,.03c-.15-.27-.3-.31-.45,0l.02-.02c-.53-.22-.93-.6-1.21-1.2,.32-.18,.68-.31,.93-.55,.24-.23,.39-.57,.55-.88,.54-1.05,.95-2.2,1.63-3.15,.74-1.03,.72-1.88-.09-2.86-.16,.17-.38,.29-.41,.45-.04,.26,.1,.55,.05,.81-.03,.16-.22,.39-.37,.42-.15,.03-.39-.11-.51-.25-.38-.42-.02-1.14-.58-1.5-.4-.26-.8-.52-1.21-.76-.04-.03-.12,.01-.19,.02-.03,.05-.09,.09-.09,.14-.03,.34-.04,.68-.06,1.06,.18,.08,.35,.19,.54,.25,.2,.06,.41,.08,.6,.11,.07,.12,.16,.22,.19,.34,.26,.99-.22,1.88-.31,2.77-.17,.06-.25,.12-.3,.11-.52-.15-.87-.02-.98,.58-.1-.04-.25-.05-.3-.12-.3-.46-.48-.98-.98-1.32-.96-.66-1.27-1.49-.87-2.71,.29-.89,.19-1.93,.15-2.9-.03-.77,.06-1.5,.18-2.27,.34-2.11,1-4.22,.45-6.4,.28-.72-.22-1.13-.6-1.63-.49-.64-.45-.68,.16-1.73-.36-.44-.74-.91-1.11-1.39-.25-.33-.66-.66-.69-1.02-.07-.91-1.16-1.16-1.21-2.06,0-.14-.44-.37-.67-.37-.82,0-1.65,.09-2.67,.16-.09-.09-.44-.3-.54-.59-.27-.8-1.15-.73-1.6-1.23-.46-.51-.87-1.09-1.37-1.56-.23-.22-.67-.2-.96-.37-1.11-.65-2.17-1.35-1.95-2.93-.49-.22-.92-.42-1.37-.6-.67-.27-1.2-.68-1.56-1.32-.92-1.61-2.35-2.48-4.12-2.96-1-.27-1.94-.76-2.95-1.17-.81,.13-1.6,.53-2.55,.48-.71-.04-1.28,.72-1.98,1.14,.27,.7,.52,1.33,.81,2.07-.67,.05-1.2,.02-1.69,.14-1.25,.3-2.23,1.08-3.17,1.92-.52,.46-1.11,.84-1.6,1.33-.51,.5-1.07,.02-1.53,.19-.5,.18-.86,.7-1.35,.93-.36,.17-.82,.12-1.33,.17,.16,.24,.33,.41,.4,.61,.09,.28-.18,.61-.43,.55-.86-.2-1.72-.41-2.71-.64-.15-1.02-.12-2.23-1.38-2.73l.03,.02c-.14-.66-.7-.85-1.22-1.01-1.62-.49-2.52-1.83-3.73-2.92l-.71,.38c-.19-.07-.46-.13-.69-.26-2.83-1.63-5.89-2.3-9.13-2.52-2.29-.15-4.39,.56-6.55,1.02-1.89,.4-3.78,.84-5.65,1.32-.93,.24-1.82,.63-2.74,.93-.29,.1-.54-.01-.67-.32,.42-.14,.7-.41,.84-.84,.1-.09,.24-.16,.28-.27,.03-.07-.07-.2-.12-.3-.03,.06-.08,.12-.09,.18-.03,.13-.03,.27-.05,.41-.54,.02-.86,.26-.84,.84-.38-.01-.61,.2-.88,.45-1.05,.96-1.77,1.17-3.47,1.14,.16-.28,.3-.55,.5-.89-.36-.53-.63-1.21-1.33-1.45-.9-.31-1.06-1.03-1.15-1.8-.05-.41,.06-.84,0-1.25-.11-.81-.49-1.42-1.38-1.55-.74,1.26-.72,2.58-.74,3.91,0,.63-.04,1.25-.08,1.87-.01,.21-.54,.46-.68,.31-.83-.86-1.86-.78-2.89-.7-.49,.4-.91,.92-1.45,1.14-.61,.25-1.21-.13-1.68-.54-.64,.21-1.23,.56-1.81,.54-.59-.02-1.16-.4-1.92-.69-.82,.27-1.81,.57-2.78,.92-.91,.33-1.81,.71-2.7,1.06l-1.03-.71c-.53,.25,.01,.64-.19,.89-.21,.27-.48,.51-.67,.79-.27,.4-.49,.83-.81,1.38-.7,.23-1.55,.5-2.48,.8-.37,.67-.77,1.39-1.21,2.2-.26-.03-.52-.09-.77-.09-.3,0-.58,.15-.59,.46,0,.25,.13,.51,.26,.74,.05,.1,.27,.2,.36,.16,.68-.26,.95,.19,1.32,.64,.41,.5,1.09,.33,1.36-.24,.06-.13,.17-.25,.17-.38-.02-1.02,.63-1.64,1.41-2.4h2.14l-.02-.02c-.4,.36-.81,.73-1.17,1.05,.36,.67,.72,1.25,.99,1.86,.27,.6,.12,1.26-.25,1.72-.36,.45-.79,.98-1.58,.74-.28-.08-.65,.1-.96,.21-.1,.03-.24,.28-.21,.31,.11,.13,.3,.34,.41,.31,.73-.21,.8,.27,.86,.78-.53,.37-1.11-.14-1.6,.04-.46,.17-.83,.59-1.24,.91,.2,.71,.59,1.27,1.34,1.48,.83,.24,1.6,.54,1.78,1.45,.82,.04,1.44,.07,2.06,.11,.39,.06,.05,.71,.61,.67,2.68-.18,2.48,.21,3.25,1.35,.23,.34,.5,.4,.85,.47,.6,.13,.58,.16,.3,.9-.03,.08,.02,.21,.06,.31,.05,.12,.12,.23,.22,.43-.35,.29-.76,.57-1.07,.92-.26,.29-.42,.68-.66,1.09l-1.21-.99c-.34,.33-.71,.62-.98,.99-.33,.44-.55,.96-.85,1.43-.04,.06-.27,.09-.34,.04-.09-.08-.15-.25-.13-.36,.04-.2,.13-.39,.23-.57,.3-.55,.61-1.08,.98-1.73h-1.14c-.46-.57-.99-1.22-1.49-1.84q-1.75-.3-2.55-1.14l-2.22,.12,.48-1.07c-.81-1.04-1.85-1.51-3.19-1.31-.71,.52-.85,1.25-.65,2.05,.11,.45,.11,.79-.26,1.12-.23,.2-.27,.49-.09,.76,.41,.61,.08,1.11-.3,1.5-.43,.44-.98,.75-1.56,1.18-.54-.47-.76-1.01-.89-1.63-.19-.87-.51-1.14-1.35-1.26q-.64-.09-.95-.67c-.56-.28-.61,.45-1,.51-.34,.06-.67,.15-1.01,.23-.27,.58-.51,1.16-.8,1.71-.26,.5-.63,.92-1.19,1.12-.2,.07-.4,.17-.6,.16-.48,0-.73-.78-1.29-.45-.52,.31-.92,.12-1.36-.13-.56-.31-1.16-.4-1.8-.45-.96-.07-1.93-.25-2.87-.5-.43-.12-.78-.52-1.29-.87,.58-.65,.97-1.29,1.7-1.6,.02,.77,.68,.95,1.2,1.43,.01-1-.73-1.08-1.23-1.4-.32-.46-.63-.92-.95-1.37-.82-.32-1.77-.17-2.52-.79-.36-.3-.97,.36-1.34-.1-.25-.31-.34-.74-.54-1.11-.05-.1-.23-.2-.34-.19-.67,.08-.82-.17-.78-.84,.05-.79-.46-1.13-1.21-.93-.6,.16-1.19,.37-1.74,.55-.83-.25-.4-.93-.57-1.4-.13-.04-.27-.15-.38-.12-.4,.1-.8,.21-1.17,.39-.85,.4-1.68,.84-2.61,1.31,.18,.17,.51,.34,.61,.6,.44,1.11,1.39,.9,2.25,.94,.95-.65,1.86-.25,2.78,.11,.25,.1,.53,.15,.8,.23,.16,.77-.33,1.22-.73,1.66-.15,.16-.55,.24-.77,.16-.59-.2-1.16-.49-1.72-.76-1.27-.62-2.55-.73-3.81,0-.78,.45-1.63,.54-2.43,.3-.97-.29-1.93-.26-2.91-.28-1.29-.02-2.53-.33-3.6-.99-1.34-.82-2.84-1.12-4.31-1.52-1.6-.43-2.27-.31-4.53,.08-.75,.13-1.51,.27-2.27,.27-.95,0-1.77,.23-2.52,.83-.78,.63-1.61,1.08-2.68,.9-.65-.11-1.23,.17-1.8,.46-2.24,1.14-4.49,2.27-6.73,3.41-1.08,.55-2.04,1.21-2.36,2.49-.03,.13-.12,.26-.21,.36-.87,.91-1.79,1.76-3.07,2.06h0c.39-.46,.78-.93,1.18-1.4,.27-.31,.56-.61,.79-.95,.06-.09-.1-.32-.16-.5-1.12,.81-2.03,1.71-2.66,2.87l.03-.03-.45,.45,.03-.03-.58-.16c-.09,.13-.23,.24-.22,.33,.17,1.3-.39,2.16-1.33,3.07-1.83,1.77-3.88,3.14-6.12,4.29-.42,.22-.77,.57-1.17,.84-.97,.65-1.84,1.54-3.18,1.3h0c-.21-.34-.5-.47-.88-.34-.71,.24-1.33,.77-2.24,.71l-.4-1.33q-1.48,.49-2.44,.33,.01,.86-.75,1.04h0c-.68-.52-1.64-.69-2.07-1.57-.04-.07-.36,0-.56,0,.29,1.59,1.49,2.38,2.59,3.25,.21,.17,.45,.31,.65,.49,.19,.16,.14,.6-.09,.73-.42,.24-.87,.44-1.27,.7-.22,.14-.36,.39-.54,.6-.53,.14-1.06,.37-1.6,.4-.69,.04-.74-.76-1.17-1.07-.14-.1-.42-.13-.57-.06-.13,.06-.29,.35-.25,.46,.36,.97,.37,1.9-.16,2.81-.2,.16-.41,.3-.58,.49-.06,.07-.05,.26,0,.35,.05,.09,.2,.18,.31,.17,.07,0,.18-.16,.19-.26,.04-.26,.04-.52,.05-.78,1.63-.27,2.78-1.28,3.81-2.48,.69-.01,1.39,0,1.87-.65,.36,.41,.23,.75-.16,1.01-.81,.53-1.64,1.02-2.46,1.54-2.01,1.28-3.69,2.9-5.05,4.87-.22,.32-.62,.51-.93,.76h.01l1.45-3.76h-1.47l-.22-.76c-.5,.15-.88,.32-1.29,.39-.51,.09-.63,.51-.79,.87-.07,.14-.02,.43,.09,.53,.12,.12,.43,.21,.55,.13,.58-.37,1.13-.79,1.69-1.19-.06,.55,.04,1.18-.2,1.63-.65,1.2-1.32,2.41-2.29,3.38-.5-.25-.95-.65-1.33-.6-.56,.07-1.07,.09-1.62-.02-.36-.07-.76,.08-.93,.51,.91,.21,.97,.18,1.28,.82,.24,.5,.63,.73,1.08,.91,.66,.27,.71,.78,.66,1.37-.54,.29-.36,.82-.42,1.26-.05,.02-.12,.03-.16,.07-.03,.02-.03,.08-.04,.12l.17-.21c.51-.3,.36-.81,.41-1.26l.86,.03h-.01c-.07,.39-.05,.83-.22,1.19-.7,1.44-1.29,2.91-1.61,4.49-.06,.3-.29,.57-.61,1.18-.09-.89-.14-1.41-.21-2.17-.4,.86-1.32,.86-1.52,1.63-.54-.26-.32-.63-.17-1.01,.05-.13-.03-.33-.06-.53l-1.48,1.08-.84-.37c0-.35-.06-.67-.41-.84-.02-.05-.04-.11-.07-.15-.02-.03-.06-.04-.1-.05l.19,.18c.04,.33,.07,.67,.41,.85-.04,.59,.36,.84,.82,1.02,.59,.23,1.18,.4,1.68-.19l1.12,.03c-.25,1.25-.49,2.36-.7,3.47-.07,.37-.25,.57-.54,.8-.76,.61-.74,.63-.2,1.47,.11,.17,.21,.34,.32,.52h-.01l-.73,.33c1.15,1.25,1.16,1.25,1.54,2.74,.35,1.35,.68,2.71,.45,4.17,1.45,1.37,1.84,3.21,2.23,5.08l1.13,.65c-.1,.28-.22,.53-.28,.78-.02,.1,.08,.23,.13,.35,.16-.08,.45-.14,.46-.23,.04-.48,.12-.99-.02-1.43-.27-.83-.32-1.63-.07-2.47,.24,1.65,1.28,3.14,.98,4.87-2.3,.73-2.31,.71-3.18,2.24-1.35-.2-2.49-.95-3.41-1.84-1.11-1.09-2.46-1.28-3.81-1.4-1.44-.12-2.9-.02-4.35-.09-1.1-.06-2.11-.21-2.83-1.04-.92-1.06-2.12-1.53-3.41-1.85-.2-.05-.45-.19-.6-.13-1.02,.47-1.59-.18-2.14-.83-.63-.74-1.38-1.05-2.37-1.1-.96-.05-1.9-.37-2.99-.6-.06-.26-.17-.58-.2-.9-.04-.36-.05-.72-.37-.93-.58-.38-.74-.98-.89-1.6-.15-.61-.33-1.21-.5-1.81-.29-1.1-.8-2.04-1.62-2.86-.73-.73-1.31-1.61-1.93-2.4,.08-.66,.17-1.28,.21-1.9,.08-1.27,.07-1.27-1.07-2.42,.18-.67,.38-1.39,.58-2.13-.22-.56-.54-1.12-.64-1.71-.11-.67-.52-.98-1.05-1.17-.65-.24-1.46-.28-1.85-.88-.76-1.17-2.15-1.82-2.56-3.26-.21-.74-.67-1.35-1.18-1.95-.45-.52-.75-1.17-1.07-1.78-.26-.51-.54-.97-1.11-1.2-1.81-.72-2.49-2.34-3.01-4-.44-1.4-.91-2.76-1.86-3.91-.3-.36-.54-.85-.61-1.31-.11-.73-.41-1.32-.85-1.88-.7-.89-1.19-1.86-1.26-3.02-.02-.34-.11-.69-.19-1.12-.68-.58-1.62-1.05-1.71-2.17-.68-.59-1.31-1.25-2.05-1.75-.69-.47-1.48-.77-1.66-1.75-.03-.2-.4-.35-.64-.5-.65-.4-1.3-.79-1.83-1.11-.11-.49-.08-.98-.27-1.1-1.47-.9-1.48-.87-2.27-2.05-.36-.55-.75-1.04-1.52-.73-1.55-.26-3.15-.12-4.69-.61-.77-.24-1.67-.14-2.5-.09-1.08,.06-2.07-.12-3.01-.69-.41-.25-.88-.4-1.39-.63-.41,.53-.78,1.01-1.17,1.51-1.27,.23-2.56,.46-3.8,.68-1.03,1.28-1.67,2.67-2.29,4.08,.11,1.51-1.4,2.61-.92,4.19-.57,.38-1.06,.64-1.48,1-.47,.4-.92,.85-1.31,1.32-.35,.42-.61,.91-.97,1.44-.83,.21-1.72,.16-2.57-.2-1.33-.56-2.73-1.02-3.54-2.49-1.56-.01-2.72-.8-3.46-2.16-.43-.05-.78-.06-1.12-.12-1.88-.34-3.39-1.29-4.44-2.88-.49-.75-1.09-1.13-1.92-1.47-1.53-.62-2.72-1.72-3.13-3.42-.13-.56-.36-1.03-.66-1.51-.67-1.07-1.16-2.23-1.17-3.53,0-.55,.1-1.1,.15-1.65,.05-.64-.03-1.22-.42-1.78-.92-1.32-1.68-2.73-1.92-4.36-.21-1.41-1.34-2.22-2.17-3.22-.44-.52-1.06-.89-1.6-1.33-.37-.31-.71-.55-1.22-.69-.7-.2-1.4-.67-1.91-1.21-.95-1-2.16-1.8-2.75-3.13-.13-.3-.44-.54-.7-.77-1.03-.94-1.98-1.9-2.83-3.03-.81-1.07-1.79-2.14-3.18-2.61-1.46-.49-2.17-1.71-2.7-3.01-.34-.84-.63-1.7-1.25-2.51-1.18-.41-2.45-.69-3.79-.69-.9,0-1.8-.16-2.7-.25-.21-.02-.42-.08-.62-.08-2.59,.05-5.15-.28-7.73-.46-1.39-.1-2.8,.05-4.16-.35-.26-.08-.56-.04-.84-.05-1.67-.09-3.33-.17-5.12-.27-.41,.63-.56,1.43-.58,2.27-.02,.98-.05,1.96-.07,2.94-.02,.7-.07,1.4-.69,2.05-.31,0-.75,.12-1.13,.02-1.23-.33-2.49-.28-3.75-.35-.9-.05-1.8-.19-2.7-.29-.14-.02-.28-.04-.42-.05-2.36-.16-4.73-.31-7.09-.49-.83-.06-1.66-.18-2.49-.27-.21-.02-.41-.07-.62-.08-2.43-.17-4.87-.3-7.3-.52-2.01-.18-4.01-.45-6.01-.68-.28-.03-.56-.05-.83-.08-1.94-.16-3.89-.32-5.83-.47-1.07-.09-2.02-.52-2.96-.99-3.19-1.59-6.38-3.19-9.57-4.76-3.89-1.91-7.81-3.75-11.68-5.7-6.36-3.21-12.7-6.47-19.04-9.73-2.42-1.24-4.82-2.54-7.23-3.81-.24-.13-.47-.28-.75-.45,.13-1.13,.42-2.16,1.09-2.95-.12-.49-.43-.5-.69-.51-1.19-.04-2.38-.03-3.57-.07-1.39-.04-2.78,.01-4.17-.29-.8-.18-1.67-.07-2.51-.1-1.88-.08-3.76,0-5.64-.33-1.22-.22-2.51-.08-3.77-.12-1.18-.04-2.37,.04-3.54-.3-.39-.11-.83-.08-1.25-.07-2.45,.05-4.88-.22-7.3-.49-.13-.01-.24-.12-.47-.24,.02-.21,.03-.47,.07-.72,.1-.61-.08-1.23-.6-1.44-.74-.29-1.06-.61-.7-1.38-.2-1.45,.49-2.85,.22-4.3-.13-.68-.18-1.39-.4-2.04-.65-1.85-1.44-3.62-2.87-5.05-.78-.79-1.34-1.82-2.17-2.53-1.44-1.23-2.69-2.61-3.92-4.03-.32-.38-.94-.51-1.44-.76l-.74,.85q-.41,.04-1.7-.91c.07-.86,.23-1.69,.17-2.5-.05-.6-.33-1.21-.61-1.75-.26-.51-.73-.84-1.36-.85-.28,0-.56-.07-.84-.03-1.79,.21-3.23-.68-4.7-1.47-.3-.16-.55-.45-.86-.59-1.16-.54-1.9-1.39-2.07-2.68-.02-.13-.05-.3-.13-.39-1.26-1.18-2.23-2.69-3.91-3.37-.25-.1-.59-.21-.79-.11-.76,.37-1.27-.09-1.92-.35-.85-.33-1.62-.78-2.43-1.16-.86-.41-1.85-.55-2.8-.75-.4-.09-.84-.09-1.25-.06-1.2,.09-2.15-.12-2.73-1.4-.26-.58-.99-.94-1.59-1.47,.53-1.02,.79-2.14,.94-3.32,.14-1.08,.21-1.07-.1-2.25,.27-.82,.87-1.55,.84-2.52-.03-.92-.13-1.17-1.03-1.58-.25-.12-.52-.2-.75-.35-.75-.49-.99-1.11-.79-1.98,.05-.2,.15-.39,.21-.59,.4-1.28,.42-1.32-.79-2.18-.61-.44-1.02-1.04-1.22-1.66-.4-1.22-1.21-2-2.29-2.72-.03-1.1-.43-2.12-1.09-3.04-.12-.17-.24-.36-.3-.55-.2-.73-.22-1.57-.61-2.18-.41-.64-.93-1.17-1.11-1.96-.19-.84-.67-1.54-1.34-2.08-1.2-.96-1.66-2.19-1.51-3.7,.08-.82,.17-1.65,.16-2.48,0-.33-.19-.66,.07-.98,.28-.34,.61-.16,.95-.14,.23,.01,.59-.12,.7-.31,.36-.6,.65-1.23,.92-1.88,.1-.24,.14-.57,.07-.82-.2-.73-.32-1.5-.87-2.18-.44-.06-.92-.12-1.4-.19-.88-.12-1.61-.54-2.08-1.28-.71-1.12-1.33-2.29-1.99-3.43-.3-.52-.36-1.04-.09-1.59,.46-.92,.43-1.89,.16-2.85-.17-.58-.46-1.13-.74-1.81,.94-1.15,.56-2.74,1.14-4.19-.67-.71-1.19-1.6-2.19-2.08-.39-.19-.65-.71-.87-1.14-.33-.64-.74-1.18-1.42-1.62l-1.11,.6c-.04-.19-.16-.38-.11-.5,.13-.32,.28-.65,.51-.91,.66-.76,.62-1.68,.62-2.58,0-.2,0-.48-.12-.6-.95-.94-.76-2.37-1.49-3.4-.12-.17-.28-.31-.45-.44-.79-.62-1.38-1.41-1.69-2.35-.49-1.49-1.39-2.72-2.24-4-.31-.46-.62-.93-.89-1.41-.34-.59-.42-1.2,.06-1.76,.62-.72,.64-1.6,.41-2.38-.29-.96-.21-1.94-.41-2.89-.14-.68,.02-1.23,.28-1.81,.17-.38,.22-.84,.46-1.16,.51-.66,.61-1.38,.59-2.17-.07-2.25-.48-4.41-1.57-6.41-.2-.36-.44-.71-.56-1.1-.23-.76-.67-1.36-1.21-1.93-.62-.66-1.25-1.32-1.59-2.3,.31-.71,.43-1.52,.22-2.37-.06-.25-.04-.56,.05-.8,.45-1.19,1.21-2.2,1.97-3.2,.15-.2,.47-.27,.7-.42,.17-.11,.44-.23,.47-.38,.2-1.23,1.27-1.95,1.73-3.01,.18-.43,.3-.95,.25-1.41-.11-.97,.19-1.74,.71-2.54,.53-.81,.91-1.73,1.3-2.63,.43-.98,.55-2.02,.43-3.08-.08-.76-.15-1.53-.36-2.26-.17-.58-.54-1.1-.83-1.66,.34-.61,.7-1.21,1-1.83,.33-.68,.32-1.35-.18-1.96-.65-.79-.99-1.68-.88-2.71,.01-.14,.02-.29-.03-.42-.66-1.57,0-3.01,.43-4.47,.23-.8,.54-1.57,.8-2.34-.31-.71-.61-1.33-.87-1.98-.36-.9-.39-1.73,.32-2.53,.65-.73,1.28-1.5,1.74-2.35,.56-1.04,.98-2.16,1.36-3.28,.19-.56,.26-1.07,.97-1.19,.16-.03,.3-.27,.4-.44,1.75-3.1,3.35-6.25,4.23-9.73,.44-1.75,1.16-3.42,1.74-5.14,.13-.39,.16-.81,.28-1.2,.56-1.86,1.21-3.69,1.5-5.63,1.16-1.37,1.15-3.27,2.1-4.74,.14-.22,.14-.53,.2-.81,.15-.75,.26-1.5,.47-2.23,.2-.71,.66-1.31,.59-2.13-.03-.32,.42-.68,.65-1.02,0,.13-.01,.26,.03,.38,.03,.08,.13,.14,.2,.2,.01-.11,.07-.24,.03-.32-.05-.1-.18-.16-.28-.23,.06-.41,.09-.82,.17-1.22,.05-.27,.28-.54,.25-.78-.16-1.13,.29-2.18,.4-3.26,.07-.64,.19-1.14,.61-1.68,.5-.64,.76-1.47,.43-2.35-.11-.3-.1-.64-.16-1.08,.33,.03,.58-.02,.67,.07,.8,.81,1.97,.49,2.89,.96,.23,.12,.65-.15,.98-.23,.87-.21,1.64-.11,2.16,.73,.09,.23,.17,.46,.27,.69,.02,.04,.16,.06,.17,.04,.06-.08,.15-.24,.13-.26-.18-.17-.39-.31-.59-.45l-.12-1.09c-.39-.06-.73-.1-1.06-.16-.41-.07-.92-.03-1.2-.26-.88-.76-1.8-.57-2.81-.25-.3-.27-.65-.51-.91-.83-.38-.47-.79,.09-1.28-.17-.17-.6,.38-1.08,.5-1.65,.13-.61,.25-1.23,.36-1.84,.12-.61,.22-1.22,.34-1.87,.73,.32,.43,.91,.44,1.42,0,.27,.32,.45,.62,.36,.12-.04,.29-.11,.33-.2,.07-.18,.14-.42,.08-.59-.19-.53-.05-.95,.34-1.31,.24-.22,.48-.43,.77-.7-.81-.15-1.61-.13-2.27-.87-.17-.71-.09-1.52,0-2.38,.28,.12,.66,.32,.7,.28,.5-.68,1.32-.36,1.93-.67-.43-.52-.85-1.03-1.28-1.54-.34-.41-.75-.36-.92,.14-.13,.39-.14,.83-.68,.91-.06-.12-.19-.27-.16-.36,.55-1.48,.36-3.03,.39-4.55,0-.21,.02-.45-.08-.62-.7-1.16-.4-2.42-.38-3.66,.01-.77,.04-1.54,.03-2.3-.02-1.36-.36-2.62-1.29-3.65-.6-.66-.83-1.42-.84-2.3-.02-1.4,0-2.78,.65-4.08,.3-.61,.63-1.23,.24-1.83,.4-.38,.67-.22,.89-.08,.47,.29,.94,.6,1.36,.96,.85,.73,1.7,1.42,2.78,1.81,.43,.16,.85,.51,1.15,.87,.75,.92,1.74,1.36,2.83,1.66,1.14,.32,2.26,.68,3.39,1.03,.4,.12,.82,.22,1.18,.42,1.1,.63,2.23,.73,3.37,.3,.78,.3,.98,.99,1.26,1.62,.76-.17,1.59,.22,2.29-.45,.29-.28,.68,.07,.89,.76-.06,.02-.12,.04-.17,.08-.03,.02-.02,.09-.03,.13l.17-.23ZM613.38,181.44l-.15-.12,.18,.09,.42,.42s.04,.1,.07,.14c.02,.02,.07,.03,.1,.04l-.2-.16c-.14-.14-.28-.28-.42-.42Zm-9.65-14.3l.42-.42,.42-.42c.19-.03,.4-.02,.55-.12,.09-.06,.08-.29,.11-.44-.1,.04-.23,.05-.3,.12-.13,.14-.22,.3-.33,.46l-.42,.42-.42,.42s-.1,.04-.14,.07c-.03,.02-.04,.06-.06,.09l.18-.18Zm30.21-54.11s-.04-.1-.07-.15c-.02-.03-.07-.03-.1-.04l.2,.16,.42,.42c.08,.44-.1,.96,.42,1.26l.1,1.06c.36-.49,.24-.79-.13-1.03-.03-.45,.1-.96-.41-1.26l-.42-.42Zm-119.98,207.31c.02,.06,.03,.13,.07,.17,.02,.03,.08,.03,.13,.04l-.22-.19c-.02-.06-.03-.13-.06-.18-.02-.03-.09-.02-.14-.03l.23,.19Zm96.5-155.72c.03,.05,.04,.11,.08,.15,.02,.03,.08,.02,.11,.03l-.22-.16-.42-.42-.14-.12,.17,.09,.42,.42Zm-99.02,153.65l-.85-.02c-.02-.38-.09-.72-.59-.5-.23,.1-.42,.26-.67,.42,.48,.44,.87,.02,1.25,.1q.4,.47,.83-.01s.1-.04,.15-.08c.03-.02,.03-.06,.05-.1l-.16,.2Zm108.25-175.86q-.46,.39,0,.8c.02,.05,.04,.11,.07,.15,.02,.03,.06,.04,.1,.06l-.19-.18c0-.29,0-.57,0-.86,.04-.03,.1-.05,.13-.08,.02-.02,.02-.07,.04-.1l-.14,.21ZM40.64,28.63c.49-.23,.51-.56,.07-1.11l-.05,1.13s-.1,.04-.14,.07c-.02,.02-.03,.07-.04,.1l.16-.2ZM449.76,337.16l-.86-.42-.15-.11,.18,.09c.19,.85,.25,.88,.81,.42,.05-.02,.11-.04,.16-.08,.03-.02,.03-.07,.05-.11l-.18,.21Zm138.05,.81c.01,.59,.03,1.19,.04,1.78,.36-.62,.59-1.24-.07-1.76,0-.74,.14-1.48-.15-2.64-.25,1.19-.42,1.93,.18,2.61Zm-220.72,18.47q1.31-.4,1.84-1.27c-.75,.42-1.58,.41-1.83,1.29-.05,.02-.11,.03-.15,.06-.03,.02-.02,.07-.03,.11l.16-.19ZM42.32,21.08l1.5-.09-.47-1.1-1,1.22s-.1,.04-.14,.08c-.02,.02-.03,.06-.05,.09l.16-.19ZM585.71,335.86c.01,.12,0,.25,.04,.37,.03,.08,.11,.15,.16,.22,.01-.11,.06-.23,.02-.32-.05-.1-.17-.16-.26-.24l.58-1.54h-1.19c.18,.59,.1,1.18,.64,1.51ZM42.34,28.63c.13,.39,.27,.35,.4,0,.56-.18,.75,.47,1.27,.56l1.17-1.23c-.35-.26-.66-.42-.88-.67-.23-.27-.38-.61-.68-1.12l-.85,2.5h-.45c0-.49-.02-.98-.03-1.46,0-.42,.56-.77,.18-1.33-.18,.23-.32,.39-.42,.56-.07,.12-.1,.26-.11,.4-.02,.21-.01,.42-.03,.63,0,.14-.03,.28-.05,.41-.04,.19-.09,.38-.14,.61l.62,.15ZM22.61,174.28c.08,.09,.15,.22,.26,.27,.06,.03,.18-.07,.27-.1-.06-.03-.11-.07-.17-.08-.13-.03-.26-.04-.38-.06-.09-.38,.12-.85-.34-1.12-.13,.03-.3,.02-.39,.1-.26,.22-.48,.48-.86,.87l1.61,.12ZM49.03,11.03c-.02-.06-.03-.13-.06-.18-.02-.03-.08-.03-.12-.05l.21,.2-.06,.96c-.6,.11-1.24-.26-1.51,.58l.5,.8c.4-.25,.73-.49,1.09-.68,.34-.18,.85,.15,1.12-.4-.06-.15-.08-.38-.21-.5-.29-.28-.63-.5-.95-.75ZM18.84,182.68c.03,.4,.12,.78,.49,1.01,.04,.02,.12,.01,.15-.01,.04-.03,.1-.13,.09-.15-.24-.28-.49-.56-.74-.83,.19-1.66-.11-3.18-1.28-4.45-.09-.1-.13-.24-.22-.44,.36-.78,.32-1.54-.37-2.24-.31-.31-.1-.82,.27-1.06,.56-.37,1.4-.2,1.79-1-.25-.29-.51-.62-.8-.92-.45-.48-1.01-.46-1.54-.22-.49,.22-.75,.72-.64,1.21,.21,.89-.4,1.76,.03,2.65,.07,.14-.24,.46-.38,.7q1.05,.94,.76,2.22c-.03,.14-.07,.27-.1,.41-.15,.75,.04,1.35,.71,1.81,.39,.27,.67,.69,1.04,.99,.2,.16,.49,.22,.73,.32Zm434.52,144.2c.58-.44,.75-.97,.37-1.69-.62-.16-1.3-.54-1.93-.46-.77,.09-1.18-.22-1.6-.71-.63-.75-1.54-.91-2.43-1.07-.43-.08-.89,.05-1.11,.43-.59,1.04-1.28,1.98-2.08,2.86-.25,.28-.18,.64-.02,.98,.26,.56,.72,.84,1.27,.99,.6,.16,1.21,.31,1.82,.41,.33,.05,.69,.03,1.03-.02,1.35-.22,2.53-.73,3.22-2.02,.06-.11,.22-.16,.39-.27l1.05,.57Zm-70.45,14.36c.28-.94,.58-1.84,.82-2.76,.09-.37-.16-.66-.5-.83-.35-.17-.71-.09-.98,.14-.2,.17-.29,.46-.44,.69-.18,.27-.36,.54-.54,.81-.58,.2-.96-.66-1.54-.09,.06,.45,.27,1,.17,1.5-.11,.55,.09,.82,.51,.96,.7,.23,.25,.82,.45,1.22,.64,.38,1.11,1.06,1.96,1.17,.81-1.51,2.28-2.24,3.92-3.08-.42-.15-.69-.35-.9-.3-.61,.14-1.19,.4-1.79,.58-.4,.12-.81,.23-1.14-.02Zm115.34-24.13c1.41-.19,2.45,.13,3.28-.35,.7-.4,1.41-.36,2.11-.49,.27-.05,.57,.41,.9-.09-.26-.23-.47-.57-.77-.66-.45-.14-.97-.19-1.43-.12-.47,.07-.92,.3-1.35,.53-.5,.27-.77-.04-1.08-.34-.43,.4-.87,.79-1.67,1.52Zm-8.38-1.5c-.02,.12-.1,.3-.05,.36,.61,.73,.46,1.39-.13,2.03-.19,.2-.41,.38-.58,.59-.06,.08-.05,.34-.02,.35,.18,.06,.47,.16,.55,.07,.65-.69,1.47-.99,2.36-1.2,.42-.1,.77-.31,.84-.78-.29-.46-.58-.92-.87-1.36,0,0-.07,.03-.11,.04q-.26,1.05-.82,1.45c-.27-.61-.39-1.33-1.17-1.56Zm-95.04,20.89c.4-.28,.65-.54,.95-.64,.86-.31,1.06-.98,1.1-1.77,.01-.27-.06-.58-.4-.6-.17-.01-.42,.09-.52,.22-.36,.49-.73,1-.98,1.55-.15,.33-.1,.76-.15,1.24Zm206.75-171.28c.1,.72,.17,1.33,.29,1.93,.04,.19,.2,.37,.33,.51,.08,.09,.24,.1,.36,.15,.06-.17,.22-.42,.16-.49-.88-1.01-.95-2.1-.39-3.28,.08-.18,.1-.4,.08-.61,0-.08-.15-.16-.25-.22-.03-.02-.16,.04-.17,.08-.15,.66-.29,1.33-.42,1.91Zm-9.76,224.24c.23-.61,.1-.95-.25-1.24-.24-.2-.66-.21-.7,.02-.04,.23-.03,.55,.1,.73,.15,.2,.45,.28,.85,.5Zm-8.03-57.68c.4,.84,.6,1.28,.88,1.87,.2-.8,.38-1.4-.88-1.87ZM49.7,14.72c.49-.06,.49-.35,.5-.61,.01-.31-.27-.59-.47-.46-.19,.12-.42,.37-.42,.56,0,.19,.28,.37,.39,.51ZM605.78,184.07c1,.32,1.61,.3,2.22,0h-2.22Zm-84.06-53.16c.59,.26,.96,.06,1.28-.46-.63-.24-.96,.05-1.28,.46Zm115.92-8.98c-.1-.17-.14-.35-.22-.37-.11-.02-.28,.05-.34,.14-.05,.07,.03,.23,.05,.34l.51-.11Zm-42.14-47.36c.29,.17,.45,.28,.64,.35,.09,.04,.22-.02,.33-.03-.08-.15-.14-.38-.26-.41-.17-.05-.38,.04-.71,.09ZM13.25,83.97c0-.39,.03-.6-.01-.78-.02-.1-.19-.16-.29-.24-.03,.11-.1,.23-.07,.32,.06,.19,.18,.35,.37,.7ZM593.04,254.6c-.24-.04-.42-.09-.6-.11-.05,0-.1,.07-.15,.11,.13,.09,.26,.21,.4,.24,.08,.02,.19-.12,.35-.24Zm43.69-121.01c.07-.45,.11-.62,.12-.8,0-.05-.06-.1-.1-.15-.07,.07-.2,.13-.2,.2,0,.16,.07,.33,.17,.75Zm45.16-88.44h.14v-.69h-.14v.69ZM26.19,37.59c.06-.11,.16-.22,.17-.33,0-.11-.09-.22-.14-.34-.08,.13-.2,.25-.23,.39-.01,.08,.13,.19,.2,.28Zm-1.29,137.27c-.25-.03-.43-.07-.61-.08-.05,0-.1,.07-.15,.11,.15,.07,.29,.17,.44,.19,.07,.01,.16-.11,.31-.23Zm321.89,202.43s-.11,.02-.12,.04c-.03,.05-.02,.12-.03,.18l.2-.05-.05-.17ZM443.22,50.34c-.02,.06-.05,.13-.05,.19,0,.02,.08,.04,.12,.06,.02-.06,.05-.13,.05-.19,0-.02-.08-.04-.12-.06Zm131.04,319.56l-.06-.19c-.03,.05-.09,.11-.1,.17,0,.06,.04,.12,.06,.19l.1-.16ZM494.82,55.39c-.01,.05-.05,.1-.04,.15,.03,.19,.11,.2,.18,.03,.02-.04,0-.11-.03-.16-.01-.02-.07-.02-.11-.02Zm177.17,1.07l.02-.18-.21,.05c.02,.05,.03,.11,.06,.16,0,.01,.08-.02,.12-.03Zm-142.22,263.72l.18,.05-.12-.16-.06,.12Zm-42.52-2.12s-.05-.11-.09-.13c-.05-.02-.11,0-.17,.02l.11,.2,.15-.09Zm82.31-14.26c-.03,.05-.09,.11-.1,.16,0,.06,.04,.13,.06,.19,.04-.05,.09-.11,.1-.16,0-.06-.04-.12-.07-.19Zm4.13-32.25l-.04,.18,.15-.12-.11-.06Zm2.94-.93c-.05-.03-.11-.08-.16-.09-.06,0-.12,.03-.19,.05,.05,.03,.11,.09,.16,.09,.06,0,.12-.03,.18-.05Zm37.5-117.81l-.12-.13c-.05,.1-.11,.19-.14,.29,0,.03,.07,.09,.11,.13,.05-.1,.1-.19,.15-.29Zm-.47,74.79l-.07-.18c-.04,.05-.1,.1-.1,.16,0,.06,.04,.12,.07,.18l.1-.16Zm-10.5-64.97l.03-.17-.19,.05,.05,.16,.12-.04Z"/><path class="cls-3" d="M433.62,37.84c1.08-.69,2.19-1.4,3.3-2.11,.82-.52,1.69-.99,2.46-1.57,.64-.48,1.39-.53,2.19-1.01-.01,.8-.65,.95-.77,1.35-.35,1.2-1.28,1.75-2.28,2.26-.8,.4-1.56,.81-2.14,1.59-.38,.51-1.15,.74-1.78,1.05-.57,.28-.96-.06-.99-.83,0-.2,0-.41,0-.73Z"/><path class="cls-3" d="M46.12,8.49c-.18,.8-.36,.92-.85,.63-.93-.55-1.87-1.08-2.72-1.57-.31-.72-.33-1.31-.03-1.91,.12-.23,.52-.34,.7-.16,.24,.24,.44,.52,.65,.78,.67,.04,.17-.51,.39-.72,.24-.24,.4-.55,.6-.83l-.02,.03c.41-.01,.83-.08,1.24-.02,.32,.05,.65,.21,.92,.39,.41,.26,.41,.79,0,1.02-.35,.2-.74,.33-1.1,.49-.26,.52,.16,.75,.4,1.06,.28,.36,.12,.63-.21,.84-.02-.05-.03-.1-.06-.15-.02-.03-.06-.04-.09-.06l.17,.18Zm-1.06-.96c-.11-.12-.19-.22-.2-.21-.21,.14-.41,.29-.61,.44,.08,.08,.21,.23,.23,.22,.21-.14,.39-.3,.58-.45Z"/><path class="cls-3" d="M671.97,101.57l-.61-.47c.25-.35,.5-.67,.7-1.01,.22-.36,.34-.77,.6-1.1,.2-.26,.51-.47,.81-.6,.37-.15,.64,.08,.86,.4,.34,.48,.76,0,1.13,.07,.15,.03,.35,.24,.38,.39,.03,.15-.09,.41-.22,.48-.3,.15-.65,.21-.97,.33-.97,.36-1.97,.65-2.67,1.5Z"/><path class="cls-3" d="M37.39,243.94c.98,.04,1.7,.33,2.31,.69,.7,.42,1.32,.67,2.11,.32,.09-.04,.35,.17,.45,.32,.14,.21-.04,.67-.26,.68-1.16,.04-2.33,.1-3.49,.05-.4-.02-.73-.36-.83-.82-.07-.34-.16-.67-.29-1.24Z"/><path class="cls-3" d="M32.76,244.33c.12-.14,.16-.23,.21-.23,.74,0,1.48,0,2.35,0,.14,.19,.35,.44,.54,.72,.5,.72,.4,1.06-.37,1.33-.99,.35-1.9,0-2.39-.94-.15-.29-.24-.61-.34-.86Z"/><path class="cls-3" d="M348.64,392.53c-.15-.13-.38-.24-.44-.4-.57-1.7-1.12-3.41-1.65-5.12-.08-.25-.03-.55-.02-.83,.01-.76,0-1.51-.27-2.26-.23-.63-.21-1.32,0-2.06,.53,.48,.68,1.01,.64,1.57-.15,2.69,.66,5.2,1.46,7.71,.14,.45,.17,.94,.25,1.41l.02-.02Z"/><path class="cls-3" d="M628.9,197.39c.24,.22,.58,.4,.72,.67,.52,1.06,1.3,1.91,2.09,2.75,.65,.69,1.34,1.37,1.45,2.39l-.1,.1-1.28,.31c-.34-.42-.7-.89-1.1-1.39,.68-.4,.92,.24,1.44,.4-.03-.21-.01-.41-.09-.54-.1-.17-.26-.33-.42-.44-.38-.26-.79-.49-1.18-.73-.02-.8-.79-1.24-.95-2-.11-.53-.35-1.02-.54-1.53l-.02,.02Z"/><path class="cls-3" d="M55.07,259.72c-.15-1.07-.43-1.95-1.33-2.5-.03-.02,.04-.24,.09-.35,.02-.04,.12-.09,.16-.07,1.03,.44,1.97,1.02,2.72,1.85,.27,.3,.4,.73,.56,1.11,.04,.09-.03,.28-.12,.36-.08,.08-.26,.15-.37,.12-.53-.14-1.06-.31-1.72-.51Z"/><path class="cls-3" d="M680.43,99.18c.06-.41,.15-.92,.25-1.59,.68,.55,.96,1.18,1.4,1.75-.73,1.3-1.84,1.12-3,.95,.13-.84,.93-.6,1.34-1.11Z"/><path class="cls-3" d="M52.76,264.23c.32,.58,.6,1.2,.98,1.74,.39,.56,.88,1.05,1.33,1.58-.63,.47-1.21,.5-1.53,0-.37-.57-.64-1.22-.94-1.83-.22-.44-.26-.91,.16-1.49Z"/><path class="cls-3" d="M479.64,69.35c.21-.68,.44-1.45,.69-2.22,.03-.1,.24-.23,.32-.2,.17,.06,.43,.19,.45,.32,.1,.53,.14,1.08,.17,1.62,.02,.36-.13,.68-.47,.83-.4,.18-.79,.16-1.17-.35Z"/><path class="cls-3" d="M491.54,64.7c1.08-.46,1.84-.46,2.6-.12,.24,.11,.33,.45,.17,.69-.43,.66-.89,.78-1.52,.36-.33-.22-.65-.48-1.26-.93Z"/><path class="cls-3" d="M636.01,210.83c0,.27,0,.54,0,.8,0,.68-.28,1.18-.87,1.52-.53,.31-1.05,.63-1.73,1.04,.04-.3,0-.5,.08-.58,.29-.28,.61-.55,.95-.78,.76-.52,1.48-1.05,1.58-2.01Z"/><path class="cls-3" d="M416.59,57.2c.78,0,1.14-.69,1.7-1.04,.25-.15,.5-.19,.76,.2-.63,.61-1.08,1.48-2.27,1.57l-.16-.76-.03,.03Z"/><path class="cls-3" d="M685.12,48.36c-.04,.48-.05,.96-.14,1.43-.06,.31-.67,.32-.88,.05-.48-.65-.17-1.39,.63-1.49,.13-.02,.28,.03,.41,.04l-.03-.03Z"/><path class="cls-3" d="M572.26,371.13c-.22,.39-.55,.48-.77,.09-.44-.76-.79-1.57-1.17-2.35,.53-.49,.76,.13,1.12,.18l-.02-.03c-.07,.85,.3,1.53,.86,2.14l-.02-.03Z"/><path class="cls-3" d="M583.61,401.37c.3-.44,.83-.67,.95-1.31,.05-.28,.58-.47,.88-.69,.38,.4,.26,.72,.08,1.02-.44,.72-1.09,1.03-1.93,.95l.02,.03Z"/><path class="cls-3" d="M629.32,167.14c.14,.92-.2,1.75-.51,2.58-.04,.1-.21,.14-.31,.21-.09-.15-.3-.35-.26-.43,.38-.78,.27-1.79,1.12-2.34l-.03-.02Z"/><path class="cls-3" d="M40.37,257.62c.52,.09,.82,.45,1.02,.9,.1,.21-.23,.53-.49,.51-.45-.03-.79-.27-.97-.66-.07-.14,.01-.39,.09-.56,.05-.1,.22-.13,.35-.2Z"/><path class="cls-3" d="M460.25,327.08c.23-.61,.65-1.03,1.26-1.25l-.03-.03c.02,.13,.07,.27,.07,.4,.02,.38,.85,.44,.42,.95-.35,.43-.75-.08-1.13-.05-.2,.02-.41-.03-.61-.05l.02,.02Z"/><path class="cls-3" d="M682.14,51.35c.68,.05,1.09,.02,1.45,.13,.29,.08,.32,.41,.22,.69-.09,.25-.47,.4-.66,.23-.29-.25-.54-.55-1.01-1.04Z"/><path class="cls-3" d="M477.27,321.97c-.31,.49-.36,.5-2.4,.76q.82-.59,2.4-.76Z"/><path class="cls-3" d="M464.95,75.66c-.36-.02-.59-.35-.53-.72,.06-.32,.27-.46,.57-.48,.37-.03,.67,.26,.65,.61-.02,.35-.33,.61-.7,.59Z"/><path class="cls-3" d="M348.62,392.55c.56,.63,.77,1.37,.8,2.18-.46,.16-.6-.15-.63-.36-.09-.61-.1-1.22-.15-1.84l-.02,.02Z"/><path class="cls-3" d="M475.86,77.32c.56,.03,.8,.34,.71,.84-.02,.12-.13,.27-.23,.3-.1,.04-.3,0-.37-.08-.16-.21-.31-.45-.37-.7-.03-.11,.19-.27,.26-.36Z"/><path class="cls-3" d="M570.58,371.98c.61-.08,1.14,.51,1.78,.2,.04-.02,.23,.15,.23,.23,0,.11-.1,.26-.2,.31-.18,.08-.39,.13-.58,.12-.58-.03-1.05-.25-1.24-.86Z"/><path class="cls-3" d="M350.71,371.13c-.06,.91-.72,1.47-1.26,2.09l.02,.03c-.11-1.01,.34-1.7,1.26-2.1l-.02-.02Z"/><path class="cls-3" d="M366.25,357.29c-.48,.79-1.18,1.2-2.1,1.25h0c.43-.87,1.25-1.09,2.09-1.26h0Z"/><path class="cls-3" d="M31.85,243.39c-.15,.17-.25,.35-.31,.34-.33-.06-.66-.16-.97-.27-.04-.01-.05-.27-.01-.29,.24-.11,.51-.28,.73-.24,.21,.03,.38,.3,.57,.47Z"/><path class="cls-3" d="M478.57,322.12c.31-.12,.62-.27,.94-.35,.09-.02,.28,.1,.31,.2,.03,.09-.07,.31-.15,.33-.32,.09-.65,.12-.98,.17l-.13-.34Z"/><path class="cls-3" d="M419.42,54.97c-.1,.43-.36,.51-.64,.44-.15-.04-.36-.24-.36-.36,.02-.34,.33-.4,.6-.35,.15,.03,.28,.2,.39,.28Z"/><path class="cls-3" d="M626.39,220.88l.85-.41-.02-.02c-.04,.84-.61,1.29-1.26,1.67l.03,.03v-.87l-.03,.03,.44-.44h0Z"/><path class="cls-3" d="M625.13,224.23c0,.21,.02,.42,0,.63-.04,.36-.13,.76-.52,.81-.37,.05-.63-.21-.72-.6h0c.69,.14,.82-.59,1.28-.83l-.02-.02Z"/><path class="cls-3" d="M628.5,196.95c-.76-.51-.83-1.3-.83-2.11l-.03,.02c.61,.57,.95,1.24,.84,2.1h.01Z"/><path class="cls-3" d="M586.95,398.42l1.03,.54c-.34,.67-.4,.7-.78,.32-.19-.19-.34-.41-.5-.61l.25-.25Z"/><path class="cls-3" d="M583.59,401.34c-.27,.85-.99,.82-1.68,.84l.02,.03c.31-.79,.93-.93,1.68-.84l-.02-.03Z"/><path class="cls-3" d="M634.8,205.76c-.58-.23-.55-.84-.86-1.21,.37-.41,.56-.09,.63,.09,.12,.36,.15,.76,.21,1.14l.02-.02Z"/><path class="cls-3" d="M380.09,347.21c-.19,.26-.36,.56-.59,.79-.39,.37-.49,.31-.65-.38l-.03,.03,.45-.45-.03,.03h.86v-.02Z"/><path class="cls-3" d="M635.2,206.62c.74,.53,.31,1.18,.07,1.81-.02-.61-.03-1.22-.05-1.83l-.02,.02Z"/><path class="cls-3" d="M662.7,105.69c.05,.01,.16,.01,.18,.05,.11,.22,.2,.46,.29,.69-.17,.04-.4,.17-.51,.11-.28-.16-.21-.45-.1-.71,.02-.05,.09-.09,.14-.14Z"/><path class="cls-3" d="M619.41,170.36c-.1-.23-.23-.46-.3-.71-.02-.08,.12-.3,.14-.3,.18,.06,.39,.11,.51,.23,.22,.23,.15,.49-.09,.69-.05,.04-.13,.04-.26,.08Z"/><path class="cls-3" d="M420.22,53.81c-.04-.29-.14-.49-.08-.64,.06-.16,.25-.33,.42-.39,.19-.06,.36,.38,.2,.64-.09,.14-.29,.22-.53,.38Z"/><path class="cls-3" d="M523.58,326.64c-.2,.42-.42,.81-1.06,.67,.21-.55,.62-.65,1.08-.65l-.03-.02Z"/><path class="cls-3" d="M643.18,119.73h1.69l-.03-.02c-.42,.67-1.1,.33-1.67,.43v-.42h0Z"/><path class="cls-3" d="M467.36,327.5c.55,.38,.41,.86,.08,1.36-.02-.46-.04-.92-.05-1.38l-.03,.03Z"/><path class="cls-3" d="M516.45,323.69c-.02,.46-.04,.93-.07,1.8-.36-.92-.43-1.39,.1-1.78l-.03-.02Z"/><path class="cls-3" d="M646.97,118.48l.42-.86-.03,.02h.87l-.03-.02c-.24,.54-.65,.83-1.26,.83l.03,.03Z"/><path class="cls-3" d="M596.56,71.09c-.18-.07-.48-.1-.53-.22-.12-.31,.14-.49,.39-.58,.19-.07,.4-.05,.61-.07l-.02-.03v.45l.03-.03-.4,.4-.08,.08Z"/><path class="cls-3" d="M362.07,359.81c-.13,.4-.38,.68-.81,.75-.05,0-.12-.04-.16-.08-.03-.04-.05-.12-.03-.15,.21-.39,.56-.53,.98-.53l.02,.02Z"/><path class="cls-3" d="M680.24,95.13v-1.3c.31,.53,.37,.9,0,1.3Z"/><path class="cls-3" d="M364.15,358.54c-.17,.21-.32,.44-.52,.61-.2,.18-.55,.1-.49-.06,.05-.12,.13-.28,.23-.33,.24-.1,.51-.15,.77-.22h0Z"/><path class="cls-3" d="M618.31,166.8c.18,.08,.39,.15,.39,.17-.03,.16-.11,.31-.18,.47-.11-.05-.32-.09-.32-.15,0-.16,.07-.32,.11-.49Z"/><path class="cls-3" d="M468.88,323.29c-.12-.03-.24-.06-.35-.11-.04-.02-.05-.09-.07-.14,.17-.05,.35-.12,.53-.12,.07,0,.15,.14,.23,.21-.05,.04-.09,.1-.14,.13s-.13,.02-.19,.03Z"/><path class="cls-3" d="M463.6,324.12l-.34,.2c-.07-.14-.14-.29-.21-.43,0,0,.12-.09,.15-.08,.13,.08,.25,.19,.4,.31Z"/><path class="cls-3" d="M516.52,326.26l.27-.23c.1,.14,.2,.28,.3,.42,0,0-.12,.12-.14,.1-.14-.08-.28-.19-.43-.3Z"/><path class="cls-3" d="M460.71,328.84l.29-.25c.1,.13,.2,.27,.29,.41,0,0-.12,.11-.14,.1-.15-.07-.28-.16-.44-.26Z"/><path class="cls-3" d="M625.54,222.97c-.02,.46,.16,.99-.42,1.26l.02,.02c.01-.46-.11-.97,.42-1.26l-.03-.02Z"/><path class="cls-3" d="M629.52,217.46l-.44,.22c-.03-.11-.11-.25-.07-.33,.04-.08,.19-.15,.3-.16,.06,0,.12,.14,.21,.27Z"/><path class="cls-3" d="M445,344.89c.12-.05,.25-.15,.37-.14,.12,0,.24,.11,.35,.17-.12,.05-.25,.15-.37,.14-.12,0-.24-.11-.35-.17Z"/><path class="cls-3" d="M442.34,345.34c-.12,.05-.25,.15-.37,.15-.12,0-.23-.11-.35-.17,.12-.05,.25-.15,.37-.14,.12,0,.23,.11,.35,.16Z"/><path class="cls-3" d="M474.99,79.18l.31,.2c-.09,.14-.17,.29-.29,.4-.03,.03-.2-.1-.3-.15l.28-.45Z"/><path class="cls-3" d="M562.21,358.95q-.71-.13-.84-.83l-.02,.02h.45l-.03-.02,.43,.87,.02-.03Z"/><path class="cls-3" d="M602.49,379.68l-.26,.35c-.05-.11-.14-.23-.14-.34,0-.11,.1-.22,.16-.33l.24,.31Z"/><path class="cls-3" d="M598.71,392.12c-.05,.2-.08,.4-.17,.58-.04,.07-.22,.07-.33,.1,0-.11-.04-.26,.01-.32,.14-.14,.32-.24,.48-.36h0Z"/><path class="cls-3" d="M595.64,395.7l-.49,.03c.02-.1,0-.24,.06-.3,.08-.08,.21-.1,.32-.14l.1,.41Z"/><path class="cls-3" d="M593.51,396.99c-.15,.12-.29,.24-.44,.35,0,0-.13-.13-.12-.13,.12-.13,.24-.25,.37-.37,.01,0,.1,.07,.19,.15Z"/><path class="cls-3" d="M625.11,181.2l-.14,.35c-.07-.14-.18-.27-.2-.41-.01-.09,.12-.2,.19-.29,.05,.12,.1,.24,.16,.35Z"/><path class="cls-3" d="M591.48,398.25l-.2-.3c.14-.08,.28-.17,.43-.23,.02,0,.12,.11,.12,.11-.11,.14-.22,.28-.34,.43Z"/><path class="cls-3" d="M581.91,402.18c-.07,.09-.13,.22-.23,.27-.08,.04-.21-.01-.31-.02,.07-.07,.12-.16,.2-.19,.11-.04,.24-.03,.37-.03l-.02-.03Z"/><path class="cls-3" d="M42.52,4.54l-.15,.09-.12-.21c.06,0,.13-.03,.18-.01,.04,.02,.06,.08,.1,.13Z"/><path class="cls-3" d="M625.7,177.93s.12,0,.14,.02c.03,.05,.06,.14,.04,.19-.08,.21-.18,.2-.23-.02-.01-.05,.03-.12,.05-.18Z"/><path class="cls-3" d="M44.86,4.71c-.14,0-.28,.03-.4-.01-.08-.03-.13-.15-.19-.24,.12-.02,.26-.09,.34-.04,.1,.06,.15,.21,.22,.32l.02-.03Z"/><path class="cls-3" d="M570.55,372c-.09-.15-.2-.29-.28-.44-.02-.03,.05-.1,.07-.15l.33,.51-.13,.08Z"/><path class="cls-3" d="M351.13,370.29c0,.35-.03,.68-.42,.84l.02,.02c.01-.34,.04-.68,.42-.84l-.03-.02Z"/><path class="cls-3" d="M351.56,369.45c0,.35-.07,.67-.43,.84l.03,.02c.05-.32,.02-.69,.41-.84h-.01Z"/><path class="cls-3" d="M625.55,190.66c.37,.17,.43,.48,.42,.84h.01c-.43-.15-.41-.51-.41-.86l-.02,.02Z"/><path class="cls-3" d="M569.34,369.44c-.1-.09-.23-.15-.29-.26-.03-.06,.07-.19,.12-.29,.03,.06,.08,.11,.09,.18,.03,.13,.04,.27,.05,.4l.03-.03Z"/><path class="cls-3" d="M568.83,367.89s-.09,.08-.14,.13c-.04-.11-.09-.22-.11-.33,0-.03,.08-.08,.13-.12,.04,.11,.08,.22,.12,.32Z"/><path class="cls-3" d="M481.41,66.23c-.11,.04-.22,.1-.34,.12-.03,0-.12-.09-.12-.14,0-.05,.1-.14,.13-.13,.11,.03,.22,.1,.33,.15Z"/><path class="cls-3" d="M657.45,105.88c-.07,.11-.11,.25-.21,.3-.08,.04-.22-.02-.34-.03,.05-.09,.08-.22,.16-.25,.11-.05,.25-.02,.38-.03h0Z"/><path class="cls-3" d="M447.69,344.6l-.16-.05c.06-.05,.12-.12,.19-.15,.02,0,.08,.07,.12,.11l-.15,.09Z"/><path class="cls-3" d="M635.22,206.6c-.42-.14-.42-.49-.42-.84l-.02,.02c.41,.15,.43,.49,.42,.84l.02-.02Z"/><path class="cls-3" d="M461.1,331.61c-.1-.05-.19-.1-.29-.15,.05-.04,.1-.13,.13-.12,.1,.03,.2,.1,.3,.15l-.14,.12Z"/><path class="cls-3" d="M467.7,330.35c-.05,.1-.09,.19-.14,.29-.04-.05-.12-.1-.11-.13,.03-.1,.09-.2,.14-.3l.11,.14Z"/><path class="cls-3" d="M644.87,119.74c.17-.36,.5-.41,.84-.42l-.03-.03c-.15,.41-.51,.39-.84,.41l.03,.03Z"/><path class="cls-3" d="M642.75,120.56c-.16,.38-.49,.41-.83,.42l.02,.03c.13-.43,.49-.42,.84-.42l-.03-.02Z"/><path class="cls-3" d="M631.84,214.99c-.15,.4-.49,.42-.84,.41l.03,.02c.16-.37,.48-.44,.83-.42l-.02-.02Z"/><path class="cls-3" d="M641.91,120.97c-.08,.1-.14,.23-.25,.29-.09,.04-.22-.02-.33-.03,.07-.07,.13-.17,.21-.2,.12-.04,.26-.02,.39-.03l-.02-.03Z"/><path class="cls-3" d="M527.49,323.63c-.09-.05-.19-.09-.28-.14,.04-.04,.1-.12,.13-.11,.1,.03,.19,.08,.29,.13l-.13,.12Z"/><path class="cls-3" d="M637.29,134.84c.1,.09,.23,.16,.28,.27,.03,.06-.08,.19-.12,.29-.03-.06-.08-.12-.09-.18-.02-.13-.03-.27-.04-.41l-.03,.02Z"/><path class="cls-3" d="M627.25,220.47c0-.13,0-.26,.03-.38,.03-.08,.14-.13,.21-.19,.01,.11,.06,.24,.02,.32-.05,.1-.19,.15-.29,.23l.02,.02Z"/><path class="cls-3" d="M625.96,222.12c-.01,.34,0,.7-.42,.84l.03,.02c0-.29,0-.58,0-.87l-.03,.03h.45l-.03-.03Z"/><path class="cls-3" d="M619.67,225.08c.36,.14,.29,.27,0,.4l.03,.02v-.45l-.03,.02Z"/><path class="cls-3" d="M630.16,216.25l-.17,.2s0-.1,.04-.12c.04-.03,.1-.04,.16-.06l-.02-.02Z"/><path class="cls-3" d="M630.18,216.27l.42-.42-.02-.02-.42,.42,.02,.02Z"/><path class="cls-3" d="M526.13,324.56l.1-.18-.12,.15,.03,.03Z"/><path class="cls-3" d="M526.1,324.53l-.42,.42,.03,.03,.42-.42-.03-.03Z"/><path class="cls-3" d="M525.68,324.95l-.42,.42,.03,.03,.42-.42-.03-.03Z"/><path class="cls-3" d="M461.51,325.82l.17-.2s-.02,.08-.04,.1c-.04,.03-.1,.05-.15,.07l.03,.03Z"/><path class="cls-3" d="M630.6,215.86l.43-.42-.03-.02-.42,.43,.02,.02Z"/><path class="cls-3" d="M631.86,215.01l.2-.23s0,.12-.04,.14c-.05,.04-.12,.05-.19,.07l.02,.02Z"/><path class="cls-3" d="M523.61,326.66l.17-.21s-.02,.09-.04,.11c-.04,.03-.1,.05-.16,.07l.03,.02Z"/><path class="cls-3" d="M642.78,120.58v-.44h.4l-.43,.41,.03,.02Z"/><path class="cls-3" d="M467.39,327.47l-.2-.17s.08,.02,.1,.05c.03,.04,.05,.1,.07,.15l.03-.03Z"/><path class="cls-3" d="M645.71,119.32l.18-.18s-.03,.08-.05,.09c-.04,.03-.1,.04-.15,.06l.03,.03Z"/><path class="cls-3" d="M646.94,118.45l-.16,.2s.02-.08,.05-.1c.04-.03,.09-.05,.14-.07l-.03-.03Z"/><path class="cls-3" d="M648.63,117.2l-.43,.42,.03,.02v-.45l-.03,.03h.46l-.02-.02Z"/><path class="cls-3" d="M633.16,203.2c.08,.08,.24,.21,.23,.22-.22,.27-.24,0-.33-.12l.1-.1Z"/><path class="cls-3" d="M451.86,341.35l.19-.19s-.02,.1-.05,.12c-.05,.03-.11,.04-.17,.05l.02,.02Z"/><path class="cls-3" d="M451.84,341.32l-.2,.23s0-.11,.04-.14c.05-.04,.12-.05,.19-.07l-.02-.02Z"/><path class="cls-3" d="M657.45,105.88l.19-.2s0,.1-.03,.13c-.04,.04-.11,.05-.16,.07h0Z"/><path class="cls-3" d="M666.69,86.56l-.2-.18s.1,0,.12,.04c.03,.04,.04,.11,.06,.16h.01Z"/><path class="cls-3" d="M359.53,357.7l-.2,.2s.01-.1,.04-.12c.05-.04,.11-.05,.17-.07h0Z"/><path class="cls-3" d="M477.44,72.73l.22,.21s-.12,0-.14-.04c-.04-.05-.04-.12-.06-.19l-.02,.02Z"/><path class="cls-3" d="M477.45,72.71l-.22-.2s.11,0,.14,.04c.04,.05,.04,.12,.06,.18l.02-.02Z"/><path class="cls-3" d="M562.61,358.95c-.14,.34-.27,.35-.4,0l-.02,.03h.44l-.02-.02Z"/><path class="cls-3" d="M362.05,359.79l.24-.2c-.01,.05,0,.12-.03,.15-.05,.04-.12,.05-.19,.07l-.02-.02Z"/><path class="cls-3" d="M628.49,196.96l.42,.43,.02-.02-.43-.42h-.01Z"/><path class="cls-3" d="M569.32,369.47l.19,.18s-.08-.02-.1-.05c-.03-.04-.04-.1-.07-.15l-.03,.03Z"/><path class="cls-3" d="M349.46,373.22c-.14,.14-.28,.29-.42,.43h.01l.43-.4-.02-.03Z"/><path class="cls-3" d="M344.86,386.24l.27,.17c-.26,.24-.23-.03-.29-.16h.01Z"/><path class="cls-3" d="M525.26,325.37l-.18,.2s.02-.08,.05-.1c.04-.03,.1-.05,.15-.07l-.03-.03Z"/><path class="cls-3" d="M453.36,326.87l-1.05-.57c-.18,.12-.34,.17-.39,.27-.69,1.29-1.87,1.8-3.22,2.02-.34,.05-.7,.07-1.03,.02-.61-.1-1.22-.25-1.82-.41-.55-.15-1.02-.43-1.27-.99-.16-.34-.23-.7,.02-.98,.79-.88,1.49-1.83,2.08-2.86,.22-.39,.68-.51,1.11-.43,.89,.16,1.79,.32,2.43,1.07,.42,.49,.83,.8,1.6,.71,.63-.08,1.31,.3,1.93,.46,.38,.72,.21,1.25-.37,1.69Z"/><path class="cls-3" d="M382.91,341.24c.32,.25,.74,.15,1.14,.02,.6-.18,1.18-.44,1.79-.58,.21-.05,.48,.15,.9,.3-1.63,.84-3.11,1.57-3.92,3.08-.85-.11-1.32-.79-1.96-1.17-.2-.39,.25-.99-.45-1.22-.42-.14-.62-.41-.51-.96,.09-.49-.11-1.04-.17-1.5,.58-.58,.96,.29,1.54,.09,.18-.27,.37-.54,.54-.81,.15-.23,.24-.52,.44-.69,.27-.24,.62-.31,.98-.14,.34,.16,.6,.45,.5,.83-.23,.92-.53,1.82-.82,2.76Z"/><path class="cls-3" d="M18.84,182.68c-.25-.1-.53-.16-.73-.32-.37-.3-.65-.72-1.04-.99-.67-.46-.86-1.06-.71-1.81,.03-.14,.07-.27,.1-.41q.29-1.28-.76-2.22c.14-.24,.45-.56,.38-.7-.43-.89,.18-1.77-.03-2.65-.12-.49,.15-.99,.64-1.21,.53-.24,1.09-.26,1.54,.22,.28,.3,.54,.63,.8,.92-.39,.8-1.24,.63-1.79,1-.37,.25-.58,.75-.27,1.06,.69,.7,.73,1.46,.37,2.24,.09,.19,.13,.34,.22,.44,1.17,1.27,1.47,2.79,1.28,4.45l.02-.02Z"/><path class="cls-3" d="M349.48,373.25l-.43,.42-.86-.03,.03,.02c.05-.59,0-1.1-.66-1.37-.44-.18-.84-.42-1.08-.91-.31-.65-.37-.62-1.28-.82,.18-.43,.57-.58,.93-.51,.55,.11,1.06,.09,1.62,.02,.39-.05,.83,.36,1.33,.6,.97-.97,1.64-2.18,2.29-3.38,.24-.45,.14-1.08,.2-1.63l-.03,.03h1.47l-1.45,3.77c-.39,.16-.36,.52-.41,.84-.38,.16-.41,.49-.42,.84-.92,.4-1.36,1.09-1.26,2.1Z"/><path class="cls-3" d="M498.25,317.11c.8-.73,1.23-1.12,1.67-1.52,.31,.29,.58,.6,1.08,.34,.43-.23,.88-.46,1.35-.53,.46-.07,.98-.02,1.43,.12,.3,.09,.52,.43,.77,.66-.33,.5-.63,.04-.9,.09-.7,.14-1.41,.09-2.11,.49-.84,.48-1.88,.17-3.28,.35Z"/><path class="cls-3" d="M489.87,315.61c.77,.23,.9,.95,1.17,1.56q.56-.39,.82-1.45s.11-.05,.11-.04c.29,.45,.57,.9,.87,1.36-.08,.47-.42,.68-.84,.78-.88,.21-1.71,.51-2.36,1.2-.08,.08-.37-.02-.55-.07-.03-.01-.04-.27,.02-.35,.17-.22,.39-.39,.58-.59,.59-.64,.74-1.3,.13-2.03-.05-.06,.03-.24,.05-.36Z"/><path class="cls-3" d="M354.52,364.43c.53-.91,.52-1.84,.16-2.81-.04-.12,.12-.4,.25-.46,.16-.07,.43-.04,.57,.06,.43,.31,.48,1.11,1.17,1.07,.54-.03,1.07-.26,1.6-.4l.03,.03c-1.03,1.2-2.18,2.21-3.81,2.48l.03,.03Z"/><path class="cls-3" d="M42.77,28.67l.85-2.5c.3,.51,.45,.86,.68,1.12,.22,.25,.53,.41,.88,.67l-1.17,1.23c-.52-.09-.71-.74-1.27-.56l.03,.03Z"/><path class="cls-3" d="M394.83,336.5c.05-.48,0-.91,.15-1.24,.25-.55,.62-1.06,.98-1.55,.1-.13,.35-.24,.52-.22,.33,.03,.41,.33,.4,.6-.03,.79-.24,1.46-1.1,1.77-.3,.11-.55,.37-.95,.64Z"/><path class="cls-3" d="M664.56,97.89v2.97l.03-.02c-.14-.23-.34-.44-.4-.69-.12-.55-.6-.5-.97-.67-.21-.79-.41-1.58,.33-2.25l1.04,.69-.03-.03Z"/><path class="cls-3" d="M49.9,17.75c.05-.64-.07-1.23-.59-1.68-.41-.36-.8-.73-1.27-1.17l.19-.6c.12-.04,.22-.08,.22-.07,.6,1.24,1.97,1.66,2.82,2.63,.04,.05,.04,.13,.07,.26l-1.47,.61,.03,.03Z"/><path class="cls-3" d="M351.58,365.66c-.56,.4-1.11,.83-1.69,1.19-.12,.07-.43-.01-.55-.13-.11-.1-.15-.39-.09-.53,.17-.36,.28-.78,.79-.87,.4-.07,.79-.24,1.29-.39l.22,.76,.03-.03Z"/><path class="cls-3" d="M49.03,11.03c.32,.25,.66,.47,.95,.75,.13,.12,.15,.35,.21,.5-.27,.55-.78,.22-1.12,.4-.36,.19-.69,.42-1.09,.68l-.5-.8c.27-.84,.91-.47,1.51-.58l.06-.96-.02,.02Z"/><path class="cls-3" d="M601.58,165.22c.13-.59,.27-1.25,.42-1.91,0-.04,.14-.1,.17-.08,.1,.05,.25,.14,.25,.22,.01,.2,0,.43-.08,.61-.56,1.18-.49,2.27,.39,3.28,.06,.07-.1,.32-.16,.49-.12-.05-.28-.06-.36-.15-.14-.15-.3-.33-.33-.51-.12-.6-.19-1.21-.29-1.93Z"/><path class="cls-3" d="M625.57,222.12c0,.29,0,.58,0,.87-.53,.29-.41,.8-.42,1.26-.45,.23-.58,.96-1.28,.84-.15-.48-1.12-.5-.64-1.35l1.07,.11c.59-.44,.43-1.47,1.26-1.72Z"/><path class="cls-3" d="M380.1,347.22h-.86c.63-1.15,1.54-2.05,2.66-2.86,.07,.18,.22,.41,.16,.5-.23,.34-.52,.63-.79,.95-.39,.47-.79,.94-1.18,1.41Z"/><path class="cls-3" d="M344.85,379.94c-.5,.59-1.09,.42-1.68,.19-.46-.18-.86-.43-.82-1.02l-.03,.02,.84,.37,1.48-1.08c.03,.21,.11,.4,.06,.53-.16,.39-.38,.75,.17,1.01l-.02-.03Z"/><path class="cls-3" d="M22.61,174.28l-1.61-.12c.38-.39,.61-.65,.86-.87,.09-.08,.25-.07,.39-.1,.46,.27,.25,.74,.34,1.12l.02-.03Z"/><path class="cls-3" d="M42.34,28.63l-.62-.15c.05-.23,.1-.42,.14-.61,.03-.14,.04-.28,.05-.41,.01-.21,0-.42,.03-.63,.01-.14,.04-.28,.11-.4,.1-.18,.24-.33,.42-.56,.37,.56-.19,.91-.18,1.33,.01,.49,.02,.98,.03,1.46l.03-.03Z"/><path class="cls-3" d="M47.78,26.54l-1.17,1.07-1.23-.95,2.42-.1-.02-.02Z"/><path class="cls-3" d="M591.82,389.46c-.4-.22-.7-.3-.85-.5-.13-.18-.15-.49-.1-.73,.04-.23,.46-.22,.7-.02,.35,.29,.48,.63,.25,1.24Z"/><path class="cls-3" d="M625.57,190.64c0,.35-.02,.71,.41,.85-.06,.4,.02,.86-.64,1.04-.37-.48-.13-1.13-.47-1.66l.69-.23Z"/><path class="cls-3" d="M585.71,335.86c-.54-.33-.46-.93-.64-1.51h1.19l-.58,1.54,.03-.02Z"/><path class="cls-3" d="M583.79,331.78c1.26,.47,1.08,1.07,.88,1.87-.28-.59-.48-1.03-.88-1.87Z"/><path class="cls-3" d="M42.34,21.1l1-1.22,.47,1.1-1.5,.09,.03,.03Z"/><path class="cls-3" d="M367.1,356.45c.25-.88,1.08-.87,1.83-1.29q-.53,.87-1.84,1.27l.02,.02Z"/><path class="cls-3" d="M49.7,14.72c-.11-.14-.39-.32-.39-.51,0-.19,.23-.44,.42-.56,.2-.12,.48,.16,.47,.46-.01,.26,0,.55-.5,.61Z"/><path class="cls-3" d="M605.78,184.07h2.22c-.61,.3-1.21,.32-2.22,0Z"/><path class="cls-3" d="M434.21,340.51c.49,.32,1.24,.41,1.23,1.4-.52-.48-1.18-.66-1.2-1.43l-.03,.03Z"/><path class="cls-3" d="M572.28,371.16c-.56-.6-.93-1.28-.86-2.14,.78,.51,.71,1.37,.86,2.14Z"/><path class="cls-3" d="M587.81,337.96c-.6-.68-.43-1.43-.18-2.61,.29,1.15,.15,1.9,.15,2.64l.03-.02Z"/><path class="cls-3" d="M612.56,184.77l-1.56,.13c.05-.19,.05-.37,.11-.39,.53-.21,1.03-.23,1.42,.29l.02-.03Z"/><path class="cls-3" d="M510.59,318.26c-.38-.07-.76,.35-1.25-.1,.25-.16,.44-.32,.67-.42,.5-.21,.57,.13,.59,.5h-.01Z"/><path class="cls-3" d="M611.28,174.72c.7,0,1.37,.04,1.67,.84l.03-.03c-.65-.1-1.27-.24-1.67-.83l-.02,.02Z"/><path class="cls-3" d="M587.78,337.99c.66,.52,.43,1.14,.07,1.76-.01-.59-.03-1.19-.04-1.78l-.03,.02Z"/><path class="cls-3" d="M521.72,130.9c.32-.41,.65-.7,1.28-.46-.33,.52-.69,.72-1.28,.46Z"/><path class="cls-3" d="M613.4,184.79c.69-.54,1.03-.47,1.21,.26,.05,.19,.02,.39,.03,.59l.03-.02c-.45-.24-.58-.97-1.28-.84v.02Z"/><path class="cls-3" d="M599.98,388.36c.05-.33,.09-.66,.17-.97,.02-.08,.21-.12,.32-.18,.07,.17,.25,.41,.19,.48-.19,.25-.47,.44-.71,.65l.03,.02Z"/><path class="cls-3" d="M634.8,122.66q-.71-.63-.12-1.44c.03,.54,.06,1,.09,1.47l.03-.03Z"/><path class="cls-3" d="M637.63,121.93l-.51,.11c-.02-.12-.1-.28-.05-.34,.06-.09,.24-.16,.34-.14,.08,.02,.12,.19,.22,.37Z"/><path class="cls-3" d="M524.87,129.82c-.06,.12-.1,.27-.2,.35-.46,.37-.47,.36-.88-.28l1.04-.1,.03,.03Z"/><path class="cls-3" d="M595.5,74.57c.33-.05,.54-.15,.71-.09,.12,.04,.17,.27,.26,.41-.11,.01-.24,.07-.33,.03-.18-.07-.35-.19-.64-.35Z"/><path class="cls-3" d="M630.19,161.69c-.12-.07-.25-.12-.34-.21-.4-.4-.39-.42,.31-.82v1.06l.03-.03Z"/><path class="cls-3" d="M354.49,364.4c-.01,.26-.01,.52-.05,.78-.01,.1-.12,.26-.19,.26-.1,0-.25-.08-.31-.17-.05-.09-.06-.28,0-.35,.17-.19,.38-.33,.58-.49l-.03-.03Z"/><path class="cls-3" d="M13.25,83.97c-.19-.35-.31-.52-.37-.7-.03-.09,.05-.21,.07-.32,.1,.08,.26,.14,.29,.24,.05,.19,.01,.39,.01,.78Z"/><path class="cls-3" d="M18.82,182.69c.25,.28,.5,.55,.74,.83,.01,.02-.04,.11-.09,.15-.03,.03-.11,.04-.15,.01-.37-.23-.46-.61-.49-1.01l-.02,.02Z"/><path class="cls-3" d="M570.58,287.6c-.25,.41-.55,.54-1.08,.09l1.1-.06-.02-.03Z"/><path class="cls-3" d="M615.08,146.18c.11-.17,.21-.35,.35-.49,.06-.06,.2-.02,.31-.03-.03,.11-.03,.29-.11,.33-.17,.09-.38,.12-.58,.17l.03,.03Z"/><path class="cls-3" d="M620.94,145.75c-.19-.06-.4-.1-.57-.2-.08-.04-.08-.22-.11-.33,.11,.01,.25,0,.31,.05,.14,.14,.24,.32,.36,.48h0Z"/><path class="cls-3" d="M485.43,320.36c-.02-.58,.3-.82,.84-.84l-.03-.02c-.14,.42-.42,.7-.84,.84l.02,.02Z"/><path class="cls-3" d="M593.04,254.6c-.16,.12-.27,.26-.35,.24-.14-.03-.27-.15-.4-.24,.05-.04,.1-.11,.15-.11,.18,.02,.36,.06,.6,.11Z"/><path class="cls-3" d="M636.72,133.59c-.11-.43-.17-.59-.17-.75,0-.06,.13-.13,.2-.2,.03,.05,.1,.1,.1,.15-.01,.18-.05,.35-.12,.8Z"/><path class="cls-3" d="M448.9,336.73l.86,.42-.03-.03c-.56,.46-.62,.43-.81-.42l-.02,.03Z"/><path class="cls-3" d="M622.21,224.23c-.17-.11-.35-.2-.49-.34-.06-.05-.01-.21-.01-.32,.11,.03,.3,.03,.33,.1,.09,.18,.1,.39,.15,.58l.03-.02Z"/><path class="cls-3" d="M634.77,114.71c.37,.24,.49,.54,.13,1.03l-.1-1.06-.03,.02Z"/><path class="cls-3" d="M634.8,114.68c-.51-.3-.33-.82-.42-1.26l-.03,.03c.51,.3,.38,.81,.41,1.26l.03-.02Z"/><path class="cls-3" d="M620.95,211.23c.24-.39,.55-.47,1.04-.11l-1.06,.09,.02,.02Z"/><path class="cls-3" d="M604.59,166.33c.11-.16,.2-.32,.33-.46,.07-.07,.2-.08,.3-.12-.03,.15-.02,.37-.11,.44-.14,.1-.36,.08-.55,.12l.03,.02Z"/><path class="cls-3" d="M482.88,81.1c-.03,.32-.05,.65-.09,1.08-.45-.52-.23-.8,.11-1.06l-.03-.02Z"/><path class="cls-3" d="M562.63,358.98h-.44l-.43-.87c.56,.02,.83,.33,.87,.87Z"/><path class="cls-3" d="M681.88,45.15v-.69h.14v.69h-.14Z"/><path class="cls-3" d="M31.83,42.09c.2,.15,.4,.29,.59,.45,.02,.02-.07,.18-.13,.26-.02,.02-.16,0-.17-.04-.1-.22-.18-.46-.27-.69l-.02,.02Z"/><path class="cls-3" d="M26.19,37.59c-.07-.09-.22-.2-.2-.28,.03-.14,.15-.26,.23-.39,.05,.11,.15,.23,.14,.34,0,.11-.11,.22-.17,.33Z"/><path class="cls-3" d="M348.19,373.64c-.05,.45,.1,.96-.41,1.26l.03,.03c.06-.45-.12-.97,.42-1.26l-.03-.02Z"/><path class="cls-3" d="M40.66,28.66l.05-1.13c.44,.55,.42,.88-.07,1.11l.02,.02Z"/><path class="cls-3" d="M24.9,174.86c-.15,.11-.24,.24-.31,.23-.15-.03-.3-.12-.44-.19,.05-.04,.1-.11,.15-.11,.18,0,.36,.04,.61,.08Z"/><path class="cls-3" d="M617.18,202.81c-.34-.18-.4-.49-.41-.83l-.03,.03c.4,.15,.39,.5,.41,.83l.03-.03Z"/><path class="cls-3" d="M22.59,174.3c.13,.02,.26,.03,.38,.06,.06,.01,.12,.05,.17,.08-.09,.04-.21,.13-.27,.1-.11-.05-.18-.17-.26-.27l-.02,.03Z"/><path class="cls-3" d="M341.9,378.29c.35,.17,.42,.49,.41,.84l.03-.02c-.35-.18-.37-.52-.41-.85l-.03,.03Z"/><path class="cls-3" d="M346.8,377.29l.05,.17-.2,.05c0-.06,0-.13,.03-.18,.01-.03,.08-.03,.12-.04Z"/><path class="cls-3" d="M443.22,50.34s.12,.04,.12,.06c0,.06-.03,.13-.05,.19-.04-.02-.12-.04-.12-.06,0-.06,.03-.13,.05-.19Z"/><path class="cls-3" d="M615.06,182.7c.32,.05,.68,.03,.84,.42l.02-.03c-.33-.03-.68-.04-.84-.42l-.03,.03Z"/><path class="cls-3" d="M574.25,369.89l-.1,.16c-.02-.06-.07-.13-.06-.19,0-.06,.06-.11,.1-.17l.06,.19Z"/><path class="cls-3" d="M610.04,173.43c-.32-.04-.68-.03-.83-.41l-.03,.03,.83,.41,.03-.03Z"/><path class="cls-3" d="M612.53,184.8h.87v-.02q-.38,.42-.84,0l-.02,.03Z"/><path class="cls-3" d="M23.43,50.9c.1,.08,.23,.13,.28,.23,.04,.08-.02,.21-.03,.32-.07-.07-.17-.12-.2-.2-.04-.12-.02-.25-.03-.38l-.03,.02Z"/><path class="cls-3" d="M494.82,55.39s.1,0,.11,.02c.02,.05,.05,.11,.03,.16-.07,.17-.15,.16-.18-.03,0-.05,.03-.1,.04-.15Z"/><path class="cls-3" d="M671.99,56.46s-.12,.05-.12,.03c-.03-.05-.04-.11-.06-.16l.21-.05-.02,.18Z"/><path class="cls-3" d="M627.24,198.63c-.11-.08-.26-.13-.31-.24-.03-.07,.07-.21,.11-.32,.04,.05,.11,.1,.12,.17,.03,.13,.04,.27,.06,.41l.02-.02Z"/><path class="cls-3" d="M665.02,97.49c0-.13,0-.26,.03-.38,.02-.08,.12-.14,.18-.21,.02,.11,.08,.24,.04,.33-.05,.1-.18,.16-.27,.24l.03,.03Z"/><path class="cls-3" d="M648.23,117.19v.45h-.87c.17-.39,.54-.38,.87-.45Z"/><path class="cls-3" d="M585.68,335.89c.09,.08,.21,.14,.26,.24,.04,.08-.01,.21-.02,.32-.06-.07-.14-.14-.16-.22-.04-.12-.03-.24-.04-.37l-.03,.02Z"/><path class="cls-3" d="M612.54,165.91h.87l-.02-.03q-.41,.39-.82,0l-.02,.02Z"/><path class="cls-3" d="M620.95,212.06c-.46-.45-.46-.45,0-.82l-.02-.02v.86l.02-.02Z"/><path class="cls-3" d="M529.77,320.18l.06-.12,.12,.16-.18-.05Z"/><path class="cls-3" d="M619.67,142.38c0,.29,0,.57,0,.86l.03-.03q-.46-.42,0-.8l-.03-.03Z"/><path class="cls-3" d="M486.27,319.53c.01-.14,.02-.27,.05-.41,.01-.06,.06-.12,.09-.18,.04,.1,.15,.23,.12,.3-.05,.11-.18,.18-.28,.27l.03,.02Z"/><path class="cls-3" d="M510.6,318.25l.85,.02-.03-.03q-.43,.48-.83,.01h.01Z"/><path class="cls-3" d="M625.99,222.15h-.45c0-.36,.08-.69,.44-.87v.87Z"/><path class="cls-3" d="M487.26,318.06l-.15,.09-.11-.2c.06,0,.12-.03,.17-.02,.04,.01,.06,.08,.09,.13Z"/><path class="cls-3" d="M569.57,303.8c.02,.06,.07,.13,.07,.19,0,.06-.06,.11-.1,.16-.02-.06-.07-.13-.06-.19,0-.06,.06-.11,.1-.16Z"/><path class="cls-3" d="M573.7,271.55l.11,.06-.15,.12,.04-.18Z"/><path class="cls-3" d="M576.64,270.62c-.06,.02-.13,.06-.18,.05-.06,0-.11-.06-.16-.09,.06-.02,.13-.06,.19-.05,.06,0,.11,.06,.16,.09Z"/><path class="cls-3" d="M619.7,225.06v.45c-.12-.02-.25-.02-.37-.05-.06-.01-.1-.06-.16-.09,.05-.08,.09-.19,.16-.23,.11-.05,.24-.05,.37-.08Z"/><path class="cls-3" d="M609.2,152.04c-.34,0-.66-.07-.83-.43l-.03,.03c.35,0,.7-.01,.85,.41h0Z"/><path class="cls-3" d="M614.14,152.81c-.05,.1-.1,.19-.15,.29-.04-.04-.12-.1-.11-.13,.03-.1,.09-.2,.14-.29,.04,.04,.08,.09,.12,.13Z"/><path class="cls-3" d="M613.67,227.6l-.1,.16c-.03-.06-.07-.12-.07-.18,0-.06,.06-.11,.1-.16l.07,.18Z"/><path class="cls-3" d="M603.18,162.63l-.12,.04-.05-.16,.19-.05-.03,.17Z"/><path class="cls-3" d="M615.08,161.71l.17-.19s-.02,.09-.05,.1c-.04,.03-.1,.04-.15,.06l.03,.03Z"/><path class="cls-3" d="M610.47,156.65l-.2-.17s.09,.02,.11,.04c.03,.04,.04,.1,.06,.15l.03-.03Z"/><path class="cls-3" d="M608.37,151.62l-.18-.1,.15,.12,.03-.03Z"/><path class="cls-3" d="M585.29,264.52l-.22-.19s.1,.01,.12,.04c.04,.05,.05,.11,.07,.17l.02-.02Z"/><path class="cls-3" d="M610.04,164.2l-.17-.09,.14,.12,.03-.03Z"/><path class="cls-3" d="M610.02,164.23l.42,.42,.03-.03-.42-.42-.03,.03Z"/><path class="cls-3" d="M610.88,149.1l-.19-.19s.09,.02,.11,.05c.03,.05,.04,.11,.06,.16l.02-.02Z"/><path class="cls-3" d="M619.67,143.24l.19,.18s-.08-.03-.1-.06c-.03-.05-.05-.1-.07-.15l-.03,.03Z"/><path class="cls-3" d="M511.44,318.27l.16-.2s-.02,.08-.05,.1c-.04,.03-.1,.05-.15,.08l.03,.03Z"/><path class="cls-3" d="M626.4,220.88l-.44,.44,.44-.44Z"/><path class="cls-3" d="M610.44,164.65l.22,.16s-.09,0-.11-.03c-.04-.04-.05-.1-.08-.15l-.03,.03Z"/><path class="cls-3" d="M622.61,220.05l.2,.16s-.09-.01-.11-.04c-.03-.04-.05-.1-.07-.15l-.02,.02Z"/><path class="cls-3" d="M513.96,320.34l-.23-.19s.12,0,.14,.03c.04,.05,.04,.12,.06,.18l.02-.02Z"/><path class="cls-3" d="M612.14,165.46l-.21-.18s.1,.01,.12,.04c.03,.04,.04,.11,.06,.16l.03-.03Z"/><path class="cls-3" d="M513.93,320.36l.22,.19s-.11,0-.13-.04c-.04-.05-.05-.11-.07-.17l-.02,.02Z"/><path class="cls-3" d="M619.7,142.41l.14-.21s-.01,.08-.04,.1c-.04,.04-.09,.06-.13,.08l.03,.03Z"/><path class="cls-3" d="M636.9,134.83l-.18-.18s.08,.02,.1,.05c.03,.04,.04,.1,.05,.15l.02-.02Z"/><path class="cls-3" d="M612.95,175.56l.42,.42,.03-.03-.42-.42-.03,.03Z"/><path class="cls-3" d="M643.19,120.16h-.43l.42-.43v.43Z"/><path class="cls-3" d="M618.86,165.46l-.19-.18s.08,.02,.1,.05c.03,.05,.05,.1,.07,.16l.02-.03Z"/><path class="cls-3" d="M612.56,165.89l-.42-.43-.03,.03,.43,.42,.02-.02Z"/><path class="cls-3" d="M604.17,166.74l.42-.42-.03-.02-.42,.42,.02,.02Z"/><path class="cls-3" d="M448.93,336.71l-.18-.09,.15,.11,.02-.03Z"/><path class="cls-3" d="M449.76,337.16l.18-.21s-.02,.09-.05,.11c-.05,.04-.11,.05-.16,.08l.03,.03Z"/><path class="cls-3" d="M648.65,117.22h-.46c.15-.31,.3-.3,.46,0Z"/><path class="cls-3" d="M634.39,113.42l-.42-.42-.03,.03,.42,.42,.03-.03Z"/><path class="cls-3" d="M633.97,113l-.2-.16s.08,.02,.1,.04c.03,.04,.05,.1,.07,.15l.03-.03Z"/><path class="cls-3" d="M476.19,108.41l.09-.18-.11,.15,.03,.03Z"/><path class="cls-3" d="M617.6,203.24c-.14-.14-.28-.28-.43-.43l-.03,.03,.43,.42,.03-.03Z"/><path class="cls-3" d="M611.31,174.7l-.42-.42-.03,.03,.42,.42,.02-.02Z"/><path class="cls-3" d="M379.27,347.2l-.45,.45,.45-.45Z"/><path class="cls-3" d="M664.59,97.92l.43-.43-.03-.03-.43,.43,.03,.03Z"/><path class="cls-3" d="M616.76,201.98l-.18-.18s.07,.03,.09,.06c.03,.04,.04,.1,.06,.15l.03-.03Z"/><path class="cls-3" d="M367.08,356.44l-.16,.19s0-.09,.03-.11c.04-.03,.1-.04,.15-.06l-.02-.02Z"/><path class="cls-3" d="M561.8,358.14h-.45c.15-.31,.3-.27,.45,0Z"/><path class="cls-3" d="M597.46,75.67l.15-.2s-.02,.07-.05,.09c-.04,.03-.09,.06-.14,.08l.03,.03Z"/><path class="cls-3" d="M596.64,71.01l.4-.4-.4,.4Z"/><path class="cls-3" d="M597.01,70.63v-.45c.33,.15,.31,.3,0,.45Z"/><path class="cls-3" d="M571.02,364.44l.17-.2s-.02,.08-.05,.1c-.04,.03-.1,.05-.15,.07l.03,.03Z"/><path class="cls-3" d="M622.22,201.14l-.19-.09,.16,.12,.03-.03Z"/><path class="cls-3" d="M624.32,198.2l-.19-.08,.16,.11,.03-.03Z"/><path class="cls-3" d="M604.15,166.72l-.42,.42,.03,.02,.42-.42-.02-.02Z"/><path class="cls-3" d="M603.73,167.14l-.18,.18s.03-.07,.06-.09c.04-.03,.09-.05,.14-.07l-.03-.02Z"/><path class="cls-3" d="M447.64,52.14l-.09,.18,.12-.15-.02-.02Z"/><path class="cls-3" d="M608.78,172.59l-.19-.08,.16,.11,.03-.03Z"/><path class="cls-3" d="M608.76,172.62l.43,.43,.03-.03-.43-.43-.03,.03Z"/><path class="cls-3" d="M610.02,173.46l.42,.42,.03-.03-.42-.42-.03,.03Z"/><path class="cls-3" d="M610.44,173.88l.43,.43,.03-.03-.43-.42-.03,.03Z"/><path class="cls-3" d="M615.08,182.67l-.18-.08,.16,.11,.03-.03Z"/><path class="cls-3" d="M613.8,181.86l.2,.16s-.08-.02-.1-.04c-.03-.04-.05-.1-.07-.14l-.03,.03Z"/><path class="cls-3" d="M42.74,28.63c-.13,.35-.27,.39-.4,0l-.03,.03h.45l-.03-.03Z"/><path class="cls-3" d="M347.78,374.9l-.17,.21s.01-.1,.04-.12c.04-.03,.11-.05,.16-.07l-.03-.03Z"/><path class="cls-3" d="M613.38,181.44l.42,.42,.03-.03-.42-.42-.03,.03Z"/><path class="cls-3" d="M341.93,378.26l-.19-.18s.08,.03,.1,.05c.03,.05,.05,.1,.07,.15l.03-.03Z"/><path class="cls-3" d="M613.41,181.42l-.18-.09,.15,.12,.03-.03Z"/><path class="cls-3" d="M40.64,28.63l-.16,.2s.01-.08,.04-.1c.04-.03,.09-.05,.14-.07l-.02-.02Z"/><path class="cls-3" d="M581.93,380.39l.17-.18s-.03,.08-.05,.09c-.04,.03-.1,.04-.15,.06l.03,.03Z"/><path class="cls-3" d="M601.21,385.81l-.42,.42,.02,.02,.42-.42-.02-.02Z"/><path class="cls-3" d="M600.79,386.23l-.17,.22s0-.1,.03-.13c.04-.04,.11-.05,.16-.07l-.02-.02Z"/><path class="cls-3" d="M42.32,21.08l-.16,.19s.02-.07,.05-.09c.04-.03,.09-.05,.14-.08l-.03-.03Z"/><path class="cls-3" d="M45.25,18.99l-.16,.21s.02-.08,.04-.1c.04-.03,.1-.05,.14-.08l-.03-.03Z"/><path class="cls-3" d="M45.27,19.01l.43-.43-.03-.03-.43,.43,.03,.03Z"/><path class="cls-3" d="M45.67,14.36l-.17,.23s0-.11,.03-.13c.04-.04,.11-.05,.17-.08l-.02-.02Z"/><path class="cls-3" d="M49.06,11.01l-.21-.2s.1,.02,.12,.05c.03,.05,.04,.12,.06,.18l.02-.02Z"/><path class="cls-3" d="M613.37,175.98l.43,.42,.02-.02-.42-.43-.03,.03Z"/><path class="cls-3" d="M45.06,7.54c-.19,.15-.38,.32-.58,.45-.02,.01-.15-.14-.23-.22,.2-.15,.4-.3,.61-.44,0,0,.09,.09,.2,.21Z"/><path class="cls-3" d="M46.12,8.49l-.17-.18s.07,.03,.09,.06c.03,.04,.04,.1,.06,.15l.03-.03Z"/></g><path class="cls-2" d="M152.17,185.75c-4.57-.16-6.79-.61-6.79-.61l-1.06,6.09,3.4,.3s1.56,2.61-3.86,2.37l1.71,3.37s6.12-2.17,6.55-5.47c.43-3.3,.05-6.05,.05-6.05Z"/><ellipse class="cls-2" cx="272.04" cy="176.73" rx="24.55" ry="22.77" transform="translate(74.65 434.17) rotate(-85.53)"/><ellipse class="cls-2" cx="125.83" cy="164.13" rx="25.51" ry="22.5" transform="translate(-47.54 276.88) rotate(-85.56)"/><ellipse class="cls-2" cx="178.12" cy="168.86" rx="25.36" ry="22.21" transform="translate(-24.44 307.47) rotate(-77.85)"/><ellipse class="cls-2" cx="224.81" cy="172.7" rx="24.63" ry="21.1" transform="translate(20.38 369.1) rotate(-81.38)"/><ellipse class="cls-2" cx="78.13" cy="160.51" rx="25.66" ry="22.19" transform="translate(-91.88 214.96) rotate(-81.8)"/><ellipse class="cls-3" cx="78" cy="160.54" rx="14.27" ry="12.58" transform="translate(-99.08 182.97) rotate(-71.31)"/><ellipse class="cls-3" cx="125.9" cy="164.85" rx="14.01" ry="13.18" transform="translate(-48.02 277.91) rotate(-85.66)"/><ellipse class="cls-3" cx="178.07" cy="169.56" rx="14.3" ry="13.06" transform="translate(-47.76 266.84) rotate(-66.9)"/><ellipse class="cls-3" cx="224.79" cy="173.15" rx="14.03" ry="12.04" transform="translate(20.66 370.23) rotate(-81.6)"/><ellipse class="cls-3" cx="272.04" cy="176.73" rx="13.7" ry="12.52" transform="translate(93.15 447.35) rotate(-89.54)"/><path class="cls-1" d="M61.84,21.79c-.23,3.11-.46,6.22-.69,9.33,6.8,.42,13.6,.84,20.4,1.26-4.35,14.62-8.7,29.24-13.05,43.85l10.71,.47c5.34-17.31,10.68-34.62,16.02-51.93-11.13-.99-22.26-1.99-33.39-2.98Z"/><path class="cls-2" d="M16.55,131.08l-.88,8.76c8.91,.59,17.83,1.18,26.74,1.77-4.92,13.6-9.84,27.2-14.76,40.8l13.5,.97,16.85-49.63-41.45-2.67Z"/><path class="cls-1" d="M97.5,69.64c-5.18-.28-7.71-.81-7.71-.81l-.92,6.47,3.85,.4s1.88,2.82-4.26,2.44l2.09,3.63s6.83-2.18,7.17-5.69-.22-6.46-.22-6.46Z"/><ellipse class="cls-1" cx="123.34" cy="53.87" rx="26.51" ry="21.04" transform="translate(52.57 168.35) rotate(-81.87)"/><ellipse class="cls-1" cx="215.76" cy="61.82" rx="25.97" ry="21.94" transform="translate(147.13 275.51) rotate(-88.18)"/><ellipse class="cls-1" cx="169.3" cy="57.46" rx="26.59" ry="21.37" transform="translate(77.9 211.11) rotate(-78)"/><ellipse class="cls-3" cx="122.81" cy="53.87" rx="14.26" ry="11.65" transform="translate(41.83 160.77) rotate(-76.54)"/><ellipse class="cls-3" cx="169.3" cy="57.46" rx="13.43" ry="11.59" transform="translate(87.11 216.23) rotate(-81.38)"/><ellipse class="cls-3" cx="215.76" cy="62.04" rx="14.23" ry="12.41" transform="translate(124.45 267.13) rotate(-82.04)"/><path class="cls-1" d="M53.62,20.86l-3.43,43.73,7.89,.62c-.1,3.4-.21,6.79-.31,10.19l-26.71-2.1,.29-10.19,10.08,.79,2.76-35.13-10.15,6.56c-1.24-2.66-2.48-5.32-3.73-7.98,4.51-2.42,9.03-4.84,13.54-7.26l9.76,.77Z"/><path class="cls-1" d="M79.59,108.2c-1.58,12.42,5.65,22.09,12.47,23.08,7.33,1.06,18.99-7.19,20.24-21.51,1.44-12.51-4.9-22.36-11.43-23.5-7.09-1.24-18.91,7-21.28,21.94Z"/><path class="cls-3" d="M96.01,98.1c-4.45-.06-8.2,6.26-8.37,11.44-.13,4.21,2.04,10.06,6.02,10.7,4.39,.71,10.19-5.06,10.52-10.82,.3-5.23-3.86-11.26-8.17-11.32Z"/><path class="cls-3" d="M187.41,99.39l-.33,14.26s21.2-10.32,.33-14.26Z"/><path class="cls-2" d="M187.79,200.73c-.91,14.47-1.83,28.95-2.74,43.42,2.9,.16,5.81,.32,8.71,.48,.29-6.19,.58-12.38,.87-18.57,4,6.44,8.01,12.88,12.01,19.32l9.4,.49c-5.29-7.91-10.57-15.81-15.86-23.72,6.43-6.53,12.87-13.05,19.3-19.58l-9.2-.51c-5.06,5.43-10.11,10.85-15.17,16.28l1.27-17.19-8.59-.42Z"/><path class="cls-1" d="M117.33,87.61c-1.31,15.1-2.61,30.2-3.92,45.3,2.94,.21,5.87,.42,8.81,.63,.46-6.46,.91-12.92,1.37-19.37,3.89,6.79,7.77,13.57,11.66,20.36l9.51,.66c-5.15-8.34-10.29-16.67-15.44-25.01,6.69-6.72,13.38-13.44,20.07-20.16l-9.31-.67c-5.26,5.59-10.53,11.18-15.79,16.77l1.74-17.94-8.69-.57Z"/><path class="cls-2" d="M77.81,194.3c-.8,14.46-1.6,28.93-2.4,43.39,2.72,.17,5.43,.35,8.15,.52,.26-5.41,.51-10.81,.77-16.22,2.4,5.55,4.81,11.1,7.21,16.66,3.55,.17,7.1,.34,10.64,.51-3.7-6.45-7.39-12.9-11.09-19.35,8.55-2.86,12.66-10.67,10.35-16.71-1.61-4.23-6.27-7.33-11.8-8.14l-11.84-.65Z"/><path class="cls-3" d="M84.64,199.03c-.25,4.92-.51,9.85-.76,14.77,6.15,.41,10.2-4.35,9.53-8.3-.54-3.17-4.18-6.22-8.76-6.47Z"/><path class="cls-1" d="M52.55,82.14c-1.28,15.37-2.57,30.74-3.85,46.11,2.89,.22,5.77,.43,8.66,.65,.43-5.75,.87-11.49,1.3-17.24,2.39,5.93,4.79,11.87,7.18,17.8,3.77,.22,7.54,.45,11.32,.67-3.74-6.9-7.48-13.81-11.23-20.71,9.19-2.94,13.79-11.19,11.52-17.64-1.59-4.52-6.46-7.87-12.32-8.8l-12.59-.83Z"/><path class="cls-3" d="M60.26,88.65c-.4,5.23-.8,10.46-1.2,15.69,6.54,.53,10.98-4.46,10.37-8.67-.49-3.37-4.28-6.67-9.16-7.02Z"/><path class="cls-1" d="M181.57,92.13c-1.17,15.31-2.33,30.63-3.5,45.94,2.65,.22,5.3,.44,7.95,.66,.39-5.73,.79-11.45,1.18-17.18,2.2,5.92,4.41,11.83,6.61,17.75,3.47,.23,6.93,.46,10.4,.68-3.44-6.89-6.89-13.77-10.33-20.66,8.44-2.92,12.66-11.13,10.57-17.56-1.47-4.5-5.94-7.85-11.32-8.79l-11.56-.85Z"/><path class="cls-3" d="M190.15,99.09c-.33,4.65-.66,9.3-.99,13.95,5.83,.41,9.76-4.07,9.19-7.8-.46-2.99-3.85-5.89-8.2-6.15Z"/><path class="cls-2" d="M224.25,202.91c-.87,14.47-1.73,28.94-2.6,43.41l8.65,.39c.81-14.45,1.62-28.89,2.43-43.34-2.83-.15-5.65-.31-8.48-.46Z"/><path class="cls-2" d="M238.19,203.7l-2.37,43.31c2.81,.19,5.61,.38,8.42,.57,.44-10.13,.89-20.27,1.33-30.4,4.16,10.4,8.31,20.79,12.47,31.19,3.64,.22,7.28,.44,10.92,.66,.85-14.46,1.71-28.92,2.56-43.38l-8.26-.48c-.62,9.75-1.23,19.5-1.85,29.25l-12.09-30.07-11.14-.65Z"/><path class="cls-2" d="M315.18,217.93c-3.88-6.8-11.05-11.16-18.71-11.29-10.11-.17-16.13,7.11-17.35,8.59-6.74,8.15-7.79,21.46-.02,29.19,5.56,5.54,13.42,5.99,14.45,6.04,2.49,.11,8.24-.04,13.37-3.67,5.34-3.78,6.96-9.17,7.75-11.83,.51-1.7,.74-3.16,.86-4.18-6.32-.3-12.64-.6-18.97-.9-.11,2.18-.22,4.36-.33,6.54,2.92,.15,5.84,.29,8.76,.44-.38,.94-1.16,2.44-2.72,3.74-3.68,3.04-8.55,2.33-9.58,2.18-.69-.1-5.04-.8-8.15-4.3-5.38-6.06-1.69-14.51-1.39-15.15,.55-1.21,3.93-8.6,11.49-9.19,5.15-.4,9,2.6,9.92,3.37,3.54,.15,7.08,.29,10.62,.44Z"/><path class="cls-2" d="M184.07,206.95c-6.89-6.97-16.88-8.85-24.82-4.82-9.77,4.97-11.39,16.34-11.54,17.51-.22,1.74-1.35,10.7,4.79,17.48,5.06,5.59,11.73,6,13.69,6.09,9.3,.42,15.53-5.74,16.65-6.9-2.18-1.76-4.35-3.51-6.53-5.27-5.31,4.52-12.31,4.77-16.55,1.18-4.78-4.05-3.9-11.14-3.76-12.15,.62-4.48,3.51-10.3,9.37-11.91,6.68-1.83,11.95,3.28,12.27,3.6,2.15-1.6,4.29-3.2,6.44-4.8Z"/><path class="cls-2" d="M159.2,255.6c-6.98-7.33-16.99-9.16-24.88-4.71-9.71,5.48-11.19,17.67-11.33,18.92-.2,1.86-1.22,11.47,5,18.6,5.13,5.88,11.81,6.21,13.77,6.27,9.31,.29,15.46-6.41,16.57-7.67-2.2-1.84-4.4-3.68-6.6-5.52-5.25,4.92-12.25,5.32-16.54,1.55-4.82-4.24-4.04-11.85-3.91-12.92,.56-4.8,3.38-11.07,9.22-12.89,6.66-2.08,11.99,3.3,12.31,3.63,2.13-1.75,4.25-3.5,6.38-5.25Z"/><path class="cls-2" d="M38.3,192.01l-.44,7.55c4.32,.27,8.64,.55,12.97,.82l-2.34,35.8c3.16,.18,6.32,.36,9.47,.54,.59-11.96,1.18-23.92,1.77-35.88l13.34,.82c.16-2.53,.32-5.06,.49-7.58l-35.25-2.06Z"/><path class="cls-2" d="M108.8,196.14c-.86,6.58-.9,12.09-.74,16.07,.56,14.01,3.94,19.4,5.16,21.17,2.73,3.97,5.23,5.33,6.33,5.84,5.21,2.45,10.43,.94,11.57,.58,4.21-1.33,6.61-4,7.82-5.38,2.12-2.43,4.45-6.21,6.11-20.44,.46-3.9,.94-9.21,1.08-15.59l-10.97-.71c.65,7.72,0,13.94-.73,18.17-1.07,6.27-2.21,12.54-6.54,13.94-.29,.09-2.05,.64-3.87-.06-4.16-1.58-4.82-8.19-5.37-14.51-.38-4.37-.52-10.69,.79-18.39-3.55-.23-7.09-.46-10.64-.69Z"/><path class="cls-2" d="M343.05,257.18l-1.95,46.26,20.05,.88,.36-8.19-13.22-.74,.5-13.13c3.66,.14,7.32,.27,10.99,.41l.18-5.87-11.14-.65,.5-11.28,14.4,.56,.32-7.26-20.96-1Z"/><path class="cls-1" d="M153.15,90.51c-1.47,15.02-2.94,30.05-4.41,45.07l22.69,1.67c.17-3.12,.34-6.24,.51-9.37-4.75-.33-9.5-.66-14.26-.99l.91-11.34c3.24,.2,6.49,.4,9.73,.59,.22-2.38,.43-4.76,.65-7.14l-9.26-1.19c.26-2.84,.52-5.67,.78-8.51,5.22,.51,10.44,1.01,15.66,1.52l.54-8.04c-7.85-.76-15.69-1.52-23.54-2.28Z"/><path class="cls-2" d="M394.61,262.83c-1.87-1.25-6.13-3.7-11.97-3.82-2.09-.05-9.83-.21-13.72,4.9-2.02,2.65-2.89,6.59-1.69,10.12,3.11,9.21,18.02,9.22,18.81,16.35,.29,2.66-1.46,5.56-3.9,6.59-2.94,1.24-7.2-.13-10.34-3.63-1.77,1.62-3.53,3.25-5.3,4.87,.7,1.03,3.22,4.47,8.23,6.12,5.08,1.67,9.4,.41,10.62,.01,1.24-.44,5.23-2.02,7.56-6.05,3.22-5.56,.62-11.19,.2-12.06-1.95-4.04-5.68-6.38-8.05-7.86-4.64-2.91-7.73-2.99-8.78-5.73-.66-1.73-.26-3.85,.97-5.06,2.13-2.1,7.21-1.97,11.69,1.44,1.88-2.07,3.77-4.14,5.65-6.2Z"/><path class="cls-1" d="M235.04,101.04c-2.01-1.74-8.7-7.04-16.94-5.46-2.1,.4-5.97,1.15-8.26,4.73-2.21,3.47-2.24,8.51-.71,12.21,3.64,8.78,15.15,7.81,15.88,14.37,.21,1.94-.57,3.92-1.72,4.96-2.63,2.38-8.29,.77-14-4.63-1.52,2.04-3.04,4.07-4.55,6.11,1.27,1.53,3.28,3.63,6.16,5.44,1.77,1.11,3.61,2.27,6.25,2.71,1.22,.2,5.79,.95,10.11-2.41,.84-.65,4.27-3.49,5.33-8.7,.22-1.07,.92-4.55-.53-7.99-1.06-2.49-2.78-3.74-6.18-6.14-5.91-4.17-8.93-4.37-9.54-7.24-.38-1.79,.38-3.71,1.33-4.78,2.37-2.66,7.91-2.18,13.14,2.33,1.41-1.84,2.82-3.68,4.24-5.51Z"/><path class="cls-2" d="M160.11,271.49c-.99,10.87,5.94,24,14.67,24.63,9.01,.64,18.03-12.15,18.29-23.56,.22-9.68-5.78-21.91-14.34-22.69-8.91-.8-17.66,11.06-18.62,21.62Z"/><path class="cls-3" d="M177.55,262.04c-4.06-.34-8.11,5.55-8.61,10.69-.5,5.09,2.27,11.46,6.18,11.91,4.08,.47,8.73-5.6,9.05-11.24,.28-4.93-2.67-11.03-6.61-11.36Z"/><path class="cls-2" d="M191.34,296.85c3.93-15.27,7.85-30.54,11.78-45.81,2.73,.13,5.47,.26,8.2,.39,1.17,4.35,2.33,8.7,3.5,13.06,1.63-4.22,3.26-8.44,4.9-12.65l8.94,.33c1.59,15.51,3.19,31.03,4.78,46.54l-8.44-.4c-1.06-10.11-2.12-20.21-3.18-30.32-2.74,4.36-5.48,8.72-8.22,13.08-2.1-4.7-4.21-9.4-6.31-14.1-2.05,10.1-4.09,20.21-6.14,30.31l-9.82-.43Z"/><path class="cls-2" d="M236.64,252.42c-.38,15.46-.75,30.92-1.13,46.38,2.61,.06,5.22,.13,7.83,.19l.74-22.46c1.24,.05,3.03,.02,5.1-.42,2.32-.5,7.15-1.53,9.66-5.46,2.37-3.7,1.76-8.55-.64-12.02-3.63-5.25-10.14-5.62-10.75-5.64-3.6-.19-7.21-.38-10.81-.57Z"/><path class="cls-2" d="M267.42,253.87c-4.34,15.25-8.68,30.51-13.02,45.76l9.9,.44c1.68-6.62,3.37-13.24,5.05-19.86l7.57,.34c.73,6.73,1.46,13.45,2.18,20.18l9.65,.43c-2.01-15.53-4.02-31.06-6.03-46.6l-15.31-.67Z"/><path class="cls-2" d="M294.62,255.05l-1.62,46.28,9.57,.42,.34-27.31c2.27,9.21,4.54,18.41,6.81,27.62l12.81,.56,2.04-46.34c-3.19-.11-6.38-.22-9.57-.33-.07,10.39-.14,20.77-.21,31.16-2.7-10.51-5.41-21.02-8.11-31.52-4.02-.18-8.04-.37-12.06-.55Z"/><path class="cls-2" d="M329.61,256.67l-2.24,46.07c3.18,.17,6.37,.35,9.55,.52,.6-15.42,1.19-30.83,1.79-46.25-3.04-.11-6.07-.22-9.11-.34Z"/><path class="cls-3" d="M244.46,258.86c-.11,4.09-.23,8.18-.34,12.27,5.86-.07,9.59-4.27,8.85-7.5-.59-2.58-4.14-4.87-8.5-4.78Z"/><path class="cls-3" d="M270.3,274.5l6.45,.29-1.18-12.99-2.25-.1c-1.01,4.27-2.02,8.54-3.03,12.8Z"/><path class="cls-1" d="M29.88,79.49c5.96-.07,11.21,2.78,13.09,6.98,1.91,4.26-.46,8.1-.83,8.67-2.38,3.71-7.28,5.88-12.69,5.63,1.15,.07,8.65,.62,13.22,6.05,.91,1.08,3.59,4.36,3.05,8.82-.53,4.38-3.81,6.96-4.76,7.69-4.61,3.52-10.24,3.24-11.41,3.16l-13.88-1.03,3.68-46.79,10.52,.83Z"/><path class="cls-3" d="M24.14,105.94c-.35,4.9-.69,9.8-1.04,14.7,8.29,.17,13.74-4.71,12.84-8.61-.72-3.12-5.62-6.01-11.8-6.09Z"/><path class="cls-3" d="M25.76,85.63c-.31,3.91-.63,7.83-.94,11.74,6.81,.17,11.33-3.7,10.61-6.82-.58-2.5-4.59-4.83-9.67-4.92Z"/></g></g></svg>