<?xml version="1.0" encoding="utf-8"?>
<!-- Generator: Adobe Illustrator 26.2.1, SVG Export Plug-In . SVG Version: 6.00 Build 0)  -->
<svg version="1.1" id="Layer_1" xmlns="http://www.w3.org/2000/svg" xmlns:xlink="http://www.w3.org/1999/xlink" x="0px" y="0px"
	 viewBox="0 0 600 600" style="enable-background:new 0 0 600 600;" xml:space="preserve">
<style type="text/css">
	.st0{fill:#FFFFFF;stroke:#3D4B57;stroke-width:13;stroke-linecap:round;stroke-linejoin:round;stroke-miterlimit:10;}
</style>
<g>
	<g>
		
			<rect x="158.18" y="34.05" transform="matrix(-1 -1.510484e-07 1.510484e-07 -1 661.7242 542.968)" class="st0" width="345.35" height="474.86"/>
		<line class="st0" x1="416.93" y1="333.85" x2="452.5" y2="333.85"/>
		<line class="st0" x1="216.64" y1="333.85" x2="394.08" y2="333.85"/>
		<line class="st0" x1="248.32" y1="285.09" x2="466.7" y2="285.09"/>
		<line class="st0" x1="194.05" y1="285.09" x2="225.21" y2="285.09"/>
		<line class="st0" x1="194.05" y1="236.33" x2="452.5" y2="236.33"/>
		<line class="st0" x1="194.05" y1="187.58" x2="366.82" y2="187.58"/>
		<line class="st0" x1="228.38" y1="138.82" x2="457.71" y2="138.82"/>
		<line class="st0" x1="347.54" y1="382.6" x2="466.7" y2="382.6"/>
		<line class="st0" x1="194.05" y1="382.6" x2="325.4" y2="382.6"/>
		<line class="st0" x1="416.93" y1="435.11" x2="452.5" y2="435.11"/>
	</g>
	<g>
		<rect x="96.46" y="91.08" class="st0" width="345.35" height="474.86"/>
		<line class="st0" x1="183.07" y1="266.15" x2="133.3" y2="266.15"/>
		<line class="st0" x1="383.36" y1="266.15" x2="205.92" y2="266.15"/>
		<line class="st0" x1="351.68" y1="314.91" x2="133.3" y2="314.91"/>
		<line class="st0" x1="405.95" y1="314.91" x2="374.79" y2="314.91"/>
		<line class="st0" x1="405.95" y1="363.67" x2="133.3" y2="363.67"/>
		<line class="st0" x1="205.59" y1="412.42" x2="133.3" y2="412.42"/>
		<line class="st0" x1="405.95" y1="412.42" x2="233.18" y2="412.42"/>
		<line class="st0" x1="371.62" y1="461.18" x2="133.3" y2="461.18"/>
		<line class="st0" x1="252.46" y1="509.94" x2="133.3" y2="509.94"/>
		<line class="st0" x1="405.95" y1="509.94" x2="274.6" y2="509.94"/>
		<line class="st0" x1="252.46" y1="217.4" x2="133.3" y2="217.4"/>
		<line class="st0" x1="405.95" y1="217.4" x2="274.6" y2="217.4"/>
		<rect x="132.33" y="143.06" class="st0" width="201.69" height="27.81"/>
	</g>
</g>
</svg>
