<svg xmlns="http://www.w3.org/2000/svg" width="100" height="116.754" viewBox="0 0 100 116.754">
  <g id="Group_1654" data-name="Group 1654" transform="translate(-1120 -808)">
    <path id="Path_1214" data-name="Path 1214" d="M85.757,105.392c.735-1.349,1.395-2.732,2.073-4.107.9-1.8.191-2.99-1.44-3.854l-2.027-1.093a1.717,1.717,0,0,0-2.331.705c-.479.942-.969,1.857-1.458,2.771a1.741,1.741,0,0,0,.449,2.145c.256.186,0,.546-.282.463a1.675,1.675,0,0,0-1.482.3.436.436,0,0,1-.614-.1c-4.551-6.654,2.91-15.484,10.29-11.608,6.994,3.675,4.764,14.115-2.759,15.006M54.894,31.048c-.275.1-.558.222-.833.323a.583.583,0,0,1-.82-.446c-.98-7.381-3.993-14.9-13.286-28.684a.4.4,0,0,1,.021-.492C41.783-.542,44.822-.26,49.887.771a.479.479,0,0,1,.416.284c3.722,9.942,4.25,17.412,4.978,29.35a.657.657,0,0,1-.387.643M35.128,32.983c-.084.281-.176.58-.268.88a.62.62,0,0,1-.9.381c-6.663-4.047-15.992-6.563-33.337-8a.422.422,0,0,1-.372-.331c-.7-2.989.018-6.329,3.088-10.523a.44.44,0,0,1,.5-.156c10.634,4.485,20.857,10.6,31.015,17.012a.638.638,0,0,1,.274.742M89.934,86.957a11.525,11.525,0,0,1-3.459,1.622.414.414,0,0,1-.508-.234,3.876,3.876,0,0,1-.316-2.63.424.424,0,0,1,.2-.294c.729-.394,1.5-.678,2.218-1.054a.462.462,0,0,1,.483.04,3.669,3.669,0,0,1,1.5,2.037.45.45,0,0,1-.123.513M73.05,56.434,87.486,77.418C91.1,82.639,83.021,88.06,79.5,82.93L65.587,62.642c-4.629-6.782,3.573-11.874,7.463-6.208M28.427,42.984c-5.888-4.147-.827-12.121,5.12-8.153l7.227,4.854a.4.4,0,0,1,.185.291l1.586,12.1a.421.421,0,0,1-.663.4Zm13.454-11.5c-.789-6.358,8.707-8.963,9.62-.5l1.742,16.372a.773.773,0,0,0,.142.384L76.6,83.876c3.218,4.992-.617,7.733-4.408,9.23L47.136,107.213c-2.589,1.888-5.353,3.312-6.177,2.082-.521-1.313.482-1.484,2.233-2.912.708-2.072-.839-3.921,3.047-5.271a24.583,24.583,0,0,0,3.949-1.725l16.95-15.954c1.094.6.651.266-.132-1.052-.89.837-1.306,1.147-3.8,3.3-.075-.035-4.167-12.468-16.963-30.53-1.125-1.567-1.64-2.033-1.881-4.035ZM85.892,98.364c1.038.569,1.621,1.134.969,2.452-.852,1.751-1.712,3.521-2.705,5.184-.353.567-1.129.62-2.278.045-.688-.339-1.377-.725-2.055-1.082-.735-.384-.111-1.693.637-1.485a1.37,1.37,0,0,0,1.249-2.366.609.609,0,0,1-.183-.791c.5-.933.969-1.857,1.458-2.771a.647.647,0,0,1,.872-.26Z" transform="translate(1120 815)" fill="#405e76"/>
    <circle id="Ellipse_210" data-name="Ellipse 210" cx="3.5" cy="3.5" r="3.5" transform="translate(1213 868)" fill="#405e76"/>
    <circle id="Ellipse_213" data-name="Ellipse 213" cx="3.5" cy="3.5" r="3.5" transform="translate(1192 808)" fill="#405e76"/>
    <circle id="Ellipse_211" data-name="Ellipse 211" cx="5.5" cy="5.5" r="5.5" transform="translate(1199 847)" fill="#405e76"/>
    <circle id="Ellipse_212" data-name="Ellipse 212" cx="6" cy="6" r="6" transform="translate(1206 824)" fill="#405e76"/>
  </g>
</svg>
