<svg xmlns="http://www.w3.org/2000/svg" width="122.756" height="178.034" viewBox="0 0 122.756 178.034">
  <g id="Group_1660" data-name="Group 1660" transform="translate(-1126.109 -6118.302)">
    <path id="Path_1217" data-name="Path 1217" d="M2.35,6.466a.491.491,0,0,0,.435.766c1.76-.041,3.541.021,5.322.062,2.34.063,3.189,1.429,3.21,3.583l.02,2.671a1.992,1.992,0,0,1-1.988,2.009H5.726a1.98,1.98,0,0,1-1.968-1.615c-.062-.352-.58-.29-.642.041a1.915,1.915,0,0,1-1.1,1.367.513.513,0,0,0-.228.683c4.39,8.283,17.5,5.384,17.5-4.328C19.289,2.531,7.341-.8,2.35,6.466m19.631,16.4L30.6,37.673a.73.73,0,0,1,.1.5L27.8,54.964c-1.553,9.008,9.133,10.706,10.582,1.968L41.116,40.51c.414-2.464,1.325-4.245.02-6.668L36.643,25.5a.754.754,0,0,1,.6-1.1l18.534-1.408a.527.527,0,0,1,.393.083l17.581,8.9c3.252,1.635,4.038,1.18,7.414-.125L98.1,25.31c6.792-2.63,2.961-12.963-4.431-9.96L78.742,21.4a.684.684,0,0,1-.6-.021L59.98,13.031a11.073,11.073,0,0,0-6.336-1.119L26.765,13.465c-6.026.352-7.434,4.846-4.784,9.4M122.725,2.946l-2.92,7.537a.5.5,0,0,1-.352.29l-18.285,4.515a.762.762,0,0,1-.663-.166,6.877,6.877,0,0,0-6.9-1.1c-.745.27-.973.042-.02-.331L122.062,2.3a.511.511,0,0,1,.663.642M18.937,53.039l9.34-14.972a.771.771,0,0,0,0-.787l-5.136-8.511a.764.764,0,0,0-1.284-.021L9.66,47.427c-4.245,6.5,5.011,12.487,9.277,5.612M54.969,0,27.945.937c-8.987.331-7.931,11.762.145,10.561a104.719,104.719,0,0,1,26.465-.745C62.341,11.581,62.8-.285,54.969,0M10.074,10.877C10.053,9.51,9.784,8.6,8.086,8.558c-2.278-.062-4.556-.145-6.813,0C.507,8.6.031,9.386.01,10.856c-.021.911,0,1.8,0,2.713,0,.952,1.7,1.015,1.884.145a1.577,1.577,0,0,1,3.086,0,.739.739,0,0,0,.746.6H9.349a.76.76,0,0,0,.746-.766Z" transform="translate(1126.109 6233.663)" fill="#405e76"/>
    <ellipse id="Ellipse_253" data-name="Ellipse 253" cx="2" cy="2" rx="2" ry="2" transform="translate(1145.246 6118.79) rotate(-7)" fill="#405e76"/>
    <ellipse id="Ellipse_250" data-name="Ellipse 250" cx="2.5" cy="2" rx="2.5" ry="2" transform="translate(1133.125 6207.03) rotate(-7)" fill="#405e76"/>
    <ellipse id="Ellipse_252" data-name="Ellipse 252" cx="5" cy="5" rx="5" ry="5" transform="translate(1144.132 6165.378) rotate(-7)" fill="#405e76"/>
    <ellipse id="Ellipse_251" data-name="Ellipse 251" cx="5.5" cy="5.546" rx="5.5" ry="5.546" transform="translate(1126.109 6182.704) rotate(-7)" fill="#405e76"/>
  </g>
</svg>
