<svg xmlns="http://www.w3.org/2000/svg" width="107.666" height="136.96" viewBox="0 0 107.666 136.96">
  <g id="Group_1658" data-name="Group 1658" transform="translate(-224.065 -4618.058)">
    <path id="Path_1317" data-name="Path 1317" d="M114.349,18.369a.465.465,0,0,1-.394.725c-1.657-.041-3.335.021-4.991.062-2.174.062-2.961,1.325-2.983,3.334L105.941,25a1.891,1.891,0,0,0,1.884,1.884H111.2a1.9,1.9,0,0,0,1.843-1.511.308.308,0,0,1,.6.02,1.76,1.76,0,0,0,1.015,1.284.476.476,0,0,1,.207.642c-4.08,7.745-16.338,5.032-16.338-4.038,0-8.573,11.16-11.679,15.821-4.908M79.02,31.353,91.8,28.889a.466.466,0,0,1,.455.745L72.083,55.81c-4.39,5.715-12.259-.87-7.972-6.151m-4-15.2,1.021-1.7a.655.655,0,0,1,.6-.31l9.505.269a.709.709,0,0,1,.6,1.056L65.167,45.062a4.533,4.533,0,0,1-5.016,2.564m56.786-37.519c-4.473.021-8.946.124-13.419.207a.887.887,0,0,0-.829.518c-2.008,4.121-4.017,8.262-6.025,12.383-1.367,2.816-3.189,3.189-6.44,3.769-6.606,1.18-13.191,2.34-19.776,3.52a70.353,70.353,0,0,1-10.34.331c.014-1.982.1-8.077,0-10.312a36.726,36.726,0,0,0,4.21.455,12.249,12.249,0,0,0,3.375-.207C72.974,19.8,78.275,18.8,83.556,17.81a30.955,30.955,0,0,0,3.76-.676C89.536,12.9,91.557,8.8,93.91,4.267c1.677-3.23,2.464-4.286,6.44-4.059C106.335.54,111.18.084,116.563,0c6.958-.1,7.083,10.064.374,10.106m-9.795,12.4c.021-1.284.268-2.154,1.843-2.195,2.133-.042,4.244-.124,6.378,0,.7.041,1.159.787,1.18,2.174V25c0,.911-1.594.973-1.76.165a1.483,1.483,0,0,0-2.9-.02.687.687,0,0,1-.682.559h-3.376a.7.7,0,0,1-.7-.7Z" transform="translate(209.854 4697)" fill="#405e76"/>
    <circle id="Ellipse_257" data-name="Ellipse 257" cx="2" cy="2" r="2" transform="translate(260.411 4643.637) rotate(164)" fill="#405e76"/>
    <circle id="Ellipse_258" data-name="Ellipse 258" cx="3.641" cy="3.641" r="3.641" transform="translate(233.073 4625.058) rotate(164)" fill="#405e76"/>
    <ellipse id="Ellipse_254" data-name="Ellipse 254" cx="2.5" cy="2" rx="2.5" ry="2" transform="translate(297.459 4687.335) rotate(164)" fill="#405e76"/>
    <circle id="Ellipse_256" data-name="Ellipse 256" cx="5" cy="5" r="5" transform="translate(259.947 4665.228) rotate(164)" fill="#405e76"/>
    <ellipse id="Ellipse_255" data-name="Ellipse 255" cx="5.5" cy="5.546" rx="5.5" ry="5.546" transform="translate(285.432 4673.968) rotate(164)" fill="#405e76"/>
  </g>
</svg>
