<svg xmlns="http://www.w3.org/2000/svg" width="62.52" height="235.414" viewBox="0 0 62.52 235.414">
  <g id="Group_1663" data-name="Group 1663" transform="translate(-220.017 -7621)">
    <g id="Group_336" data-name="Group 336" transform="translate(94.001 108)">
      <path id="Path_1310" data-name="Path 1310" d="M12.069,42.464,8.076,33.327,6.275,37.6A5.92,5.92,0,0,0,9.67,45.239a5.827,5.827,0,0,0,4.308-.078,7.453,7.453,0,0,1-1.909-2.7" transform="translate(140.02 7663.83)" fill="#405e76"/>
      <path id="Path_1311" data-name="Path 1311" d="M25.825,39.748a7.682,7.682,0,0,1-2.748-.514A7.593,7.593,0,0,1,19.6,36.509a8.143,8.143,0,0,0-1.377,1.239C9.426,47.907,3.486,58.36.079,69.7a1.71,1.71,0,0,0,.91,2.081,62.03,62.03,0,0,0,17.489,5.509l.244.017a1.718,1.718,0,0,0,1.465-.856c3.432-5.685,4.342-12.91,5.31-20.562a120.1,120.1,0,0,1,2.21-13.374,8.481,8.481,0,0,0,.217-3.093,7.5,7.5,0,0,1-2.1.325" transform="translate(126.017 7671.105)" fill="#405e76"/>
      <path id="Path_1312" data-name="Path 1312" d="M29.571,23.382a8.27,8.27,0,0,1-3.4.716,8.062,8.062,0,0,1-5.256-1.919,8.833,8.833,0,0,1-6.359,2.6,8.537,8.537,0,0,1-1.367-.108L3.6,23.123a3.508,3.508,0,0,0-.058.364V35.146A8.054,8.054,0,0,0,4.3,38.553L19.212,68.871a6.305,6.305,0,0,0,7.675,3.037c3.046-1.043,4.565-4.1,3.384-6.805L17.652,38.174a8.005,8.005,0,0,1-.227-6.333l2.433-5.488a1.193,1.193,0,0,1,1.98-.271l3.1,6.075a7,7,0,0,1-.162,5.711l-2.734,5.768,6.481,13.83L37.883,38.4a7.549,7.549,0,0,0,.714-3.215V19.379Z" transform="translate(134.439 7637.203)" fill="#405e76"/>
      <path id="Path_1313" data-name="Path 1313" d="M26.244,5.374a.629.629,0,0,1-.572.944c-2.2-.173-4.4-.2-6.606-.288-2.89-.054-4,1.574-4.176,4.234l-.2,3.289a2.452,2.452,0,0,0,2.345,2.6q2.228.127,4.46.257a2.5,2.5,0,0,0,2.545-1.888.4.4,0,0,1,.772.088,2.447,2.447,0,0,0,1.259,1.77.617.617,0,0,1,.257.86c-5.946,9.953-21.963,5.52-21.334-6.464.572-11.323,15.557-14.7,21.249-5.4" transform="translate(137.865 7591)" fill="#405e76"/>
      <path id="Path_1314" data-name="Path 1314" d="M8.5,5.014c.115-1.716.487-2.8,2.6-2.775,2.8.088,5.6.146,8.406.46.944.085,1.489,1.086,1.4,2.914-.027,1.117-.112,2.234-.169,3.347-.058,1.174-2.146,1.174-2.318.058a1.963,1.963,0,0,0-3.831-.2.954.954,0,0,1-.944.714c-1.486-.085-2.975-.169-4.46-.227a.955.955,0,0,1-.887-1Z" transform="translate(145.797 7596.338)" fill="#405e76"/>
      <path id="Path_1315" data-name="Path 1315" d="M50.22,38.122,43.269,12.639a6.624,6.624,0,0,0-5.056-5.411c-4.66-1-11.019.636-13.378.636-3.9,0-7.689-1.682-12.464-.629a6.7,6.7,0,0,0-5.059,4.572A5.662,5.662,0,0,0,6.9,12.822L1.9,43.567c-.345,1.567-.883,3.8.01,5.134a5.913,5.913,0,0,0,3.868,2.541L18.92,53.632a5.732,5.732,0,0,0,1.066.1,5.9,5.9,0,0,0,5.75-4.68c.061.149.1.3.169.447a5.923,5.923,0,0,0,5.306,3.276,5.856,5.856,0,0,0,2.64-.623l13.442-6.711a5.927,5.927,0,0,0,2.927-7.317m-19.77,4.19c-1.662.829-4.538,1.256-4.893,5.137a5.917,5.917,0,0,0-4.416-3.594l-7.861-1.563a1.245,1.245,0,0,1-.995-1.34l1.8-11.905a3.5,3.5,0,0,1,.836,2.4c-.081.92-.924,5.787-1.083,8.481a.991.991,0,0,0,.816,1.032A63.21,63.21,0,0,1,23.262,43.1a2.989,2.989,0,0,0,3.009-.379c2.558-1.942,8.413-4.01,10.775-4.8a1.3,1.3,0,0,0,.883-1.408,40.233,40.233,0,0,0-1.408-5.733c-.267-1.435-.267-1.672.379-2.569l2.839,9.371a1.237,1.237,0,0,1-.765,1.4Z" transform="translate(129.398 7607.424)" fill="#405e76"/>
      <path id="Path_1316" data-name="Path 1316" d="M40.109,66.331C35.435,55.566,28.4,45.972,18.592,37a8.241,8.241,0,0,0-1.1-.768,7.551,7.551,0,0,1-3.858,3.394,7.669,7.669,0,0,1-2.748.514,7.347,7.347,0,0,1-1.635-.254,8.683,8.683,0,0,0,.558,2.87,118.78,118.78,0,0,1,3.709,12.907c1.824,7.4,3.55,14.4,7.557,19.574a1.655,1.655,0,0,0,1.1.67,1.838,1.838,0,0,0,.7-.034,61.179,61.179,0,0,0,16.582-7.408,1.717,1.717,0,0,0,.646-2.135" transform="translate(148.285 7670.382)" fill="#405e76"/>
    </g>
    <circle id="Ellipse_243" data-name="Ellipse 243" cx="3.5" cy="3.5" r="3.5" transform="translate(256 7681)" fill="#405e76"/>
    <circle id="Ellipse_244" data-name="Ellipse 244" cx="3.5" cy="3.5" r="3.5" transform="translate(235 7621)" fill="#405e76"/>
    <circle id="Ellipse_248" data-name="Ellipse 248" cx="5.5" cy="5.5" r="5.5" transform="translate(242 7660)" fill="#405e76"/>
    <circle id="Ellipse_249" data-name="Ellipse 249" cx="6" cy="6" r="6" transform="translate(249 7637)" fill="#405e76"/>
  </g>
</svg>
