<?xml version="1.0" encoding="UTF-8"?><svg id="Layer_1" xmlns="http://www.w3.org/2000/svg" xmlns:xlink="http://www.w3.org/1999/xlink" viewBox="0 0 800 215"><defs><style>.cls-1{fill:none;}.cls-2{clip-path:url(#clippath);}.cls-3{opacity:.1;}.cls-4{fill:#fff;}.cls-5{fill:#687d8e;}.cls-6{fill:#ac161b;}.cls-7{clip-path:url(#clippath-1);}.cls-8{clip-path:url(#clippath-4);}.cls-9{clip-path:url(#clippath-3);}.cls-10{clip-path:url(#clippath-2);}.cls-11{clip-path:url(#clippath-5);}.cls-12{fill:#344f60;isolation:isolate;}</style><clipPath id="clippath"><rect class="cls-1" y=".27" width="800" height="214.46"/></clipPath><clipPath id="clippath-1"><rect class="cls-1" y=".27" width="800" height="214.46"/></clipPath><clipPath id="clippath-2"><rect class="cls-1" y=".27" width="800" height="214.46"/></clipPath><clipPath id="clippath-3"><rect class="cls-1" y=".27" width="800" height="214.46"/></clipPath><clipPath id="clippath-4"><rect class="cls-1" y=".27" width="800" height="214.46"/></clipPath><clipPath id="clippath-5"><rect class="cls-1" y=".27" width="800" height="214.46"/></clipPath></defs><rect class="cls-12" x=".25" width="799.75" height="215.86" rx="14.9" ry="14.9"/><g class="cls-3"><path class="cls-4" d="M51.99,104.88c0,13.74,0,27.49,0,41.23,0,1.45-.14,2.83-1.37,3.76-.66,.5-1.42,.95-2.21,1.17-.85,.24-1.78,.23-2.67,.23-12.81,.01-25.63,.02-38.44,0-1.03,0-2.08-.07-3.07-.29-1.68-.37-2.76-1.48-3.12-3.17-.18-.87-.28-1.78-.28-2.67-.01-26.68-.01-53.36,0-80.04,0-.98,.11-1.97,.26-2.95,.29-1.85,1.9-3.31,3.77-3.48,.45-.04,.9-.04,1.35-.04,13.53,0,27.06,0,40.6,0,.31,0,.63,0,.94,.02,2.48,.11,4.21,1.83,4.23,4.32,.04,4.45,.02,8.89,.02,13.34,0,9.52,0,19.04,0,28.56Zm-24.55-15.81s0,0,0,0c0,2.24-.04,4.49,.01,6.73,.03,1.52,.64,2.12,2.15,2.18,1.35,.05,2.7,.05,4.04,0,1.78-.07,2.46-.81,2.49-2.63,.02-1.21,0-2.42,0-3.64,0-2.92,.02-5.83-.01-8.75-.02-1.86-.69-2.52-2.52-2.56-1.21-.03-2.43-.02-3.64,0-1.95,.03-2.5,.55-2.53,2.48-.03,2.06,0,4.13,0,6.19Zm-2.61,40.93s0,0,0,0c-.94,0-1.89-.02-2.83,0-1.03,.02-1.8,.55-1.86,1.58-.11,1.73-.1,3.48-.01,5.21,.05,1.01,.78,1.71,1.76,1.75,2.01,.09,4.03,.07,6.04-.04,1.07-.06,1.68-.82,1.71-1.91,.04-1.48,.06-2.96,0-4.44-.06-1.39-.83-2.08-2.25-2.15-.85-.04-1.71,0-2.56,0Z"/><path class="cls-4" d="M275.15,187.03c.07-6.25,4.51-11.68,10.98-13.37,7.81-2.03,16.07,2.95,17.69,10.68,1.3,6.24-2.78,14.02-8.75,15.98-7.83,2.56-17.74-1.25-19.67-10.75-.17-.83-.17-1.69-.25-2.54Z"/><path class="cls-4" d="M-.46,215.86c-.27-.3-.28-.88-.28-2.01,0-3.32,0-6.65,0-9.97,0-1.78,.11-1.91,1.92-1.91,12.01,0,24.01,0,36.02-.02,1.21,0,2.43-.1,3.62-.29,1.93-.3,2.48-1.01,2.53-2.98,.05-1.85,.27-2.07,2.14-2.1,.22,0,.45,0,.67,0,2.72,0,2.73,.01,3.57,2.61,.51,1.58,2.77,3.06,4.44,2.94,1.03-.08,2.06-.14,3.1-.14,24.55,0,49.11,0,73.66,.02,1.84,0,3.68,.11,5.52,.24,1.72,.13,3.14-.51,4.22-1.73,1.86-2.11,3.91-4.14,4.41-7.1,.12-.7,.25-1.42,.25-2.13,.03-3.64,0-7.28,.02-10.92,0-1.85,.26-2.15,2.05-2.58,1.09-.26,2.18-.55,3.28-.76,1.23-.24,1.67,.12,1.75,1.36,.09,1.32-.16,2.52-.74,3.76-.99,2.11-1.08,4.4,.09,6.47,1.18,2.08,3.13,3.1,5.55,2.79,.9-.11,1.79-.53,2.61-.95,1.2-.62,1.52-.56,1.99,.72,.76,2.1,.84,2.16,3.11,2.16,3.06,0,6.12-.01,9.17,.02,.76,0,1.6-.02,2.25,.29,3.07,1.47,6.29,.58,9.43,.72,.22,0,.46-.04,.65-.14,2.01-1.04,4.18-.89,6.34-.89,5.08,.01,10.16,0,15.24,0,1.24,0,2.35-.08,3.18-1.31,.61-.91,1.71-.51,2.63-.38,1.45,.21,2.91,.56,4.36,.59,4.14,.08,8.27,.06,12.41,.02,2.51-.02,5.03-.2,7.54-.23,2.52-.03,3.11,.47,3.36,2.99,.12,1.28-.09,2.59-.12,3.89-.06,2.96-.12,5.92-.15,8.89,0,.32,.13,.79,.35,.91,.23,.13,.73,.02,.97-.17,.45-.36,.85-.81,1.16-1.29,1.17-1.79,1.54-3.81,1.61-5.9,.04-1.39-.02-2.79,.04-4.18,.05-1.21,.44-1.6,1.67-1.64,1.48-.06,2.97,0,4.45-.06,1.79-.07,2.12-.53,1.75-2.29-2.42-11.58,.89-21.71,8.09-30.69,6.45-8.04,15.14-12.18,25.31-12.99,10.17-.8,19.3,2.04,27.02,8.9,6.68,5.93,10.99,13.22,12.53,22.05,.3,1.72,.34,3.48,.43,5.23,.05,.9,.33,1.39,1.32,1.49,1.4,.15,1.65,.46,1.66,1.93,.03,3.46,.01,6.92,.02,10.38,0,.45,0,.9,.04,1.35,.04,.69,.42,1.03,1.11,1.13,1.47,.21,2.93,.43,4.39,.7,.93,.17,1.36-.18,1.43-1.09,.06-.76,.13-1.52,.23-2.28,.12-.88,.31-1.76,.39-2.64,.07-.8,.08-1.61,.02-2.4-.09-1.11-.37-2.21-.39-3.31-.05-4.04-.05-8.09,0-12.13,.02-1.19,.35-2.38,.38-3.58,.03-.96-.04-1.97-.33-2.86-.42-1.29-1.33-2.42-.24-3.86,.34-.45,.17-1.31,.17-1.98,0-16.89,.01-33.78,0-50.67,0-1.5,.39-3.04-.4-4.49-.16-.3,.04-.79,.04-1.19,0-1.39,.11-2.79-.04-4.16-.25-2.18-1.36-3.21-3.55-3.33-1.88-.11-3.78-.05-5.66-.06-2.48-.01-2.52-.07-3.35-2.4-.66-1.86-1.39-3.7-2.09-5.55-.11-.29-.2-.64-.42-.83-.37-.33-.84-.55-1.26-.81-.23,.45-.66,.9-.64,1.33,.05,1.61,.2,3.22,.38,4.82,.18,1.63-.14,2.06-1.77,2.07-4.81,0-9.62,.01-14.43-.02-11.6-.07-23.2-.21-34.79-.21-8.58,0-17.17,.15-25.75,.22-.97,0-1.78,.19-2.6,.83-1.57,1.23-7.18,.47-8.37-1.11-.49-.64-.75-1.54-.88-2.35-.9-5.4-1.64-10.84-2.61-16.23-.83-4.59-1.9-9.13-2.9-13.69-.29-1.31-.69-2.6-1.03-3.9-.23-.9,.1-1.3,1.29-1.32,2.25-.05,4.5-.02,6.74-.04,.51,0,1.02-.09,1.52-.14,.03-.1,.06-.2,.09-.3-.28-.25-.55-.53-.85-.75-3.48-2.57-7.09-4.91-11.11-6.57-.49-.2-1.02-.48-1.53-.48-2.48,.01-4.57-1.26-6.81-2.02-1-.34-1.13-.9-.3-1.57,1.46-1.19,1.33-2.1-.41-3.44-1.1-.85-2.34-1.36-3.78-.82-.08,.03-.18,.07-.26,.06-1.92-.32-3.8-.19-5.7,.28-.91,.23-1-.78-1.1-1.51-.27-2-.54-3.99-.87-5.98-.08-.47-.29-.96-.58-1.34-.59-.81-1.26-.72-1.73,.17-.13,.23-.24,.48-.39,.69-.07,.1-.23,.12-.38,.2-.9-.38-.64-1.2-.64-1.86-.01-6.47,0-12.94,0-19.41,0-.49,.07-1.02-.08-1.47-.11-.36-.5-.63-.77-.94-.31,.32-.75,.59-.9,.98-.16,.44-.07,.97-.07,1.47,0,7.41,0,14.82-.01,22.24,0,.61-.15,1.22-.23,1.82-.17,0-.35,.02-.52,.02-.16-.46-.31-.92-.47-1.39-.32-.92-.5-1.92-.99-2.73-.48-.79-1.02-.61-1.53,.17-.86,1.3-1.77,2.57-2.73,3.8-.83,1.06-2.01,1.42-3.33,1.51-3.59,.22-7.17,.49-10.75,.73-.27,.02-.56,.07-.8,0-1.49-.44-2.87-.35-4.29,.38-.51,.26-1.3,0-1.96-.08-1.06-.13-2.12-.38-3.18-.46-.79-.06-1.26,.41-1.27,1.24-.01,.76-.06,1.53,.02,2.29,.15,1.39,.97,2.01,2.35,1.64,.99-.26,1.9-.8,2.88-1.13,1.37-.46,2.19,.23,1.96,1.58-.11,.68-.51,1.06-1.18,1.06-2.47,.02-4.95,.03-7.42,0-.84,0-1.32-.52-1.38-1.36-.04-.58-.04-1.17-.04-1.75,0-12.67,0-25.34,0-38.01,0-2.99-.31-5.92-1.54-8.69,0,0,0-.02-.01-.03h-13.23s.01,.04,.02,.07c.24,2.41,1.49,3.88,3.97,4.17,.79,.09,1.22,.58,1.33,1.31,.16,1.02,.35,2.05,.35,3.07,.02,13.3,0,26.59,.03,39.89,0,1.44-.35,2.44-1.77,3.11-2.31,1.1-2.9,3.29-3.08,5.62-.07,.85,.04,1.72-.1,2.55-.08,.44-.52,.81-.81,1.22-.27-.4-.75-.79-.77-1.21-.08-1.57-.02-3.14,0-4.71,.05-2.38,.15-4.75,.18-7.13,.02-1.3-.37-2.5-1.31-3.44-2.71-2.69-5.35-5.46-8.19-8-3.51-3.15-7.06-6.29-10.85-9.08-3.79-2.79-7.77-5.38-11.89-7.64-10.79-5.93-22.33-9.95-34.38-12.4-6.95-1.42-13.99-2.39-21-3.51-1.5-.24-3.04-.29-4.57-.34-4.09-.13-8.18-.2-12.26-.31-7.05-.18-14.1-.38-21.15-.57-6.42-.17-12.84-.35-19.27-.53-1.44-.04-1.67-.21-1.73-1.29-.02-.35-.02-.62,0-.85h-.38V215.86H-.46Zm146.32-43.17c-.16-.06-.29-.71-.17-.86,.56-.67,1.21-.57,1.96,.02-.44,.85-1.03,1.15-1.79,.84Zm1.56-22.44c.38-.09,.75-.26,1.13-.26,5.62-.02,11.23-.02,16.85,0,.38,0,.75,.12,1.13,.18-1.07,.81-17.83,.85-19.1,.09Zm3.28-8.86c-.15-.03-.35-.29-.35-.44,0-.14,.24-.4,.38-.39,.15,0,.29,.24,.51,.45-.24,.18-.42,.41-.55,.39Zm.11,2.78v1.14c-.12,0-.23,0-.35,0v-1.14c.12,0,.23,0,.35,0Zm.05-9.99c-.18-.06-.37-.12-.55-.18,.11-.3,.22-.6,.36-.88,0-.01,.42,.12,.41,.16-.04,.31-.14,.61-.22,.91Zm.05,3.59c-.15,.02-.3,.03-.44,.05-.03-.29-.06-.59-.1-.88,.14-.02,.29-.03,.43-.05,.04,.29,.07,.59,.11,.88Zm.55,4.69c.1,0,.2,.13,.33,.23-.11,.12-.19,.21-.27,.3-.11-.1-.22-.21-.33-.31,.09-.08,.18-.22,.27-.23Zm.09,3.55c.14,.22,.32,.39,.29,.46-.07,.15-.26,.24-.4,.36-.08-.13-.24-.27-.23-.4,0-.12,.17-.23,.34-.42Zm-.02-6.53c-.13-.14-.35-.27-.37-.42-.02-.15,.17-.33,.35-.61,.19,.28,.39,.44,.38,.59-.01,.16-.23,.3-.36,.45Zm-.36-4.46c.16-.02,.33-.03,.49-.05,.03,.31,.07,.62,.1,.93-.16,.02-.33,.03-.49,.05-.03-.31-.07-.62-.1-.93Zm-.8-12.86c1.3,.62,1.76,1.88,1.07,2.78-.5-.86-1.12-1.62-1.07-2.78Zm.66,4.9c-.77-.49-.76-.51-.19-1.52,.08,.68,.14,1.1,.19,1.52Zm-.42-8.53c.43,.79,1.34,1.42,.9,2.51-.61-.73-1.39-1.4-.9-2.51Zm.15-4.01c.34,1.08,1.26,1.74,.99,3-1.09-.84-1.48-1.94-.99-3Zm.92-15.46c-1.23-1.06-1.43-1.63-1.09-2.75,.58,.8,1.23,1.44,1.09,2.75Zm.07,10.65c-.17,.04-.34,.07-.51,.11-.23-.75-1.22-1.26-.66-2.44,.66,.79,1.17,1.47,1.18,2.34Zm-.24-7.22c-.61-.64-1.35-1.23-.95-2.29,.59,.65,1.26,1.27,.95,2.29Zm-1.04,1.22c1.11,.81,1.52,1.85,.92,2.81-.43-1.02-1.28-1.68-.92-2.81Zm.78,25.16c-.07-.74-.12-1.24-.17-1.73,1.07,.45,1.08,.54,.17,1.73Zm-.5-17.96c.5,.98,.88,1.73,1.32,2.61-1.32-.18-1.91-1.32-1.32-2.61Zm-.1-18.26c.47,.79,.85,1.42,1.28,2.12-1.11,.12-1.69-.81-1.28-2.12Zm1.26-8.41c-1.28-.65-1.68-1.57-1.08-2.61,.33,.79,.66,1.59,1.08,2.61Zm-.72-4.29c0-.07,.21-.23,.27-.21,.14,.05,.24,.2,.45,.39-.26,.12-.45,.28-.52,.23-.12-.07-.19-.27-.2-.42Zm.65,7.72c-1.16-.5-1.53-1.23-1.03-2.31,.32,.72,.64,1.43,1.03,2.31Zm-1.05,1.44c.32,.67,.65,1.35,.97,2.02-.11,.06-.23,.11-.34,.17-.59-.54-1.25-1.05-1-2.01,.13-.06,.25-.12,.38-.18Zm-.06,40.43c.37,.81,.74,1.62,1.11,2.44-.2,.08-.4,.15-.61,.23-.34-.82-.68-1.63-1.02-2.45,.17-.07,.34-.15,.52-.22Zm3.56-46.03c.1,.15,0,.51-.11,.7-.06,.1-.42,.1-.58,.02-.61-.31-1.14-1.86-.87-2.83,.6,.8,1.12,1.44,1.56,2.12Zm-.87-3.47c0-.18,.28-.35,.54-.64,.18,.33,.4,.57,.36,.74-.04,.18-.33,.31-.51,.46-.14-.19-.4-.38-.39-.57Zm.63,63.28c-.23-.06-.42-.32-.71-.59,.31-.26,.59-.57,.66-.53,.22,.14,.46,.38,.51,.62,.03,.14-.34,.52-.46,.49Zm.29,3.14c.02,.2-.2,.42-.39,.77-.24-.32-.5-.51-.49-.69,0-.2,.27-.38,.42-.57,.17,.17,.45,.32,.47,.5Zm0-21.96c-.04,.27-.72,.43-1.14,.63,.01-.5,.02-1,.03-1.49,.58,.03,1.23,.12,1.11,.86Zm-.97-3.77c-.02-.21,.26-.44,.41-.67,.21,.18,.53,.34,.59,.56,.06,.2-.17,.47-.36,.92-.32-.39-.62-.59-.64-.81Zm1.04,7.82l-.43,.19c-.56-.12-.79-.46-.54-1.02,.06-.14,.35-.18,.53-.27,.15,.37,.3,.73,.45,1.1Zm-1.58-1.54c-.67-.87-.38-1.38,.34-1.81,.16,.59,.42,1.2-.34,1.81Zm.08,10.86c-.09-.01-.19-.02-.28-.04v-1.16l.36-.02c.06,.23,.17,.46,.17,.69,0,.18-.16,.35-.25,.53Zm.04,2.57v1.16c-.09,.02-.18,.03-.27,.05-.09-.18-.24-.36-.24-.54,0-.23,.13-.46,.2-.69,.11,.01,.21,.02,.32,.03Zm.14-6.24c-.17-.02-.33-.04-.5-.06,.03-.35,.05-.7,.08-1.05,.19,.03,.39,.06,.58,.09-.05,.34-.11,.68-.16,1.02Zm-.3-5.01c.61,.89,1.19,1.69,1.7,2.53,.04,.06-.47,.63-.66,.6-.72-.11-1.45-2.17-1.03-3.14Zm1.11,5.66c.21,.24,.53,.45,.59,.72,.04,.17-.32,.42-.63,.79-.24-.4-.52-.65-.49-.86,.03-.23,.35-.43,.54-.64Zm.47-17.56c-.12,.13-.41,.22-.57,.17-.87-.25-1.47-1.97-.91-2.93,.57,.76,1.12,1.45,1.61,2.18,.08,.12-.01,.45-.13,.58Zm-1.31,2.17c-.17,0-.34,0-.51,.01v-1.13c.13-.01,.25-.02,.38-.03,.04,.38,.09,.76,.13,1.14Zm-.11-7.24c-.15-.01-.3-.02-.45-.03,.03-.43,.05-.87,.08-1.3,.15,0,.3,0,.46,0,.48,.42,.48,.87-.08,1.33Zm.28-2.93c-.07-.12-.03-.32-.02-.48,.17,0,.38-.04,.47,.04,.26,.23,.5,.5,.66,.8,.03,.06-.31,.33-.48,.5-.21-.28-.46-.55-.63-.86Zm-.05-.53c-.85-.31-.98-.82-.41-1.64,.73,.48,.48,1.08,.41,1.64Zm-.63,13.36c.16-.03,.32-.07,.48-.1,.05,.52,.1,1.04,.15,1.56-.81-.3-.91-.82-.63-1.46Zm.26,21.52c.79,.79,.76,1.3,.08,1.86-.73-.57-.51-1.09-.08-1.86Zm1.04-3.83c-.17-.22-.45-.42-.49-.66-.03-.15,.29-.52,.44-.52,.23,0,.45,.26,.84,.52-.37,.31-.58,.48-.79,.66Zm.14-25.93c-.15-.21-.4-.42-.42-.64-.02-.14,.31-.31,.48-.47,.16,.17,.31,.34,.53,.58-.24,.22-.41,.38-.58,.54Zm-.14-12.35c.28,.15,.53,.39,.72,.65,.03,.04-.35,.54-.44,.51-.3-.09-.6-.29-.8-.53-.12-.13-.08-.4-.1-.62,.22-.02,.46-.09,.62,0Zm-1.21-5.43c.62,.79,1.15,1.42,1.6,2.09,.11,.16,.05,.52-.06,.71-.07,.12-.4,.2-.57,.14-.49-.16-1.21-2.08-.98-2.94Zm1.28-4.29c-.24-.29-.5-.47-.5-.65,0-.18,.27-.35,.42-.53,.17,.16,.46,.3,.49,.48,.02,.18-.22,.39-.41,.71Zm-1.22-6.85c.6,.86,1.11,1.55,1.55,2.29,.1,.17,.02,.51-.1,.71-.05,.09-.43,.09-.58,0-.6-.34-1.15-2.03-.87-2.99Zm.23,3.95c.04,.38,.09,.76,.13,1.13-.17,0-.35,.01-.52,.02v-1.12c.13-.01,.26-.02,.38-.03Zm-.23,3.61c.57,.69,1.09,1.23,1.48,1.85,.12,.19-.09,.6-.14,.91-.25-.11-.68-.16-.73-.33-.23-.74-1.27-1.26-.6-2.42Zm-.1,7.31c.78,.46,.58,1.09,.58,1.66-.71-.32-1.11-.76-.58-1.66Zm0,3.55c.69,.78,1.3,1.38,1.8,2.07,.14,.19,0,.66-.14,.92-.06,.12-.61,.17-.68,.07-.49-.68-.95-1.39-1.31-2.14-.09-.2,.2-.58,.34-.92Zm2.88,12.44c-.18-.22-.49-.43-.51-.66-.02-.21,.28-.44,.59-.87,.22,.49,.42,.76,.41,1-.01,.19-.32,.35-.49,.53Zm.36,2.52v1.24c-.22,.01-.45,.03-.67,.04-.05-.41-.1-.81-.15-1.22,.27-.02,.54-.04,.82-.07Zm-.26,3.56c.17,.28,.44,.55,.47,.84,.02,.2-.29,.44-.61,.88-.26-.52-.54-.82-.5-1.09,.03-.24,.41-.43,.64-.64Zm.48,4.47c0,.27-.3,.53-.46,.79-.12-.01-.23-.03-.35-.04-.1-.34-.33-.69-.28-1,.04-.24,.44-.41,.68-.62,.15,.29,.41,.58,.41,.86Zm-.62,2.89c.2,.2,.53,.38,.55,.6,.03,.28-.2,.58-.43,1.16-.37-.51-.7-.78-.69-1.03,.01-.25,.37-.49,.57-.73Zm.12,12.49c-.23-.22-.62-.43-.64-.67-.02-.31,.26-.63,.55-1.23,.37,.51,.73,.8,.69,1.02-.05,.32-.39,.59-.6,.88Zm.59,2.92c-.06,.31-.44,.56-.69,.84-.2-.3-.54-.6-.55-.9,0-.31,.33-.62,.51-.93,.12,0,.24,.01,.36,.02,.14,.33,.42,.68,.36,.97Zm-1.21-7.44c-.03-.17,.31-.41,.64-.82,.27,.51,.56,.83,.56,1.15,0,.19-.43,.39-.67,.59-.19-.3-.47-.59-.53-.92Zm.57-2.83c-.12,.04-.6-.41-.56-.53,.1-.32,.39-.59,.6-.88,.21,.18,.42,.37,.76,.67-.33,.33-.53,.64-.8,.74Zm.14-29.59c-.23,0-.66-.35-.68-.56-.02-.24,.3-.65,.55-.72,.21-.06,.53,.25,1.01,.51-.41,.38-.64,.76-.88,.77Zm-.16-7.29c-.2-.28-.49-.55-.57-.86-.03-.13,.43-.58,.54-.53,.27,.1,.46,.4,.77,.72-.33,.31-.54,.49-.74,.68Zm.49,2.98c.04,.23-.21,.5-.43,.96-.29-.42-.58-.66-.58-.88,0-.24,.3-.46,.46-.69,.19,.2,.51,.38,.55,.61Zm-.44-6.77c-.24-.05-.56-.33-.59-.53-.02-.2,.3-.43,.47-.65,.22,.18,.43,.36,.96,.8-.39,.19-.65,.43-.84,.39Zm-.62-4.17c.02-.28,.3-.54,.47-.8,.24,.18,.49,.36,.91,.67-.4,.34-.6,.64-.87,.7-.13,.03-.52-.38-.51-.57Zm1.14-3.65c-.21,.18-.42,.35-.64,.53-.18-.25-.48-.5-.51-.77-.02-.19,.32-.58,.51-.59,.31,0,.62,.22,.93,.36-.1,.16-.19,.32-.29,.47Zm-.59-3.03c-.62-.3-.75-.74-.36-1.26,.09-.12,.57-.14,.65-.03,.38,.49,.32,.95-.29,1.29Zm-.06,24.22c.65,.37,.82,.8,.41,1.31-.09,.11-.56,.11-.67,0-.48-.53-.17-.92,.26-1.31Zm-.04,3.45c.35,.42,.7,.68,.66,.84-.09,.33-.38,.6-.58,.9-.22-.19-.62-.38-.61-.56,.01-.32,.27-.64,.53-1.18Zm2.94-25.18c.15,.02,.31,.03,.46,.05-.03,.32-.07,.64-.1,.95-.16-.02-.31-.03-.47-.05l.11-.95Zm-.04-3.68c.17,0,.33,.02,.5,.02-.02,.28-.03,.57-.05,.85-.13,0-.26,0-.39,0-.02-.29-.04-.59-.06-.88Zm.16,58.61c.14,0,.28,0,.42,0v1.55c-.92-.62-.91-1.06-.42-1.55Zm-.45-2.33c.09-.4,.18-.79,.27-1.19,.22,.06,.64,.15,.64,.19-.04,.39-.15,.78-.24,1.16-.22-.05-.44-.11-.66-.16Zm.72,6.12c.09,.4,.19,.79,.28,1.19-.18,.04-.35,.08-.53,.13-.09-.4-.19-.79-.28-1.19,.18-.04,.35-.08,.53-.13Zm-.33-9.57c-.15-.38-.33-.75-.42-1.15-.01-.05,.39-.21,.61-.31,.15,.4,.29,.8,.44,1.21-.21,.08-.41,.17-.62,.25Zm.19-3.84c-.23-.21-.6-.4-.64-.64-.04-.26,.24-.57,.5-1.1,.32,.45,.62,.69,.6,.89-.03,.3-.29,.57-.45,.85Zm-.02-3.62c-.28-.09-.58-.51-.62-.82-.03-.23,.36-.51,.56-.76,.24,.24,.49,.48,.73,.72,.1,.18,.2,.37,.3,.55-.33,.12-.71,.39-.97,.31Zm-.11-7.23c-.17-.47-.3-.84-.43-1.21,.23-.07,.54-.26,.66-.18,.49,.34,.53,.77-.24,1.39Zm.59,2.69c-.03,.29-.29,.55-.45,.82-.22-.22-.58-.42-.62-.67-.04-.25,.25-.55,.52-1.05,.29,.45,.57,.69,.55,.9Zm-.45-6.41c-.31-.39-.62-.62-.62-.84,0-.23,.3-.45,.47-.68,.2,.19,.53,.37,.57,.59,.04,.22-.21,.49-.43,.93Zm-.18-4.04c-.13,.02-.49-.34-.47-.5,.03-.25,.29-.48,.46-.71,.22,.16,.43,.32,.8,.59-.37,.3-.56,.57-.8,.62Zm.34-5.14c.06,.64,.1,1.09,.14,1.54-.16,.01-.32,.03-.48,.04-.69-.45-.71-.9,.34-1.58Zm0-1.93c-.24-.03-.47-.06-.71-.09,.02-.41,.04-.82,.06-1.22,.27,.03,.54,.06,.81,.09-.05,.41-.11,.82-.16,1.22Zm-.08-5.23v1.53c-.98-.83-.98-.84,0-1.53Zm-.36-11.07l.38-.02c.02,.48,.04,.95,.07,1.59q-1.02-.63-.45-1.57Zm.36,3.51c.04,.62,.06,1.04,.1,1.63-1.09-.7-1.09-.71-.1-1.63Zm-.02,3.75v1.52c-.14,0-.29-.01-.43-.02-.5-.52-.5-.97,.43-1.51Zm1.99,3.16c-1.11-.68-.92-1.23,.94-2.83,.44,1.31-.64,1.92-.94,2.83Zm.04,3.51c-.17,.07-.56,.03-.6-.06-.1-.26-.07-.56-.08-.85,0-.03,.05-.07,.08-.11,.43-.55,.86-1.1,1.39-1.78,.31,.85-.22,2.58-.8,2.8Zm.98-12.66c-.3,.58-.71,1.11-1.13,1.62-.05,.06-.51-.05-.55-.17-.08-.21-.07-.53,.04-.73,.2-.34,.51-.61,.75-.94,.2-.28,.35-.58,.52-.88,.13,.02,.26,.03,.39,.05,0,.35,.12,.76-.02,1.04Zm-1.69,4.53c.41-.66,.89-1.27,1.46-2.06,.32,.89-.3,2.78-.84,2.94-.17,.05-.5-.03-.57-.16-.11-.2-.16-.55-.05-.72Zm-.03,14.71c.41-.66,.94-1.24,1.62-2.11,.15,.54,.37,.88,.28,1.11-.2,.58-.49,1.15-.86,1.64-.15,.2-.58,.2-.89,.29-.06-.32-.29-.73-.16-.93Zm1.8-4.51c-.19,.49-.46,.96-.79,1.36-.17,.2-.56,.21-.85,.31-.03-.32-.19-.72-.05-.95,.38-.63,.87-1.18,1.32-1.76,.13,.01,.26,.02,.39,.03,0,.34,.09,.71-.02,1.01Zm-.02-18.52c-.2,.53-.47,1.05-.8,1.51-.14,.19-.49,.23-.75,.34-.07-.3-.3-.7-.18-.89,.39-.66,.9-1.26,1.37-1.88l.28,.03c.03,.29,.17,.63,.08,.88Zm-.21-3.34c-.27,.54-.67,1.01-1.05,1.49-.03,.04-.4-.07-.44-.17-.08-.23-.16-.57-.05-.73,.43-.65,.94-1.24,1.43-1.85,.1,.02,.2,.03,.31,.05-.06,.41-.02,.86-.2,1.22Zm-.86-2.15c-.2-.04-.49-.01-.59-.13-.37-.48-.26-.88,.25-1.15l.49,.08-.15,1.2Zm-.42,31.76c.39-.47,.75-.97,1.12-1.46q.92,.62-.86,3.01c-.85-.47-.74-.96-.26-1.54Zm.72,19.53c-.15,.2-.57,.18-.87,.26-.03-.28-.18-.64-.06-.83,.44-.69,.96-1.33,1.46-1.98,.12,0,.24,.01,.36,.02,.01,.31,.13,.65,.02,.91-.24,.57-.53,1.13-.91,1.62Zm.14,2.73c-.02,.25,.01,.52-.08,.74-.11,.25-.32,.49-.55,.64-.07,.05-.49-.19-.48-.27,.03-.31,.09-.69,.29-.9,.17-.17,.53-.16,.82-.21Zm.78-15.19c-.19,.54-.5,1.05-.86,1.49-.17,.21-.55,.25-.84,.37-.09-.32-.34-.73-.23-.94,.43-.8,.98-1.53,1.48-2.28,.16,.03,.31,.06,.47,.08,0,.43,.11,.89-.03,1.28Zm.02,3.38c-.2,.62-.46,1.24-.81,1.78-.14,.21-.57,.23-.88,.34-.06-.35-.29-.79-.16-1.05,.36-.7,.87-1.31,1.33-1.96h.38c.05,.29,.22,.63,.14,.89Zm-1.89,4.85c.36-.7,.87-1.32,1.33-1.98,.12-.02,.24-.04,.36-.05,.08,.29,.3,.63,.22,.87-.23,.67-.53,1.32-.9,1.93-.11,.18-.52,.18-.79,.26-.08-.35-.34-.79-.22-1.03Zm1.13,5.22c1.14,.74,1.12,.95,0,1.68v-1.68Zm-1.13-16.42c.43-.69,.98-1.31,1.48-1.96,.12,.04,.24,.08,.36,.12,.25,1.24-.72,2.05-1.15,3.08-.82-.23-1.04-.68-.69-1.24Zm.23,21.84c.43-.49,.76-1.07,1.13-1.61,.15,0,.29,0,.44,0,0,.41,.15,.9-.03,1.2-.49,.84-.39,1.57-.03,2.41,.18,.42,.14,1.06-.06,1.49-.34,.73-.32,1.33,.06,2.03,.38,.7-.3,2.73-1,3.06-.19,.09-.65,.01-.68-.08-.08-.26-.11-.71,.04-.84,1.16-.94,.86-1.76-.03-2.7-.18-.19,0-.93,.23-1.24,.59-.76,.73-1.41-.04-2.11-.58-.52-.56-1.03-.05-1.62Zm2.53-57.96c-.08-.04-.11-.18-.16-.28,.1-.05,.21-.16,.29-.13,.08,.03,.13,.17,.22,.31-.15,.05-.28,.14-.35,.11Zm.93,1.25c.33,1.16-.41,1.66-.92,2.26-.36-.97,.3-1.48,.92-2.26Zm-.25,3.8c.12,.06,.24,.12,.36,.18,.28,.96-.56,1.42-.85,2.12-.19-.09-.37-.18-.56-.28,.35-.67,.7-1.35,1.06-2.02Zm.17,33.71c-.11-.02-.28-.2-.29-.32,0-.11,.17-.3,.28-.32,.1-.01,.23,.16,.44,.31-.2,.16-.33,.33-.44,.32Zm.38,3.34c-.01,.14-.11,.27-.18,.41-.09-.07-.26-.12-.27-.2-.02-.14,.06-.29,.11-.52,.18,.16,.34,.24,.33,.31Zm-.36,14.54c.1,.12,.26,.22,.28,.35,.01,.12-.13,.26-.28,.52-.15-.26-.29-.4-.28-.53,.01-.12,.18-.23,.28-.35Zm-.25-3.15c.05-.25,.1-.51,.15-.76,.11,.01,.23,.02,.34,.03-.02,.27-.03,.53-.05,.8-.15-.02-.3-.05-.45-.07Zm.28-3.61c-.12-.05-.2-.2-.3-.31,.1-.07,.19-.2,.29-.19,.09,0,.17,.14,.38,.33-.15,.08-.29,.21-.36,.18Zm-.7-1.86l-.4-.17c.11-.3,.22-.61,.33-.92,.17,.08,.33,.15,.5,.23l-.43,.85Zm-.29-18.46c-.24-1.21,.4-1.83,.87-2.56q.61,.79-.87,2.56Zm.09,7.35c-.49-1.15,.41-1.73,.95-2.46,.33,1.06-.23,1.79-.95,2.46Zm.8-6.2c.36,.87,.07,1.62-.92,2.49-.3-1.11,.55-1.65,.92-2.49Zm-.73,9.02c.1,.12,.27,.23,.27,.35,0,.13-.14,.26-.3,.53-.14-.26-.29-.41-.27-.52,.02-.13,.19-.24,.29-.36Zm.98-15.49c-.18-.24-.35-.37-.34-.48,.01-.11,.19-.24,.32-.3,.05-.02,.25,.14,.25,.22,0,.14-.1,.28-.22,.55Zm-.51-2.48c-.15,.07-.31,.21-.43,.18-.11-.03-.27-.27-.24-.38,.03-.12,.24-.24,.38-.26,.17-.02,.36,.06,.54,.1-.08,.12-.16,.24-.25,.35Zm-.45-3.43c-.09-.01-.22-.16-.22-.25,0-.09,.15-.23,.23-.23,.08,0,.17,.14,.3,.26-.13,.1-.23,.24-.31,.23Zm-.04,6.77c.1,.12,.27,.22,.28,.35,.01,.12-.13,.26-.28,.53-.15-.26-.29-.4-.27-.52,.02-.13,.18-.24,.28-.35Zm-.01,18.26c.15,.26,.3,.4,.29,.52-.01,.13-.18,.24-.28,.36-.1-.12-.26-.22-.28-.35-.01-.12,.13-.26,.27-.53Zm-.12,11.35c.14,.01,.28,.12,.53,.25-.22,.19-.34,.29-.46,.39-.1-.12-.24-.23-.29-.37-.02-.07,.14-.28,.21-.27Zm.37,4.06c0,.08-.13,.18-.25,.32-.1-.16-.22-.26-.21-.35,.01-.09,.16-.16,.25-.24,.08,.09,.21,.18,.22,.28Zm-.43,7.07c.07-.01,.17,.13,.3,.25-.13,.11-.22,.25-.31,.25-.08,0-.22-.16-.22-.24,0-.09,.13-.23,.23-.25Zm.13-3.1c-.07-.14-.18-.28-.19-.42,0-.07,.2-.24,.26-.22,.13,.05,.23,.18,.44,.37-.25,.13-.38,.2-.51,.27Zm.17-11.12c-.11-.15-.34-.34-.3-.45,.05-.15,.27-.31,.45-.35,.15-.03,.33,.09,.65,.2-.48,.36-.64,.47-.79,.59Zm1.02,9.07c-.14,.06-.28,.13-.42,.19-.06-.15-.16-.3-.16-.45,0-.07,.18-.2,.28-.21,.18,0,.35,.07,.53,.11-.08,.12-.15,.23-.23,.35Zm.14,3.64c-.21,.17-.35,.35-.46,.34-.11-.01-.29-.23-.28-.35,0-.12,.18-.32,.3-.34,.11-.01,.24,.18,.44,.34Zm-.29-18.13c-.12,0-.35-.15-.37-.26-.02-.12,.13-.34,.26-.38,.11-.04,.28,.11,.53,.23-.19,.21-.3,.41-.41,.42Zm-.17-25.79c-.08,0-.27-.18-.25-.23,.04-.14,.16-.28,.27-.37,.02-.02,.19,.13,.58,.4-.27,.1-.44,.2-.6,.21Zm-.18-4.01c.11-.04,.24-.14,.32-.11,.09,.03,.13,.19,.21,.33-.14,.07-.25,.13-.35,.18-.06-.13-.12-.27-.18-.4Zm-.46-1.69c-.12-.06-.23-.12-.35-.18-.16-.89,.43-1.43,.95-2,.16,.08,.32,.16,.48,.23-.36,.65-.71,1.3-1.07,1.95Zm.01-3.6c-.2-.11-.39-.22-.59-.33,.36-.7,.73-1.41,1.09-2.11,.18,.09,.36,.18,.54,.27-.35,.72-.69,1.45-1.04,2.17Zm1.59,14.17c.02,.07,.05,.15,.07,.22-.07,0-.14,.02-.21,.02-.01,0-.04-.1-.03-.11,.05-.05,.11-.09,.17-.13Zm-.13-3.35c.01-.07,.05-.14,.08-.21l.17,.15c-.05,.05-.11,.1-.17,.14,0,0-.09-.06-.08-.08Zm.24,7.21c-.04,.06-.07,.13-.11,.19-.06-.04-.15-.08-.16-.13,0-.06,.06-.13,.1-.19,.06,.04,.11,.09,.17,.13Zm.02,3.46c-.06,.12-.12,.24-.18,.36-.04-.15-.09-.29-.13-.44,.1,.03,.21,.05,.31,.08Zm-.1,33.15c.11,.15,.19,.24,.22,.33,.01,.05-.09,.19-.11,.19-.1-.03-.25-.08-.27-.15-.02-.09,.08-.2,.16-.37Zm-.18-10.78s.06-.09,.07-.09c.07,.03,.13,.07,.19,.11-.05,.06-.1,.12-.15,.17-.04-.06-.09-.12-.11-.19Zm31.39,22.14c-2.33,.09-4.67,.08-7,0-1.12-.04-2.11-1.17-2.08-2.11,.04-.98,.91-1.83,2.09-1.91,1.16-.07,2.33-.02,3.5-.02,0,0,0,0,0,0,1.12,0,2.25-.05,3.37,.01,1.27,.07,2.07,.9,2.08,2.02,0,1.05-.75,1.95-1.96,2Zm22.6-20.42c.07-.8,.08-1.61,.08-2.42,0-5.21,0-10.42,.02-15.63,0-1.84,.34-2.04,2.13-2.01,3.46,.05,6.92,.02,10.39,.02v.03c3.37,0,6.75,.06,10.12-.02,1.87-.04,3.71-.21,5.6,.19,1.09,.23,2.33-.03,3.45-.27,1.54-.34,2.63,.22,3.53,1.37,.87,1.1,.78,2.22,.07,3.37-.77,1.25-1.87,1.7-3.31,1.6-1.56-.11-3.14-.25-4.7-.16-2.24,.13-2.63,.65-2.64,2.83,0,3.59,0,7.19,0,10.78,0,2.1-.36,2.49-2.4,2.49-6.79,.02-13.58,.02-20.37,0-1.84,0-2.12-.36-1.96-2.16Zm28.26-22.67c1.98-.04,3.96-.06,5.93,0,1.79,.06,3.45,.6,4.91,1.66,1.43,1.04,2.24,2.49,1.83,4.2-.42,1.81-1.01,3.66-1.93,5.26-3.06,5.34-6.3,10.57-9.46,15.85-.55,.92-.99,1.92-1.58,2.82-.33,.5-.87,.85-1.32,1.27l-.47-.4c.24-.5,.43-1.02,.71-1.49,3.72-6.15,7.46-12.28,11.16-18.45,.66-1.11,1.24-2.3,1.66-3.52,.71-2.08,0-4.04-1.98-5.02-1.17-.58-2.54-.91-3.85-1.01-1.78-.14-3.59,.04-5.38,.09-.63,.02-1.27,.09-1.71-.87,.54-.15,1.01-.38,1.48-.39Zm-1.01-2.26c0-.18,.36-.53,.46-.5,.24,.07,.56,.32,.58,.53,.02,.21-.27,.45-.56,.87-.25-.43-.49-.66-.48-.9Zm4.59-.02c0-.18,.38-.51,.49-.47,.23,.09,.54,.34,.56,.55,.02,.2-.29,.43-.6,.84-.23-.44-.46-.68-.45-.92Zm4.59,.16c0-.24,.21-.49,.44-.94,.31,.39,.62,.62,.6,.81-.02,.22-.32,.47-.55,.58-.09,.04-.49-.29-.49-.46Zm4.58-.1c.03-.24,.29-.44,.58-.85,.24,.45,.51,.72,.46,.92-.06,.21-.4,.4-.65,.47-.09,.02-.42-.37-.4-.54Zm-29.67,43.55c-.13,.45-1.01,.88-1.6,.96-1.15,.15-2.33,.07-3.5,.04-.96-.02-1.61-.53-1.88-1.45-.3-1.03-.65-2.06-.81-3.12-.09-.56,.15-1.19,.31-1.76,.1-.38,.39-.71,.49-1.09,.43-1.62,.58-1.76,2.28-1.8,.45,0,.9,0,1.35,0,3.49,0,3.67-.03,4.16,3.4,.22,1.55-.36,3.25-.81,4.82Zm1.22-10.56h0c-3.41,0-6.83,.01-10.24,0-1.55,0-1.94-.36-1.93-1.58,.01-1.2,.51-1.72,1.89-1.72,6.83-.02,13.65-.02,20.48,0,1.38,0,1.88,.47,1.95,1.53,.07,1.24-.4,1.75-1.78,1.76-3.46,.02-6.92,0-10.37,0Zm102.64,24.25c-.22,.04-.45,.05-.67,.1-3.16,.7-3.17,.71-4.94-1.96-1.54-2.32-2.86-4.8-4.6-6.95-6.09-7.59-14.06-12.16-23.58-14.03-9.24-1.81-18.27-.99-27.02,2.43-6.57,2.57-11.77,7.01-16.08,12.52-5.41,6.91-8.41,14.88-10.33,23.33-.08,.35-.15,.7-.22,1.05-.46,2.13-1.71,2.89-3.83,2.28-.88-.25-1.38-.92-1.38-1.79,0-1.16,.06-2.34,.3-3.47,1.07-4.92,2.35-9.78,4.55-14.35,1.6-3.33,3.36-6.55,5.72-9.41,.14-.17,.35-.32,.42-.52,.13-.4,.34-.87,.22-1.21-.07-.21-.68-.34-1.05-.34-3.01,.03-6.02,.11-9.03,.16-.45,0-.92,.03-1.34-.1-.27-.09-.46-.44-.68-.68,.23-.19,.43-.5,.68-.53,.66-.09,1.34-.09,2.02-.09,1.44-.01,2.88,0,4.32,0h0c1.84,0,3.69-.02,5.53,0,.87,0,1.6-.26,2.09-1.01,2.09-3.22,5.16-5.35,8.3-7.37,6.43-4.13,13.42-6.87,21.03-7.9,10.48-1.43,20.29,.54,29.5,5.68,8.31,4.63,14.6,11.26,19.29,19.47,.56,.97,1.2,1.9,1.7,2.91,.55,1.11,.28,1.56-.91,1.79Zm-69.61-57.14c.05-.25,.28-.58,.5-.63,.18-.04,.44,.27,.84,.53-.4,.29-.62,.54-.86,.58-.14,.02-.5-.35-.47-.47Zm18.35,.05c.03-.25,.27-.48,.42-.72,.22,.17,.58,.32,.62,.52,.04,.21-.25,.47-.46,.84-.28-.3-.59-.49-.58-.64Zm4.58-.1c.07-.24,.32-.57,.53-.6,.19-.02,.42,.31,.79,.62-.41,.24-.65,.48-.89,.49-.14,0-.47-.38-.43-.51Zm4.58-.03c0-.18,.27-.37,.42-.55,.21,.18,.55,.33,.59,.54,.04,.2-.24,.46-.51,.89-.26-.42-.49-.64-.5-.87Zm4.4,.04c.19-.21,.37-.55,.59-.59,.2-.03,.46,.27,.87,.54-.39,.29-.62,.59-.83,.57-.23-.02-.42-.34-.63-.53Zm4.63-.1c.06-.21,.41-.33,.63-.49,.14,.2,.4,.4,.38,.58-.02,.22-.27,.42-.57,.83-.24-.46-.5-.73-.44-.92Zm4.32,.11c-.03-.21,.26-.47,.52-.87,.29,.37,.61,.59,.6,.8,0,.21-.33,.58-.52,.58-.21,0-.57-.3-.6-.51Zm4.54,0c.19-.21,.37-.55,.59-.58,.2-.03,.46,.27,.87,.54-.39,.29-.62,.59-.83,.57-.23-.02-.42-.34-.63-.53Zm4.62,.03c0-.23,.33-.44,.52-.66,.21,.19,.55,.34,.6,.56,.04,.2-.23,.47-.47,.88-.32-.37-.66-.59-.65-.79Zm18.12,24.53c1.68-.28,2.66,.62,2.72,2.33,.05,1.35,0,2.69,0,4.04h.02c0,1.03-.02,2.07,0,3.1,.04,1.36-.3,2.5-1.25,3.57-.46,.52-.5,1.46-.58,2.23-.07,.66,.14,1.34,.13,2.01,0,.63-.29,1.27-1,1.13-.35-.07-.77-.69-.84-1.11-.14-.88-.09-1.79-.06-2.69,.04-1.07-.35-1.82-1.37-2.23-.87-.35-1.72-.79-2.62-1.05-1.29-.38-2.08-1.18-2.09-2.48-.01-2.06,.06-4.13,.3-6.16,.06-.54,.81-1.24,1.39-1.42,1.71-.55,3.47-.96,5.23-1.26Zm-10.79-38.03c.15-.08,.29-.15,.44-.23,.39,.49,.92,.92,1.14,1.48,1.33,3.37,2.63,6.75,3.83,10.17,.26,.75,.25,1.7,.06,2.48-.24,1.01-1.24,1.13-1.76,.22-.54-.96-.99-2.02-1.27-3.08-.87-3.33-1.65-6.69-2.44-10.04-.07-.32-.01-.66-.01-1Zm-80.06,6.42c1.36,0,1.66,.27,1.83,1.62,.12,.96,.6,1.34,1.51,1.32,.54-.01,1.08,0,1.62,0,23.96,0,47.91,0,71.87,0,.58,0,1.18-.05,1.75,.05,.33,.06,.63,.37,.94,.56-.32,.25-.6,.64-.96,.73-.55,.14-1.16,.08-1.74,.08-12.04,0-24.09,0-36.13,0-11.87,0-23.73,0-35.6,0-.49,0-.99,0-1.48,0-1.47,.05-1.69,.27-1.74,1.76,0,.27,0,.54-.01,.81-.05,1.61-.4,2.01-2.01,2.02-6.97,.02-13.93,.02-20.9,0-1.37,0-1.69-.33-1.71-1.67-.04-1.89-.03-3.77,0-5.66,.02-1.3,.32-1.62,1.6-1.63,7.06-.02,14.11-.02,21.17,0Zm-17.1-38.99c.67,3.12,1.27,6.25,1.86,9.38,.85,4.55,1.64,9.1,2.48,13.65,.16,.86-.23,1.18-1,1.19-1.12,.02-2.25,0-3.37,0v.02c-.99,0-1.98,.02-2.97,0-1.35-.03-1.67-.33-1.85-1.62-.81-5.92-1.61-11.83-2.44-17.74-.21-1.46-.53-2.91-.82-4.37-.31-1.6,.12-2.17,1.77-2.22,1.39-.04,2.79-.03,4.18,0,1.44,.03,1.85,.29,2.16,1.71Zm-14.6-11.31c.91-.13,1.92-.09,2.78,.18,1.18,.38,2.33,.96,3.38,1.63,1.78,1.12,3.48,2.39,5.23,3.57,.4,.27,.86,.46,1.3,.69-.17,.25-.34,.5-.51,.75-.49-.08-1-.1-1.47-.24-2.7-.84-5.43-1.62-8.08-2.6-1.18-.44-2.32-1.15-3.29-1.96-.91-.76-.54-1.86,.66-2.02Zm-8.6,24.01c0-3.59,0-7.18,0-10.77,0-.49-.01-.99,.04-1.48,.14-1.34,.69-1.76,1.99-1.38,3.22,.93,5.22,3.16,6.09,6.28,.81,2.89,1.29,5.87,1.94,8.8,.79,3.54,1.59,7.09,2.41,10.62,.25,1.08-.01,1.58-1.14,1.59-3.23,.05-6.47,.04-9.7,0-1.19-.02-1.58-.44-1.61-1.69-.05-2.2-.03-4.4-.03-6.6,0-1.79,0-3.59,0-5.38Zm-2.98,.47c-.08-1.93-.04-3.86,0-5.79,.01-.62,.19-1.23,.26-1.85,.05-.43,.09-.88,.06-1.31-.08-1.15-.25-2.3-.3-3.46-.03-.69,.13-1.48,1-1.5,.95-.02,.93,.83,.93,1.49,.02,4.09,0,8.17,0,12.26h0c0,3.64,0,7.27,0,10.91,0,.4,0,.81-.02,1.21-.03,.7-.11,1.43-1.04,1.43-.97,0-.83-.78-.8-1.39,.05-1.02,.16-2.03,.25-3.04,.01-.18,.08-.37,.03-.53-.82-2.78-.27-5.62-.39-8.43Zm13.42,64.64c2.01,0,3.85-.2,5.29-1.79,.21-.23,.59-.3,.89-.44,.09,.08,.19,.16,.28,.24-.24,.42-.39,.93-.73,1.24-1.25,1.15-2.64,1.92-4.45,1.9-5.89-.05-11.78-.02-17.66-.02-7.28,0-14.56,.06-21.84-.04-1.62-.02-3.26-.52-4.85-.93-.63-.16-1.34-.52-1.44-1.55,.38,.03,.71-.03,.93,.1,1.9,1.1,3.98,1.28,6.11,1.28,12.5,0,24.99-.02,37.49,.02Zm-19.58-55.95c-.12,1.02-.51,1.22-1.43,.76-1.11-.55-1.41-.39-1.5,.83-.03,.45-.01,.9-.02,1.35-.04,1.61-.26,1.85-1.91,1.86-5.66,.01-11.32,.01-16.98,0-1.7,0-1.93-.25-1.94-1.98-.02-3.5,0-7,0-10.5h0c0-3.23,0-6.46,0-9.69,0-3.29,2.03-5.36,5.36-5.39,4.58-.04,9.16-.01,13.75-.01,2.34,0,4.67-.01,7.01,.02,.48,0,1.02,.07,1.41,.3,.27,.16,.5,.69,.44,.99-.05,.24-.58,.38-.89,.55-.03,.02-.09,0-.13-.01q-3.1-.15-3.1,2.89c0,5.56,0,11.13,0,16.69,0,.45,.02,.9-.03,1.34Zm-9.26,45.17c-.09,3.15-1.24,4.08-4.39,4.11-.36,0-.72,0-1.08,0h0c-.31,0-.63,0-.94,0-2.83-.01-3.74-.73-4-3.56-.43-4.59,1.13-5.75,4.97-5.69,.54,0,1.07,.06,1.61,.13,2.93,.36,3.94,1.32,3.83,5.01Zm6.8-85.52c.28,.14,.62,.49,.63,.75,0,.25-.34,.65-.61,.75-.89,.31-1.81,.44-2.78-.1,.52-1.41,1.65-1.96,2.76-1.4Zm-6.23,.15c1.14,0,1.65,.58,1.67,1.93,.02,1.46-.73,2.16-2.4,2.21-1.52,.05-2.38-.63-2.39-1.89-.01-1.55,.94-2.24,3.11-2.25Zm-9.62,2.23c1.09-.65,2.31-1.14,3.52-1.54,.66-.22,1.09,.34,1.18,.98,.12,.84,.04,1.66-.85,2.06-.44,.2-.95,.23-1.41,.33-.74-.14-1.47-.2-2.14-.41-.77-.25-.97-1.01-.3-1.41Zm-24.56,26c3.82-.02,7.64-.01,11.46-.01q2.74,0,2.74-2.78c0-1.35,0-2.69,0-4.04,.02-5.54,3.88-8.98,8.98-9.06,7.37-.12,14.74-.04,22.11-.02,.56,0,1.12,.19,1.82,.31-.58,1.08-1.33,.83-1.94,.83-6.92,.02-13.84,0-20.76,.02-.98,0-1.97,.09-2.95,.24-3.16,.5-5.68,2.99-6.04,6.19-.26,2.31-.25,4.65-.28,6.98-.01,1.23,.25,1.4,1.53,1.5,.36,.03,.71,.15,1.07,.23,0,.14,.01,.27,.02,.41-.43,.11-.85,.31-1.28,.31-5.71,.02-11.41,.02-17.12,0-.41,0-.82-.14-1.37-.25,.57-.96,1.33-.87,2.01-.87Zm-2,75.93c.1,1.21,.12,2.42,.11,3.63,0,.13-.44,.39-.62,.35-.25-.06-.6-.3-.66-.53-.14-.55-.15-1.14-.19-1.54,.03-.66,0-1.16,.11-1.63,.05-.26,.3-.61,.52-.65,.22-.05,.72,.22,.73,.37Zm-.84-8.76c.86,1.03,.93,5.19,.09,6.53-.2-.26-.45-.46-.51-.7-.31-1.27-.05-5.03,.41-5.84Zm-104.06,15.08c-1.07,.04-2.15,0-3.23,0-1.08,0-2.15,.03-3.23-.01-1.24-.05-2.36-1-2.36-1.96,0-1.06,1.07-2.07,2.37-2.1,2.15-.05,4.3-.05,6.45,0,1.29,.03,2.38,1.04,2.41,2.08,.03,1.11-.93,1.92-2.42,1.97Zm5.16,17.52c0,4.35,.01,8.69-.01,13.04,0,1.66-.62,2.18-2.24,2.06-1.29-.1-1.69-.61-1.67-1.9,.03-2.64,0-5.29,0-7.93,0,0,0,0,.01,0,0-2.64,0-5.29,0-7.93,0-1.11,.59-1.82,1.63-1.89,1.27-.09,2.13,.49,2.22,1.61,.08,.98,.05,1.97,.05,2.96Zm11.05-55.01c0,3.68-.17,7.36-.21,11.04-.02,1.3,.16,2.6,.16,3.9,0,.84-.08,1.7-.28,2.51-.17,.69-.85,1.05-1.49,.8-.45-.17-.9-.68-1.08-1.15-.2-.52-.1-1.15-.1-1.73,0-10.29,0-20.58,0-30.86s0-20.58,0-30.86c0-.58,0-1.17,.06-1.75,.08-.79,.55-1.19,1.35-1.22,.79-.03,1.31,.31,1.47,1.09,.1,.48,.13,.98,.13,1.47,0,15.59,.01,31.18-.02,46.77Zm25.74,37.44c-2.37,.08-4.75,.08-7.13,.02-1.11-.03-1.87-.9-1.9-1.9-.03-1.03,.75-2,1.88-2.09,1.25-.09,2.51-.02,3.76-.02,0,0,0-.02,0-.03,1.08,0,2.15-.04,3.23,.01,1.17,.05,2.15,.99,2.16,1.98,.02,.87-.96,1.99-2.01,2.03Zm40.89,.06c-1.03,.02-2.06,0-3.09,0h0c-1.08,0-2.15,.02-3.22-.01-1.31-.04-2.21-.77-2.29-1.8-.08-.97,.79-2.01,1.99-2.18,.88-.13,1.79-.1,2.68-.1,1.34,0,2.69-.04,4.03,.05,1.52,.09,2.61,1.03,2.55,2.07-.06,1.04-1.24,1.94-2.64,1.97ZM-.37,12.59c.46-.04,.92-.11,1.38-.11,6.25,0,12.5-.02,18.75,.02,8.04,.06,16.09,.07,24.13,.3,5.38,.15,10.76,.62,16.13,.99,8.89,.61,17.7,1.85,26.44,3.51,10.43,1.98,20.53,4.98,30,9.86,6.82,3.51,13.29,7.54,18.64,13.15,1.85,1.95,3.76,3.85,5.54,5.86,.7,.79,1.17,1.8,1.68,2.75,.42,.78,.07,1.25-.73,1.52-3.53,1.19-6.33,.11-8.01-3.19-2.67-5.24-7.02-8.79-11.86-11.86-14.09-8.94-29.63-13.95-45.98-16.56-7.05-1.13-14.17-1.81-21.27-2.5-4.73-.46-9.5-.55-14.25-.83-5.42-.32-10.85-.69-16.27-1-3.86-.23-7.71-.39-11.57-.6-3.81-.21-7.62-.44-11.43-.68-.45-.03-.9-.17-1.35-.27l.03-.37ZM5.01,56.66c14.3,.05,28.6,0,42.89,.04,3.19,0,5.79,2.58,6.03,5.77,.03,.4,.03,.81,.03,1.21,0,27.53-.01,55.07,.02,82.6,0,2.79-1.02,4.93-3.52,6.17-1.01,.5-2.24,.78-3.36,.78-13.8,.05-27.61,.05-41.41,.02-2,0-3.8-.68-5.15-2.25-.88-1.02-1.3-2.17-1.3-3.57,.04-14.15,.02-28.3,.02-42.45,0-14.15,.08-28.3-.06-42.45-.03-3.22,3.2-5.88,5.81-5.88Z"/><path class="cls-4" d="M314.41,163.48c-12.78-13.23-34.35-14.06-47.93-1.62-5.25,4.8-8.8,10.63-10.39,17.6-1.57,6.93-1.15,13.75,1.41,20.39,2.53,6.56,6.86,11.74,12.78,16.01h39.12c18.33-12.96,18.54-38.36,5-52.38Zm-24.73,42.6c-9.76-.01-18.6-8.03-18.51-19.06,.08-10.64,7.98-18.34,18.56-18.41,11.18-.07,18.51,8.93,18.14,18.6,.27,9.98-7.54,18.88-18.19,18.87Z"/></g><g><path class="cls-4" d="M59.86,32.69v5.55h9.72v3.9h-9.72v7.65h-4.86V28.79h15.87v3.9s-11.01,0-11.01,0Z"/><path class="cls-4" d="M83.59,33.41v4.32c-.39-.03-.69-.06-1.05-.06-2.58,0-4.29,1.41-4.29,4.5v7.62h-4.68v-16.14h4.47v2.13c1.14-1.56,3.06-2.37,5.55-2.37Z"/><path class="cls-4" d="M101.95,43.04h-12.21c.45,2.01,2.16,3.24,4.62,3.24,1.71,0,2.94-.51,4.05-1.56l2.49,2.7c-1.5,1.71-3.75,2.61-6.66,2.61-5.58,0-9.21-3.51-9.21-8.31s3.69-8.31,8.61-8.31,8.4,3.18,8.4,8.37c0,.36-.06,.87-.09,1.26h0Zm-12.27-2.73h7.95c-.33-2.04-1.86-3.36-3.96-3.36s-3.66,1.29-3.99,3.36Z"/><path class="cls-4" d="M104.59,28.79c0-1.47,1.17-2.61,2.91-2.61s2.91,1.08,2.91,2.52c0,1.56-1.17,2.7-2.91,2.7s-2.91-1.14-2.91-2.61Zm.57,4.86h4.68v16.14h-4.68v-16.14Z"/><path class="cls-4" d="M130.84,33.65v13.44c0,6-3.24,8.76-9.06,8.76-3.06,0-6.03-.75-7.92-2.22l1.86-3.36c1.38,1.11,3.63,1.83,5.7,1.83,3.3,0,4.74-1.5,4.74-4.41v-.69c-1.23,1.35-3,2.01-5.1,2.01-4.47,0-8.07-3.09-8.07-7.8s3.6-7.8,8.07-7.8c2.25,0,4.11,.75,5.34,2.31v-2.07h4.44Zm-4.62,7.56c0-2.37-1.77-3.96-4.23-3.96s-4.26,1.59-4.26,3.96,1.8,3.96,4.26,3.96,4.23-1.59,4.23-3.96Z"/><path class="cls-4" d="M151.69,40.55v9.24h-4.68v-8.52c0-2.61-1.2-3.81-3.27-3.81-2.25,0-3.87,1.38-3.87,4.35v7.98h-4.68V27.53h4.68v7.8c1.26-1.26,3.06-1.92,5.13-1.92,3.81,0,6.69,2.22,6.69,7.14h0Z"/><path class="cls-4" d="M166.33,49.01c-.96,.69-2.37,1.02-3.81,1.02-3.81,0-6.03-1.95-6.03-5.79v-6.63h-2.49v-3.6h2.49v-3.93h4.68v3.93h4.02v3.6h-4.02v6.57c0,1.38,.75,2.13,2.01,2.13,.69,0,1.38-.21,1.89-.6l1.26,3.3h0Z"/><path class="cls-4" d="M176.47,39.29c0-6.33,4.86-10.86,11.4-10.86,3.63,0,6.66,1.32,8.64,3.72l-3.12,2.88c-1.41-1.62-3.18-2.46-5.28-2.46-3.93,0-6.72,2.76-6.72,6.72s2.79,6.72,6.72,6.72c2.1,0,3.87-.84,5.28-2.49l3.12,2.88c-1.98,2.43-5.01,3.75-8.67,3.75-6.51,0-11.37-4.53-11.37-10.86Z"/><path class="cls-4" d="M213.64,40.58v9.21h-4.38v-2.01c-.87,1.47-2.55,2.25-4.92,2.25-3.78,0-6.03-2.1-6.03-4.89s2.01-4.83,6.93-4.83h3.72c0-2.01-1.2-3.18-3.72-3.18-1.71,0-3.48,.57-4.65,1.5l-1.68-3.27c1.77-1.26,4.38-1.95,6.96-1.95,4.92,0,7.77,2.28,7.77,7.17h0Zm-4.68,4.11v-1.65h-3.21c-2.19,0-2.88,.81-2.88,1.89,0,1.17,.99,1.95,2.64,1.95,1.56,0,2.91-.72,3.45-2.19h0Z"/><path class="cls-4" d="M227.89,33.41v4.32c-.39-.03-.69-.06-1.05-.06-2.58,0-4.29,1.41-4.29,4.5v7.62h-4.68v-16.14h4.47v2.13c1.14-1.56,3.06-2.37,5.55-2.37h0Z"/><path class="cls-4" d="M240.7,33.41v4.32c-.39-.03-.69-.06-1.05-.06-2.58,0-4.29,1.41-4.29,4.5v7.62h-4.68v-16.14h4.47v2.13c1.14-1.56,3.06-2.37,5.55-2.37h0Z"/><path class="cls-4" d="M242.95,28.79c0-1.47,1.17-2.61,2.91-2.61s2.91,1.08,2.91,2.52c0,1.56-1.17,2.7-2.91,2.7s-2.91-1.14-2.91-2.61Zm.57,4.86h4.68v16.14h-4.68v-16.14Z"/><path class="cls-4" d="M268.27,43.04h-12.21c.45,2.01,2.16,3.24,4.62,3.24,1.71,0,2.94-.51,4.05-1.56l2.49,2.7c-1.5,1.71-3.75,2.61-6.66,2.61-5.58,0-9.21-3.51-9.21-8.31s3.69-8.31,8.61-8.31,8.4,3.18,8.4,8.37c0,.36-.06,.87-.09,1.26h0Zm-12.27-2.73h7.95c-.33-2.04-1.86-3.36-3.96-3.36s-3.66,1.29-3.99,3.36Z"/><path class="cls-4" d="M281.5,33.41v4.32c-.39-.03-.69-.06-1.05-.06-2.58,0-4.29,1.41-4.29,4.5v7.62h-4.68v-16.14h4.47v2.13c1.14-1.56,3.06-2.37,5.55-2.37Z"/><path class="cls-4" d="M291.58,47.72l1.65-3.66c1.77,1.29,4.41,2.19,6.93,2.19,2.88,0,4.05-.96,4.05-2.25,0-3.93-12.21-1.23-12.21-9.03,0-3.57,2.88-6.54,8.85-6.54,2.64,0,5.34,.63,7.29,1.86l-1.5,3.69c-1.95-1.11-3.96-1.65-5.82-1.65-2.88,0-3.99,1.08-3.99,2.4,0,3.87,12.21,1.2,12.21,8.91,0,3.51-2.91,6.51-8.91,6.51-3.33,0-6.69-.99-8.55-2.43Z"/><path class="cls-4" d="M327.76,43.04h-12.21c.45,2.01,2.16,3.24,4.62,3.24,1.71,0,2.94-.51,4.05-1.56l2.49,2.7c-1.5,1.71-3.75,2.61-6.66,2.61-5.58,0-9.21-3.51-9.21-8.31s3.69-8.31,8.61-8.31,8.4,3.18,8.4,8.37c0,.36-.06,.87-.09,1.26h0Zm-12.27-2.73h7.95c-.33-2.04-1.86-3.36-3.96-3.36s-3.66,1.29-3.99,3.36h0Z"/><path class="cls-4" d="M330.97,27.53h4.68v22.26h-4.68V27.53Z"/><path class="cls-4" d="M355.72,43.04h-12.21c.45,2.01,2.16,3.24,4.62,3.24,1.71,0,2.94-.51,4.05-1.56l2.49,2.7c-1.5,1.71-3.75,2.61-6.66,2.61-5.58,0-9.21-3.51-9.21-8.31s3.69-8.31,8.61-8.31,8.4,3.18,8.4,8.37c0,.36-.06,.87-.09,1.26h0Zm-12.27-2.73h7.95c-.33-2.04-1.86-3.36-3.96-3.36s-3.66,1.29-3.99,3.36h0Z"/><path class="cls-4" d="M357.73,41.72c0-4.86,3.75-8.31,9-8.31,3.39,0,6.06,1.47,7.23,4.11l-3.63,1.95c-.87-1.53-2.16-2.22-3.63-2.22-2.37,0-4.23,1.65-4.23,4.47s1.86,4.47,4.23,4.47c1.47,0,2.76-.66,3.63-2.22l3.63,1.98c-1.17,2.58-3.84,4.08-7.23,4.08-5.25,0-9-3.45-9-8.31Z"/><path class="cls-4" d="M387.28,49.01c-.96,.69-2.37,1.02-3.81,1.02-3.81,0-6.03-1.95-6.03-5.79v-6.63h-2.49v-3.6h2.49v-3.93h4.68v3.93h4.02v3.6h-4.02v6.57c0,1.38,.75,2.13,2.01,2.13,.69,0,1.38-.21,1.89-.6l1.26,3.3h0Z"/><path class="cls-4" d="M389.35,28.79c0-1.47,1.17-2.61,2.91-2.61s2.91,1.08,2.91,2.52c0,1.56-1.17,2.7-2.91,2.7s-2.91-1.14-2.91-2.61Zm.57,4.86h4.68v16.14h-4.68v-16.14Z"/><path class="cls-4" d="M397.75,41.72c0-4.86,3.75-8.31,8.88-8.31s8.85,3.45,8.85,8.31-3.72,8.31-8.85,8.31-8.88-3.45-8.88-8.31Zm12.99,0c0-2.79-1.77-4.47-4.11-4.47s-4.14,1.68-4.14,4.47,1.8,4.47,4.14,4.47,4.11-1.68,4.11-4.47Z"/><path class="cls-4" d="M435.1,40.55v9.24h-4.68v-8.52c0-2.61-1.2-3.81-3.27-3.81-2.25,0-3.87,1.38-3.87,4.35v7.98h-4.68v-16.14h4.47v1.89c1.26-1.38,3.15-2.13,5.34-2.13,3.81,0,6.69,2.22,6.69,7.14h0Z"/><path class="cls-4" d="M446.83,39.29c0-6.33,4.86-10.86,11.4-10.86,3.63,0,6.66,1.32,8.64,3.72l-3.12,2.88c-1.41-1.62-3.18-2.46-5.28-2.46-3.93,0-6.72,2.76-6.72,6.72s2.79,6.72,6.72,6.72c2.1,0,3.87-.84,5.28-2.49l3.12,2.88c-1.98,2.43-5.01,3.75-8.67,3.75-6.51,0-11.37-4.53-11.37-10.86Z"/><path class="cls-4" d="M486.31,40.55v9.24h-4.68v-8.52c0-2.61-1.2-3.81-3.27-3.81-2.25,0-3.87,1.38-3.87,4.35v7.98h-4.68V27.53h4.68v7.8c1.26-1.26,3.06-1.92,5.13-1.92,3.81,0,6.69,2.22,6.69,7.14h0Z"/><path class="cls-4" d="M506.41,43.04h-12.21c.45,2.01,2.16,3.24,4.62,3.24,1.71,0,2.94-.51,4.05-1.56l2.49,2.7c-1.5,1.71-3.75,2.61-6.66,2.61-5.58,0-9.21-3.51-9.21-8.31s3.69-8.31,8.61-8.31,8.4,3.18,8.4,8.37c0,.36-.06,.87-.09,1.26h0Zm-12.27-2.73h7.95c-.33-2.04-1.86-3.36-3.96-3.36s-3.66,1.29-3.99,3.36h0Z"/><path class="cls-4" d="M508.42,41.72c0-4.86,3.75-8.31,9-8.31,3.39,0,6.06,1.47,7.23,4.11l-3.63,1.95c-.87-1.53-2.16-2.22-3.63-2.22-2.37,0-4.23,1.65-4.23,4.47s1.86,4.47,4.23,4.47c1.47,0,2.76-.66,3.63-2.22l3.63,1.98c-1.17,2.58-3.84,4.08-7.23,4.08-5.25,0-9-3.45-9-8.31h0Z"/><path class="cls-4" d="M534.16,43.46l-2.25,2.22v4.11h-4.68V27.53h4.68v12.6l6.84-6.48h5.58l-6.72,6.84,7.32,9.3h-5.67l-5.1-6.33h0Z"/><path class="cls-4" d="M547.03,27.53h4.68v22.26h-4.68V27.53Z"/><path class="cls-4" d="M555.49,28.79c0-1.47,1.17-2.61,2.91-2.61s2.91,1.08,2.91,2.52c0,1.56-1.17,2.7-2.91,2.7s-2.91-1.14-2.91-2.61Zm.57,4.86h4.68v16.14h-4.68v-16.14Z"/><path class="cls-4" d="M563.53,48.29l1.56-3.36c1.44,.93,3.63,1.56,5.61,1.56,2.16,0,2.97-.57,2.97-1.47,0-2.64-9.75,.06-9.75-6.39,0-3.06,2.76-5.22,7.47-5.22,2.22,0,4.68,.51,6.21,1.41l-1.56,3.33c-1.59-.9-3.18-1.2-4.65-1.2-2.1,0-3,.66-3,1.5,0,2.76,9.75,.09,9.75,6.45,0,3-2.79,5.13-7.62,5.13-2.73,0-5.49-.75-6.99-1.74h0Z"/><path class="cls-4" d="M591.43,49.01c-.96,.69-2.37,1.02-3.81,1.02-3.81,0-6.03-1.95-6.03-5.79v-6.63h-2.49v-3.6h2.49v-3.93h4.68v3.93h4.02v3.6h-4.02v6.57c0,1.38,.75,2.13,2.01,2.13,.69,0,1.38-.21,1.89-.6l1.26,3.3Z"/></g><g class="cls-2"><rect class="cls-6" x="570" y="86" width="205" height="43" rx="10.5" ry="10.5"/></g><g><path class="cls-4" d="M585.8,101.61h5.96c4.18,0,7.04,2.43,7.04,6.3s-2.86,6.3-7.04,6.3h-5.96v-12.6Zm5.82,9.76c2.14,0,3.58-1.28,3.58-3.46s-1.44-3.46-3.58-3.46h-2.25v6.91h2.25Z"/><path class="cls-4" d="M600.02,107.91c0-3.78,2.97-6.55,7-6.55s7,2.77,7,6.55-2.97,6.55-7,6.55-7-2.77-7-6.55Zm10.41,0c0-2.18-1.5-3.6-3.4-3.6s-3.4,1.42-3.4,3.6,1.5,3.6,3.4,3.6,3.4-1.42,3.4-3.6Z"/><path class="cls-4" d="M635.24,101.61l-4.09,12.6h-3.82l-2.41-7.67-2.52,7.67h-3.82l-4.09-12.6h3.67l2.54,8.05,2.67-8.05h3.28l2.54,8.12,2.65-8.12h3.4Z"/><path class="cls-4" d="M648.52,101.61v12.6h-2.93l-5.56-6.72v6.72h-3.49v-12.6h2.93l5.56,6.72v-6.72h3.49Z"/><path class="cls-4" d="M651.04,101.61h3.56v9.78h6.01v2.83h-9.58v-12.6h.01Z"/><path class="cls-4" d="M661.19,107.91c0-3.78,2.97-6.55,7-6.55s7,2.77,7,6.55-2.97,6.55-7,6.55-7-2.77-7-6.55Zm10.41,0c0-2.18-1.5-3.6-3.4-3.6s-3.4,1.42-3.4,3.6,1.5,3.6,3.4,3.6,3.4-1.42,3.4-3.6Z"/><path class="cls-4" d="M685.35,111.76h-5.33l-.99,2.45h-3.64l5.56-12.6h3.51l5.58,12.6h-3.71l-.99-2.45h.01Zm-1.04-2.63l-1.62-4.03-1.62,4.03h3.24Z"/><path class="cls-4" d="M691.05,101.61h5.96c4.18,0,7.04,2.43,7.04,6.3s-2.86,6.3-7.04,6.3h-5.96v-12.6Zm5.82,9.76c2.14,0,3.58-1.28,3.58-3.46s-1.44-3.46-3.58-3.46h-2.25v6.91h2.25Z"/><path class="cls-4" d="M723.15,101.61v12.6h-2.93l-5.56-6.72v6.72h-3.49v-12.6h2.93l5.56,6.72v-6.72h3.49Z"/><path class="cls-4" d="M725.01,107.91c0-3.78,2.97-6.55,7-6.55s7,2.77,7,6.55-2.97,6.55-7,6.55-7-2.77-7-6.55Zm10.41,0c0-2.18-1.5-3.6-3.4-3.6s-3.4,1.42-3.4,3.6,1.5,3.6,3.4,3.6,3.4-1.42,3.4-3.6Z"/><path class="cls-4" d="M760.25,101.61l-4.09,12.6h-3.82l-2.41-7.67-2.52,7.67h-3.82l-4.09-12.6h3.67l2.54,8.05,2.67-8.05h3.28l2.54,8.12,2.65-8.12h3.4Z"/></g><g class="cls-7"><path class="cls-5" d="M404.55,188.22c12.37,0,22.4-10.03,22.4-22.4s-10.03-22.4-22.4-22.4-22.4,10.03-22.4,22.4,10.03,22.4,22.4,22.4"/></g><path class="cls-4" d="M414.96,170.07c0,4.63-3.39,8.66-10.86,8.66-3.62,0-7.42-1.01-9.96-2.8l2.39-4.63c1.98,1.49,4.7,2.35,7.42,2.35,3.02,0,4.89-1.27,4.89-3.4s-1.34-3.39-6.08-3.39h-6.68l1.34-14.7h15.93v4.85h-10.89l-.41,4.96h2.13c7.72,0,10.78,3.47,10.78,8.1h0Z"/><g><path class="cls-4" d="M436.29,146.99v2.73h4.33v1.41h-4.33v3.44h-1.67v-8.97h6.55v1.4h-4.88Z"/><path class="cls-4" d="M442.3,145.63c0-.54,.44-.96,1.03-.96s1.03,.4,1.03,.92c0,.56-.42,1-1.03,1s-1.03-.42-1.03-.96h0Zm.22,2.09h1.6v6.84h-1.6v-6.84Z"/><path class="cls-4" d="M452.96,150.65v3.92h-1.6v-3.72c0-1.22-.6-1.81-1.63-1.81-1.14,0-1.91,.69-1.91,2.06v3.46h-1.6v-6.84h1.53v.88c.53-.63,1.36-.96,2.36-.96,1.64,0,2.86,.94,2.86,3h0Z"/><path class="cls-4" d="M460.73,150.56v4.01h-1.51v-.83c-.38,.59-1.13,.92-2.15,.92-1.56,0-2.55-.86-2.55-2.05s.77-2.04,2.84-2.04h1.77v-.1c0-.94-.56-1.49-1.7-1.49-.77,0-1.56,.26-2.08,.68l-.63-1.17c.73-.56,1.79-.85,2.9-.85,1.97,0,3.11,.94,3.11,2.91h0Zm-1.6,1.88v-.79h-1.65c-1.09,0-1.38,.41-1.38,.91,0,.58,.49,.95,1.31,.95s1.46-.36,1.73-1.06h-.01Z"/><path class="cls-4" d="M469.52,150.65v3.92h-1.6v-3.72c0-1.22-.6-1.81-1.63-1.81-1.14,0-1.91,.69-1.91,2.06v3.46h-1.6v-6.84h1.53v.88c.53-.63,1.36-.96,2.36-.96,1.64,0,2.86,.94,2.86,3h0Z"/><path class="cls-4" d="M471.05,151.15c0-2.05,1.54-3.5,3.7-3.5,1.33,0,2.4,.55,2.92,1.59l-1.23,.72c-.41-.65-1.03-.95-1.7-.95-1.18,0-2.08,.82-2.08,2.14s.9,2.14,2.08,2.14c.68,0,1.29-.29,1.7-.95l1.23,.72c-.53,1.03-1.59,1.6-2.92,1.6-2.17,0-3.7-1.46-3.7-3.51h0Z"/><path class="cls-4" d="M478.84,145.63c0-.54,.44-.96,1.03-.96s1.03,.4,1.03,.92c0,.56-.42,1-1.03,1s-1.03-.42-1.03-.96h0Zm.22,2.09h1.6v6.84h-1.6v-6.84Z"/><path class="cls-4" d="M488.49,150.56v4.01h-1.51v-.83c-.38,.59-1.13,.92-2.15,.92-1.56,0-2.55-.86-2.55-2.05s.77-2.04,2.85-2.04h1.77v-.1c0-.94-.56-1.49-1.71-1.49-.77,0-1.56,.26-2.08,.68l-.63-1.17c.73-.56,1.79-.85,2.9-.85,1.97,0,3.11,.94,3.11,2.91h0Zm-1.6,1.88v-.79h-1.65c-1.09,0-1.38,.41-1.38,.91,0,.58,.49,.95,1.31,.95s1.46-.36,1.73-1.06h-.01Z"/><path class="cls-4" d="M490.54,145.06h1.6v9.51h-1.6v-9.51Z"/><path class="cls-4" d="M505.45,145.6v8.97h-1.67v-3.85h-4.64v3.85h-1.67v-8.97h1.67v3.71h4.64v-3.71h1.67Z"/><path class="cls-4" d="M514.11,151.66h-5.37c.19,1,1.03,1.64,2.22,1.64,.77,0,1.37-.24,1.86-.74l.86,.99c-.62,.73-1.58,1.12-2.75,1.12-2.29,0-3.78-1.47-3.78-3.51s1.5-3.5,3.54-3.5,3.46,1.4,3.46,3.54c0,.13-.01,.32-.03,.47h-.01Zm-5.38-1.07h3.88c-.13-.99-.88-1.67-1.94-1.67s-1.79,.67-1.95,1.67h.01Z"/><path class="cls-4" d="M521.21,150.56v4.01h-1.51v-.83c-.38,.59-1.13,.92-2.15,.92-1.56,0-2.55-.86-2.55-2.05s.77-2.04,2.85-2.04h1.77v-.1c0-.94-.56-1.49-1.71-1.49-.77,0-1.56,.26-2.08,.68l-.63-1.17c.73-.56,1.79-.85,2.9-.85,1.97,0,3.11,.94,3.11,2.91h0Zm-1.6,1.88v-.79h-1.65c-1.09,0-1.38,.41-1.38,.91,0,.58,.49,.95,1.31,.95s1.46-.36,1.73-1.06h0Z"/><path class="cls-4" d="M523.27,145.06h1.6v9.51h-1.6v-9.51Z"/><path class="cls-4" d="M531.42,154.2c-.38,.31-.96,.46-1.54,.46-1.5,0-2.36-.79-2.36-2.31v-3.29h-1.13v-1.28h1.13v-1.56h1.6v1.56h1.83v1.28h-1.83v3.26c0,.67,.33,1.03,.95,1.03,.33,0,.65-.09,.9-.28l.45,1.14h0Z"/><path class="cls-4" d="M539.48,150.65v3.92h-1.6v-3.72c0-1.22-.6-1.81-1.63-1.81-1.14,0-1.91,.69-1.91,2.06v3.46h-1.6v-9.51h1.6v3.46c.53-.56,1.33-.87,2.28-.87,1.64,0,2.86,.94,2.86,3h0Z"/></g><g><path class="cls-4" d="M441.35,169.45l-1.13-1.09c-.81,.69-1.83,1.08-3.01,1.08-1.9,0-3.27-.99-3.27-2.4,0-1.12,.62-1.9,2.08-2.72-.73-.73-1-1.32-1-1.97,0-1.26,1.03-2.12,2.6-2.12,1.45,0,2.4,.76,2.4,1.97,0,.92-.54,1.59-1.83,2.32l1.93,1.85c.22-.42,.38-.94,.5-1.51l1.29,.42c-.17,.78-.44,1.47-.81,2.05l1.13,1.08-.88,1.04h0Zm-2.08-2l-2.37-2.27c-1.04,.58-1.4,1.05-1.4,1.69,0,.74,.72,1.26,1.82,1.26,.74,0,1.4-.23,1.95-.68h0Zm-2.79-5.13c0,.4,.17,.69,.81,1.33,1.04-.56,1.37-.94,1.37-1.42,0-.51-.37-.86-1.04-.86-.72,0-1.14,.4-1.14,.95h0Z"/><path class="cls-4" d="M446.57,164.82c0-2.65,2.05-4.61,4.83-4.61s4.83,1.95,4.83,4.61-2.05,4.61-4.83,4.61-4.83-1.96-4.83-4.61Zm7.98,0c0-1.83-1.35-3.15-3.15-3.15s-3.15,1.32-3.15,3.15,1.35,3.15,3.15,3.15,3.15-1.32,3.15-3.15Z"/><path class="cls-4" d="M464.25,162.46l-2.94,6.84h-1.65l-2.94-6.84h1.67l2.13,5.08,2.19-5.08h1.54Z"/><path class="cls-4" d="M471.48,166.4h-5.37c.19,1,1.03,1.64,2.22,1.64,.77,0,1.37-.24,1.86-.74l.86,.99c-.62,.73-1.58,1.12-2.75,1.12-2.29,0-3.78-1.47-3.78-3.51s1.5-3.5,3.54-3.5,3.46,1.4,3.46,3.54c0,.13-.01,.32-.03,.47h0Zm-5.38-1.07h3.88c-.13-.99-.88-1.67-1.94-1.67s-1.79,.67-1.95,1.67h.01Z"/><path class="cls-4" d="M477.01,162.39v1.52c-.14-.03-.26-.04-.37-.04-1.22,0-1.99,.72-1.99,2.12v3.32h-1.6v-6.84h1.53v1c.46-.72,1.29-1.08,2.44-1.08h-.01Z"/><path class="cls-4" d="M485.11,165.39v3.92h-1.6v-3.72c0-1.22-.6-1.81-1.63-1.81-1.14,0-1.91,.69-1.91,2.06v3.46h-1.6v-9.51h1.6v3.46c.53-.56,1.33-.87,2.28-.87,1.64,0,2.86,.94,2.86,3h0Z"/><path class="cls-4" d="M493.62,166.4h-5.37c.19,1,1.03,1.64,2.22,1.64,.77,0,1.37-.24,1.86-.74l.86,.99c-.62,.73-1.58,1.12-2.76,1.12-2.29,0-3.78-1.47-3.78-3.51s1.5-3.5,3.54-3.5,3.46,1.4,3.46,3.54c0,.13-.01,.32-.03,.47h0Zm-5.38-1.07h3.88c-.13-.99-.88-1.67-1.94-1.67s-1.79,.67-1.95,1.67h.01Z"/><path class="cls-4" d="M500.72,165.3v4.01h-1.51v-.83c-.38,.59-1.13,.92-2.15,.92-1.56,0-2.55-.86-2.55-2.05s.77-2.04,2.84-2.04h1.77v-.1c0-.94-.56-1.49-1.7-1.49-.77,0-1.56,.26-2.08,.68l-.63-1.17c.73-.56,1.79-.85,2.9-.85,1.97,0,3.11,.94,3.11,2.91h0Zm-1.6,1.88v-.79h-1.65c-1.09,0-1.38,.41-1.38,.91,0,.58,.49,.95,1.31,.95s1.46-.36,1.73-1.06h-.01Z"/><path class="cls-4" d="M509.53,159.8v9.51h-1.54v-.88c-.54,.65-1.33,.97-2.27,.97-1.99,0-3.46-1.38-3.46-3.51s1.47-3.5,3.46-3.5c.88,0,1.67,.29,2.21,.92v-3.51h1.6Zm-1.58,6.09c0-1.31-.88-2.14-2.04-2.14s-2.04,.83-2.04,2.14,.88,2.14,2.04,2.14,2.04-.83,2.04-2.14Z"/></g><g><path class="cls-4" d="M433.98,179.56c0-2.68,2.05-4.61,4.81-4.61,1.46,0,2.72,.53,3.55,1.5l-1.08,1.01c-.65-.71-1.46-1.05-2.4-1.05-1.86,0-3.2,1.31-3.2,3.15s1.35,3.15,3.2,3.15c.94,0,1.74-.35,2.4-1.06l1.08,1.03c-.83,.97-2.09,1.5-3.56,1.5-2.74,0-4.79-1.94-4.79-4.61h0Z"/><path class="cls-4" d="M442.98,180.63c0-2.05,1.54-3.5,3.64-3.5s3.65,1.45,3.65,3.5-1.53,3.51-3.65,3.51-3.64-1.46-3.64-3.51Zm5.68,0c0-1.31-.87-2.14-2.04-2.14s-2.03,.83-2.03,2.14,.87,2.14,2.03,2.14,2.04-.83,2.04-2.14Z"/><path class="cls-4" d="M458.55,180.13v3.92h-1.6v-3.72c0-1.22-.6-1.81-1.63-1.81-1.14,0-1.91,.69-1.91,2.06v3.46h-1.6v-6.84h1.53v.88c.53-.63,1.36-.96,2.36-.96,1.64,0,2.86,.94,2.86,3h0Z"/><path class="cls-4" d="M459.81,183.37l.62-1.22c.6,.4,1.53,.68,2.38,.68,1.01,0,1.44-.28,1.44-.76,0-1.31-4.23-.08-4.23-2.81,0-1.29,1.17-2.14,3.01-2.14,.91,0,1.95,.22,2.56,.59l-.62,1.22c-.65-.38-1.31-.51-1.96-.51-.97,0-1.44,.32-1.44,.77,0,1.38,4.23,.15,4.23,2.83,0,1.28-1.18,2.12-3.1,2.12-1.14,0-2.28-.33-2.9-.77h0Z"/><path class="cls-4" d="M466.97,175.12c0-.54,.44-.96,1.03-.96s1.03,.4,1.03,.92c0,.56-.42,1-1.03,1s-1.03-.42-1.03-.96h0Zm.22,2.09h1.6v6.84h-1.6v-6.84Z"/><path class="cls-4" d="M477.6,174.54v9.51h-1.54v-.88c-.54,.65-1.33,.97-2.27,.97-1.99,0-3.46-1.38-3.46-3.51s1.47-3.5,3.46-3.5c.88,0,1.67,.29,2.2,.92v-3.51h1.61Zm-1.58,6.09c0-1.31-.88-2.14-2.04-2.14s-2.04,.83-2.04,2.14,.88,2.14,2.04,2.14,2.04-.83,2.04-2.14Z"/><path class="cls-4" d="M486.11,181.14h-5.37c.19,1,1.03,1.64,2.22,1.64,.77,0,1.37-.24,1.86-.74l.86,.99c-.62,.73-1.58,1.12-2.75,1.12-2.29,0-3.78-1.47-3.78-3.51s1.5-3.5,3.54-3.5,3.46,1.4,3.46,3.54c0,.13-.01,.32-.03,.47h0Zm-5.38-1.07h3.88c-.13-.99-.88-1.67-1.94-1.67s-1.79,.67-1.95,1.67h.01Z"/><path class="cls-4" d="M491.63,177.13v1.52c-.14-.03-.26-.04-.37-.04-1.22,0-1.99,.72-1.99,2.12v3.32h-1.6v-6.84h1.53v1c.46-.72,1.29-1.08,2.44-1.08h-.01Z"/><path class="cls-4" d="M498.7,180.04v4.01h-1.51v-.83c-.38,.59-1.13,.92-2.15,.92-1.56,0-2.55-.86-2.55-2.05s.77-2.04,2.85-2.04h1.77v-.1c0-.94-.56-1.49-1.71-1.49-.77,0-1.56,.26-2.08,.68l-.63-1.17c.73-.56,1.79-.85,2.9-.85,1.97,0,3.11,.94,3.11,2.91h0Zm-1.6,1.88v-.79h-1.65c-1.09,0-1.38,.41-1.38,.91,0,.58,.49,.95,1.31,.95s1.46-.36,1.73-1.06h-.01Z"/><path class="cls-4" d="M504.86,183.68c-.38,.31-.96,.46-1.54,.46-1.5,0-2.36-.79-2.36-2.31v-3.29h-1.13v-1.28h1.13v-1.56h1.6v1.56h1.83v1.28h-1.83v3.26c0,.67,.33,1.03,.95,1.03,.33,0,.65-.09,.9-.28l.45,1.14h0Z"/><path class="cls-4" d="M505.96,175.12c0-.54,.44-.96,1.03-.96s1.03,.4,1.03,.92c0,.56-.42,1-1.03,1s-1.03-.42-1.03-.96h0Zm.22,2.09h1.6v6.84h-1.6v-6.84Z"/><path class="cls-4" d="M509.32,180.63c0-2.05,1.54-3.5,3.64-3.5s3.65,1.45,3.65,3.5-1.53,3.51-3.65,3.51-3.64-1.46-3.64-3.51Zm5.68,0c0-1.31-.87-2.14-2.04-2.14s-2.03,.83-2.03,2.14,.87,2.14,2.03,2.14,2.04-.83,2.04-2.14Z"/><path class="cls-4" d="M524.89,180.13v3.92h-1.6v-3.72c0-1.22-.6-1.81-1.63-1.81-1.14,0-1.91,.69-1.91,2.06v3.46h-1.6v-6.84h1.53v.88c.53-.63,1.36-.96,2.36-.96,1.64,0,2.86,.94,2.86,3h-.01Z"/><path class="cls-4" d="M526.15,183.37l.62-1.22c.6,.4,1.52,.68,2.38,.68,1.01,0,1.44-.28,1.44-.76,0-1.31-4.23-.08-4.23-2.81,0-1.29,1.17-2.14,3.01-2.14,.91,0,1.95,.22,2.56,.59l-.62,1.22c-.65-.38-1.31-.51-1.96-.51-.97,0-1.44,.32-1.44,.77,0,1.38,4.23,.15,4.23,2.83,0,1.28-1.18,2.12-3.1,2.12-1.14,0-2.28-.33-2.9-.77h.01Z"/></g><g class="cls-10"><path class="cls-5" d="M142.89,124.89c12.37,0,22.4-10.03,22.4-22.4s-10.03-22.4-22.4-22.4-22.4,10.03-22.4,22.4,10.03,22.4,22.4,22.4"/></g><path class="cls-4" d="M147.44,89.25v26.12h-6.04v-21.27h-5.22v-4.85h11.26Z"/><g><path class="cls-4" d="M175.89,96.03c0-2.68,2.05-4.61,4.81-4.61,1.46,0,2.72,.53,3.55,1.5l-1.08,1.01c-.65-.7-1.46-1.05-2.4-1.05-1.86,0-3.2,1.31-3.2,3.15s1.35,3.15,3.2,3.15c.94,0,1.74-.35,2.4-1.06l1.08,1.03c-.83,.97-2.09,1.5-3.56,1.5-2.74,0-4.79-1.94-4.79-4.61h-.01Z"/><path class="cls-4" d="M184.89,97.09c0-2.05,1.54-3.5,3.64-3.5s3.65,1.45,3.65,3.5-1.53,3.51-3.65,3.51-3.64-1.46-3.64-3.51Zm5.68,0c0-1.31-.87-2.14-2.04-2.14s-2.02,.83-2.02,2.14,.87,2.14,2.02,2.14,2.04-.83,2.04-2.14Z"/><path class="cls-4" d="M197.68,93.59v1.53c-.14-.03-.26-.04-.37-.04-1.22,0-1.99,.72-1.99,2.11v3.32h-1.6v-6.84h1.53v1c.46-.72,1.29-1.08,2.44-1.08h0Z"/><path class="cls-4" d="M205.39,97.6h-5.37c.19,1,1.03,1.64,2.22,1.64,.77,0,1.37-.24,1.86-.74l.86,.99c-.62,.73-1.58,1.12-2.76,1.12-2.29,0-3.78-1.47-3.78-3.51s1.5-3.5,3.54-3.5,3.46,1.4,3.46,3.54c0,.13,0,.32-.03,.47h0Zm-5.38-1.07h3.88c-.13-.99-.88-1.67-1.94-1.67s-1.79,.67-1.95,1.67h0Z"/></g><g><path class="cls-4" d="M175.78,114.31l.58-1.29c.72,.58,1.86,.99,2.96,.99,1.4,0,1.99-.5,1.99-1.17,0-1.94-5.33-.67-5.33-4,0-1.45,1.15-2.68,3.61-2.68,1.08,0,2.2,.28,2.99,.79l-.53,1.29c-.81-.47-1.69-.71-2.47-.71-1.38,0-1.95,.54-1.95,1.22,0,1.91,5.32,.67,5.32,3.96,0,1.44-1.17,2.67-3.63,2.67-1.4,0-2.79-.44-3.54-1.08h0Z"/><path class="cls-4" d="M188.56,114.88c-.38,.31-.96,.46-1.54,.46-1.5,0-2.36-.79-2.36-2.31v-3.29h-1.13v-1.28h1.13v-1.56h1.6v1.56h1.83v1.28h-1.83v3.26c0,.67,.33,1.03,.95,1.03,.33,0,.65-.09,.9-.28l.45,1.14h0Z"/><path class="cls-4" d="M193.84,108.33v1.52c-.14-.03-.26-.04-.37-.04-1.22,0-1.99,.72-1.99,2.12v3.32h-1.6v-6.84h1.52v1c.46-.72,1.29-1.08,2.44-1.08Z"/><path class="cls-4" d="M201.55,112.35h-5.37c.19,1,1.03,1.64,2.22,1.64,.77,0,1.37-.24,1.86-.74l.86,.99c-.62,.73-1.58,1.12-2.76,1.12-2.29,0-3.78-1.47-3.78-3.51s1.5-3.5,3.54-3.5,3.46,1.4,3.46,3.54c0,.13,0,.32-.03,.47h0Zm-5.38-1.07h3.88c-.13-.99-.88-1.67-1.94-1.67s-1.79,.67-1.95,1.67h0Z"/><path class="cls-4" d="M209.86,111.33v3.92h-1.6v-3.72c0-1.22-.6-1.81-1.63-1.81-1.14,0-1.91,.69-1.91,2.06v3.46h-1.6v-6.84h1.53v.88c.53-.63,1.36-.96,2.36-.96,1.64,0,2.86,.94,2.86,3h0Z"/><path class="cls-4" d="M218.76,108.41v5.81c0,2.49-1.29,3.61-3.69,3.61-1.28,0-2.55-.33-3.33-.97l.72-1.21c.6,.5,1.58,.82,2.52,.82,1.51,0,2.18-.69,2.18-2.08v-.36c-.56,.62-1.37,.91-2.29,.91-1.96,0-3.46-1.33-3.46-3.32s1.5-3.29,3.46-3.29c.96,0,1.81,.31,2.37,.99v-.91h1.52Zm-1.58,3.22c0-1.15-.87-1.94-2.08-1.94s-2.09,.78-2.09,1.94,.87,1.96,2.09,1.96,2.08-.79,2.08-1.96Z"/><path class="cls-4" d="M224.97,114.88c-.38,.31-.96,.46-1.54,.46-1.5,0-2.36-.79-2.36-2.31v-3.29h-1.13v-1.28h1.13v-1.56h1.6v1.56h1.83v1.28h-1.83v3.26c0,.67,.33,1.03,.95,1.03,.33,0,.65-.09,.9-.28l.45,1.14h0Z"/><path class="cls-4" d="M233.03,111.33v3.92h-1.6v-3.72c0-1.22-.6-1.81-1.63-1.81-1.14,0-1.91,.69-1.91,2.06v3.46h-1.6v-9.51h1.6v3.46c.53-.56,1.33-.87,2.28-.87,1.64,0,2.86,.94,2.86,3h0Z"/><path class="cls-4" d="M234.29,114.58l.62-1.22c.6,.4,1.53,.68,2.38,.68,1.01,0,1.44-.28,1.44-.76,0-1.31-4.23-.08-4.23-2.81,0-1.29,1.17-2.14,3.01-2.14,.91,0,1.95,.22,2.56,.59l-.62,1.22c-.65-.38-1.31-.51-1.96-.51-.97,0-1.44,.32-1.44,.77,0,1.38,4.23,.15,4.23,2.83,0,1.28-1.18,2.12-3.1,2.12-1.14,0-2.28-.33-2.9-.77h.01Z"/></g><g class="cls-9"><path class="cls-5" d="M330.54,124.89c12.37,0,22.4-10.03,22.4-22.4s-10.03-22.4-22.4-22.4-22.4,10.03-22.4,22.4,10.03,22.4,22.4,22.4"/></g><path class="cls-4" d="M340.83,110.44v4.92h-19.74v-3.92l10.07-9.51c2.31-2.2,2.72-3.54,2.72-4.81,0-2.05-1.42-3.25-4.18-3.25-2.24,0-4.14,.86-5.41,2.61l-4.4-2.83c2.01-2.95,5.67-4.85,10.37-4.85,5.82,0,9.7,2.98,9.7,7.72,0,2.54-.71,4.85-4.37,8.25l-6.01,5.67h11.25Z"/><g><path class="cls-4" d="M357.72,91.81h3.92c2.91,0,4.9,1.79,4.9,4.49s-1.99,4.49-4.9,4.49h-3.92v-8.97h0Zm3.85,7.55c2,0,3.29-1.22,3.29-3.08s-1.29-3.08-3.29-3.08h-2.18v6.15h2.18Z"/><path class="cls-4" d="M372.11,93.86v1.53c-.14-.03-.26-.04-.37-.04-1.22,0-1.99,.72-1.99,2.11v3.32h-1.6v-6.84h1.53v1c.46-.72,1.29-1.08,2.44-1.08h-.01Z"/><path class="cls-4" d="M373.27,91.85c0-.54,.44-.96,1.03-.96s1.03,.4,1.03,.92c0,.56-.42,1-1.03,1s-1.03-.42-1.03-.96Zm.22,2.09h1.6v6.84h-1.6v-6.84Z"/><path class="cls-4" d="M383.6,93.93l-2.94,6.84h-1.65l-2.94-6.84h1.67l2.13,5.08,2.19-5.08h1.54Z"/><path class="cls-4" d="M390.83,97.87h-5.37c.19,1,1.03,1.64,2.22,1.64,.77,0,1.37-.24,1.86-.74l.86,.99c-.62,.73-1.58,1.12-2.76,1.12-2.29,0-3.78-1.47-3.78-3.51s1.5-3.5,3.54-3.5,3.46,1.4,3.46,3.54c0,.13-.01,.32-.03,.47h0Zm-5.38-1.07h3.88c-.13-.99-.88-1.67-1.94-1.67s-1.79,.67-1.95,1.67h.01Z"/><path class="cls-4" d="M396.35,93.86v1.53c-.14-.03-.26-.04-.37-.04-1.22,0-1.99,.72-1.99,2.11v3.32h-1.6v-6.84h1.52v1c.46-.72,1.29-1.08,2.44-1.08Z"/></g><g><path class="cls-4" d="M363.59,115.52l-1.83-2.63c-.12,.01-.23,.01-.35,.01h-2.02v2.62h-1.67v-8.97h3.69c2.36,0,3.82,1.2,3.82,3.19,0,1.36-.69,2.36-1.91,2.83l2.06,2.95s-1.79,0-1.79,0Zm-2.26-7.56h-1.95v3.58h1.95c1.46,0,2.22-.67,2.22-1.79s-.76-1.78-2.22-1.78h0Z"/><path class="cls-4" d="M373.34,112.61h-5.37c.19,1,1.03,1.64,2.22,1.64,.77,0,1.37-.24,1.86-.74l.86,.99c-.62,.73-1.58,1.12-2.76,1.12-2.29,0-3.78-1.47-3.78-3.51s1.5-3.5,3.54-3.5,3.46,1.4,3.46,3.54c0,.13-.01,.32-.03,.47h0Zm-5.38-1.07h3.88c-.13-.99-.88-1.67-1.94-1.67s-1.79,.67-1.95,1.67h.01Z"/><path class="cls-4" d="M381.6,108.67v9.33h-1.6v-3.32c-.55,.63-1.32,.92-2.19,.92-2,0-3.46-1.38-3.46-3.51s1.46-3.5,3.46-3.5c.94,0,1.73,.32,2.27,.97v-.9h1.52Zm-1.58,3.43c0-1.31-.87-2.14-2.04-2.14s-2.02,.83-2.02,2.14,.87,2.14,2.02,2.14,2.04-.83,2.04-2.14Z"/><path class="cls-4" d="M390.33,108.67v6.84h-1.53v-.87c-.51,.63-1.32,.96-2.2,.96-1.76,0-2.95-.96-2.95-3.03v-3.91h1.6v3.69c0,1.24,.59,1.83,1.6,1.83,1.12,0,1.87-.69,1.87-2.06v-3.46h1.61Z"/><path class="cls-4" d="M392.21,106.59c0-.54,.44-.96,1.03-.96s1.03,.4,1.03,.92c0,.56-.42,1-1.03,1s-1.03-.42-1.03-.96Zm.22,2.09h1.6v6.84h-1.6v-6.84Z"/><path class="cls-4" d="M400.09,108.6v1.53c-.14-.03-.26-.04-.37-.04-1.22,0-1.99,.72-1.99,2.12v3.32h-1.6v-6.84h1.52v1c.46-.72,1.29-1.08,2.44-1.08h0Z"/><path class="cls-4" d="M407.81,112.61h-5.37c.19,1,1.03,1.64,2.22,1.64,.77,0,1.37-.24,1.86-.74l.86,.99c-.62,.73-1.58,1.12-2.75,1.12-2.29,0-3.78-1.47-3.78-3.51s1.5-3.5,3.54-3.5,3.46,1.4,3.46,3.54c0,.13-.01,.32-.03,.47h0Zm-5.38-1.07h3.88c-.13-.99-.88-1.67-1.94-1.67s-1.79,.67-1.95,1.67h.01Z"/><path class="cls-4" d="M420.82,111.6v3.92h-1.6v-3.72c0-1.22-.56-1.81-1.54-1.81-1.05,0-1.78,.69-1.78,2.05v3.47h-1.6v-3.72c0-1.22-.56-1.81-1.54-1.81-1.06,0-1.78,.69-1.78,2.05v3.47h-1.6v-6.84h1.53v.87c.51-.62,1.31-.95,2.24-.95,1,0,1.83,.37,2.31,1.14,.55-.71,1.47-1.14,2.56-1.14,1.65,0,2.81,.94,2.81,3v.02Z"/><path class="cls-4" d="M429.34,112.61h-5.37c.19,1,1.03,1.64,2.22,1.64,.77,0,1.37-.24,1.86-.74l.86,.99c-.62,.73-1.58,1.12-2.75,1.12-2.29,0-3.78-1.47-3.78-3.51s1.5-3.5,3.54-3.5,3.46,1.4,3.46,3.54c0,.13-.01,.32-.03,.47h0Zm-5.38-1.07h3.88c-.13-.99-.88-1.67-1.94-1.67s-1.79,.67-1.95,1.67h.01Z"/><path class="cls-4" d="M437.65,111.6v3.92h-1.6v-3.72c0-1.22-.6-1.81-1.63-1.81-1.14,0-1.91,.69-1.91,2.06v3.46h-1.6v-6.84h1.53v.88c.53-.63,1.36-.96,2.36-.96,1.64,0,2.86,.94,2.86,3h0Z"/><path class="cls-4" d="M443.8,115.15c-.38,.31-.96,.46-1.54,.46-1.5,0-2.36-.79-2.36-2.31v-3.29h-1.13v-1.28h1.13v-1.56h1.6v1.56h1.83v1.28h-1.83v3.26c0,.67,.33,1.03,.95,1.03,.33,0,.65-.09,.9-.28l.45,1.14h0Z"/><path class="cls-4" d="M444.34,114.84l.62-1.22c.6,.4,1.53,.68,2.38,.68,1.01,0,1.44-.28,1.44-.76,0-1.31-4.23-.08-4.23-2.81,0-1.29,1.17-2.14,3.01-2.14,.91,0,1.95,.22,2.56,.59l-.62,1.22c-.65-.38-1.31-.51-1.96-.51-.97,0-1.44,.32-1.44,.77,0,1.38,4.23,.15,4.23,2.83,0,1.28-1.18,2.12-3.1,2.12-1.14,0-2.28-.33-2.9-.77h0Z"/></g><g class="cls-8"><path class="cls-5" d="M42.4,188.25c12.37,0,22.4-10.03,22.4-22.4s-10.03-22.4-22.4-22.4-22.4,10.03-22.4,22.4,10.03,22.4,22.4,22.4"/></g><path class="cls-4" d="M52.84,170.46c0,4.4-3.4,8.43-10.82,8.43-3.66,0-7.42-1.01-9.96-2.8l2.35-4.63c1.98,1.49,4.74,2.35,7.46,2.35,3.02,0,4.89-1.23,4.89-3.36,0-1.98-1.46-3.21-4.89-3.21h-2.76v-3.99l5.37-6.08h-11.12v-4.85h18.28v3.92l-5.89,6.72c4.7,.75,7.09,3.66,7.09,7.5h0Z"/><g><path class="cls-4" d="M72.2,147.04h-2.97v-1.41h7.61v1.41h-2.97v7.56h-1.67v-7.56Z"/><path class="cls-4" d="M83.66,151.69h-5.37c.19,1,1.03,1.64,2.22,1.64,.77,0,1.37-.24,1.86-.74l.86,.99c-.62,.73-1.58,1.12-2.76,1.12-2.29,0-3.78-1.47-3.78-3.51s1.5-3.5,3.54-3.5,3.46,1.4,3.46,3.54c0,.13-.01,.32-.03,.47h0Zm-5.38-1.07h3.88c-.13-.99-.88-1.67-1.94-1.67s-1.79,.67-1.95,1.67h.01Z"/><path class="cls-4" d="M84.66,151.18c0-2.05,1.54-3.5,3.7-3.5,1.33,0,2.4,.55,2.92,1.59l-1.23,.72c-.41-.65-1.03-.95-1.7-.95-1.18,0-2.08,.82-2.08,2.14s.9,2.14,2.08,2.14c.68,0,1.29-.29,1.7-.95l1.23,.72c-.53,1.03-1.59,1.6-2.92,1.6-2.17,0-3.7-1.46-3.7-3.51h0Z"/><path class="cls-4" d="M99.36,150.68v3.92h-1.6v-3.72c0-1.22-.6-1.81-1.63-1.81-1.14,0-1.91,.69-1.91,2.06v3.46h-1.6v-9.51h1.6v3.46c.53-.56,1.33-.87,2.28-.87,1.64,0,2.86,.94,2.86,3h0Z"/><path class="cls-4" d="M108.14,150.68v3.92h-1.6v-3.72c0-1.22-.6-1.81-1.63-1.81-1.14,0-1.91,.69-1.91,2.06v3.46h-1.6v-6.84h1.53v.88c.53-.63,1.36-.96,2.36-.96,1.64,0,2.86,.94,2.86,3h-.01Z"/><path class="cls-4" d="M109.67,151.18c0-2.05,1.54-3.5,3.64-3.5s3.65,1.45,3.65,3.5-1.53,3.51-3.65,3.51-3.64-1.46-3.64-3.51Zm5.68,0c0-1.31-.87-2.14-2.04-2.14s-2.03,.83-2.03,2.14,.87,2.14,2.03,2.14,2.04-.83,2.04-2.14Z"/><path class="cls-4" d="M118.5,145.09h1.6v9.51h-1.6v-9.51Z"/><path class="cls-4" d="M121.64,151.18c0-2.05,1.54-3.5,3.64-3.5s3.65,1.45,3.65,3.5-1.53,3.51-3.65,3.51-3.64-1.46-3.64-3.51Zm5.68,0c0-1.31-.87-2.14-2.04-2.14s-2.03,.83-2.03,2.14,.87,2.14,2.03,2.14,2.04-.83,2.04-2.14Z"/><path class="cls-4" d="M137.26,147.76v5.81c0,2.49-1.29,3.61-3.69,3.61-1.28,0-2.55-.33-3.33-.97l.72-1.21c.6,.5,1.58,.82,2.52,.82,1.51,0,2.18-.69,2.18-2.08v-.36c-.56,.62-1.37,.91-2.29,.91-1.96,0-3.46-1.33-3.46-3.32s1.5-3.29,3.46-3.29c.96,0,1.81,.31,2.37,.99v-.91h1.52Zm-1.58,3.22c0-1.15-.87-1.94-2.08-1.94s-2.09,.78-2.09,1.94,.87,1.96,2.09,1.96,2.08-.79,2.08-1.96Z"/><path class="cls-4" d="M145.77,147.76l-3.2,7.4c-.63,1.55-1.5,2.03-2.64,2.03-.68,0-1.4-.23-1.83-.63l.64-1.18c.31,.29,.74,.47,1.18,.47,.56,0,.9-.27,1.21-.95l.12-.27-2.99-6.87h1.67l2.15,5.06,2.17-5.06h1.52Z"/><path class="cls-4" d="M150.39,150.69v-5.06h1.67v5c0,1.85,.83,2.64,2.28,2.64s2.27-.79,2.27-2.64v-5h1.64v5.06c0,2.61-1.47,4.04-3.92,4.04s-3.94-1.42-3.94-4.04Z"/><path class="cls-4" d="M159.64,153.92l.62-1.22c.6,.4,1.53,.68,2.38,.68,1.01,0,1.44-.28,1.44-.76,0-1.31-4.23-.08-4.23-2.81,0-1.29,1.17-2.14,3.01-2.14,.91,0,1.95,.22,2.56,.59l-.62,1.22c-.65-.38-1.31-.51-1.96-.51-.97,0-1.44,.32-1.44,.77,0,1.38,4.23,.15,4.23,2.83,0,1.28-1.18,2.12-3.1,2.12-1.14,0-2.28-.33-2.9-.77h.01Z"/><path class="cls-4" d="M172.75,150.59v4.01h-1.51v-.83c-.38,.59-1.13,.92-2.15,.92-1.56,0-2.55-.86-2.55-2.05s.77-2.04,2.85-2.04h1.77v-.1c0-.94-.56-1.49-1.7-1.49-.77,0-1.56,.26-2.08,.68l-.63-1.17c.73-.56,1.79-.85,2.9-.85,1.97,0,3.11,.94,3.11,2.91h-.01Zm-1.6,1.88v-.79h-1.65c-1.09,0-1.38,.41-1.38,.91,0,.58,.49,.95,1.31,.95s1.46-.36,1.73-1.06h0Z"/><path class="cls-4" d="M181.65,147.76v5.81c0,2.49-1.29,3.61-3.69,3.61-1.28,0-2.55-.33-3.33-.97l.72-1.21c.6,.5,1.58,.82,2.52,.82,1.51,0,2.18-.69,2.18-2.08v-.36c-.56,.62-1.37,.91-2.29,.91-1.96,0-3.46-1.33-3.46-3.32s1.5-3.29,3.46-3.29c.96,0,1.81,.31,2.37,.99v-.91h1.52Zm-1.58,3.22c0-1.15-.87-1.94-2.08-1.94s-2.09,.78-2.09,1.94,.87,1.96,2.09,1.96,2.08-.79,2.08-1.96Z"/><path class="cls-4" d="M190.16,151.69h-5.37c.19,1,1.03,1.64,2.22,1.64,.77,0,1.37-.24,1.86-.74l.86,.99c-.62,.73-1.58,1.12-2.76,1.12-2.29,0-3.78-1.47-3.78-3.51s1.5-3.5,3.54-3.5,3.46,1.4,3.46,3.54c0,.13,0,.32-.03,.47h0Zm-5.38-1.07h3.88c-.13-.99-.88-1.67-1.94-1.67s-1.79,.67-1.95,1.67h0Z"/></g><g><path class="cls-4" d="M77.11,169.48l-1.13-1.09c-.81,.69-1.83,1.08-3.01,1.08-1.9,0-3.27-.99-3.27-2.4,0-1.12,.62-1.9,2.08-2.72-.73-.73-1-1.32-1-1.97,0-1.26,1.03-2.11,2.6-2.11,1.45,0,2.4,.76,2.4,1.97,0,.92-.54,1.59-1.83,2.32l1.94,1.85c.22-.42,.38-.94,.5-1.51l1.29,.42c-.17,.78-.44,1.47-.81,2.05l1.13,1.08-.88,1.04h-.01Zm-2.08-2.01l-2.37-2.27c-1.04,.58-1.4,1.05-1.4,1.69,0,.74,.72,1.26,1.82,1.26,.74,0,1.4-.23,1.95-.68Zm-2.79-5.13c0,.4,.17,.69,.81,1.33,1.04-.56,1.37-.94,1.37-1.42,0-.51-.37-.86-1.04-.86-.72,0-1.14,.4-1.14,.95Z"/><path class="cls-4" d="M82.97,160.37h1.67v7.56h4.69v1.41h-6.36v-8.97Z"/><path class="cls-4" d="M89.86,165.92c0-2.05,1.54-3.5,3.64-3.5s3.65,1.45,3.65,3.5-1.53,3.51-3.65,3.51-3.64-1.46-3.64-3.51Zm5.68,0c0-1.31-.87-2.14-2.04-2.14s-2.02,.83-2.02,2.14,.87,2.14,2.02,2.14,2.04-.83,2.04-2.14Z"/><path class="cls-4" d="M104.35,165.33v4.01h-1.51v-.83c-.38,.59-1.13,.92-2.15,.92-1.56,0-2.55-.86-2.55-2.05s.77-2.04,2.85-2.04h1.77v-.1c0-.94-.56-1.49-1.7-1.49-.77,0-1.56,.26-2.08,.68l-.63-1.17c.73-.56,1.79-.85,2.9-.85,1.97,0,3.11,.94,3.11,2.91h0Zm-1.6,1.88v-.79h-1.65c-1.09,0-1.38,.41-1.38,.91,0,.58,.49,.95,1.31,.95s1.46-.36,1.73-1.06h-.01Z"/><path class="cls-4" d="M113.17,159.83v9.51h-1.54v-.88c-.54,.65-1.33,.97-2.27,.97-1.99,0-3.46-1.38-3.46-3.51s1.47-3.5,3.46-3.5c.88,0,1.67,.29,2.2,.92v-3.51h1.61Zm-1.58,6.09c0-1.31-.88-2.14-2.04-2.14s-2.04,.83-2.04,2.14,.88,2.14,2.04,2.14,2.04-.83,2.04-2.14Z"/><path class="cls-4" d="M120.78,161.78h-2.97v-1.41h7.61v1.41h-2.97v7.56h-1.67v-7.56Z"/><path class="cls-4" d="M130.33,162.42v1.53c-.14-.03-.26-.04-.37-.04-1.22,0-1.99,.72-1.99,2.12v3.32h-1.6v-6.84h1.53v1c.46-.72,1.29-1.08,2.44-1.08h-.01Z"/><path class="cls-4" d="M137.39,165.33v4.01h-1.51v-.83c-.38,.59-1.13,.92-2.15,.92-1.56,0-2.55-.86-2.55-2.05s.77-2.04,2.85-2.04h1.77v-.1c0-.94-.56-1.49-1.7-1.49-.77,0-1.56,.26-2.08,.68l-.63-1.17c.73-.56,1.79-.85,2.9-.85,1.97,0,3.11,.94,3.11,2.91h-.01Zm-1.6,1.88v-.79h-1.65c-1.09,0-1.38,.41-1.38,.91,0,.58,.49,.95,1.31,.95s1.46-.36,1.73-1.06h0Z"/><path class="cls-4" d="M138.93,165.92c0-2.05,1.54-3.5,3.7-3.5,1.33,0,2.4,.55,2.92,1.59l-1.23,.72c-.41-.65-1.03-.95-1.7-.95-1.18,0-2.08,.82-2.08,2.14s.9,2.14,2.08,2.14c.68,0,1.29-.29,1.7-.95l1.23,.72c-.53,1.03-1.59,1.6-2.92,1.6-2.17,0-3.7-1.46-3.7-3.51h0Z"/><path class="cls-4" d="M149.67,166.41l-1.19,1.13v1.81h-1.6v-9.51h1.6v5.74l3.32-3.08h1.92l-2.86,2.87,3.13,3.97h-1.95l-2.37-2.94h0Z"/><path class="cls-4" d="M154.76,160.41c0-.54,.44-.96,1.03-.96s1.03,.4,1.03,.92c0,.56-.42,1-1.03,1s-1.03-.42-1.03-.96h0Zm.22,2.09h1.6v6.84h-1.6v-6.84Z"/><path class="cls-4" d="M165.42,165.42v3.92h-1.6v-3.72c0-1.22-.6-1.81-1.63-1.81-1.14,0-1.91,.69-1.91,2.06v3.46h-1.6v-6.84h1.52v.88c.53-.63,1.36-.96,2.36-.96,1.64,0,2.86,.94,2.86,3h0Z"/><path class="cls-4" d="M174.32,162.5v5.81c0,2.49-1.29,3.61-3.69,3.61-1.28,0-2.55-.33-3.33-.97l.72-1.21c.6,.5,1.58,.82,2.52,.82,1.51,0,2.18-.69,2.18-2.08v-.36c-.56,.62-1.37,.91-2.29,.91-1.96,0-3.46-1.33-3.46-3.32s1.5-3.29,3.46-3.29c.96,0,1.81,.31,2.37,.99v-.91h1.52Zm-1.58,3.22c0-1.15-.87-1.94-2.08-1.94s-2.09,.78-2.09,1.94,.87,1.96,2.09,1.96,2.08-.79,2.08-1.96Z"/></g><g><path class="cls-4" d="M69.74,179.6c0-2.68,2.05-4.61,4.81-4.61,1.46,0,2.72,.53,3.55,1.5l-1.08,1.01c-.65-.71-1.46-1.05-2.4-1.05-1.86,0-3.2,1.31-3.2,3.15s1.35,3.15,3.2,3.15c.94,0,1.74-.35,2.4-1.06l1.08,1.03c-.83,.97-2.09,1.5-3.56,1.5-2.74,0-4.79-1.94-4.79-4.61h-.01Z"/><path class="cls-4" d="M85.22,180.07v4.01h-1.51v-.83c-.38,.59-1.13,.92-2.15,.92-1.56,0-2.55-.86-2.55-2.05s.77-2.04,2.85-2.04h1.77v-.1c0-.94-.56-1.49-1.7-1.49-.77,0-1.56,.26-2.08,.68l-.63-1.17c.73-.56,1.79-.85,2.9-.85,1.97,0,3.11,.94,3.11,2.91h0Zm-1.6,1.88v-.79h-1.65c-1.09,0-1.38,.41-1.38,.91,0,.58,.49,.95,1.31,.95s1.46-.36,1.73-1.06h-.01Z"/><path class="cls-4" d="M94.54,180.66c0,2.13-1.47,3.51-3.47,3.51-.87,0-1.64-.29-2.19-.92v3.32h-1.6v-9.33h1.53v.9c.54-.65,1.33-.97,2.27-.97,2,0,3.47,1.38,3.47,3.5h0Zm-1.63,0c0-1.31-.87-2.14-2.02-2.14s-2.04,.83-2.04,2.14,.88,2.14,2.04,2.14,2.02-.83,2.02-2.14Z"/><path class="cls-4" d="M101.72,180.07v4.01h-1.51v-.83c-.38,.59-1.13,.92-2.15,.92-1.56,0-2.55-.86-2.55-2.05s.77-2.04,2.85-2.04h1.77v-.1c0-.94-.56-1.49-1.7-1.49-.77,0-1.56,.26-2.08,.68l-.63-1.17c.73-.56,1.79-.85,2.9-.85,1.97,0,3.11,.94,3.11,2.91h0Zm-1.6,1.88v-.79h-1.65c-1.09,0-1.38,.41-1.38,.91,0,.58,.49,.95,1.31,.95s1.46-.36,1.73-1.06h-.01Z"/><path class="cls-4" d="M111.04,180.66c0,2.13-1.47,3.51-3.47,3.51-.94,0-1.73-.32-2.27-.97v.88h-1.52v-9.51h1.6v3.5c.55-.62,1.32-.91,2.19-.91,2,0,3.47,1.37,3.47,3.5Zm-1.63,0c0-1.31-.87-2.14-2.03-2.14s-2.04,.83-2.04,2.14,.88,2.14,2.04,2.14,2.03-.83,2.03-2.14Z"/><path class="cls-4" d="M112.35,175.15c0-.54,.44-.96,1.03-.96s1.03,.4,1.03,.92c0,.56-.42,1-1.03,1s-1.03-.42-1.03-.96h0Zm.22,2.09h1.6v6.84h-1.6v-6.84Z"/><path class="cls-4" d="M116.27,174.57h1.6v9.51h-1.6v-9.51Z"/><path class="cls-4" d="M119.75,175.15c0-.54,.44-.96,1.03-.96s1.03,.4,1.03,.92c0,.56-.42,1-1.03,1s-1.03-.42-1.03-.96h0Zm.22,2.09h1.6v6.84h-1.6v-6.84Z"/><path class="cls-4" d="M127.79,183.71c-.38,.31-.96,.46-1.54,.46-1.5,0-2.36-.79-2.36-2.31v-3.29h-1.13v-1.28h1.13v-1.56h1.6v1.56h1.83v1.28h-1.83v3.26c0,.67,.33,1.03,.95,1.03,.33,0,.65-.09,.9-.28l.45,1.14h0Z"/><path class="cls-4" d="M128.89,175.15c0-.54,.44-.96,1.03-.96s1.03,.4,1.03,.92c0,.56-.42,1-1.03,1s-1.03-.42-1.03-.96h0Zm.22,2.09h1.6v6.84h-1.6v-6.84Z"/><path class="cls-4" d="M139.22,181.17h-5.37c.19,1,1.03,1.64,2.22,1.64,.77,0,1.37-.24,1.86-.74l.86,.99c-.62,.73-1.58,1.12-2.76,1.12-2.29,0-3.78-1.47-3.78-3.51s1.5-3.5,3.54-3.5,3.46,1.4,3.46,3.54c0,.13,0,.32-.03,.47h0Zm-5.38-1.07h3.88c-.13-.99-.88-1.67-1.94-1.67s-1.79,.67-1.95,1.67h0Z"/><path class="cls-4" d="M140.01,183.4l.62-1.22c.6,.4,1.53,.68,2.38,.68,1.01,0,1.44-.28,1.44-.76,0-1.31-4.23-.08-4.23-2.81,0-1.29,1.17-2.14,3.01-2.14,.91,0,1.95,.22,2.56,.59l-.62,1.22c-.65-.38-1.31-.51-1.96-.51-.97,0-1.44,.32-1.44,.77,0,1.38,4.23,.15,4.23,2.83,0,1.28-1.18,2.12-3.1,2.12-1.14,0-2.28-.33-2.9-.77h.01Z"/></g><g class="cls-11"><path class="cls-5" d="M241.07,188.22c12.37,0,22.4-10.03,22.4-22.4s-10.03-22.4-22.4-22.4-22.4,10.03-22.4,22.4,10.03,22.4,22.4,22.4"/></g><path class="cls-4" d="M251.6,172.93h-4.25v5.48h-5.89v-5.48h-14.06v-4.07l12.31-16.56h6.34l-11.42,15.71h7.01v-4.89h5.71v4.89h4.25v4.92Z"/><g><path class="cls-4" d="M269.04,147.14h-2.97v-1.41h7.61v1.41h-2.97v7.56h-1.67v-7.56h0Z"/><path class="cls-4" d="M278.59,147.78v1.53c-.14-.03-.26-.04-.37-.04-1.22,0-1.99,.72-1.99,2.12v3.32h-1.6v-6.84h1.52v1c.46-.72,1.29-1.08,2.44-1.08h0Z"/><path class="cls-4" d="M285.65,150.69v4.01h-1.51v-.83c-.38,.59-1.13,.92-2.15,.92-1.56,0-2.55-.86-2.55-2.05s.77-2.04,2.85-2.04h1.77v-.1c0-.94-.56-1.49-1.7-1.49-.77,0-1.56,.26-2.08,.68l-.63-1.17c.73-.56,1.79-.85,2.9-.85,1.97,0,3.11,.94,3.11,2.91h0Zm-1.6,1.88v-.79h-1.65c-1.09,0-1.38,.41-1.38,.91,0,.58,.49,.95,1.31,.95s1.46-.36,1.73-1.06h-.01Z"/><path class="cls-4" d="M287.19,151.28c0-2.05,1.54-3.5,3.7-3.5,1.33,0,2.4,.55,2.92,1.59l-1.23,.72c-.41-.65-1.03-.95-1.71-.95-1.18,0-2.08,.82-2.08,2.14s.9,2.14,2.08,2.14c.68,0,1.29-.29,1.71-.95l1.23,.72c-.53,1.03-1.59,1.6-2.92,1.6-2.17,0-3.7-1.46-3.7-3.51h0Z"/><path class="cls-4" d="M297.93,151.76l-1.19,1.13v1.81h-1.6v-9.51h1.6v5.74l3.32-3.08h1.92l-2.86,2.87,3.13,3.97h-1.95l-2.37-2.94h0Z"/><path class="cls-4" d="M312.85,154.7l-1.83-2.63c-.12,0-.23,0-.35,0h-2.03v2.62h-1.67v-8.97h3.69c2.36,0,3.82,1.21,3.82,3.19,0,1.36-.69,2.36-1.91,2.83l2.06,2.95h-1.78Zm-2.26-7.56h-1.95v3.58h1.95c1.46,0,2.22-.67,2.22-1.79s-.76-1.78-2.22-1.78h0Z"/><path class="cls-4" d="M322.61,151.79h-5.37c.19,1,1.03,1.64,2.22,1.64,.77,0,1.37-.24,1.86-.74l.86,.99c-.62,.73-1.58,1.12-2.76,1.12-2.29,0-3.78-1.47-3.78-3.51s1.5-3.5,3.54-3.5,3.46,1.4,3.46,3.54c0,.13-.01,.32-.03,.47h0Zm-5.38-1.07h3.88c-.13-.99-.88-1.67-1.94-1.67s-1.79,.67-1.95,1.67h.01Z"/><path class="cls-4" d="M323.61,151.28c0-2.05,1.54-3.5,3.7-3.5,1.33,0,2.4,.55,2.92,1.59l-1.23,.72c-.41-.65-1.03-.95-1.71-.95-1.18,0-2.08,.82-2.08,2.14s.9,2.14,2.08,2.14c.68,0,1.29-.29,1.71-.95l1.23,.72c-.53,1.03-1.59,1.6-2.92,1.6-2.17,0-3.7-1.46-3.7-3.51h0Z"/><path class="cls-4" d="M330.95,151.28c0-2.05,1.54-3.5,3.64-3.5s3.65,1.45,3.65,3.5-1.53,3.51-3.65,3.51-3.64-1.46-3.64-3.51Zm5.68,0c0-1.31-.87-2.14-2.04-2.14s-2.02,.83-2.02,2.14,.87,2.14,2.02,2.14,2.04-.83,2.04-2.14Z"/><path class="cls-4" d="M343.74,147.78v1.53c-.14-.03-.26-.04-.37-.04-1.22,0-1.99,.72-1.99,2.12v3.32h-1.6v-6.84h1.53v1c.46-.72,1.29-1.08,2.44-1.08h-.01Z"/><path class="cls-4" d="M351.75,145.19v9.51h-1.54v-.88c-.54,.65-1.33,.97-2.27,.97-1.99,0-3.46-1.38-3.46-3.51s1.47-3.5,3.46-3.5c.88,0,1.67,.29,2.2,.92v-3.51h1.61Zm-1.58,6.09c0-1.31-.88-2.14-2.04-2.14s-2.04,.83-2.04,2.14,.88,2.14,2.04,2.14,2.04-.83,2.04-2.14Z"/></g><g><path class="cls-4" d="M273.95,169.58l-1.13-1.09c-.81,.69-1.83,1.08-3.01,1.08-1.9,0-3.27-.99-3.27-2.4,0-1.12,.62-1.9,2.08-2.72-.73-.73-1-1.32-1-1.97,0-1.26,1.03-2.11,2.6-2.11,1.45,0,2.4,.76,2.4,1.97,0,.92-.54,1.59-1.83,2.32l1.94,1.85c.22-.42,.38-.94,.5-1.51l1.29,.42c-.17,.78-.44,1.47-.81,2.05l1.13,1.08-.88,1.04h-.01Zm-2.08-2.01l-2.37-2.27c-1.04,.58-1.4,1.05-1.4,1.69,0,.74,.72,1.26,1.82,1.26,.74,0,1.4-.23,1.95-.68h0Zm-2.79-5.13c0,.4,.17,.69,.81,1.33,1.04-.56,1.37-.94,1.37-1.42,0-.51-.37-.86-1.04-.86-.72,0-1.14,.4-1.14,.95h0Z"/><path class="cls-4" d="M285.68,169.44l-1.83-2.63c-.12,0-.23,0-.35,0h-2.02v2.62h-1.67v-8.97h3.69c2.36,0,3.82,1.21,3.82,3.19,0,1.36-.69,2.36-1.91,2.83l2.06,2.95h-1.79Zm-2.26-7.56h-1.95v3.58h1.95c1.46,0,2.22-.67,2.22-1.79s-.76-1.78-2.22-1.78h0Z"/><path class="cls-4" d="M295.43,166.53h-5.37c.19,1,1.03,1.64,2.22,1.64,.77,0,1.37-.24,1.86-.74l.86,.99c-.62,.73-1.58,1.12-2.76,1.12-2.29,0-3.78-1.47-3.78-3.51s1.5-3.5,3.54-3.5,3.46,1.4,3.46,3.54c0,.13-.01,.32-.03,.47h0Zm-5.38-1.07h3.88c-.13-.99-.88-1.67-1.94-1.67s-1.79,.67-1.95,1.67h.01Z"/><path class="cls-4" d="M297,159.93h1.6v9.51h-1.6v-9.51Z"/><path class="cls-4" d="M300.48,160.51c0-.54,.44-.96,1.03-.96s1.03,.4,1.03,.92c0,.56-.42,1-1.03,1s-1.03-.42-1.03-.96h0Zm.22,2.09h1.6v6.84h-1.6v-6.84Z"/><path class="cls-4" d="M310.13,165.43v4.01h-1.51v-.83c-.38,.59-1.13,.92-2.15,.92-1.56,0-2.55-.86-2.55-2.05s.77-2.04,2.85-2.04h1.77v-.1c0-.94-.56-1.49-1.7-1.49-.77,0-1.56,.26-2.08,.68l-.63-1.17c.73-.56,1.79-.85,2.9-.85,1.97,0,3.11,.94,3.11,2.91h0Zm-1.6,1.88v-.79h-1.65c-1.09,0-1.38,.41-1.38,.91,0,.58,.49,.95,1.31,.95s1.46-.36,1.73-1.06h-.01Z"/><path class="cls-4" d="M319.45,166.02c0,2.13-1.47,3.51-3.47,3.51-.94,0-1.73-.32-2.27-.97v.88h-1.53v-9.51h1.6v3.5c.55-.62,1.32-.91,2.19-.91,2,0,3.47,1.37,3.47,3.5h0Zm-1.63,0c0-1.31-.87-2.14-2.02-2.14s-2.04,.83-2.04,2.14,.88,2.14,2.04,2.14,2.02-.83,2.02-2.14Z"/><path class="cls-4" d="M320.76,160.51c0-.54,.44-.96,1.03-.96s1.03,.4,1.03,.92c0,.56-.42,1-1.03,1s-1.03-.42-1.03-.96h0Zm.22,2.09h1.6v6.84h-1.6v-6.84Z"/><path class="cls-4" d="M324.68,159.93h1.6v9.51h-1.6v-9.51Z"/><path class="cls-4" d="M328.17,160.51c0-.54,.44-.96,1.03-.96s1.03,.4,1.03,.92c0,.56-.42,1-1.03,1s-1.03-.42-1.03-.96h0Zm.22,2.09h1.6v6.84h-1.6v-6.84Z"/><path class="cls-4" d="M336.2,169.07c-.38,.31-.96,.46-1.54,.46-1.5,0-2.36-.79-2.36-2.31v-3.29h-1.13v-1.28h1.13v-1.56h1.6v1.56h1.83v1.28h-1.83v3.26c0,.67,.33,1.03,.95,1.03,.33,0,.65-.09,.9-.28l.45,1.14h0Z"/><path class="cls-4" d="M343.82,162.59l-3.2,7.4c-.63,1.55-1.5,2.03-2.64,2.03-.68,0-1.4-.23-1.83-.63l.64-1.18c.31,.29,.74,.47,1.18,.47,.56,0,.9-.27,1.21-.95l.12-.27-2.99-6.87h1.67l2.15,5.06,2.17-5.06h1.52Z"/></g><g><path class="cls-4" d="M275.19,175.21v8.97h-1.67v-3.85h-4.64v3.85h-1.67v-8.97h1.67v3.71h4.64v-3.71h1.67Z"/><path class="cls-4" d="M277.23,175.25c0-.54,.44-.96,1.03-.96s1.03,.4,1.03,.92c0,.56-.42,1-1.03,1s-1.03-.42-1.03-.96h0Zm.22,2.09h1.6v6.84h-1.6v-6.84Z"/><path class="cls-4" d="M280.37,183.5l.62-1.22c.6,.4,1.53,.68,2.38,.68,1.01,0,1.44-.28,1.44-.76,0-1.31-4.23-.08-4.23-2.81,0-1.29,1.17-2.14,3.01-2.14,.91,0,1.95,.22,2.56,.59l-.62,1.22c-.65-.38-1.31-.51-1.96-.51-.97,0-1.44,.32-1.44,.77,0,1.38,4.23,.15,4.23,2.83,0,1.28-1.18,2.12-3.1,2.12-1.14,0-2.28-.33-2.9-.77h0Z"/><path class="cls-4" d="M291.87,183.81c-.38,.31-.96,.46-1.54,.46-1.5,0-2.36-.79-2.36-2.31v-3.29h-1.13v-1.28h1.13v-1.56h1.6v1.56h1.83v1.28h-1.83v3.26c0,.67,.33,1.03,.95,1.03,.33,0,.65-.09,.9-.28l.45,1.14h0Z"/><path class="cls-4" d="M292.41,180.76c0-2.05,1.54-3.5,3.64-3.5s3.65,1.45,3.65,3.5-1.53,3.51-3.65,3.51-3.64-1.46-3.64-3.51Zm5.68,0c0-1.31-.87-2.14-2.04-2.14s-2.03,.83-2.03,2.14,.87,2.14,2.03,2.14,2.04-.83,2.04-2.14Z"/><path class="cls-4" d="M305.2,177.26v1.53c-.14-.03-.26-.04-.37-.04-1.22,0-1.99,.72-1.99,2.12v3.32h-1.6v-6.84h1.52v1c.46-.72,1.29-1.08,2.44-1.08h0Z"/><path class="cls-4" d="M313.21,177.33l-3.2,7.4c-.63,1.55-1.5,2.03-2.64,2.03-.68,0-1.4-.23-1.83-.63l.64-1.18c.31,.29,.74,.47,1.18,.47,.56,0,.9-.27,1.21-.95l.12-.27-2.99-6.87h1.67l2.15,5.06,2.17-5.06h1.52Z"/></g></svg>