<svg xmlns="http://www.w3.org/2000/svg" width="999.899" height="366.545" viewBox="0 0 999.899 366.545">
  <g id="Group_244" data-name="Group 244" transform="translate(-2.925 -239.278)">
    <g id="Layer_2" data-name="Layer 2" transform="translate(309.742 242.318)">
      <rect id="Rectangle_237" data-name="Rectangle 237" width="12.06" height="332.447" rx="4.434" transform="translate(199.111)" fill="#937351"/>
      <path id="Path_1297" data-name="Path 1297" d="M429.266,544.361c3.68,1.425,2.077,7.1,7.538,11.457a13.68,13.68,0,0,0,8.743,3.014c.492-.015,5.648-.246,9.058-4.052,2.609-2.912,2.658-8.117,2.649-18.409-.007-7.292-.028-12.865-.039-15.376a10.546,10.546,0,0,1,7.025-2.112,10.319,10.319,0,0,1,5.277,1.96c-.051,3.673-.143,10.352-.182,13.12-.212,14.927-.378,22.479-3.289,26.827a23.29,23.29,0,0,1-10.549,8.293,26.29,26.29,0,0,1-16.976,1c-4.382-1.263-7.012-3.385-12.27-7.631-5.841-4.715-8.761-7.072-8.592-10.1C417.929,547.485,425.247,542.806,429.266,544.361Z" transform="translate(-258.163 -207.547)" fill="#937351"/>
      <rect id="Rectangle_238" data-name="Rectangle 238" width="12.525" height="191.719" rx="2.543" transform="translate(198.878 123.502)" fill="#c49a6c"/>
      <path id="Path_1298" data-name="Path 1298" d="M275.8,412.619a94.958,94.958,0,0,1,50.741-10.824c30.915,2.17,51.079,19.119,57.2,24.693a249.987,249.987,0,0,1,189.946,0,101.551,101.551,0,0,1,104.766-17.262c-5.409-18.043-27.105-82.837-90.192-122.788-38.888-24.626-78.44-30.274-88.292-31.5a203.263,203.263,0,0,0-47.1-.55c-44.07,5-74.812,24.527-86.611,32.208C303.585,327.383,281.626,392.972,275.8,412.619Z" transform="translate(-275.804 -240.576)" fill="#786188"/>
      <path id="Path_1299" data-name="Path 1299" d="M468.42,253.289s-79.854,51.393-84.677,173.2c0,0-45.225-45.225-107.938-13.869C275.8,412.619,309.484,264.609,468.42,253.289Z" transform="translate(-275.804 -240.576)" fill="#5b5063"/>
      <path id="Path_1300" data-name="Path 1300" d="M469.393,254.121s68.159,49.853,80.219,172.263c0,0,46.12-41.76,104.766-17.262C654.379,409.122,621.331,269.39,469.393,254.121Z" transform="translate(-251.728 -240.472)" fill="#5b5063"/>
    </g>
    <g id="Group_244-2" data-name="Group 244" transform="translate(2.925 239.278)">
      <g id="Layer_4" data-name="Layer 4" transform="translate(0 0)">
        <path id="Path_1218" data-name="Path 1218" d="M559.718,249.964a39.877,39.877,0,0,0,7.877,15.3c4.758,5.874,5.943,15.39,1.975,21.742-2.887,4.623-12.233,6.066-16.732,2.445-7.435-5.983-7.375-15.752-1.745-22.98C554.792,261.726,558.457,256.941,559.718,249.964Z" transform="translate(64.746 -194.096)" fill="#51b2d7"/>
        <path id="Path_1219" data-name="Path 1219" d="M194.862,267.693c.7-3.557,2.66-6.352,4.958-9.116a37.984,37.984,0,0,0,7.574-15.3c1.36,7.754,6.15,13.34,10.033,19.357,4.427,6.86,1.765,18.893-5.184,21.409-8.36,3.026-16.1-1.284-17.38-10.611A15.86,15.86,0,0,1,194.862,267.693Z" transform="translate(20.912 -194.929)" fill="#51b2d7"/>
        <path id="Path_1220" data-name="Path 1220" d="M137.492,245.174c.7-3.556,2.66-6.352,4.958-9.116a37.977,37.977,0,0,0,7.574-15.3c1.36,7.755,6.15,13.34,10.033,19.357,4.427,6.86,1.765,18.894-5.184,21.409-8.36,3.026-16.1-1.284-17.38-10.611A15.86,15.86,0,0,1,137.492,245.174Z" transform="translate(13.777 -197.729)" fill="#58a1b4"/>
        <path id="Path_1221" data-name="Path 1221" d="M642.179,295.252a5.96,5.96,0,0,1-2.027-1.041,6.111,6.111,0,0,1-2.109-3.336c-.495-2.411.947-4.641,2.4-6.89.707-1.094.882-1.115,1.394-2.051a12.693,12.693,0,0,0,1.468-4.792c.165.3.409.744.687,1.3.31.625.516,1.091.586,1.247a34.961,34.961,0,0,0,1.653,3.109c.929,1.628,3.378,5.921,1.977,9.345a6.034,6.034,0,0,1-2.036,2.534c-1.308-.669-1.535-1.86-1.672-3.128-.335.634-.531,1.428-.841,2.173C643.37,294.413,643.128,295.185,642.179,295.252Z" transform="translate(76.051 -190.716)" fill="#dae9f3"/>
        <path id="Path_1222" data-name="Path 1222" d="M643.409,291.491c.481-.894.888-1.648,1.191-2.207a16.163,16.163,0,0,0,.544,1.964,18.189,18.189,0,0,0,1.728,3.538c1.756,2.98,2.635,4.477,2.654,4.828a5.5,5.5,0,0,1-5.026,5.336,4.989,4.989,0,0,1-4.723-3.209,6.053,6.053,0,0,1,.29-3.568,17.636,17.636,0,0,1,1.205-2.623C641.92,294.267,642.475,293.226,643.409,291.491Z" transform="translate(76.258 -189.206)" fill="#99cfeb"/>
        <path id="Path_1223" data-name="Path 1223" d="M615.762,256c1.947,6.189,5.849,10.416,9.358,14.855,2.52,3.188,2.476,10.6-.166,13.736-3.9,4.632-8.378,5.643-14.083,3.792-4.2-1.36-6.964-9.4-5.494-13.206,2.006-5.191,5.314-9.568,8.465-14.107C614.729,259.8,614.977,258.146,615.762,256Z" transform="translate(71.951 -193.345)" fill="#58a1b4" opacity="0.6"/>
        <path id="Path_1224" data-name="Path 1224" d="M248.317,245c1.042,6.127,5.453,10.273,8.448,15.2,3.1,5.11,2.286,15.923-5.745,18.049-5.554,1.471-12.566-2.307-12.593-9.006-.02-5.175,1.964-9.387,4.7-13.58C245.276,252.381,247.784,249.17,248.317,245Z" transform="translate(26.364 -194.714)" fill="#58a1b4" opacity="0.6"/>
        <path id="Path_1225" data-name="Path 1225" d="M640.725,248.7c.521,3.063,2.727,5.136,4.224,7.6,1.552,2.555,1.143,7.962-2.873,9.024-2.777.735-6.283-1.154-6.3-4.5a12.03,12.03,0,0,1,2.351-6.79C639.2,252.389,640.458,250.782,640.725,248.7Z" transform="translate(75.782 -194.254)" fill="#58a1b4" opacity="0.6"/>
        <path id="Path_1226" data-name="Path 1226" d="M127.786,217.4a13.043,13.043,0,0,0,1.392,4c1.241,2.272,2.462,2.838,2.588,4.553a4.342,4.342,0,0,1-1.41,3.452c-1.127,1.02-3.126,1.678-4.611.748-1.8-1.131-1.535-3.781-1.5-4.113.165-1.412.856-1.947,1.806-3.746A18.332,18.332,0,0,0,127.786,217.4Z" transform="translate(12.159 -198.146)" fill="#58a1b4" opacity="0.6"/>
        <path id="Path_1227" data-name="Path 1227" d="M600.55,284.319a53.35,53.35,0,0,0,2.991,8.226c2.8,6.092,5.1,8.081,4.611,11.591a8.3,8.3,0,0,1-4.352,6.142,7.882,7.882,0,0,1-7.531-.171,8.392,8.392,0,0,1-3.7-5.848c-.482-3.565,1.706-5.66,4.737-11.964A69.107,69.107,0,0,0,600.55,284.319Z" transform="translate(70.4 -189.824)" fill="#6389b6"/>
        <path id="Path_1228" data-name="Path 1228" d="M346.092,253.6a72.288,72.288,0,0,0,4.691,8.847c3.079,4.947,4.7,6.218,4.862,9.207a9.806,9.806,0,0,1-4.4,8.761,8.776,8.776,0,0,1-5.31,1.166,9.488,9.488,0,0,1-6.778-4.269,10,10,0,0,1-1.184-6.9c.407-2.827,1.673-4.285,3.544-7.41A61.589,61.589,0,0,0,346.092,253.6Z" transform="translate(38.724 -193.644)" fill="#6389b6"/>
        <path id="Path_1229" data-name="Path 1229" d="M512.587,200.276c2.059,3.592,3.573,6.6,5.45,9.471,3.158,4.837,5.631,9.462,1.779,15.249-1.822,2.737-4.523,3.439-7.389,3.261s-5.721-1.174-6.779-4.268c-1.751-5.124-1.655-9.855,2.361-14.308C510.228,207.22,512.516,204.4,512.587,200.276Z" transform="translate(59.463 -200.276)" fill="#6389b6"/>
        <path id="Path_1230" data-name="Path 1230" d="M186.066,211.528a66.07,66.07,0,0,0,6.006,10.417,13.94,13.94,0,0,1,1.494,13.293c-1.335,3.46-4.42,4.178-7.787,4.088-3.626-.1-6.112-1.585-7.01-4.755-1.445-5.092-1.181-9.808,2.778-14.075A16.189,16.189,0,0,0,186.066,211.528Z" transform="translate(18.844 -198.877)" fill="#6389b6"/>
        <path id="Path_1231" data-name="Path 1231" d="M396.138,220.209a36.769,36.769,0,0,0,6.227,11.533c2,2.675,2.3,9.568.464,12.058a8.645,8.645,0,0,1-10.2,2.506c-3.777-1.471-5.636-7.438-4.32-11.255C390.128,229.783,394.873,226.236,396.138,220.209Z" transform="translate(44.952 -197.797)" fill="#51b2d7"/>
        <path id="Path_1232" data-name="Path 1232" d="M305.4,265.48c.982,4.634,4.266,7.7,6.282,11.429,2.465,4.556,2.605,13.426-5,14.586-6.8,1.038-11.47-5.463-9.353-11.862C299.017,274.54,303.611,270.776,305.4,265.48Z" transform="translate(33.626 -192.167)" fill="#51b2d7"/>
        <path id="Path_1233" data-name="Path 1233" d="M486.585,222.852c1.909,3.323,3.26,6.8,5.769,9.684,3.2,3.682,2.812,12.281-.414,14.618-3.311,2.4-6.6,2.414-10.236.049-2.423-1.574-3.492-6.061-2.818-10.041.707-4.175,4.417-6.5,5.889-10.224C485.279,225.667,485.986,224.361,486.585,222.852Z" transform="translate(56.245 -197.468)" fill="#51b2d7"/>
        <path id="Path_1234" data-name="Path 1234" d="M108.259,250.385c2.22,2.921,3.478,6.322,5.6,9.305a12.792,12.792,0,0,1,1.356,12.9c-1.454,3.33-4.565,3.624-7.712,3.5-3-.119-5.333-1.558-6.251-4.375-1.494-4.589-1.262-8.867,2.359-12.79A21.372,21.372,0,0,0,108.259,250.385Z" transform="translate(9.196 -194.044)" fill="#51b2d7"/>
        <path id="Path_1235" data-name="Path 1235" d="M304.65,200.442c2.325,2.876,3.618,5.966,5.748,8.579,2.637,3.237,2.766,7.185,1.419,11.06-1.248,3.593-4.937,5.477-8.915,4.789-2.668-.462-5.576-4.084-5.647-7.16-.074-3.165.284-6.1,2.438-8.818C301.661,206.408,302.959,203.393,304.65,200.442Z" transform="translate(33.679 -200.255)" fill="#dae9f3"/>
        <path id="Path_1236" data-name="Path 1236" d="M422.156,235.238c1.428,1.765,2.222,3.662,3.529,5.267a6.774,6.774,0,0,1,.871,6.79,4.72,4.72,0,0,1-5.473,2.94c-1.638-.284-3.424-2.507-3.468-4.4a7.822,7.822,0,0,1,1.5-5.415A41.114,41.114,0,0,0,422.156,235.238Z" transform="translate(48.648 -195.928)" fill="#dae9f3"/>
        <path id="Path_1237" data-name="Path 1237" d="M598.908,202.933c.389,5.464,3.78,9.6,5.434,14.393,1.349,3.911-.7,8.967-4.6,11.457-2.969,1.9-7.5,1.13-10.469-1.775-2.677-2.622-2.257-9.686,1.218-13.67C593.371,210.039,596.416,206.909,598.908,202.933Z" transform="translate(69.782 -199.946)" fill="#9acfeb"/>
        <path id="Path_1238" data-name="Path 1238" d="M350.023,225.838a6.01,6.01,0,0,1-11.964-1.059c-.057-2.162.85-3.435,2.741-7.042.815-1.552,1.97-3.837,3.261-6.719,1.087,2.208,2.628,5.332,3.158,6.408C349.673,222.4,350.4,223.853,350.023,225.838Z" transform="translate(38.754 -198.94)" fill="#99cfeb"/>
        <path id="Path_1239" data-name="Path 1239" d="M133.472,274.71c1.046,3.918,3.477,6.583,5.361,9.526,2.618,4.088,1.979,9.123-1.934,11.9-3.968,2.813-9.9.01-10.394-5.017a12.233,12.233,0,0,1,2.621-9.123A65.719,65.719,0,0,0,133.472,274.71Z" transform="translate(12.435 -191.019)" fill="#9acfeb"/>
        <path id="Path_1240" data-name="Path 1240" d="M186.186,283.225c1.046,3.918,3.477,6.583,5.361,9.526,2.618,4.088,1.979,9.123-1.934,11.9-3.968,2.813-9.9.01-10.394-5.017a12.234,12.234,0,0,1,2.621-9.123A65.709,65.709,0,0,0,186.186,283.225Z" transform="translate(18.991 -189.96)" fill="#58a1b4" opacity="0.6"/>
        <path id="Path_1241" data-name="Path 1241" d="M235.846,292.592l.085,1.425c.208,3.958-1.956,7.209-4.782,7.912a6.187,6.187,0,0,1-4.623-.939c-2.505-1.491-2.73-4.084-2.756-6.49-.011-1.1.164-2.42,2.376-7.212.946-2.049,2.053-4.275,3.348-6.63q1.567,2.82,3.13,5.753Q234.287,289.535,235.846,292.592Z" transform="translate(24.541 -190.279)" fill="#99cfeb"/>
        <path id="Path_1242" data-name="Path 1242" d="M285.9,229.211a34.163,34.163,0,0,0,4.927,8.736c3.234,4.188,1.941,11.131-2.159,13.247a6.257,6.257,0,0,1-9.157-5.271c-.249-4.159.6-7.847,3.536-11.036C284.441,233.368,284.992,231.231,285.9,229.211Z" transform="translate(31.468 -196.677)" fill="#99cfeb"/>
        <path id="Path_1243" data-name="Path 1243" d="M355.014,204.883a49.3,49.3,0,0,0,7.1,12.593c4.662,6.037,2.8,16.045-3.111,19.093a9.019,9.019,0,0,1-13.2-7.6c-.359-5.994.869-11.309,5.1-15.905C352.918,210.874,353.713,207.8,355.014,204.883Z" transform="translate(39.711 -199.703)" fill="#dae9f3"/>
        <path id="Path_1244" data-name="Path 1244" d="M316.791,234.465a26.245,26.245,0,0,0,4.918,8.115c3.4,4.222,2.216,11.151-2.309,12.591-3.022.962-5.722.613-7.777-2.263a7.587,7.587,0,0,1-.243-8.486C313.169,241.255,315.653,238.473,316.791,234.465Z" transform="translate(35.29 -196.024)" fill="#58a1b4" opacity="0.6"/>
        <path id="Path_1245" data-name="Path 1245" d="M516.281,246.9c1.272,3.46,3.421,6.171,5.365,8.993a7.731,7.731,0,0,1-1.814,10.565c-2.945,2.174-6.522,1.517-9.1-1.673-1.528-1.892-1.543-6.338-.1-8.652C512.51,253.138,514.326,250.105,516.281,246.9Z" transform="translate(60.085 -194.477)" fill="#58a1b4" opacity="0.6"/>
        <path id="Path_1246" data-name="Path 1246" d="M48.944,214.455c.177,4.314,3.844,6.628,5.853,9.8a7.077,7.077,0,0,1-.076,8.022,7.6,7.6,0,0,1-8.169,3.155c-3.569-1.04-4.817-3.071-5.078-6.967-.292-4.342,3.225-7,5.026-10.4A11.2,11.2,0,0,1,48.944,214.455Z" transform="translate(1.867 -198.513)" fill="#58a1b4" opacity="0.6"/>
        <path id="Path_1247" data-name="Path 1247" d="M674.043,212.347c1.2,2.122,2.1,2.779,3.365,4.611a11.805,11.805,0,0,1,2.08,3.963,8.065,8.065,0,0,1-.46,5.634c-.156.308-2.139,4.077-5.978,4.056-3.152-.017-5.306-2.573-6.1-4.558a8.082,8.082,0,0,1-.328-4.352,12.276,12.276,0,0,1,2.062-4.991c1.021-1.618,1.7-2.08,3.561-4.865.38-.57.682-1.045.877-1.356A19.136,19.136,0,0,0,674.043,212.347Z" transform="translate(79.599 -199.006)" fill="#58a1b4" opacity="0.6"/>
        <path id="Path_1248" data-name="Path 1248" d="M563.2,220.181a30.3,30.3,0,0,0,1.963,4.861c2.406,4.729,4.725,6.176,4.674,9.441a7.2,7.2,0,0,1-1.029,3.552c-.286.489-2.187,3.737-5.759,3.713a6.467,6.467,0,0,1-5.594-3.611,6.99,6.99,0,0,1-.518-4.214c.489-3.506,2.718-4.576,4.674-8.787A21.122,21.122,0,0,0,563.2,220.181Z" transform="translate(65.962 -197.8)" fill="#58a1b4" opacity="0.6"/>
        <path id="Path_1249" data-name="Path 1249" d="M260.906,285.89c.962,3.383,2.833,5.933,4.479,8.581,2.462,3.961.718,9.649-3.349,10.547-2.82.622-4.794-.757-6.076-3.208a7.282,7.282,0,0,1,0-6.811C257.467,292,259.606,289.395,260.906,285.89Z" transform="translate(28.439 -189.628)" fill="#01a6ff" opacity="0.6"/>
        <path id="Path_1250" data-name="Path 1250" d="M275.759,264.275c.964,3.383,2.835,5.933,4.481,8.581,2.462,3.96.718,9.649-3.35,10.545-2.82.622-4.794-.756-6.076-3.207a7.279,7.279,0,0,1,0-6.811C272.321,270.38,274.459,267.78,275.759,264.275Z" transform="translate(30.286 -192.316)" fill="#01a6ff" opacity="0.6"/>
        <path id="Path_1251" data-name="Path 1251" d="M447.485,219.873c1.308,4.094,3.7,6.5,5.215,9.46a7.537,7.537,0,0,1-.79,8.023c-1.943,2.235-4.374,2.408-6.859,1.375-3.823-1.591-4.779-6.8-2.332-10.37C444.4,225.915,446.738,223.824,447.485,219.873Z" transform="translate(51.604 -197.839)" fill="#01a6ff" opacity="0.6"/>
        <path id="Path_1252" data-name="Path 1252" d="M625.261,309.506c1.308,4.094,3.7,6.506,5.215,9.46a7.537,7.537,0,0,1-.79,8.023c-1.943,2.236-4.374,2.41-6.859,1.375-3.823-1.591-4.779-6.8-2.332-10.37C622.171,315.548,624.514,313.457,625.261,309.506Z" transform="translate(73.714 -186.691)" fill="#01a6ff" opacity="0.6"/>
        <path id="Path_1253" data-name="Path 1253" d="M343.8,245.129c.275.931.721,2.333,1.368,4.006,1.157,2.989,1.753,3.717,1.932,5.484.126,1.244.346,3.411-1.083,4.731a4.187,4.187,0,0,1-5.024.379c-2.321-1.863-.49-7.33.187-9.348A21.28,21.28,0,0,1,343.8,245.129Z" transform="translate(38.978 -194.698)" fill="#dae9f3"/>
        <path id="Path_1254" data-name="Path 1254" d="M160.142,273.591c.275.931.721,2.333,1.368,4.006,1.157,2.989,1.753,3.717,1.932,5.484.126,1.244.346,3.412-1.083,4.731a4.187,4.187,0,0,1-5.024.379c-2.321-1.863-.49-7.329.187-9.347A21.269,21.269,0,0,1,160.142,273.591Z" transform="translate(16.137 -191.158)" fill="#dae9f3"/>
        <path id="Path_1255" data-name="Path 1255" d="M588.267,263.641a17.569,17.569,0,0,0,2.585,4.619c1.8,2.365,2.839,5.137,1.6,8.243-.894,2.242-4.006,3.818-6.081,3-2.452-.966-3.746-4.542-2.984-6.88A30.439,30.439,0,0,1,588.267,263.641Z" transform="translate(69.239 -192.395)" fill="#9acfeb"/>
        <path id="Path_1256" data-name="Path 1256" d="M537.055,229.211a17.587,17.587,0,0,0,2.586,4.619c1.8,2.365,2.839,5.137,1.6,8.243-.894,2.243-4.006,3.819-6.082,3-2.452-.966-3.745-4.542-2.983-6.881A30.476,30.476,0,0,1,537.055,229.211Z" transform="translate(62.87 -196.677)" fill="#9acfeb"/>
        <path id="Path_1257" data-name="Path 1257" d="M247.991,216.791a17.278,17.278,0,0,0,1.275,3.667c1.558,3.244,3.209,4.036,3.42,6.486a5.374,5.374,0,0,1-.826,3.477,5.22,5.22,0,0,1-6.048,2c-2.3-1-2.921-3.85-2.777-5.612.146-1.791,1.084-2.435,3.116-6.231C247,219,247.611,217.66,247.991,216.791Z" transform="translate(26.934 -198.222)" fill="#9acfeb"/>
        <path id="Path_1258" data-name="Path 1258" d="M648.288,221.612c1.131,3.061,3.711,4.981,4.673,8.11,1.029,3.347-1.165,7.42-4.7,7.447-3.749.029-5.738-3.758-4.324-8.166C644.816,226.275,646.539,224.069,648.288,221.612Z" transform="translate(76.74 -197.622)" fill="#9acfeb"/>
        <path id="Path_1259" data-name="Path 1259" d="M42.681,244.873c1.132,3.062,3.712,4.981,4.673,8.111,1.029,3.347-1.165,7.42-4.694,7.447-3.75.028-5.739-3.758-4.325-8.166C39.209,249.537,40.933,247.331,42.681,244.873Z" transform="translate(1.422 -194.73)" fill="#9acfeb"/>
        <path id="Path_1260" data-name="Path 1260" d="M376.444,251.941c1.132,3.062,3.712,4.981,4.673,8.111,1.029,3.347-1.165,7.42-4.694,7.447-3.75.028-5.739-3.758-4.325-8.166C372.972,256.6,374.695,254.4,376.444,251.941Z" transform="translate(42.931 -193.85)" fill="#9acfeb"/>
        <path id="Path_1261" data-name="Path 1261" d="M30.851,275a27.829,27.829,0,0,0,1.738,4.277c1.573,3.1,2.639,3.752,2.866,5.749.053.464.349,3.532-1.727,4.989-1.759,1.233-4.242.626-5.725-.478a5.941,5.941,0,0,1-2.207-4.106c-.09-1.747.789-2.61,3.179-6.9C29.809,277.027,30.449,275.786,30.851,275Z" transform="translate(-0.082 -190.983)" fill="#9acfeb"/>
        <path id="Path_1262" data-name="Path 1262" d="M53.98,270.412a46.767,46.767,0,0,0,3.945,6.449c1.413,2.053,1.164,4.691-.734,6.938-1.839,2.178-3.876,1.9-5.968.871-2.429-1.19-2.419-3.514-2.031-5.728C49.771,275.629,52.68,273.538,53.98,270.412Z" transform="translate(2.805 -191.553)" fill="#b5cdcc"/>
        <path id="Path_1263" data-name="Path 1263" d="M15.313,226.554c2.894,5.187,5.218,9.975,8.781,14.268,5.33,6.421,5.95,14.069.707,21.3-2.414,3.328-6.277,4.759-10.584,4.215-5.265-.666-8.5-3.3-10.381-8.555-2.351-6.558.232-11.574,3.37-16.782C9.975,236.4,13.009,231.953,15.313,226.554Z" transform="translate(-2.925 -197.008)" fill="#dae9f3"/>
        <path id="Path_1264" data-name="Path 1264" d="M71.481,247.539c.7-3.556,2.659-6.352,4.958-9.116a38,38,0,0,0,7.574-15.3c1.36,7.755,6.149,13.339,10.033,19.357,4.426,6.86,1.765,18.894-5.186,21.409-8.36,3.026-16.1-1.284-17.38-10.611A15.86,15.86,0,0,1,71.481,247.539Z" transform="translate(5.567 -197.435)" fill="#51b2d7"/>
        <path id="Path_1265" data-name="Path 1265" d="M885.529,209.155a66.1,66.1,0,0,0,6.006,10.416,13.941,13.941,0,0,1,1.5,13.293c-1.336,3.461-4.421,4.179-7.787,4.089-3.627-.1-6.112-1.586-7.012-4.755-1.445-5.092-1.181-9.809,2.779-14.076A16.188,16.188,0,0,0,885.529,209.155Z" transform="translate(105.835 -199.172)" fill="#6389b6"/>
        <path id="Path_1266" data-name="Path 1266" d="M12.079,274.335c2.221,2.921,3.478,6.322,5.6,9.305a12.794,12.794,0,0,1,1.355,12.9c-1.454,3.33-4.565,3.624-7.712,3.5-3-.119-5.333-1.558-6.25-4.375-1.5-4.589-1.263-8.866,2.358-12.789A21.383,21.383,0,0,0,12.079,274.335Z" transform="translate(-2.766 -191.065)" fill="#51b2d7"/>
        <path id="Path_1267" data-name="Path 1267" d="M843.376,210.3c1.046,3.918,3.475,6.583,5.361,9.526,2.617,4.088,1.979,9.123-1.934,11.9-3.968,2.813-9.9.01-10.394-5.018a12.231,12.231,0,0,1,2.621-9.122A65.861,65.861,0,0,0,843.376,210.3Z" transform="translate(100.725 -199.03)" fill="#9acfeb"/>
        <path id="Path_1268" data-name="Path 1268" d="M104.75,283.738c.964,3.384,2.835,5.933,4.481,8.581,2.462,3.961.718,9.649-3.349,10.547-2.82.622-4.794-.757-6.076-3.208a7.282,7.282,0,0,1,0-6.811C101.313,289.844,103.451,287.243,104.75,283.738Z" transform="translate(9.018 -189.896)" fill="#01a6ff" opacity="0.6"/>
        <path id="Path_1269" data-name="Path 1269" d="M78.723,275.186c.277.931.721,2.333,1.369,4.007,1.157,2.989,1.752,3.716,1.932,5.484.126,1.244.346,3.411-1.083,4.73a4.187,4.187,0,0,1-5.025.38c-2.321-1.864-.489-7.33.187-9.348A21.328,21.328,0,0,1,78.723,275.186Z" transform="translate(6.011 -190.96)" fill="#dae9f3"/>
        <path id="Path_1270" data-name="Path 1270" d="M818.328,222.669a17.253,17.253,0,0,0,1.276,3.668c1.557,3.243,3.208,4.035,3.42,6.486a5.387,5.387,0,0,1-.826,3.475,5.222,5.222,0,0,1-6.049,2c-2.3-1-2.921-3.85-2.777-5.611.146-1.792,1.084-2.435,3.116-6.232C817.337,224.875,817.948,223.538,818.328,222.669Z" transform="translate(97.866 -197.491)" fill="#9acfeb"/>
        <path id="Path_1271" data-name="Path 1271" d="M101.289,225.7" transform="translate(9.308 -197.115)" fill="#99cfeb"/>
        <path id="Path_1272" data-name="Path 1272" d="M798.879,232.345c2.24,4.014,4.039,7.721,6.8,11.044,4.125,4.97,4.605,10.889.548,16.485a8.412,8.412,0,0,1-8.192,3.263c-4.076-.515-6.578-2.552-8.036-6.621-1.819-5.077.18-8.959,2.609-12.99A88.8,88.8,0,0,0,798.879,232.345Z" transform="translate(94.874 -196.288)" fill="#dae9f3"/>
        <path id="Path_1273" data-name="Path 1273" d="M869.908,269.493c.7-3.558,2.66-6.352,4.96-9.116a37.994,37.994,0,0,0,7.573-15.3c1.362,7.755,6.15,13.341,10.033,19.358,4.427,6.86,1.766,18.893-5.184,21.408-8.36,3.026-16.1-1.283-17.38-10.61A15.859,15.859,0,0,1,869.908,269.493Z" transform="translate(104.867 -194.705)" fill="#51b2d7"/>
        <path id="Path_1274" data-name="Path 1274" d="M835.861,294.582c.7-3.556,2.66-6.352,4.96-9.116a38.013,38.013,0,0,0,7.574-15.3c1.36,7.755,6.149,13.34,10.032,19.357,4.427,6.86,1.766,18.893-5.184,21.409-8.36,3.026-16.1-1.284-17.38-10.611A15.859,15.859,0,0,1,835.861,294.582Z" transform="translate(100.632 -191.584)" fill="#58a1b4"/>
        <path id="Path_1275" data-name="Path 1275" d="M714.684,300.219c-2.3-3.828-.4-9.168,3.49-19.692,1.1-2.966,2.119-5.4,2.866-7.1,1.435,3.194,2.569,5.729,3.24,7.229,5.6,12.527,6.565,14.794,5.608,17.574a9.19,9.19,0,0,1-7.727,6.106A8.643,8.643,0,0,1,714.684,300.219Z" transform="translate(85.471 -191.179)" fill="#99cfeb"/>
        <path id="Path_1276" data-name="Path 1276" d="M801.319,281.028a13.044,13.044,0,0,0,1.392,4c1.241,2.272,2.462,2.838,2.588,4.554a4.34,4.34,0,0,1-1.41,3.451c-1.125,1.02-3.126,1.678-4.611.748-1.8-1.13-1.535-3.78-1.5-4.113.165-1.411.856-1.946,1.806-3.745A18.343,18.343,0,0,0,801.319,281.028Z" transform="translate(95.926 -190.233)" fill="#58a1b4" opacity="0.6"/>
        <path id="Path_1277" data-name="Path 1277" d="M670.921,278.406a53.465,53.465,0,0,0,2.991,8.226c2.8,6.092,5.1,8.081,4.611,11.591a8.3,8.3,0,0,1-4.351,6.142,7.884,7.884,0,0,1-7.532-.171,8.385,8.385,0,0,1-3.695-5.848c-.482-3.565,1.7-5.66,4.736-11.964A69.11,69.11,0,0,0,670.921,278.406Z" transform="translate(79.152 -190.559)" fill="#6389b6"/>
        <path id="Path_1278" data-name="Path 1278" d="M746.112,290.668a66.051,66.051,0,0,0,6.006,10.417,13.941,13.941,0,0,1,1.5,13.293c-1.336,3.46-4.421,4.179-7.787,4.089-3.627-.1-6.112-1.586-7.012-4.756-1.445-5.091-1.181-9.808,2.779-14.075A16.2,16.2,0,0,0,746.112,290.668Z" transform="translate(88.496 -189.034)" fill="#6389b6"/>
        <path id="Path_1279" data-name="Path 1279" d="M670.342,242.5c.982,4.635,4.266,7.7,6.282,11.43,2.465,4.556,2.605,13.426-5,14.586-6.8,1.038-11.471-5.464-9.354-11.862C663.955,251.562,668.549,247.8,670.342,242.5Z" transform="translate(79.013 -195.024)" fill="#51b2d7"/>
        <path id="Path_1280" data-name="Path 1280" d="M810.071,302.824c2.219,2.921,3.478,6.323,5.6,9.306a12.792,12.792,0,0,1,1.356,12.9c-1.454,3.33-4.565,3.624-7.712,3.5-3-.119-5.333-1.559-6.252-4.376-1.5-4.589-1.262-8.866,2.359-12.789A21.383,21.383,0,0,0,810.071,302.824Z" transform="translate(96.479 -187.522)" fill="#51b2d7"/>
        <path id="Path_1281" data-name="Path 1281" d="M724.442,314.267c1.046,3.917,3.475,6.582,5.361,9.526,2.617,4.087,1.979,9.122-1.934,11.9-3.968,2.813-9.9.01-10.394-5.017a12.231,12.231,0,0,1,2.621-9.122A65.984,65.984,0,0,0,724.442,314.267Z" transform="translate(85.933 -186.099)" fill="#9acfeb"/>
        <path id="Path_1282" data-name="Path 1282" d="M856.37,236.053c1.046,3.918,3.477,6.582,5.361,9.526,2.618,4.088,1.98,9.123-1.934,11.9-3.968,2.813-9.9.01-10.394-5.018a12.236,12.236,0,0,1,2.621-9.122A65.721,65.721,0,0,0,856.37,236.053Z" transform="translate(102.341 -195.826)" fill="#58a1b4" opacity="0.6"/>
        <path id="Path_1283" data-name="Path 1283" d="M824.614,257.638c1.046,3.918,3.477,6.583,5.361,9.526,2.617,4.088,1.98,9.123-1.934,11.9-3.968,2.813-9.9.01-10.394-5.017a12.239,12.239,0,0,1,2.621-9.123A65.718,65.718,0,0,0,824.614,257.638Z" transform="translate(98.392 -193.142)" fill="#9acfeb"/>
        <path id="Path_1284" data-name="Path 1284" d="M719.25,232.235c.177,4.314,3.844,6.627,5.853,9.8a7.077,7.077,0,0,1-.076,8.022,7.6,7.6,0,0,1-8.169,3.155c-3.569-1.041-4.817-3.072-5.078-6.967-.292-4.342,3.226-7.006,5.026-10.4A11.194,11.194,0,0,1,719.25,232.235Z" transform="translate(85.232 -196.301)" fill="#58a1b4" opacity="0.6"/>
        <path id="Path_1285" data-name="Path 1285" d="M776.894,307.476c.275.931.721,2.333,1.368,4.007,1.157,2.989,1.753,3.716,1.932,5.484.127,1.244.346,3.411-1.083,4.73a4.185,4.185,0,0,1-5.024.38c-2.321-1.864-.489-7.33.187-9.348A21.289,21.289,0,0,1,776.894,307.476Z" transform="translate(92.841 -186.944)" fill="#dae9f3"/>
        <path id="Path_1286" data-name="Path 1286" d="M647.5,330.052c1.132,3.061,3.713,4.981,4.674,8.11,1.028,3.348-1.166,7.421-4.7,7.447-3.75.029-5.739-3.757-4.324-8.166C644.026,334.716,645.75,332.51,647.5,330.052Z" transform="translate(76.642 -184.136)" fill="#9acfeb"/>
        <path id="Path_1287" data-name="Path 1287" d="M695.585,284.132a27.84,27.84,0,0,0,1.738,4.277c1.574,3.1,2.639,3.753,2.866,5.749.053.465.349,3.532-1.727,4.989-1.758,1.235-4.242.627-5.724-.478a5.926,5.926,0,0,1-2.207-4.106c-.091-1.746.789-2.61,3.179-6.9C694.542,286.164,695.184,284.924,695.585,284.132Z" transform="translate(82.59 -189.847)" fill="#9acfeb"/>
        <path id="Path_1288" data-name="Path 1288" d="M697.981,310.918a46.9,46.9,0,0,0,3.945,6.451c1.413,2.052,1.164,4.691-.734,6.938-1.838,2.178-3.875,1.895-5.967.87-2.43-1.188-2.419-3.514-2.032-5.726C693.772,316.136,696.681,314.044,697.981,310.918Z" transform="translate(82.899 -186.516)" fill="#b5cdcc"/>
        <path id="Path_1289" data-name="Path 1289" d="M695.889,240.968c2.894,5.186,5.217,9.975,8.78,14.268,5.331,6.421,5.951,14.069.708,21.3-2.414,3.328-6.278,4.759-10.585,4.215-5.264-.666-8.5-3.3-10.381-8.555-2.35-6.558.233-11.574,3.37-16.782C690.551,250.816,693.585,246.367,695.889,240.968Z" transform="translate(81.717 -195.215)" fill="#dae9f3"/>
        <path id="Path_1290" data-name="Path 1290" d="M738.887,264.726c.705-3.558,2.66-6.352,4.958-9.116a37.982,37.982,0,0,0,7.574-15.3c1.36,7.755,6.15,13.34,10.033,19.358,4.427,6.86,1.765,18.893-5.185,21.408-8.36,3.026-16.1-1.283-17.38-10.61A15.861,15.861,0,0,1,738.887,264.726Z" transform="translate(88.572 -195.298)" fill="#51b2d7"/>
        <path id="Path_1291" data-name="Path 1291" d="M742.671,237.983c.7-3.557,2.66-6.352,4.958-9.116a37.982,37.982,0,0,0,7.574-15.3c1.361,7.755,6.149,13.34,10.033,19.358,4.427,6.86,1.765,18.893-5.184,21.408-8.36,3.026-16.1-1.283-17.382-10.611A15.875,15.875,0,0,1,742.671,237.983Z" transform="translate(89.042 -198.624)" fill="#58a1b4"/>
        <path id="Path_1292" data-name="Path 1292" d="M666.138,313.64c2.221,2.921,3.478,6.322,5.6,9.305a12.8,12.8,0,0,1,1.355,12.9c-1.454,3.329-4.565,3.624-7.711,3.5-3.005-.12-5.334-1.56-6.251-4.376-1.5-4.589-1.263-8.866,2.358-12.789A21.37,21.37,0,0,0,666.138,313.64Z" transform="translate(78.578 -186.177)" fill="#51b2d7"/>
        <path id="Path_1293" data-name="Path 1293" d="M819.414,315.078l.085,1.425c.209,3.959-1.956,7.211-4.782,7.913a6.2,6.2,0,0,1-4.623-.939c-2.505-1.492-2.73-4.084-2.755-6.49-.012-1.1.164-2.42,2.376-7.213.946-2.047,2.052-4.274,3.348-6.63q1.565,2.822,3.129,5.755Q817.857,312.02,819.414,315.078Z" transform="translate(97.119 -187.482)" fill="#99cfeb"/>
        <path id="Path_1294" data-name="Path 1294" d="M771.86,280.144c.964,3.384,2.835,5.933,4.481,8.581,2.462,3.961.719,9.649-3.349,10.547-2.82.622-4.794-.757-6.076-3.208a7.276,7.276,0,0,1,0-6.811C768.422,286.249,770.56,283.649,771.86,280.144Z" transform="translate(91.986 -190.343)" fill="#01a6ff" opacity="0.6"/>
        <path id="Path_1295" data-name="Path 1295" d="M773.63,250.428c.276.931.721,2.333,1.368,4.006,1.157,2.989,1.753,3.717,1.932,5.484.127,1.244.346,3.411-1.083,4.731a4.187,4.187,0,0,1-5.024.379c-2.321-1.863-.489-7.33.187-9.348A21.281,21.281,0,0,1,773.63,250.428Z" transform="translate(92.435 -194.039)" fill="#dae9f3"/>
        <path id="Path_1296" data-name="Path 1296" d="M770.523,292.916" transform="translate(92.54 -188.755)" fill="#99cfeb"/>
      </g>
      <g id="Layer_3" data-name="Layer 3" transform="translate(344.453 82.007)">
        <path id="Path_1301" data-name="Path 1301" d="M419.965,273.212c-.116.965-.264,2.428-.333,4.221-.125,3.2.133,4.107-.4,5.8-.378,1.191-1.036,3.269-2.872,3.912a4.186,4.186,0,0,1-4.762-1.645c-1.391-2.632,2.459-6.922,3.881-8.506A21.28,21.28,0,0,1,419.965,273.212Z" transform="translate(-296.589 -273.212)" fill="#dae9f3"/>
        <path id="Path_1302" data-name="Path 1302" d="M531.066,326.077c2.659,3.375,5.748,4.8,8.2,7.034a7.534,7.534,0,0,1,2.071,7.791c-1.037,2.775-3.253,3.789-5.942,3.691-4.138-.151-6.858-4.692-5.818-8.9C530.289,332.819,531.751,330.039,531.066,326.077Z" transform="translate(-281.907 -266.637)" fill="#01a6ff" opacity="0.6"/>
        <path id="Path_1303" data-name="Path 1303" d="M500.994,289.727c.551.8,1.408,2,2.542,3.385,2.026,2.484,2.818,2.992,3.535,4.617.506,1.143,1.386,3.136.436,4.834a4.188,4.188,0,0,1-4.661,1.916c-2.784-1.052-2.734-6.817-2.716-8.945A21.246,21.246,0,0,1,500.994,289.727Z" transform="translate(-285.542 -271.158)" fill="#dae9f3"/>
        <path id="Path_1304" data-name="Path 1304" d="M381.562,348.493c-.43,3.491.3,6.567.788,9.648.727,4.607-3.092,9.168-7.188,8.411-2.839-.524-4.122-2.561-4.349-5.318a7.277,7.277,0,0,1,2.65-6.275C376.02,352.78,379,351.215,381.562,348.493Z" transform="translate(-301.628 -263.849)" fill="#01a6ff" opacity="0.6"/>
        <path id="Path_1305" data-name="Path 1305" d="M369.623,307.957a5.551,5.551,0,0,1-6.909,2.7c-3.092-1.308-3.616-3.249-2.486-6.694,1.311-3.994,5.495-4.616,7.9-7.28.242-.269,1.027,0,.98.418C368.709,300.661,370.847,304.057,369.623,307.957Z" transform="translate(-303.009 -270.306)" fill="#99cfeb"/>
        <path id="Path_1306" data-name="Path 1306" d="M410.785,321.454c.623,4.252,2.594,7.022,3.6,10.185a7.534,7.534,0,0,1-2.088,7.787c-2.281,1.889-4.708,1.663-6.991.238-3.513-2.193-3.606-7.486-.609-10.612C406.752,326.913,409.4,325.231,410.785,321.454Z" transform="translate(-297.676 -267.212)" fill="#9acfeb"/>
        <path id="Path_1307" data-name="Path 1307" d="M552.245,309.6a5.426,5.426,0,0,1-5.561,2.2c-2.5-.71-3.391-3.6-3.775-4.84-.81-2.627-.072-4.013-.056-7.871a31.626,31.626,0,0,0-.77-7c.795.816,2.052,2.09,3.632,3.617,4.873,4.708,6.364,5.572,7.106,8.007C553.037,304.416,553.912,307.292,552.245,309.6Z" transform="translate(-280.324 -270.865)" fill="#dae9f3"/>
        <path id="Path_1308" data-name="Path 1308" d="M322.719,331.9c-.657,4,.464,7.43.973,10.887.707,4.8-1.944,9.131-6.652,10.052-4.773.934-9.028-4.058-7.414-8.845a12.23,12.23,0,0,1,6.139-7.239A65.9,65.9,0,0,0,322.719,331.9Z" transform="translate(-309.277 -265.913)" fill="#51b2d7"/>
        <path id="Path_1309" data-name="Path 1309" d="M505.707,358.757c.045.232.622,3.424-1.427,5.215a5.109,5.109,0,0,1-4.264.931,6.215,6.215,0,0,1-4.23-4.277c-.67-2.2.341-3.364,1.347-9,.284-1.6.455-2.916.555-3.784a36.609,36.609,0,0,0,2.116,3.153C503.143,355.449,505.177,356.047,505.707,358.757Z" transform="translate(-286.108 -263.931)" fill="#99cfeb"/>
      </g>
    </g>
  </g>
</svg>
