<?xml version="1.0" encoding="UTF-8"?><svg id="Layer_2" xmlns="http://www.w3.org/2000/svg" xmlns:xlink="http://www.w3.org/1999/xlink" viewBox="0 0 1399.75 252.65"><defs><style>.cls-1{fill:none;}.cls-2{clip-path:url(#clippath);}.cls-3{fill:#fff;}.cls-4{fill:#ac161b;}.cls-5{fill:#a51325;}.cls-6{clip-path:url(#clippath-1);}.cls-7{fill:#e1e1e1;}.cls-7,.cls-8,.cls-9{fill-rule:evenodd;}.cls-8{fill:#acacac;}</style><clipPath id="clippath"><rect class="cls-1" width="281.65" height="252.65"/></clipPath><clipPath id="clippath-1"><rect class="cls-1" width="281.65" height="252.65"/></clipPath></defs><g id="Layer_1-2"><g><g><g><path class="cls-3" d="M340.84,52.5h57.13v13.31h-42.39v51.81h36.04v13.11h-36.04v65.12h-14.74V52.5Z"/><path class="cls-3" d="M472.92,195.84l-21.91-60.41h-21.09v60.41h-14.74V52.5h34.61c21.71,0,33.58,9.83,33.58,30.31v22.32c0,14.95-6.35,24.16-18.23,28.05l23.14,62.66h-15.36Zm-43-73.51h19.04c13.72,0,19.66-5.73,19.66-20.68v-15.15c0-14.95-5.94-20.68-19.66-20.68h-19.04v56.52Z"/><path class="cls-3" d="M507.52,195.84V52.5h57.95v13.31h-43.21v50.78h36.86v13.11h-36.86v52.83h43.82v13.31h-58.56Z"/><path class="cls-3" d="M587.38,195.84V52.5h14.74V195.84h-14.74Z"/><path class="cls-3" d="M696.12,167.18c0,20.89-11.88,30.31-33.58,30.31h-1.64c-21.71,0-33.58-9.21-33.58-30.31V81.17c0-20.07,11.88-30.31,33.58-30.31h1.64c21.71,0,33.58,10.24,33.58,30.31v19.25h-14.74v-15.56c0-14.95-5.94-20.68-19.66-20.68s-19.66,5.73-19.66,20.68v78.63c0,14.95,5.94,20.68,19.66,20.68s19.66-5.73,19.66-20.68v-26.42h-20.48v-13.11h35.22v43.21Z"/><path class="cls-3" d="M735.02,52.5v63.68h40.34V52.5h14.74V195.84h-14.74v-66.14h-40.34v66.14h-14.74V52.5h14.74Z"/><path class="cls-3" d="M873.04,65.81h-26.21V195.84h-14.74V65.81h-26.01v-13.31h66.96v13.31Z"/></g><rect class="cls-4" x="895.66" y="22.73" width="504.09" height="200.44"/><g><path class="cls-3" d="M985.77,173.15h-8.19l-30.1-83.96v107.3h-13.72V53.15h14.13l33.58,94.81,33.99-94.81h14.74V196.49h-14.33V89.19l-30.1,83.96Z"/><path class="cls-3" d="M1103.31,161.07h-34.81l-7.17,35.43h-14.33l30.31-143.34h17.61l30.72,143.34h-15.15l-7.17-35.43Zm-2.46-12.9l-14.95-74.54-14.95,74.54h29.9Z"/><path class="cls-3" d="M1190.14,66.46h-26.21V196.49h-14.74V66.46h-26.01v-13.31h66.96v13.31Z"/><path class="cls-3" d="M1271.84,167.82c0,20.89-11.88,30.31-33.58,30.31h-.41c-21.71,0-33.58-9.21-33.58-30.31V81.82c0-20.07,11.88-30.31,33.58-30.31h.41c21.71,0,33.58,10.24,33.58,30.31v24.98h-14.74v-21.3c0-14.74-5.53-20.68-19.04-20.68s-19.04,5.94-19.04,20.68v78.63c0,14.74,5.53,20.68,19.04,20.68s19.04-5.94,19.04-20.68v-24.78h14.74v28.46Z"/><path class="cls-3" d="M1310.34,53.15v63.68h40.34V53.15h14.74V196.49h-14.74v-66.14h-40.34v66.14h-14.74V53.15h14.74Z"/></g></g><g id="Artwork_85"><g class="cls-2"><g class="cls-6"><path class="cls-9" d="M140.81,252.65c-24.6,0-48.41-7.02-68.87-20.3-19.29-12.52-34.71-30.03-44.78-50.8H0L17.42,99.17c6.12-27.74,21.65-52.89,43.74-70.87C83.59,10.05,111.87,0,140.81,0,165.4,0,189.21,7.02,209.66,20.29c19.29,12.52,34.7,30.01,44.78,50.78h27.21l-17.18,81.2c-12.21,58.16-64.21,100.38-123.65,100.38m-45.12-71.13c12.7,10.31,28.77,16.2,45.12,16.2s32.44-5.89,45.14-16.2H95.69Zm90.16-110.47c-12.68-10.26-28.73-16.13-45.04-16.13s-32.36,5.87-45.04,16.13h90.08Z"/><path class="cls-8" d="M140.81,246.45c-47.74,0-90.35-27.77-109.7-71.1H7.65l15.84-74.89c5.81-26.35,20.58-50.25,41.59-67.34C86.4,15.76,113.29,6.2,140.81,6.2c47.72,0,90.32,27.75,109.68,71.06h23.51l-15.6,73.72c-11.61,55.31-61.07,95.47-117.59,95.47m-60.1-71.13c14.64,17.86,36.78,28.6,60.1,28.6s45.48-10.73,60.11-28.6H80.71Zm120.15-98.07c-14.64-17.82-36.76-28.52-60.05-28.52-23.3,0-45.42,10.7-60.05,28.52h120.1Z"/><path class="cls-8" d="M194.97,38.89l26.06,47.84H61.02l26.53-47.84h107.42Zm5.89,38.36c-14.64-17.82-36.76-28.52-60.05-28.52-23.3,0-45.42,10.7-60.05,28.52h120.1Z"/><path class="cls-8" d="M85.99,213.78l-23.21-48.03H219.75l-24.57,48.03H85.99Zm-5.29-38.46c14.64,17.86,36.78,28.6,60.1,28.6s45.48-10.73,60.11-28.6H80.71Z"/><path class="cls-7" d="M68.8,169.12c14.63,24.52,41.44,40.99,72.01,40.99s57.39-16.46,72.02-40.99H68.8ZM140.81,42.53c-30.55,0-57.33,16.43-71.98,40.92H212.78c-14.64-24.49-41.42-40.92-71.97-40.92M29.55,101.73l-14.26,67.41h19.92c16.93,41.69,57.83,71.1,105.6,71.1,54.86,0,100.69-38.92,111.52-90.55l14.02-66.24h-19.96C229.46,41.79,188.56,12.4,140.81,12.4c-54.45,0-99.99,38.27-111.26,89.34"/><path class="cls-5" d="M139.73,107.34h-8.76l-2.2,10.43h-16.06l4.23-20.01h69.24l-1.75,8.26c5.13-6.62,14.9-9.44,25.05-9.44,4.79,0,13.55,1.01,14.5,5.38h.21l.89-4.2h16.06l-3.68,17.4h-15.95c1.94-6.22-2.48-9-9.68-9-4.06,0-9.86,1.26-10.71,5.3-1.95,9.25,37.56,4.37,33.26,24.72-2.78,13.11-13.87,17.74-29.09,17.74-6.15,0-13.9-1.35-15.53-6.47h-.21l-1.12,5.3h-16.06l4-18.92h17.21c-1.51,6.14,1.84,10.51,9.77,10.51,4.59,0,10.04-1.59,10.94-5.89,1.93-9.15-30.94-5.92-33.32-20.68h-.09s-14.99,0-14.99,0l2.2-10.43h-8.76l-7.57,35.82h8.76l-2.03,9.58h-37.12l2.03-9.58h8.76l7.57-35.82Z"/><path class="cls-5" d="M73.12,127.93h15.75l-3.88-18.16h-.21l-11.66,18.16Zm-32.31,15.22h4.17l32.54-45.4h23.25l12.82,45.4h4.17l-2.03,9.58h-32.43l2.03-9.58h7.72l-1.73-6.14h-24.51l-4.32,6.14h7.72l-2.03,9.58h-29.41l2.03-9.58Z"/><path d="M237.72,216.87c4.63,0,8.32,3.59,8.32,8.17s-3.69,8.22-8.37,8.22-8.42-3.64-8.42-8.22,3.74-8.17,8.42-8.17h.05Zm-.1,1.64c-3.54,0-6.28,2.94-6.28,6.53s2.74,6.53,6.38,6.53c3.54,.05,6.23-2.89,6.23-6.48s-2.69-6.58-6.28-6.58h-.05Zm-1.25,10.76h-1.89v-8.17c.75-.1,1.79-.25,3.14-.25,1.54,0,2.24,.25,2.79,.65,.5,.35,.85,.95,.85,1.74,0,1-.75,1.64-1.69,1.94v.1c.8,.25,1.2,.9,1.44,1.99,.25,1.25,.45,1.69,.6,1.99h-1.99c-.25-.3-.4-1-.65-1.99-.15-.85-.65-1.25-1.69-1.25h-.9v3.24Zm.05-4.58h.9c1.05,0,1.89-.35,1.89-1.19,0-.75-.55-1.25-1.74-1.25-.5,0-.85,.05-1.05,.1v2.34Z"/></g></g></g></g></g></svg>