<?xml version="1.0" encoding="UTF-8"?><svg id="Layer_2" xmlns="http://www.w3.org/2000/svg" viewBox="0 0 1001.08 202.35"><defs><style>.cls-1{fill:#fff;}.cls-2{fill:#bdbebf;}.cls-3{fill:#6dbc9c;}</style></defs><g id="Layer_1-2"><g><g><g><path class="cls-3" d="M168.94,200.85c-4.19,0-7.07-.13-8.78-1.85-1.71-1.71-1.83-4.52-1.83-8.93,.06-44.9,.05-90.56,.05-134.71V11.25c-.02-.83-.02-1.65,0-2.48,.17-5.22,1.95-7.04,7.05-7.23,.54-.02,1.08-.03,1.61-.03,.41,0,2.03,.01,2.44,.01H835.63c.47,0,.94,0,1.41-.01,.49,0,.97-.01,1.46-.01,.87,0,1.58,.02,2.23,.07,3.82,.29,5.68,2.17,6.01,6.08,.07,.78,.05,1.55,.04,2.29,0,.27,0,.55,0,.82V192.22c.01,.62,.02,1.25-.02,1.87-.25,4.56-2.08,6.44-6.51,6.69-.63,.04-1.27,.05-1.91,.05-.45,0-.9,0-1.35-.01-.44,0-.88-.01-1.32-.01H367.69c-66.22,0-132.44,0-198.66,.04h-.09Z"/><path class="cls-1" d="M838.51,3c.71,0,1.41,.02,2.12,.07,3.12,.24,4.36,1.53,4.63,4.71,.08,.99,.03,1.99,.03,2.99,0,60.25,0,120.51,0,180.76,0,.83,.03,1.66-.01,2.49-.21,3.82-1.39,5.06-5.1,5.27-.6,.03-1.21,.04-1.82,.04-.89,0-1.78-.02-2.68-.02-111.03,0-222.05,0-333.08,0-44.93,0-89.86,0-134.78,0-66.26,0-132.53,0-198.79,.05h-.09c-8.52,0-9.12-.75-9.11-9.28,.08-59.26,.04-118.51,.04-177.77,0-1.16-.03-2.32,0-3.49,.14-4.46,1.26-5.62,5.6-5.78,.52-.02,1.04-.03,1.56-.03,.81,0,1.63,.01,2.44,.01,68.6,0,137.25,0,205.85,0,153.45,0,306.85,0,460.3,0,.96,0,1.92-.03,2.87-.03m0-3c-.49,0-.99,0-1.48,.01-.46,0-.93,.01-1.39,.01H169.48c-.4,0-.79,0-1.19,0-.42,0-.83,0-1.25,0-.56,0-1.11,0-1.67,.03-5.92,.22-8.3,2.65-8.49,8.68-.03,.86-.02,1.71-.01,2.54,0,.35,0,.7,0,1.05,0,14.43,0,28.86,0,43.29,0,44.08,.01,89.65-.05,134.48,0,4.8,.14,7.87,2.26,9.99,2.12,2.13,5.28,2.29,9.84,2.29h.09c70.21-.04,139.89-.05,198.79-.05h467.86c.43,0,.87,0,1.3,.01,.46,0,.92,.01,1.38,.01,.76,0,1.39-.02,1.99-.05,5.26-.3,7.63-2.72,7.92-8.1,.04-.69,.03-1.34,.02-1.97,0-.23,0-.45,0-.68V10.76c0-.27,0-.53,0-.8,.01-.78,.02-1.58-.05-2.44-.39-4.66-2.81-7.09-7.39-7.45-.7-.05-1.44-.08-2.35-.08h0Z"/></g><polygon class="cls-1" points="742.26 148.18 742.26 167.42 728.57 167.42 746.61 186.55 764.66 167.42 750.97 167.42 750.97 148.18 742.26 148.18"/><polygon class="cls-1" points="515.4 148.18 515.4 167.42 501.7 167.42 519.75 186.55 537.79 167.42 524.1 167.42 524.1 148.18 515.4 148.18"/><polygon class="cls-1" points="288.53 148.18 288.53 167.42 274.84 167.42 292.89 186.55 310.93 167.42 297.24 167.42 297.24 148.18 288.53 148.18"/><path class="cls-2" d="M1001.08,151.47h-151.74c-.23,14.97,.01,29.32-.82,43.65V7.39c.79,3.34,.7,6.76,.72,10.16,.02,3.65,0,7.3,0,10.95v21.97c2.25,.14,4.15,.37,6.07,.37,20.8,.03,41.6,.02,62.4,.02,27.79,0,55.58,0,83.37,0v14.94h-37.95c1.61,3.03,2.68,5.24,3.92,7.36,2.51,4.28,5.14,8.49,7.66,12.77,6.9,11.69,13.73,23.41,20.67,35.07,1.75,2.94,3.79,5.71,5.7,8.56v21.92Zm-47.27-83.65l-1.53,.11c-14.56,22.58-29.13,45.16-44.05,68.3h86.71c-13.99-23.05-27.12-45.99-41.12-68.41Zm-53.98,65.72c14.5-22.52,28.75-44.67,43.41-67.45h-86.63c14.43,22.52,28.64,44.7,43.22,67.45Zm-8.38,2.72c-14.26-22.39-27.99-43.93-41.82-65.63-1.08,9.36-.62,62.06,.61,65.63h41.21Z"/><path class="cls-2" d="M64.07,65.72H.64c-.97-5.01-.65-9.54-.23-14.61,10.49-.52,20.76-.18,31.01-.24,10.32-.06,20.64-.01,30.96-.01h92.9c1.18-5.28,.49-10.08,.61-14.82,.12-4.81,.03-9.63,.03-14.44V7.25h.7V194.94c-.77-3.35-.68-6.76-.7-10.16-.02-3.65,0-7.3,0-10.96v-21.97c-2.26-.14-4.17-.36-6.09-.37-22.97-.02-45.94-.02-68.92-.02-24.64,0-49.27,0-73.91,0H.56c-.93-4.86-.41-9.42-.4-14.07,4.34-1.83,8.77-.19,13.44-1.31-1.92-4.42-4.95-7.9-7.36-11.73-1.76-2.79-3.71-5.47-5.51-8.23-.34-.53-.58-1.23-.59-1.86-.05-4.24-.03-8.48-.03-12.73l.97-.3c6.63,9.95,13.25,19.91,20.37,30.6,14.3-22.2,28.19-43.76,42.61-66.14Zm9.49,.73c-7.63,11.77-15.06,23.11-22.35,34.54-7.35,11.52-14.55,23.13-21.95,34.93,6.58,1.06,82.67,.79,86.75-.37-14.15-23.04-28.22-45.93-42.44-69.09Zm10.3-.4c1.97,5.05,37.32,62.1,40.19,64.81,.6-1.22,1.09-2.42,1.75-3.52,4.3-7.23,8.73-14.37,12.92-21.66,4.84-8.42,9.39-17,14.22-25.43,2.55-4.44,4.01-8.91,2.25-14.2H83.86Zm71.73,27.69c-8.59,13.93-16.79,27.77-24.98,42.74,8.92,.03,16.79,.09,24.98-.03v-42.7Z"/><g><path class="cls-1" d="M195.1,33.87c0-7.5,5.76-12.86,13.5-12.86,4.3,0,7.89,1.56,10.23,4.41l-3.7,3.41c-1.67-1.92-3.77-2.91-6.25-2.91-4.66,0-7.96,3.27-7.96,7.96s3.3,7.96,7.96,7.96c2.49,0,4.58-1,6.25-2.95l3.7,3.41c-2.35,2.88-5.93,4.44-10.27,4.44-7.71,0-13.47-5.37-13.47-12.86Z"/><path class="cls-1" d="M238.6,40.98h-11.55l-2.2,5.33h-5.9l11.09-24.88h5.69l11.12,24.88h-6.04l-2.2-5.33Zm-1.81-4.37l-3.94-9.52-3.94,9.52h7.89Z"/><path class="cls-1" d="M265.29,46.31l-4.8-6.93h-5.3v6.93h-5.76V21.43h10.77c6.65,0,10.8,3.45,10.8,9.03,0,3.73-1.88,6.47-5.12,7.85l5.58,8h-6.18Zm-5.4-20.19h-4.69v8.67h4.69c3.52,0,5.29-1.63,5.29-4.34s-1.78-4.34-5.29-4.34Z"/><path class="cls-1" d="M291.41,46.31l-4.8-6.93h-5.3v6.93h-5.76V21.43h10.77c6.65,0,10.8,3.45,10.8,9.03,0,3.73-1.88,6.47-5.12,7.85l5.58,8h-6.18Zm-5.4-20.19h-4.69v8.67h4.69c3.52,0,5.29-1.63,5.29-4.34s-1.78-4.34-5.29-4.34Z"/><path class="cls-1" d="M301.68,21.43h5.76v24.88h-5.76V21.43Z"/><path class="cls-1" d="M332.59,41.69v4.62h-19.26V21.43h18.8v4.62h-13.08v5.4h11.55v4.48h-11.55v5.76h13.54Z"/><path class="cls-1" d="M353.03,46.31l-4.8-6.93h-5.3v6.93h-5.76V21.43h10.77c6.65,0,10.8,3.45,10.8,9.03,0,3.73-1.88,6.47-5.12,7.85l5.58,8h-6.18Zm-5.4-20.19h-4.69v8.67h4.69c3.52,0,5.29-1.63,5.29-4.34s-1.78-4.34-5.29-4.34Z"/><path class="cls-1" d="M371.79,33.87c0-7.5,5.76-12.86,13.5-12.86,4.3,0,7.89,1.56,10.23,4.41l-3.7,3.41c-1.67-1.92-3.77-2.91-6.25-2.91-4.66,0-7.96,3.27-7.96,7.96s3.3,7.96,7.96,7.96c2.49,0,4.58-1,6.25-2.95l3.7,3.41c-2.35,2.88-5.93,4.44-10.27,4.44-7.71,0-13.47-5.37-13.47-12.86Z"/><path class="cls-1" d="M397.3,33.87c0-7.39,5.76-12.86,13.61-12.86s13.61,5.44,13.61,12.86-5.79,12.86-13.61,12.86-13.61-5.47-13.61-12.86Zm21.39,0c0-4.73-3.34-7.96-7.78-7.96s-7.78,3.23-7.78,7.96,3.34,7.96,7.78,7.96,7.78-3.23,7.78-7.96Z"/><path class="cls-1" d="M428.86,21.43h5.76v20.19h12.47v4.69h-18.23V21.43Z"/><path class="cls-1" d="M450.32,21.43h5.76v20.19h12.47v4.69h-18.23V21.43Z"/><path class="cls-1" d="M491.05,41.69v4.62h-19.26V21.43h18.8v4.62h-13.08v5.4h11.55v4.48h-11.55v5.76h13.54Z"/><path class="cls-1" d="M494,33.87c0-7.5,5.76-12.86,13.5-12.86,4.3,0,7.89,1.56,10.23,4.41l-3.7,3.41c-1.67-1.92-3.77-2.91-6.25-2.91-4.66,0-7.96,3.27-7.96,7.96s3.31,7.96,7.96,7.96c2.49,0,4.58-1,6.25-2.95l3.7,3.41c-2.35,2.88-5.93,4.44-10.27,4.44-7.71,0-13.47-5.37-13.47-12.86Z"/><path class="cls-1" d="M526.52,26.13h-7.96v-4.69h21.68v4.69h-7.96v20.19h-5.76V26.13Z"/><path class="cls-1" d="M543.32,21.43h5.76v24.88h-5.76V21.43Z"/><path class="cls-1" d="M553.42,33.87c0-7.39,5.76-12.86,13.61-12.86s13.61,5.44,13.61,12.86-5.79,12.86-13.61,12.86-13.61-5.47-13.61-12.86Zm21.39,0c0-4.73-3.34-7.96-7.78-7.96s-7.78,3.23-7.78,7.96,3.34,7.96,7.78,7.96,7.78-3.23,7.78-7.96Z"/><path class="cls-1" d="M607.79,21.43v24.88h-4.73l-12.4-15.1v15.1h-5.69V21.43h4.76l12.37,15.1v-15.1h5.69Z"/><path class="cls-1" d="M646.56,21.43v24.88h-5.76v-10.2h-11.3v10.2h-5.76V21.43h5.76v9.81h11.3v-9.81h5.76Z"/><path class="cls-1" d="M652.46,21.43h5.76v24.88h-5.76V21.43Z"/><path class="cls-1" d="M680.93,33.48h5.26v10.09c-2.74,2.06-6.5,3.16-10.06,3.16-7.82,0-13.58-5.37-13.58-12.86s5.76-12.86,13.68-12.86c4.37,0,8,1.49,10.41,4.3l-3.7,3.41c-1.81-1.92-3.91-2.81-6.43-2.81-4.83,0-8.14,3.23-8.14,7.96s3.31,7.96,8.07,7.96c1.56,0,3.02-.28,4.48-1.07v-7.29Z"/><path class="cls-1" d="M714.33,21.43v24.88h-5.76v-10.2h-11.3v10.2h-5.76V21.43h5.76v9.81h11.3v-9.81h5.76Z"/><path class="cls-1" d="M757.69,21.43l-8.14,24.88h-6.18l-5.47-16.84-5.65,16.84h-6.15l-8.17-24.88h5.97l5.62,17.48,5.86-17.48h5.33l5.69,17.63,5.79-17.63h5.51Z"/><path class="cls-1" d="M776.45,40.98h-11.55l-2.2,5.33h-5.9l11.09-24.88h5.69l11.12,24.88h-6.04l-2.2-5.33Zm-1.81-4.37l-3.95-9.52-3.94,9.52h7.89Z"/><path class="cls-1" d="M797.7,37.5v8.81h-5.76v-8.88l-9.63-15.99h6.11l6.65,11.05,6.65-11.05h5.65l-9.67,16.06Z"/></g><g><path class="cls-1" d="M218.09,94.47c0-4.53,3.52-7.88,8.33-7.88s8.33,3.33,8.33,7.88-3.55,7.88-8.33,7.88-8.33-3.35-8.33-7.88Zm13.1,0c0-2.89-2.05-4.87-4.77-4.87s-4.77,1.98-4.77,4.87,2.05,4.87,4.77,4.87,4.77-1.98,4.77-4.87Z"/><path class="cls-1" d="M249.14,95.39v6.7h-3.39v-6.18c0-1.89-.87-2.76-2.37-2.76-1.63,0-2.81,1-2.81,3.15v5.79h-3.39v-11.71h3.24v1.37c.91-1,2.28-1.54,3.87-1.54,2.76,0,4.85,1.61,4.85,5.18Z"/><path class="cls-1" d="M252.2,85.94h3.39v16.15h-3.39v-16.15Z"/><path class="cls-1" d="M258.34,86.86c0-1.07,.85-1.89,2.11-1.89s2.11,.78,2.11,1.83c0,1.13-.85,1.96-2.11,1.96s-2.11-.83-2.11-1.89Zm.41,3.52h3.39v11.71h-3.39v-11.71Z"/><path class="cls-1" d="M277.27,95.39v6.7h-3.39v-6.18c0-1.89-.87-2.76-2.37-2.76-1.63,0-2.81,1-2.81,3.15v5.79h-3.39v-11.71h3.24v1.37c.91-1,2.28-1.54,3.87-1.54,2.76,0,4.85,1.61,4.85,5.18Z"/><path class="cls-1" d="M291.86,97.19h-8.86c.33,1.46,1.57,2.35,3.35,2.35,1.24,0,2.13-.37,2.94-1.13l1.81,1.96c-1.09,1.24-2.72,1.89-4.83,1.89-4.05,0-6.68-2.55-6.68-6.03s2.68-6.03,6.24-6.03,6.09,2.31,6.09,6.07c0,.26-.04,.63-.07,.91Zm-8.9-1.98h5.77c-.24-1.48-1.35-2.44-2.87-2.44s-2.65,.94-2.89,2.44Z"/><path class="cls-1" d="M300.58,86.86h3.52v12.36h7.64v2.87h-11.16v-15.23Z"/><path class="cls-1" d="M312.53,96.23c0-3.52,2.72-6.03,6.44-6.03s6.42,2.5,6.42,6.03-2.7,6.03-6.42,6.03-6.44-2.5-6.44-6.03Zm9.42,0c0-2.02-1.28-3.24-2.98-3.24s-3,1.22-3,3.24,1.31,3.24,3,3.24,2.98-1.22,2.98-3.24Z"/><path class="cls-1" d="M337.81,95.41v6.68h-3.18v-1.46c-.63,1.07-1.85,1.63-3.57,1.63-2.74,0-4.37-1.52-4.37-3.55s1.46-3.5,5.03-3.5h2.7c0-1.46-.87-2.31-2.7-2.31-1.24,0-2.52,.41-3.37,1.09l-1.22-2.37c1.28-.91,3.18-1.41,5.05-1.41,3.57,0,5.64,1.65,5.64,5.2Zm-3.39,2.98v-1.2h-2.33c-1.59,0-2.09,.59-2.09,1.37,0,.85,.72,1.41,1.92,1.41,1.13,0,2.11-.52,2.5-1.59Z"/><path class="cls-1" d="M352.93,85.94v16.15h-3.24v-1.35c-.85,1.02-2.09,1.52-3.66,1.52-3.31,0-5.85-2.35-5.85-6.03s2.55-6.03,5.85-6.03c1.44,0,2.65,.46,3.5,1.41v-5.68h3.39Zm-3.33,10.29c0-2.02-1.31-3.24-2.98-3.24s-3,1.22-3,3.24,1.31,3.24,3,3.24,2.98-1.22,2.98-3.24Z"/><path class="cls-1" d="M355.62,94.6h6.16v2.72h-6.16v-2.72Z"/><path class="cls-1" d="M214.04,121.51v6.68h-3.18v-1.46c-.63,1.07-1.85,1.63-3.57,1.63-2.74,0-4.37-1.52-4.37-3.55s1.46-3.5,5.03-3.5h2.7c0-1.46-.87-2.31-2.7-2.31-1.24,0-2.52,.41-3.37,1.09l-1.22-2.37c1.28-.91,3.18-1.42,5.05-1.42,3.57,0,5.64,1.65,5.64,5.2Zm-3.39,2.98v-1.2h-2.33c-1.59,0-2.09,.59-2.09,1.37,0,.85,.72,1.42,1.92,1.42,1.13,0,2.11-.52,2.5-1.59Z"/><path class="cls-1" d="M224.65,127.63c-.7,.5-1.72,.74-2.76,.74-2.76,0-4.37-1.41-4.37-4.2v-4.81h-1.81v-2.61h1.81v-2.85h3.39v2.85h2.92v2.61h-2.92v4.76c0,1,.54,1.54,1.46,1.54,.5,0,1-.15,1.37-.43l.91,2.39Z"/><path class="cls-1" d="M225.32,122.34c0-3.52,2.72-6.03,6.53-6.03,2.46,0,4.4,1.07,5.24,2.98l-2.63,1.41c-.63-1.11-1.57-1.61-2.63-1.61-1.72,0-3.07,1.2-3.07,3.24s1.35,3.24,3.07,3.24c1.07,0,2-.48,2.63-1.61l2.63,1.44c-.85,1.87-2.79,2.96-5.24,2.96-3.81,0-6.53-2.5-6.53-6.03Z"/><path class="cls-1" d="M250.93,121.49v6.7h-3.39v-6.18c0-1.89-.87-2.76-2.37-2.76-1.63,0-2.81,1-2.81,3.16v5.79h-3.39v-16.15h3.39v5.66c.91-.91,2.22-1.39,3.72-1.39,2.76,0,4.85,1.61,4.85,5.18Z"/><path class="cls-1" d="M253.58,112.96c0-1.07,.85-1.89,2.11-1.89s2.11,.78,2.11,1.83c0,1.13-.85,1.96-2.11,1.96s-2.11-.83-2.11-1.89Zm.41,3.53h3.39v11.71h-3.39v-11.71Z"/><path class="cls-1" d="M272.51,121.49v6.7h-3.39v-6.18c0-1.89-.87-2.76-2.37-2.76-1.63,0-2.81,1-2.81,3.16v5.79h-3.39v-11.71h3.24v1.37c.91-1,2.28-1.54,3.87-1.54,2.76,0,4.85,1.61,4.85,5.18Z"/><path class="cls-1" d="M287.78,116.49v9.75c0,4.35-2.35,6.35-6.57,6.35-2.22,0-4.37-.54-5.74-1.61l1.35-2.44c1,.81,2.63,1.33,4.13,1.33,2.39,0,3.44-1.09,3.44-3.2v-.5c-.89,.98-2.18,1.46-3.7,1.46-3.24,0-5.85-2.24-5.85-5.66s2.61-5.66,5.85-5.66c1.63,0,2.98,.54,3.87,1.68v-1.5h3.22Zm-3.35,5.48c0-1.72-1.28-2.87-3.07-2.87s-3.09,1.15-3.09,2.87,1.31,2.87,3.09,2.87,3.07-1.15,3.07-2.87Z"/><path class="cls-1" d="M320.35,112.96l-4.98,15.23h-3.79l-3.35-10.31-3.46,10.31h-3.76l-5-15.23h3.66l3.44,10.71,3.59-10.71h3.26l3.48,10.79,3.55-10.79h3.37Z"/><path class="cls-1" d="M332.6,123.3h-8.86c.33,1.46,1.57,2.35,3.35,2.35,1.24,0,2.13-.37,2.94-1.13l1.81,1.96c-1.09,1.24-2.72,1.89-4.83,1.89-4.05,0-6.68-2.55-6.68-6.03s2.68-6.03,6.24-6.03,6.09,2.31,6.09,6.07c0,.26-.04,.63-.07,.91Zm-8.9-1.98h5.77c-.24-1.48-1.35-2.44-2.87-2.44s-2.65,.94-2.89,2.44Z"/><path class="cls-1" d="M347.67,122.34c0,3.68-2.55,6.03-5.83,6.03-1.57,0-2.83-.5-3.68-1.52v1.35h-3.24v-16.15h3.39v5.68c.87-.96,2.07-1.42,3.52-1.42,3.29,0,5.83,2.35,5.83,6.03Zm-3.44,0c0-2.02-1.28-3.24-2.98-3.24s-2.98,1.22-2.98,3.24,1.28,3.24,2.98,3.24,2.98-1.22,2.98-3.24Z"/><path class="cls-1" d="M348.8,127.11l1.13-2.44c1.04,.67,2.63,1.13,4.07,1.13,1.57,0,2.15-.41,2.15-1.07,0-1.91-7.07,.04-7.07-4.63,0-2.22,2-3.79,5.42-3.79,1.61,0,3.39,.37,4.5,1.02l-1.13,2.42c-1.15-.65-2.31-.87-3.37-.87-1.52,0-2.18,.48-2.18,1.09,0,2,7.07,.07,7.07,4.68,0,2.18-2.02,3.72-5.53,3.72-1.98,0-3.98-.54-5.07-1.26Z"/><path class="cls-1" d="M361.07,112.96c0-1.07,.85-1.89,2.11-1.89s2.11,.78,2.11,1.83c0,1.13-.85,1.96-2.11,1.96s-2.11-.83-2.11-1.89Zm.41,3.53h3.39v11.71h-3.39v-11.71Z"/><path class="cls-1" d="M375.58,127.63c-.7,.5-1.72,.74-2.76,.74-2.76,0-4.37-1.41-4.37-4.2v-4.81h-1.81v-2.61h1.81v-2.85h3.39v2.85h2.92v2.61h-2.92v4.76c0,1,.54,1.54,1.46,1.54,.5,0,1-.15,1.37-.43l.91,2.39Z"/><path class="cls-1" d="M388.53,123.3h-8.86c.33,1.46,1.57,2.35,3.35,2.35,1.24,0,2.13-.37,2.94-1.13l1.81,1.96c-1.09,1.24-2.72,1.89-4.83,1.89-4.05,0-6.68-2.55-6.68-6.03s2.68-6.03,6.24-6.03,6.09,2.31,6.09,6.07c0,.26-.04,.63-.07,.91Zm-8.9-1.98h5.77c-.24-1.48-1.35-2.44-2.87-2.44s-2.65,.94-2.89,2.44Z"/><path class="cls-1" d="M389.72,127.11l1.13-2.44c1.04,.67,2.63,1.13,4.07,1.13,1.57,0,2.15-.41,2.15-1.07,0-1.91-7.07,.04-7.07-4.63,0-2.22,2-3.79,5.42-3.79,1.61,0,3.39,.37,4.5,1.02l-1.13,2.42c-1.15-.65-2.31-.87-3.37-.87-1.52,0-2.18,.48-2.18,1.09,0,2,7.07,.07,7.07,4.68,0,2.18-2.02,3.72-5.53,3.72-1.98,0-3.98-.54-5.07-1.26Z"/></g><g><path class="cls-1" d="M414.84,91.25c0,1.26-.89,2.09-2.09,2.09s-2.11-.85-2.11-2.09c0-.57,.09-.98,.59-2.18l1.26-3.13h2.15l-.96,3.46c.72,.3,1.15,.96,1.15,1.85Zm5.13,0c0,1.26-.89,2.09-2.09,2.09s-2.11-.85-2.11-2.09c0-.57,.09-.98,.59-2.18l1.26-3.13h2.15l-.96,3.46c.72,.3,1.15,.96,1.15,1.85Z"/><path class="cls-1" d="M436.51,97.93c0,2.63-2.09,4.16-6.09,4.16h-7.88v-15.23h7.44c3.81,0,5.77,1.59,5.77,3.96,0,1.52-.78,2.7-2.02,3.35,1.7,.54,2.79,1.85,2.79,3.76Zm-10.47-8.42v3.59h3.5c1.72,0,2.65-.61,2.65-1.81s-.94-1.78-2.65-1.78h-3.5Zm6.92,8.05c0-1.28-.98-1.89-2.81-1.89h-4.11v3.76h4.11c1.83,0,2.81-.57,2.81-1.87Z"/><path class="cls-1" d="M450.34,97.19h-8.86c.33,1.46,1.57,2.35,3.35,2.35,1.24,0,2.13-.37,2.94-1.13l1.81,1.96c-1.09,1.24-2.72,1.89-4.83,1.89-4.05,0-6.68-2.55-6.68-6.03s2.68-6.03,6.24-6.03,6.09,2.31,6.09,6.07c0,.26-.04,.63-.07,.91Zm-8.9-1.98h5.77c-.24-1.48-1.35-2.44-2.87-2.44s-2.66,.94-2.89,2.44Z"/><path class="cls-1" d="M451.8,96.24c0-3.52,2.72-6.03,6.53-6.03,2.46,0,4.39,1.07,5.24,2.98l-2.63,1.41c-.63-1.11-1.57-1.61-2.63-1.61-1.72,0-3.07,1.2-3.07,3.24s1.35,3.24,3.07,3.24c1.07,0,2-.48,2.63-1.61l2.63,1.44c-.85,1.87-2.79,2.96-5.24,2.96-3.81,0-6.53-2.5-6.53-6.03Z"/><path class="cls-1" d="M464.5,96.24c0-3.52,2.72-6.03,6.44-6.03s6.42,2.5,6.42,6.03-2.7,6.03-6.42,6.03-6.44-2.5-6.44-6.03Zm9.42,0c0-2.02-1.28-3.24-2.98-3.24s-3,1.22-3,3.24,1.31,3.24,3,3.24,2.98-1.22,2.98-3.24Z"/><path class="cls-1" d="M499.4,95.39v6.7h-3.39v-6.18c0-1.89-.85-2.76-2.22-2.76-1.52,0-2.59,.98-2.59,3.07v5.88h-3.39v-6.18c0-1.89-.8-2.76-2.22-2.76-1.5,0-2.57,.98-2.57,3.07v5.88h-3.39v-11.71h3.24v1.35c.87-1,2.18-1.52,3.68-1.52,1.63,0,3.02,.63,3.85,1.91,.94-1.2,2.46-1.91,4.22-1.91,2.79,0,4.79,1.61,4.79,5.18Z"/><path class="cls-1" d="M513.98,97.19h-8.86c.33,1.46,1.57,2.35,3.35,2.35,1.24,0,2.13-.37,2.94-1.13l1.81,1.96c-1.09,1.24-2.72,1.89-4.83,1.89-4.05,0-6.68-2.55-6.68-6.03s2.68-6.03,6.25-6.03,6.09,2.31,6.09,6.07c0,.26-.04,.63-.06,.91Zm-8.9-1.98h5.77c-.24-1.48-1.35-2.44-2.87-2.44s-2.65,.94-2.89,2.44Z"/><path class="cls-1" d="M532.81,95.41v6.68h-3.18v-1.46c-.63,1.07-1.85,1.63-3.57,1.63-2.74,0-4.37-1.52-4.37-3.55s1.46-3.5,5.03-3.5h2.7c0-1.46-.87-2.31-2.7-2.31-1.24,0-2.52,.41-3.37,1.09l-1.22-2.37c1.28-.91,3.18-1.41,5.05-1.41,3.57,0,5.64,1.65,5.64,5.2Zm-3.39,2.98v-1.2h-2.33c-1.59,0-2.09,.59-2.09,1.37,0,.85,.72,1.41,1.92,1.41,1.13,0,2.11-.52,2.5-1.59Z"/><path class="cls-1" d="M541.32,94.47c0-4.59,3.53-7.88,8.27-7.88,2.63,0,4.83,.96,6.27,2.7l-2.26,2.09c-1.02-1.17-2.31-1.78-3.83-1.78-2.85,0-4.87,2-4.87,4.87s2.02,4.87,4.87,4.87c1.52,0,2.81-.61,3.83-1.81l2.26,2.09c-1.44,1.76-3.63,2.72-6.29,2.72-4.72,0-8.25-3.29-8.25-7.88Z"/><path class="cls-1" d="M568.25,95.41v6.68h-3.18v-1.46c-.63,1.07-1.85,1.63-3.57,1.63-2.74,0-4.37-1.52-4.37-3.55s1.46-3.5,5.03-3.5h2.7c0-1.46-.87-2.31-2.7-2.31-1.24,0-2.52,.41-3.37,1.09l-1.22-2.37c1.28-.91,3.18-1.41,5.05-1.41,3.57,0,5.64,1.65,5.64,5.2Zm-3.39,2.98v-1.2h-2.33c-1.59,0-2.09,.59-2.09,1.37,0,.85,.72,1.41,1.92,1.41,1.13,0,2.11-.52,2.5-1.59Z"/><path class="cls-1" d="M578.58,90.21v3.13c-.28-.02-.5-.04-.76-.04-1.87,0-3.11,1.02-3.11,3.26v5.53h-3.39v-11.71h3.24v1.54c.83-1.13,2.22-1.72,4.03-1.72Z"/><path class="cls-1" d="M587.87,90.21v3.13c-.28-.02-.5-.04-.76-.04-1.87,0-3.11,1.02-3.11,3.26v5.53h-3.39v-11.71h3.24v1.54c.83-1.13,2.22-1.72,4.03-1.72Z"/><path class="cls-1" d="M589.48,86.86c0-1.07,.85-1.89,2.11-1.89s2.11,.78,2.11,1.83c0,1.13-.85,1.96-2.11,1.96s-2.11-.83-2.11-1.89Zm.41,3.52h3.39v11.71h-3.39v-11.71Z"/><path class="cls-1" d="M607.84,97.19h-8.86c.33,1.46,1.57,2.35,3.35,2.35,1.24,0,2.13-.37,2.94-1.13l1.81,1.96c-1.09,1.24-2.72,1.89-4.83,1.89-4.05,0-6.68-2.55-6.68-6.03s2.68-6.03,6.25-6.03,6.09,2.31,6.09,6.07c0,.26-.04,.63-.06,.91Zm-8.9-1.98h5.77c-.24-1.48-1.35-2.44-2.87-2.44s-2.65,.94-2.89,2.44Z"/><path class="cls-1" d="M617.44,90.21v3.13c-.28-.02-.5-.04-.76-.04-1.87,0-3.11,1.02-3.11,3.26v5.53h-3.39v-11.71h3.24v1.54c.83-1.13,2.22-1.72,4.03-1.72Z"/><path class="cls-1" d="M623.72,87.86c0,.57-.09,.98-.57,2.18l-1.26,3.13h-2.15l.94-3.44c-.7-.3-1.15-.96-1.15-1.87,0-1.26,.91-2.09,2.11-2.09s2.09,.85,2.09,2.09Zm5.13,0c0,.57-.09,.98-.57,2.18l-1.26,3.13h-2.15l.94-3.44c-.7-.3-1.15-.96-1.15-1.87,0-1.26,.91-2.09,2.11-2.09s2.09,.85,2.09,2.09Z"/><path class="cls-1" d="M480.25,112.96l-4.98,15.23h-3.79l-3.35-10.31-3.46,10.31h-3.76l-5-15.23h3.66l3.44,10.71,3.59-10.71h3.26l3.48,10.79,3.55-10.79h3.37Z"/><path class="cls-1" d="M492.49,123.3h-8.86c.33,1.46,1.57,2.35,3.35,2.35,1.24,0,2.13-.37,2.94-1.13l1.81,1.96c-1.09,1.24-2.72,1.89-4.83,1.89-4.05,0-6.68-2.55-6.68-6.03s2.68-6.03,6.25-6.03,6.09,2.31,6.09,6.07c0,.26-.04,.63-.06,.91Zm-8.9-1.98h5.77c-.24-1.48-1.35-2.44-2.87-2.44s-2.65,.94-2.89,2.44Z"/><path class="cls-1" d="M507.57,122.34c0,3.68-2.55,6.03-5.83,6.03-1.57,0-2.83-.5-3.68-1.52v1.35h-3.24v-16.15h3.39v5.68c.87-.96,2.07-1.42,3.53-1.42,3.29,0,5.83,2.35,5.83,6.03Zm-3.44,0c0-2.02-1.28-3.24-2.98-3.24s-2.98,1.22-2.98,3.24,1.28,3.24,2.98,3.24,2.98-1.22,2.98-3.24Z"/><path class="cls-1" d="M529.43,118.49c0,3.39-2.55,5.5-6.61,5.5h-3.07v4.2h-3.53v-15.23h6.59c4.07,0,6.61,2.11,6.61,5.53Zm-3.57,0c0-1.68-1.09-2.66-3.24-2.66h-2.87v5.29h2.87c2.15,0,3.24-.98,3.24-2.63Z"/><path class="cls-1" d="M541.94,121.51v6.68h-3.18v-1.46c-.63,1.07-1.85,1.63-3.57,1.63-2.74,0-4.37-1.52-4.37-3.55s1.46-3.5,5.03-3.5h2.7c0-1.46-.87-2.31-2.7-2.31-1.24,0-2.52,.41-3.37,1.09l-1.22-2.37c1.28-.91,3.18-1.42,5.05-1.42,3.57,0,5.64,1.65,5.64,5.2Zm-3.39,2.98v-1.2h-2.33c-1.59,0-2.09,.59-2.09,1.37,0,.85,.72,1.42,1.92,1.42,1.13,0,2.11-.52,2.5-1.59Z"/><path class="cls-1" d="M557.21,116.49v9.75c0,4.35-2.35,6.35-6.57,6.35-2.22,0-4.37-.54-5.74-1.61l1.35-2.44c1,.81,2.63,1.33,4.13,1.33,2.39,0,3.44-1.09,3.44-3.2v-.5c-.89,.98-2.18,1.46-3.7,1.46-3.24,0-5.85-2.24-5.85-5.66s2.61-5.66,5.85-5.66c1.63,0,2.98,.54,3.87,1.68v-1.5h3.22Zm-3.35,5.48c0-1.72-1.28-2.87-3.07-2.87s-3.09,1.15-3.09,2.87,1.31,2.87,3.09,2.87,3.07-1.15,3.07-2.87Z"/><path class="cls-1" d="M571.77,123.3h-8.86c.33,1.46,1.57,2.35,3.35,2.35,1.24,0,2.13-.37,2.94-1.13l1.81,1.96c-1.09,1.24-2.72,1.89-4.83,1.89-4.05,0-6.68-2.55-6.68-6.03s2.68-6.03,6.25-6.03,6.09,2.31,6.09,6.07c0,.26-.04,.63-.06,.91Zm-8.9-1.98h5.77c-.24-1.48-1.35-2.44-2.87-2.44s-2.65,.94-2.89,2.44Z"/><path class="cls-1" d="M572.96,127.11l1.13-2.44c1.04,.67,2.63,1.13,4.07,1.13,1.57,0,2.15-.41,2.15-1.07,0-1.91-7.07,.04-7.07-4.63,0-2.22,2-3.79,5.42-3.79,1.61,0,3.39,.37,4.5,1.02l-1.13,2.42c-1.15-.65-2.31-.87-3.37-.87-1.52,0-2.18,.48-2.18,1.09,0,2,7.07,.07,7.07,4.68,0,2.18-2.02,3.72-5.53,3.72-1.98,0-3.98-.54-5.07-1.26Z"/></g><g><path class="cls-1" d="M709.97,128.19l-2.94-4.24h-3.24v4.24h-3.53v-15.23h6.59c4.07,0,6.61,2.11,6.61,5.53,0,2.28-1.15,3.96-3.13,4.81l3.42,4.9h-3.79Zm-3.31-12.36h-2.87v5.31h2.87c2.15,0,3.24-1,3.24-2.65s-1.09-2.65-3.24-2.65Z"/><path class="cls-1" d="M727.42,123.3h-8.86c.33,1.46,1.57,2.35,3.35,2.35,1.24,0,2.13-.37,2.94-1.13l1.81,1.96c-1.09,1.24-2.72,1.89-4.83,1.89-4.05,0-6.68-2.55-6.68-6.03s2.68-6.03,6.25-6.03,6.09,2.31,6.09,6.07c0,.26-.04,.63-.06,.91Zm-8.9-1.98h5.77c-.24-1.48-1.35-2.44-2.87-2.44s-2.65,.94-2.89,2.44Z"/><path class="cls-1" d="M733.46,116.75h3v2.61h-2.92v8.83h-3.39v-8.83h-1.81v-2.61h1.81v-.52c0-2.63,1.61-4.35,4.53-4.35,.96,0,1.96,.2,2.59,.63l-.89,2.46c-.37-.26-.85-.41-1.37-.41-1,0-1.54,.54-1.54,1.7v.5Z"/><path class="cls-1" d="M749.41,123.3h-8.86c.33,1.46,1.57,2.35,3.35,2.35,1.24,0,2.13-.37,2.94-1.13l1.81,1.96c-1.09,1.24-2.72,1.89-4.83,1.89-4.05,0-6.68-2.55-6.68-6.03s2.68-6.03,6.25-6.03,6.09,2.31,6.09,6.07c0,.26-.04,.63-.06,.91Zm-8.9-1.98h5.77c-.24-1.48-1.35-2.44-2.87-2.44s-2.65,.94-2.89,2.44Z"/><path class="cls-1" d="M759,116.31v3.13c-.28-.02-.5-.04-.76-.04-1.87,0-3.11,1.02-3.11,3.26v5.53h-3.39v-11.71h3.24v1.54c.83-1.13,2.22-1.72,4.03-1.72Z"/><path class="cls-1" d="M768.29,116.31v3.13c-.28-.02-.5-.04-.76-.04-1.87,0-3.11,1.02-3.11,3.26v5.53h-3.39v-11.71h3.24v1.54c.83-1.13,2.22-1.72,4.03-1.72Z"/><path class="cls-1" d="M780.61,121.51v6.68h-3.18v-1.46c-.63,1.07-1.85,1.63-3.57,1.63-2.74,0-4.37-1.52-4.37-3.55s1.46-3.5,5.03-3.5h2.7c0-1.46-.87-2.31-2.7-2.31-1.24,0-2.52,.41-3.37,1.09l-1.22-2.37c1.28-.91,3.18-1.41,5.05-1.41,3.57,0,5.64,1.65,5.64,5.2Zm-3.39,2.98v-1.2h-2.33c-1.59,0-2.09,.59-2.09,1.37,0,.85,.72,1.41,1.92,1.41,1.13,0,2.11-.52,2.5-1.59Z"/><path class="cls-1" d="M783.67,112.05h3.39v16.15h-3.39v-16.15Z"/><path class="cls-1" d="M789.09,127.11l1.13-2.44c1.04,.67,2.63,1.13,4.07,1.13,1.57,0,2.15-.41,2.15-1.07,0-1.92-7.07,.04-7.07-4.63,0-2.22,2-3.79,5.42-3.79,1.61,0,3.39,.37,4.5,1.02l-1.13,2.42c-1.15-.65-2.31-.87-3.37-.87-1.52,0-2.18,.48-2.18,1.09,0,2,7.07,.07,7.07,4.68,0,2.18-2.02,3.72-5.53,3.72-1.98,0-3.98-.54-5.07-1.26Z"/></g></g><path class="cls-1" d="M196.86,128.48l-.02-9.33-4.58,7.69h-1.62l-4.55-7.49v9.13h-3.38v-15.55h2.98l5.82,9.66,5.73-9.66h2.96l.04,15.55h-3.38Z"/></g></g></svg>