<?xml version="1.0" encoding="utf-8"?>
<!-- Generator: Adobe Illustrator 26.0.3, SVG Export Plug-In . SVG Version: 6.00 Build 0)  -->
<svg version="1.1" id="Layer_1" xmlns="http://www.w3.org/2000/svg" xmlns:xlink="http://www.w3.org/1999/xlink" x="0px" y="0px"
	 viewBox="0 0 850 81" style="enable-background:new 0 0 850 81;" xml:space="preserve">
<style type="text/css">
	.st0{fill:url(#Rectangle_59_00000082345090454112516560000004234368385761343116_);}
	.st1{enable-background:new    ;}
</style>
<g id="Group_168" transform="translate(-299 -3346)">
	<g id="Group_20" transform="translate(227 1482)">
		
			<linearGradient id="Rectangle_59_00000002362561026500234670000016369672767173267132_" gradientUnits="userSpaceOnUse" x1="190.8568" y1="2293.1042" x2="191.8378" y2="2293.1042" gradientTransform="matrix(777 0 0 -48 -148183 111957)">
			<stop  offset="0" style="stop-color:#0071B7"/>
			<stop  offset="0.308" style="stop-color:#31802D"/>
			<stop  offset="0.645" style="stop-color:#FFEB00"/>
			<stop  offset="1" style="stop-color:#AB161B"/>
		</linearGradient>
		
			<rect id="Rectangle_59" x="105" y="1864" style="fill:url(#Rectangle_59_00000002362561026500234670000016369672767173267132_);" width="777" height="48"/>
		<g class="st1">
			<path d="M100.3,1925.4v12.6h-2.9l-5.6-6.7v6.7h-3.5v-12.6h2.9l5.6,6.7v-6.7H100.3z"/>
			<path d="M102,1933.1c0-2.9,2.3-5,5.5-5c3.2,0,5.5,2.1,5.5,5c0,3-2.3,5.1-5.5,5.1C104.3,1938.2,102,1936.1,102,1933.1z
				 M109.6,1933.1c0-1.5-0.9-2.3-2.1-2.3c-1.2,0-2.1,0.8-2.1,2.3c0,1.5,0.9,2.3,2.1,2.3C108.7,1935.4,109.6,1934.6,109.6,1933.1z"/>
			<path d="M125,1932.4v5.6h-3.4v-5c0-1.4-0.6-2-1.6-2c-1.1,0-1.9,0.7-1.9,2.3v4.7h-3.4v-9.8h3.3v1.1c0.8-0.8,1.9-1.2,3.1-1.2
				C123.2,1928.1,125,1929.4,125,1932.4z"/>
			<path d="M137.2,1934h-7.1c0.3,1,1.1,1.6,2.4,1.6c1,0,1.6-0.3,2.3-0.8l1.8,1.9c-0.9,1-2.3,1.6-4.2,1.6c-3.5,0-5.7-2.1-5.7-5.1
				c0-2.9,2.3-5,5.4-5c2.9,0,5.2,1.8,5.2,5.1C137.2,1933.4,137.2,1933.7,137.2,1934z M130,1932.2h4c-0.2-1-0.9-1.7-2-1.7
				C131,1930.5,130.2,1931.2,130,1932.2z"/>
		</g>
		<g class="st1">
			<path d="M279.5,1936.9l1.2-2.6c1.1,0.7,2.7,1.2,4.2,1.2c1.5,0,2.1-0.4,2.1-1c0-2-7.2-0.5-7.2-5.2c0-2.3,1.8-4.1,5.6-4.1
				c1.6,0,3.3,0.4,4.6,1.1l-1.1,2.6c-1.2-0.6-2.4-1-3.5-1c-1.5,0-2,0.5-2,1.1c0,1.9,7.1,0.5,7.1,5.1c0,2.2-1.8,4.1-5.6,4.1
				C282.7,1938.3,280.7,1937.7,279.5,1936.9z"/>
			<path d="M301,1932.6v5.4h-3.2v-1.3c-0.5,0.9-1.5,1.4-2.9,1.4c-2.3,0-3.6-1.3-3.6-3c0-1.8,1.3-2.9,4.3-2.9h1.9
				c-0.1-1-0.7-1.5-2.1-1.5c-0.9,0-2,0.3-2.6,0.8l-1.2-2.3c1.1-0.7,2.8-1.1,4.3-1.1C299.2,1928.1,301,1929.5,301,1932.6z
				 M297.6,1934.9v-0.8h-1.5c-1.1,0-1.5,0.4-1.5,1c0,0.6,0.5,1,1.3,1C296.6,1936,297.3,1935.6,297.6,1934.9z"/>
			<path d="M309.9,1937.6c-0.6,0.4-1.5,0.6-2.4,0.6c-2.5,0-4-1.2-4-3.7v-3.3h-1.4v-2.6h1.4v-2.5h3.4v2.5h2.2v2.6H307v3.2
				c0,0.7,0.4,1.1,1,1.1c0.4,0,0.8-0.1,1-0.3L309.9,1937.6z"/>
			<path d="M310.8,1925.3c0-1,0.8-1.8,2.1-1.8c1.3,0,2.1,0.7,2.1,1.8c0,1.1-0.8,1.9-2.1,1.9C311.6,1927.2,310.8,1926.4,310.8,1925.3
				z M311.2,1928.2h3.4v9.8h-3.4V1928.2z"/>
			<path d="M316,1937.2l1-2.3c0.9,0.6,2.2,0.9,3.4,0.9c1.2,0,1.5-0.3,1.5-0.7c0-1.3-5.8,0.2-5.8-3.7c0-1.8,1.7-3.2,4.8-3.2
				c1.4,0,2.9,0.3,3.9,0.8l-1,2.3c-1-0.5-1.9-0.7-2.8-0.7c-1.2,0-1.6,0.3-1.6,0.7c0,1.3,5.7-0.1,5.7,3.8c0,1.8-1.7,3.2-4.8,3.2
				C318.7,1938.2,317,1937.7,316,1937.2z"/>
			<path d="M330.4,1928.6h2.3v2.6h-2.2v6.8h-3.4v-6.8h-1.4v-2.6h1.4v-0.3c0-2.3,1.5-3.9,4.1-3.9c0.8,0,1.7,0.2,2.3,0.5l-0.8,2.4
				c-0.3-0.2-0.7-0.3-1-0.3c-0.7,0-1.1,0.4-1.1,1.3V1928.6z"/>
			<path d="M342.9,1932.6v5.4h-3.2v-1.3c-0.5,0.9-1.5,1.4-2.9,1.4c-2.3,0-3.6-1.3-3.6-3c0-1.8,1.3-2.9,4.3-2.9h1.9
				c-0.1-1-0.7-1.5-2.1-1.5c-0.9,0-2,0.3-2.6,0.8l-1.2-2.3c1.1-0.7,2.8-1.1,4.3-1.1C341.1,1928.1,342.9,1929.5,342.9,1932.6z
				 M339.5,1934.9v-0.8H338c-1.1,0-1.5,0.4-1.5,1c0,0.6,0.5,1,1.3,1C338.6,1936,339.2,1935.6,339.5,1934.9z"/>
			<path d="M344.6,1933.1c0-2.9,2.3-5,5.6-5c2.2,0,3.9,1,4.6,2.7l-2.6,1.4c-0.5-0.9-1.2-1.3-1.9-1.3c-1.2,0-2.1,0.8-2.1,2.3
				c0,1.5,0.9,2.3,2.1,2.3c0.8,0,1.5-0.4,1.9-1.3l2.6,1.4c-0.7,1.7-2.4,2.7-4.6,2.7C346.9,1938.2,344.6,1936.1,344.6,1933.1z"/>
			<path d="M363,1937.6c-0.6,0.4-1.5,0.6-2.4,0.6c-2.5,0-4-1.2-4-3.7v-3.3h-1.4v-2.6h1.4v-2.5h3.4v2.5h2.2v2.6h-2.2v3.2
				c0,0.7,0.4,1.1,1,1.1c0.4,0,0.8-0.1,1-0.3L363,1937.6z"/>
			<path d="M363.4,1933.1c0-2.9,2.3-5,5.5-5c3.2,0,5.5,2.1,5.5,5c0,3-2.3,5.1-5.5,5.1C365.7,1938.2,363.4,1936.1,363.4,1933.1z
				 M371,1933.1c0-1.5-0.9-2.3-2.1-2.3c-1.2,0-2.1,0.8-2.1,2.3c0,1.5,0.9,2.3,2.1,2.3C370.1,1935.4,371,1934.6,371,1933.1z"/>
			<path d="M382.5,1928.1v3.1c-0.3,0-0.5-0.1-0.8-0.1c-1.4,0-2.3,0.7-2.3,2.4v4.5H376v-9.8h3.3v1.2
				C380,1928.5,381.1,1928.1,382.5,1928.1z"/>
			<path d="M394.5,1928.2l-4.2,10.2c-1,2.5-2.5,3.3-4.4,3.3c-1,0-2.2-0.3-2.8-0.9l1.2-2.4c0.4,0.4,1,0.6,1.5,0.6
				c0.7,0,1-0.3,1.3-0.8l-4.2-9.9h3.5l2.4,6l2.4-6H394.5z"/>
		</g>
		<g class="st1">
			<path d="M782.7,1933.4v-7h3.6v6.9c0,2.2,0.9,3,2.4,3c1.5,0,2.4-0.9,2.4-3v-6.9h3.5v7c0,3.8-2.2,5.9-5.9,5.9
				S782.7,1937.1,782.7,1933.4z"/>
			<path d="M807.1,1933.4v5.6h-3.4v-5c0-1.4-0.6-2-1.6-2c-1.1,0-1.9,0.7-1.9,2.3v4.7h-3.4v-9.8h3.3v1.1c0.8-0.8,1.9-1.2,3.1-1.2
				C805.4,1929.1,807.1,1930.4,807.1,1933.4z"/>
			<path d="M808.5,1938.2l1-2.3c0.9,0.6,2.2,0.9,3.4,0.9c1.2,0,1.5-0.3,1.5-0.7c0-1.3-5.8,0.2-5.8-3.7c0-1.8,1.7-3.2,4.8-3.2
				c1.4,0,2.9,0.3,3.9,0.8l-1,2.3c-1-0.5-1.9-0.7-2.8-0.7c-1.2,0-1.6,0.3-1.6,0.7c0,1.3,5.7-0.1,5.7,3.8c0,1.8-1.7,3.2-4.8,3.2
				C811.2,1939.2,809.5,1938.7,808.5,1938.2z"/>
			<path d="M828.3,1933.6v5.4h-3.2v-1.3c-0.5,0.9-1.5,1.4-2.9,1.4c-2.3,0-3.6-1.3-3.6-3c0-1.8,1.3-2.9,4.3-2.9h1.9
				c-0.1-1-0.7-1.5-2.1-1.5c-0.9,0-2,0.3-2.6,0.8l-1.2-2.3c1.1-0.7,2.8-1.1,4.3-1.1C826.5,1929.1,828.3,1930.5,828.3,1933.6z
				 M824.9,1935.9v-0.8h-1.5c-1.1,0-1.5,0.4-1.5,1c0,0.6,0.5,1,1.3,1C823.9,1937,824.6,1936.6,824.9,1935.9z"/>
			<path d="M837.2,1938.6c-0.6,0.4-1.5,0.6-2.4,0.6c-2.5,0-4-1.2-4-3.7v-3.3h-1.4v-2.6h1.4v-2.5h3.4v2.5h2.2v2.6h-2.2v3.2
				c0,0.7,0.4,1.1,1,1.1c0.4,0,0.8-0.1,1-0.3L837.2,1938.6z"/>
			<path d="M838.1,1926.3c0-1,0.8-1.8,2.1-1.8s2.1,0.7,2.1,1.8c0,1.1-0.8,1.9-2.1,1.9S838.1,1927.4,838.1,1926.3z M838.5,1929.2h3.4
				v9.8h-3.4V1929.2z"/>
			<path d="M843.3,1938.2l1-2.3c0.9,0.6,2.2,0.9,3.4,0.9c1.2,0,1.5-0.3,1.5-0.7c0-1.3-5.8,0.2-5.8-3.7c0-1.8,1.7-3.2,4.8-3.2
				c1.4,0,2.9,0.3,3.9,0.8l-1,2.3c-1-0.5-1.9-0.7-2.8-0.7c-1.2,0-1.6,0.3-1.6,0.7c0,1.3,5.7-0.1,5.7,3.8c0,1.8-1.7,3.2-4.8,3.2
				C846,1939.2,844.3,1938.7,843.3,1938.2z"/>
			<path d="M857.7,1929.6h2.3v2.6h-2.2v6.8h-3.4v-6.8h-1.4v-2.6h1.4v-0.3c0-2.3,1.5-3.9,4.1-3.9c0.8,0,1.7,0.2,2.3,0.5l-0.8,2.4
				c-0.3-0.2-0.7-0.3-1-0.3c-0.7,0-1.1,0.4-1.1,1.3V1929.6z"/>
			<path d="M870.2,1933.6v5.4h-3.2v-1.3c-0.5,0.9-1.5,1.4-2.9,1.4c-2.3,0-3.6-1.3-3.6-3c0-1.8,1.3-2.9,4.3-2.9h1.9
				c-0.1-1-0.7-1.5-2.1-1.5c-0.9,0-2,0.3-2.6,0.8l-1.2-2.3c1.1-0.7,2.8-1.1,4.3-1.1C868.4,1929.1,870.2,1930.5,870.2,1933.6z
				 M866.8,1935.9v-0.8h-1.5c-1.1,0-1.5,0.4-1.5,1c0,0.6,0.5,1,1.3,1C865.9,1937,866.5,1936.6,866.8,1935.9z"/>
			<path d="M871.9,1934.1c0-2.9,2.3-5,5.6-5c2.2,0,3.9,1,4.6,2.7l-2.6,1.4c-0.5-0.9-1.2-1.3-1.9-1.3c-1.2,0-2.1,0.8-2.1,2.3
				c0,1.5,0.9,2.3,2.1,2.3c0.8,0,1.5-0.4,1.9-1.3l2.6,1.4c-0.7,1.7-2.4,2.7-4.6,2.7C874.2,1939.2,871.9,1937.1,871.9,1934.1z"/>
			<path d="M890.3,1938.6c-0.6,0.4-1.5,0.6-2.4,0.6c-2.5,0-4-1.2-4-3.7v-3.3h-1.4v-2.6h1.4v-2.5h3.4v2.5h2.2v2.6h-2.2v3.2
				c0,0.7,0.4,1.1,1,1.1c0.4,0,0.8-0.1,1-0.3L890.3,1938.6z"/>
			<path d="M890.7,1934.1c0-2.9,2.3-5,5.5-5c3.2,0,5.5,2.1,5.5,5c0,3-2.3,5.1-5.5,5.1C893,1939.2,890.7,1937.1,890.7,1934.1z
				 M898.3,1934.1c0-1.5-0.9-2.3-2.1-2.3c-1.2,0-2.1,0.8-2.1,2.3c0,1.5,0.9,2.3,2.1,2.3C897.4,1936.4,898.3,1935.6,898.3,1934.1z"/>
			<path d="M909.8,1929.1v3.1c-0.3,0-0.5-0.1-0.8-0.1c-1.4,0-2.3,0.7-2.3,2.4v4.5h-3.4v-9.8h3.3v1.2
				C907.3,1929.5,908.4,1929.1,909.8,1929.1z"/>
			<path d="M921.8,1929.2l-4.2,10.2c-1,2.5-2.5,3.3-4.4,3.3c-1,0-2.2-0.3-2.8-0.9l1.2-2.4c0.4,0.4,1,0.6,1.5,0.6
				c0.7,0,1-0.3,1.3-0.8l-4.2-9.9h3.5l2.4,6l2.4-6H921.8z"/>
		</g>
		<g class="st1">
			<path d="M541.1,1932.7c0-3.8,2.9-6.6,6.9-6.6c2.3,0,4.2,0.8,5.4,2.4l-2.3,2.1c-0.8-1-1.8-1.5-3-1.5c-2.1,0-3.5,1.4-3.5,3.6
				c0,2.2,1.4,3.6,3.5,3.6c1.2,0,2.2-0.5,3-1.5l2.3,2.1c-1.2,1.5-3.1,2.4-5.4,2.4C544,1939.3,541.1,1936.5,541.1,1932.7z"/>
			<path d="M553.9,1934.1c0-2.9,2.3-5,5.5-5c3.2,0,5.5,2.1,5.5,5c0,3-2.3,5.1-5.5,5.1C556.2,1939.2,553.9,1937.1,553.9,1934.1z
				 M561.5,1934.1c0-1.5-0.9-2.3-2.1-2.3c-1.2,0-2.1,0.8-2.1,2.3c0,1.5,0.9,2.3,2.1,2.3C560.6,1936.4,561.5,1935.6,561.5,1934.1z"/>
			<path d="M576.9,1933.4v5.6h-3.4v-5c0-1.4-0.6-2-1.6-2c-1.1,0-1.9,0.7-1.9,2.3v4.7h-3.4v-9.8h3.3v1.1c0.8-0.8,1.9-1.2,3.1-1.2
				C575.2,1929.1,576.9,1930.4,576.9,1933.4z"/>
			<path d="M589.6,1925.6v13.4h-3.3v-1c-0.6,0.8-1.6,1.1-2.9,1.1c-2.7,0-4.8-1.9-4.8-5.1c0-3.1,2.1-5,4.8-5c1.1,0,2.1,0.3,2.7,1
				v-4.4H589.6z M586.2,1934.1c0-1.5-0.9-2.3-2-2.3c-1.2,0-2.1,0.8-2.1,2.3c0,1.5,0.9,2.3,2.1,2.3
				C585.3,1936.4,586.2,1935.6,586.2,1934.1z"/>
			<path d="M591.4,1926.3c0-1,0.8-1.8,2.1-1.8c1.3,0,2.1,0.7,2.1,1.8c0,1.1-0.8,1.9-2.1,1.9C592.2,1928.2,591.4,1927.4,591.4,1926.3
				z M591.8,1929.2h3.4v9.8h-3.4V1929.2z"/>
			<path d="M604.1,1938.6c-0.6,0.4-1.5,0.6-2.4,0.6c-2.5,0-4-1.2-4-3.7v-3.3h-1.4v-2.6h1.4v-2.5h3.4v2.5h2.2v2.6h-2.2v3.2
				c0,0.7,0.4,1.1,1,1.1c0.4,0,0.8-0.1,1-0.3L604.1,1938.6z"/>
			<path d="M605.1,1926.3c0-1,0.8-1.8,2.1-1.8s2.1,0.7,2.1,1.8c0,1.1-0.8,1.9-2.1,1.9S605.1,1927.4,605.1,1926.3z M605.4,1929.2h3.4
				v9.8h-3.4V1929.2z"/>
			<path d="M610.5,1934.1c0-2.9,2.3-5,5.5-5c3.2,0,5.5,2.1,5.5,5c0,3-2.3,5.1-5.5,5.1C612.8,1939.2,610.5,1937.1,610.5,1934.1z
				 M618,1934.1c0-1.5-0.9-2.3-2.1-2.3c-1.2,0-2.1,0.8-2.1,2.3c0,1.5,0.9,2.3,2.1,2.3C617.1,1936.4,618,1935.6,618,1934.1z"/>
			<path d="M633.4,1933.4v5.6H630v-5c0-1.4-0.6-2-1.6-2c-1.1,0-1.9,0.7-1.9,2.3v4.7h-3.4v-9.8h3.3v1.1c0.8-0.8,1.9-1.2,3.1-1.2
				C631.7,1929.1,633.4,1930.4,633.4,1933.4z"/>
			<path d="M644.7,1933.6v5.4h-3.2v-1.3c-0.5,0.9-1.5,1.4-2.9,1.4c-2.3,0-3.6-1.3-3.6-3c0-1.8,1.3-2.9,4.3-2.9h1.9
				c-0.1-1-0.7-1.5-2.1-1.5c-0.9,0-2,0.3-2.6,0.8l-1.2-2.3c1.1-0.7,2.8-1.1,4.3-1.1C642.9,1929.1,644.7,1930.5,644.7,1933.6z
				 M641.3,1935.9v-0.8h-1.5c-1.1,0-1.5,0.4-1.5,1c0,0.6,0.5,1,1.3,1C640.4,1937,641,1936.6,641.3,1935.9z"/>
			<path d="M646.9,1925.6h3.4v13.4h-3.4V1925.6z"/>
		</g>
	</g>
</g>
</svg>
