<svg id="ae8635b8-d879-4979-86db-3382df363b74" data-name="Layer 1" xmlns="http://www.w3.org/2000/svg" viewBox="0 0 803.94 803.94"><defs><style>.ad8e3efe-ce39-4e69-9499-87f54bfeb1d4,.b8c80951-8e78-4625-bbd7-ba0b6970d9f2{fill:none;}.ac0f2306-ddb7-4196-b0bb-d0addd9a13d3,.ad8e3efe-ce39-4e69-9499-87f54bfeb1d4,.b8c80951-8e78-4625-bbd7-ba0b6970d9f2{stroke:#526d77;stroke-linejoin:round;}.ac0f2306-ddb7-4196-b0bb-d0addd9a13d3,.b8c80951-8e78-4625-bbd7-ba0b6970d9f2{stroke-linecap:round;stroke-width:15px;}.ac0f2306-ddb7-4196-b0bb-d0addd9a13d3{fill:#fff;}.ad8e3efe-ce39-4e69-9499-87f54bfeb1d4{stroke-width:6px;}</style></defs><line class="b8c80951-8e78-4625-bbd7-ba0b6970d9f2" x1="196.3" y1="429.59" x2="267.14" y2="429.59"/><path class="b8c80951-8e78-4625-bbd7-ba0b6970d9f2" d="M38.33,524.63V467.31a8.09,8.09,0,0,1,8.09-8.09h67.2l10.49-29.63"/><path class="b8c80951-8e78-4625-bbd7-ba0b6970d9f2" d="M105.6,529.57h166V395s-135.82-9.26-146.42,32"/><circle class="b8c80951-8e78-4625-bbd7-ba0b6970d9f2" cx="84.02" cy="522.16" r="19.13"/><path class="b8c80951-8e78-4625-bbd7-ba0b6970d9f2" d="M174.61,491.49v-111a32.36,32.36,0,0,1,14-26.68h0"/><line class="b8c80951-8e78-4625-bbd7-ba0b6970d9f2" x1="271.27" y1="498.41" x2="123.07" y2="498.41"/><circle class="ac0f2306-ddb7-4196-b0bb-d0addd9a13d3" cx="356.82" cy="522.16" r="19.13"/><circle class="ac0f2306-ddb7-4196-b0bb-d0addd9a13d3" cx="304.87" cy="522.16" r="19.13"/><circle class="ac0f2306-ddb7-4196-b0bb-d0addd9a13d3" cx="411.12" cy="522.16" r="19.13"/><polyline class="b8c80951-8e78-4625-bbd7-ba0b6970d9f2" points="279.25 486.93 429.67 486.93 465.84 520.85 765.61 520.85"/><g id="a3fa2a55-74c5-4e38-ae9b-19f11c6c1c6e" data-name="weight"><path class="b8c80951-8e78-4625-bbd7-ba0b6970d9f2" d="M474.12,515.17l64.92-178a14.12,14.12,0,0,1,13.26-9.28H675a14.12,14.12,0,0,1,13.26,9.28l64.91,178"/><path class="b8c80951-8e78-4625-bbd7-ba0b6970d9f2" d="M632.86,323.36H594.39L580.1,286.61a15.54,15.54,0,0,1,14.9-20h37.24a15.55,15.55,0,0,1,14.91,20Z"/></g><circle class="ac0f2306-ddb7-4196-b0bb-d0addd9a13d3" cx="618.92" cy="522.16" r="19.13"/><circle class="ac0f2306-ddb7-4196-b0bb-d0addd9a13d3" cx="666.21" cy="522.16" r="19.13"/><circle class="ac0f2306-ddb7-4196-b0bb-d0addd9a13d3" cx="713.51" cy="522.16" r="19.13"/><path class="ad8e3efe-ce39-4e69-9499-87f54bfeb1d4" d="M543.47,398.29h4.21v13.59h13.49V398.29h4.22v32.53h-4.22V415.55H547.68v15.27h-4.21Z"/><path class="ad8e3efe-ce39-4e69-9499-87f54bfeb1d4" d="M575,398.29h20.13v3.52h-16V412h13.49v3.52H579.12v11.8h16.47v3.52H575Z"/><path class="ad8e3efe-ce39-4e69-9499-87f54bfeb1d4" d="M614.53,398.29h4.76l11,32.53h-4.46l-5.61-18.15c-1.14-3.62-2.23-7.19-3.22-11h-.2c-1,3.77-2.08,7.34-3.22,11l-5.7,18.15h-4.27Zm-5.16,19.29H624.3V421H609.37Z"/><path class="ad8e3efe-ce39-4e69-9499-87f54bfeb1d4" d="M630.9,398.29h4.46l5.21,17.55c1.14,3.82,1.93,7,3.12,10.72h.2c1.19-3.77,2-6.9,3.12-10.72l5.21-17.55h4.26l-10.31,32.53h-4.86Z"/><path class="ad8e3efe-ce39-4e69-9499-87f54bfeb1d4" d="M673.35,419.22l-10.91-20.93h4.41l4.86,9.62c1.24,2.53,2.38,5,3.72,7.59h.2c1.29-2.58,2.58-5.06,3.82-7.59l4.71-9.62h4.26l-10.91,20.93v11.6h-4.16Z"/></svg>