<svg id="f20d2923-0083-4ed6-a222-5daecb381cee" data-name="Layer 1" xmlns="http://www.w3.org/2000/svg" viewBox="0 0 803.94 803.94"><defs><style>.bb80c330-d6e5-4632-b894-4ec965ff3702{fill:none;}.a1bf5117-415a-418e-b387-b147ed9e2666,.bb80c330-d6e5-4632-b894-4ec965ff3702{stroke:#526d77;stroke-linecap:round;stroke-linejoin:round;stroke-width:15px;}.a1bf5117-415a-418e-b387-b147ed9e2666{fill:#fff;}</style></defs><line class="bb80c330-d6e5-4632-b894-4ec965ff3702" x1="313.91" y1="479.19" x2="779.86" y2="479.19"/><line class="bb80c330-d6e5-4632-b894-4ec965ff3702" x1="220.89" y1="404.81" x2="300.33" y2="404.81"/><path class="bb80c330-d6e5-4632-b894-4ec965ff3702" d="M43.75,499.81V438a11.53,11.53,0,0,1,11.53-11.54h72.89l11.76-33.22"/><path class="bb80c330-d6e5-4632-b894-4ec965ff3702" d="M119.17,505.35H305.32V354.49S153,344.11,141.14,390.38"/><circle class="bb80c330-d6e5-4632-b894-4ec965ff3702" cx="95.38" cy="497.04" r="21.45"/><path class="bb80c330-d6e5-4632-b894-4ec965ff3702" d="M196.56,462.64V338.12a36.3,36.3,0,0,1,15.76-29.92h0"/><line class="bb80c330-d6e5-4632-b894-4ec965ff3702" x1="304.96" y1="470.4" x2="138.76" y2="470.4"/><circle class="a1bf5117-415a-418e-b387-b147ed9e2666" cx="342.57" cy="497.04" r="21.45"/><circle class="a1bf5117-415a-418e-b387-b147ed9e2666" cx="403.46" cy="497.04" r="21.45"/><circle class="a1bf5117-415a-418e-b387-b147ed9e2666" cx="680.54" cy="497.04" r="21.45"/><circle class="a1bf5117-415a-418e-b387-b147ed9e2666" cx="733.58" cy="497.04" r="21.45"/><polyline class="bb80c330-d6e5-4632-b894-4ec965ff3702" points="451.78 477.96 451.78 361.75 639.16 361.75 639.16 477.96"/><line class="bb80c330-d6e5-4632-b894-4ec965ff3702" x1="451.78" y1="361.75" x2="639.16" y2="477.96"/><line class="bb80c330-d6e5-4632-b894-4ec965ff3702" x1="455.4" y1="474.66" x2="638.54" y2="364.03"/></svg>