<svg id="fcf99bf1-f903-4a15-8360-0675c8f182f7" data-name="Layer 1" xmlns="http://www.w3.org/2000/svg" viewBox="0 0 803.94 803.94"><defs><style>.eb7bdf55-bdee-46ec-912f-cd8e2658600c{fill:none;stroke:#526d77;stroke-linecap:round;stroke-linejoin:round;stroke-width:15px;}</style></defs><g id="bb00f89f-c928-4ab8-998e-d0e35302af5b" data-name="truck outline green"><polyline class="eb7bdf55-bdee-46ec-912f-cd8e2658600c" points="33.32 296.51 506.63 296.51 506.63 476.43"/><line class="eb7bdf55-bdee-46ec-912f-cd8e2658600c" x1="347.15" y1="470.54" x2="198.63" y2="470.54"/><line class="eb7bdf55-bdee-46ec-912f-cd8e2658600c" x1="637.12" y1="489.15" x2="589" y2="489.15"/><path class="eb7bdf55-bdee-46ec-912f-cd8e2658600c" d="M506.63,296.51s108.16-.23,144.5,15.59C681.26,325.22,693,394.31,693,394.31l71,21.52a8.4,8.4,0,0,1,6,7.95l.5,41.09.14,21.94H736.13"/><polyline class="eb7bdf55-bdee-46ec-912f-cd8e2658600c" points="33.32 297.29 33.32 468.31 46.77 468.31"/><path class="eb7bdf55-bdee-46ec-912f-cd8e2658600c" d="M472.58,487.07a19.92,19.92,0,1,1-19.92-20.35A20.13,20.13,0,0,1,472.58,487.07Z"/><path class="eb7bdf55-bdee-46ec-912f-cd8e2658600c" d="M415.08,487.07a19.92,19.92,0,1,1-19.92-20.35A20.14,20.14,0,0,1,415.08,487.07Z"/><path class="eb7bdf55-bdee-46ec-912f-cd8e2658600c" d="M170.21,487.07a19.93,19.93,0,1,1-19.92-20.35A20.14,20.14,0,0,1,170.21,487.07Z"/><path class="eb7bdf55-bdee-46ec-912f-cd8e2658600c" d="M112.7,487.07a19.92,19.92,0,1,1-19.92-20.35A20.14,20.14,0,0,1,112.7,487.07Z"/><path class="eb7bdf55-bdee-46ec-912f-cd8e2658600c" d="M707.64,487.07a19.92,19.92,0,1,1-19.92-20.35A20.14,20.14,0,0,1,707.64,487.07Z"/><path class="eb7bdf55-bdee-46ec-912f-cd8e2658600c" d="M678.21,346.31H633.47c-3.64,0-6.47,3.87-6.05,8.29L629.17,386c.39,4.07,3.17,7.17,6.53,7.28l58.63,1.39"/><rect class="eb7bdf55-bdee-46ec-912f-cd8e2658600c" x="506.63" y="457.87" width="82.37" height="41.3" rx="6.98"/></g><line class="eb7bdf55-bdee-46ec-912f-cd8e2658600c" x1="586.44" y1="353.22" x2="512.06" y2="353.22"/></svg>