<svg id="Group_441" data-name="Group 441" xmlns="http://www.w3.org/2000/svg" xmlns:xlink="http://www.w3.org/1999/xlink" width="737.813" height="197.968" viewBox="0 0 737.813 197.968">
  <defs>
    <clipPath id="clip-path">
      <rect id="Rectangle_304" data-name="Rectangle 304" width="737.813" height="197.968" fill="none"/>
    </clipPath>
  </defs>
  <g id="Group_440" data-name="Group 440" clip-path="url(#clip-path)">
    <path id="Path_1422" data-name="Path 1422" d="M83.546,6.642a7.771,7.771,0,1,0-6.557,8.82,7.772,7.772,0,0,0,6.557-8.82" transform="translate(586.107 35.903)" fill="#ab161b"/>
    <path id="Path_1325" data-name="Path 1325" d="M491.975,122.137a33.627,33.627,0,0,0-27.309.369c-13.833,6.251-25.854,21.187-46.854,16.187-29.022-6.91-60.85-14.042-76.1,1.727l-41.4,11.638c-13.73,14.193-43.509,21.572-72.392,17.937L144.1,159.447c-14.1-1.774-25.558-7.291-30.434-14.649-7.579-11.438-30.328-17.72-51.94-14.343l-25.434,3.973c-15.3,2.39-30.387,21.323-35.6,37.734a14.481,14.481,0,0,0,14.3,18.769,37.232,37.232,0,0,1,9.593.754l8.451,1.922a44.54,44.54,0,0,1,7.418,2.516c11.642,4.918,32.587-1.551,48.811-1.551H310.453l12.3-26.694c4.909-10.651,20.183,3.362,39.8,6.236l31.255,4.579c18.347,2.688,173.437,15.418,181,6l-38.134-18.238a38.974,38.974,0,0,1-16.311-14.607c-3.119-5.024-7.966-11.521-12.671-17.522a40.772,40.772,0,0,0-15.721-12.189" fill="#dfd6ce"/>
    <path id="Path_1326" data-name="Path 1326" d="M407.47,158.294l5.867,2.288a177.2,177.2,0,0,0,83.47,11.082l65.062-7.047a8.234,8.234,0,0,1,7.2,13.47l-12.942,15.468H373.33a8.512,8.512,0,0,1-6.866-13.544l9.111-12.433a27.262,27.262,0,0,1,31.895-9.284" fill="#f5ede6"/>
    <path id="Path_1327" data-name="Path 1327" d="M518.583,168.96h0a18.88,18.88,0,0,1-15.565,1.326l-3.567-1.269a20.072,20.072,0,0,0-23.862,8.466L465.8,193.556h92.124a5.017,5.017,0,0,0,2.706-9.242l-23.109-14.8a18.4,18.4,0,0,0-18.933-.551" fill="#fff"/>
    <path id="Path_1328" data-name="Path 1328" d="M508.521,189.7l.469.214a12.877,12.877,0,0,0,15.578-3.9l.245-.321a7.756,7.756,0,0,0-11.7-10.139l-6.069,6.18a4.948,4.948,0,0,0,1.478,7.97" fill="#f5ede6"/>
    <path id="Path_1329" data-name="Path 1329" d="M479.562,190.205a11.737,11.737,0,0,0,1.271,3.35H495.7l-.008-.031-2.593-7.471a7.081,7.081,0,0,0-13.616,3.794Z" fill="#f5ede6"/>
    <path id="Path_1330" data-name="Path 1330" d="M711.778,157.7,704,161.982a62.508,62.508,0,0,1-53.178,2.873L631.6,156.976c-10.525-4.316-15.853-10.935-18.757-17.241-3.708-8.049-13.195-12.829-22.99-11.721l-7.449.842c-9.138,1.032-16.584,6.947-18.685,14.839l-9.353,35.149c-1.921,7.219,4.306,14.126,12.733,14.126H713.134c14.941,0,26.453-11.588,24.452-24.614-1.652-10.742-15.36-16.4-25.808-10.654" fill="#f5ede6"/>
    <path id="Path_1331" data-name="Path 1331" d="M676.167,113.221,664.63,125.477a54,54,0,0,0-14.741,37.157v11.441c0,.066.008.129.008.2.005.121.007.244.02.363.007.086.02.166.03.25.015.116.03.232.053.345.018.091.04.179.061.268s.05.2.08.3.061.189.094.285.063.179.1.267.086.194.129.29c.037.081.075.162.116.24.05.1.1.187.159.277s.088.154.138.227c.056.089.116.172.177.255s.108.151.166.222.126.151.192.225.129.146.2.217.129.128.2.191.151.144.232.21c.066.058.136.111.207.166s.169.131.257.192c.073.05.149.1.222.144.091.058.179.113.273.166s.169.088.252.131.179.088.27.129.2.08.3.116.169.065.255.093c.111.038.224.068.34.1.078.021.159.043.24.061.118.028.239.045.363.066.063.01.124.025.187.032l.083.008c.045.005.088.01.134.013.186.017.37.027.552.027a5.98,5.98,0,0,0,.6-.03c.038-.005.073-.013.111-.015.157-.02.31-.04.462-.071.068-.012.133-.033.2-.048.119-.027.237-.055.353-.09.078-.023.157-.051.235-.079.1-.032.2-.068.3-.108s.164-.068.245-.106.179-.083.265-.129.161-.083.24-.128.169-.1.249-.152.152-.1.225-.148.161-.122.242-.182c.065-.053.134-.1.2-.159.083-.071.164-.146.244-.222.053-.05.111-.1.164-.156.086-.086.167-.179.247-.273.041-.048.086-.093.127-.143.088-.112.174-.228.257-.344.025-.037.053-.07.078-.108a6.1,6.1,0,0,0,.545-1c.025-.06.045-.126.07-.189.046-.114.089-.227.127-.346.027-.088.05-.181.075-.272s.051-.189.073-.285.036-.194.051-.293c.013-.078.03-.151.04-.229l1.436-11.353a41.9,41.9,0,0,1,14.965-27.169,4.094,4.094,0,0,1,6.467,1.8L698.1,175.6c.011.033.026.063.038.1.031.078.061.156.094.232s.063.149.1.222.073.151.111.227.073.139.113.209.081.139.127.21.085.136.133.2.089.126.134.189.1.134.154.2.093.114.141.169.116.132.177.2.095.1.146.151l.194.182.154.133c.071.058.139.114.212.169.053.041.106.081.161.121.071.053.147.1.22.149.058.038.116.076.174.111.073.046.151.086.227.129.06.035.123.068.184.1s.154.07.229.106.134.06.2.088.154.058.229.088.142.053.215.076.151.045.229.065.149.043.222.061.159.033.237.05.152.031.227.043.174.023.263.033c.068.008.136.018.206.023.139.012.28.015.419.017.02,0,.038,0,.056,0h.017c.149,0,.3-.008.454-.02.056-.005.111-.013.167-.018.1-.01.2-.023.3-.04.066-.01.129-.023.194-.033.1-.02.192-.04.288-.063.063-.015.123-.03.186-.048.043-.013.086-.02.127-.033s.08-.03.123-.043l.164-.05c.048-.018.091-.041.139-.058.1-.041.207-.081.308-.126.085-.038.171-.078.254-.121.1-.048.2-.1.288-.154s.164-.1.242-.144.174-.116.26-.177.156-.113.232-.171.156-.126.232-.192.146-.131.217-.2.139-.136.2-.2l.2-.222c.06-.073.121-.147.179-.222s.121-.159.179-.24.109-.156.159-.237.1-.167.151-.252.094-.169.139-.258.086-.171.126-.259.078-.182.114-.273.068-.176.1-.267.061-.189.088-.288.051-.181.074-.272.042-.2.06-.295.033-.189.045-.285.026-.2.033-.295.015-.2.018-.3.005-.194.005-.293-.005-.2-.013-.307-.015-.192-.025-.285c-.012-.109-.028-.215-.045-.321s-.033-.186-.053-.282-.048-.21-.076-.315c-.015-.051-.023-.1-.038-.152L706.589,161.6a108.665,108.665,0,0,1-4.535-31.073V113.481a6.073,6.073,0,0,0-6.074-6.074Z" fill="#990014"/>
    <path id="Path_1332" data-name="Path 1332" d="M660.505,84.1a4.555,4.555,0,0,0-5.5-3.191l-7.017,1.773a4.554,4.554,0,0,0-3.133,6.059c4.664,12.07,7.559,27.988,9.111,50.094a4.549,4.549,0,0,0,4.378,4.233,4.444,4.444,0,0,0,1.206-.119l1.8-.424a4.551,4.551,0,0,0,3.509-4.277c.8-23.463-.585-40.668-4.356-54.148" fill="#927e65"/>
    <path id="Path_1333" data-name="Path 1333" d="M665.1,148.675a3.946,3.946,0,0,1-.742,2.878,3.826,3.826,0,0,1-.625.663,3.945,3.945,0,0,1-5.557-.474,10.8,10.8,0,0,1-1.6-11.847,3.945,3.945,0,0,1,7.2.391Z" fill="#325687"/>
    <path id="Path_1334" data-name="Path 1334" d="M658.505,110.408a27.121,27.121,0,0,0,34.955,9.058,18.006,18.006,0,0,0,6.745-26.031L681.8,65.914a7.587,7.587,0,0,0-7.933-3.2,65.291,65.291,0,0,0-15.888,5.675,61.515,61.515,0,0,0-7.489,4.543,14.589,14.589,0,0,0-3.678,20.01Z" fill="#2c6a6b"/>
    <path id="Path_1335" data-name="Path 1335" d="M644.524,82.629a14.557,14.557,0,0,0-.038,4.159,35.422,35.422,0,0,0,24.253-3A24.225,24.225,0,0,0,681.651,65.7a7.583,7.583,0,0,0-3.814-2.787A20.135,20.135,0,0,1,666.89,80.19a31.408,31.408,0,0,1-22.366,2.439" fill="#927e65"/>
    <path id="Path_1336" data-name="Path 1336" d="M688.019,108.547a24.255,24.255,0,0,0,12.254-15.006l-.069-.105-3.15-4.712a20.12,20.12,0,0,1-10.884,16.221,31.412,31.412,0,0,1-33.184-2.782l5.037,7.524a35.471,35.471,0,0,0,30-1.14" fill="#927e65"/>
    <path id="Path_1337" data-name="Path 1337" d="M650.212,98.018a35.485,35.485,0,0,0,28.167-1.849,24.258,24.258,0,0,0,12.39-15.477c.086-.341.161-.679.235-1.019l-3.514-5.252a20.161,20.161,0,0,1-10.96,18.146,31.4,31.4,0,0,1-30.525-1,14.618,14.618,0,0,0,.812,1.378Z" fill="#927e65"/>
    <path id="Path_1338" data-name="Path 1338" d="M626.7,182.031a2.15,2.15,0,0,1-1.536-3.652L697.8,103.965a2.15,2.15,0,0,1,3.078,3l-72.639,74.416a2.146,2.146,0,0,1-1.539.648" fill="#3c4349"/>
    <path id="Path_1339" data-name="Path 1339" d="M641.043,57.1a5.653,5.653,0,1,1-7.126-3.625,5.651,5.651,0,0,1,7.126,3.625" fill="#0d2148"/>
    <path id="Path_1340" data-name="Path 1340" d="M642.763,75.13l.318.224a7.3,7.3,0,0,0,9.1-.517l7.163-6.414a5.161,5.161,0,0,0,1.849-5.446L657.5,49.316l-3.223-5.067-19.841,6.54a13.251,13.251,0,0,0,.585,5.933L639.7,70.971a8.25,8.25,0,0,0,3.067,4.159" fill="#a589be"/>
    <path id="Path_1341" data-name="Path 1341" d="M650.948,66.691a1.072,1.072,0,0,1,1.375,1.238,4.756,4.756,0,0,1-7.86,2.513,1.071,1.071,0,0,1,.4-1.806Z" fill="#fff"/>
    <path id="Path_1342" data-name="Path 1342" d="M648.754,60.687a.622.622,0,0,1-.8-.737A1.808,1.808,0,0,1,650.88,59a.623.623,0,0,1-.212,1.067Z" fill="#0d2148"/>
    <path id="Path_1343" data-name="Path 1343" d="M639.661,63.648a.625.625,0,0,1-.8-.738,1.807,1.807,0,0,1,2.926-.952.624.624,0,0,1-.212,1.067Z" fill="#0d2148"/>
    <path id="Path_1344" data-name="Path 1344" d="M635.257,44.451a7.118,7.118,0,1,0,4.6,10.783,9.478,9.478,0,0,1,5.048-3.993l2.948-.958a2.174,2.174,0,0,1,2.676,1.248,2.161,2.161,0,0,0,.893,1.024L653.7,53.9a3.634,3.634,0,0,1,1.574,1.917,1.471,1.471,0,0,0,.989.923l1.6.449a2.257,2.257,0,0,0,2.83-2.582l-1.3-7.05a7.424,7.424,0,0,0-5.064-5.744,13.036,13.036,0,0,0-5.514-.5Z" fill="#0d2148"/>
    <path id="Path_1345" data-name="Path 1345" d="M659.67,54.2a3.416,3.416,0,0,0-2.189,4.306l1.056,3.246,3.247-1.057a3.415,3.415,0,1,0-2.114-6.5" fill="#ed6166"/>
    <path id="Path_1346" data-name="Path 1346" d="M700.485,178.658l.9,3.362a7.056,7.056,0,0,1-.954,5.7l-.073.106a1.874,1.874,0,0,0,1.559,2.913h9.421v-2.679a23.789,23.789,0,0,0-.749-5.912l-1.453-5.64Z" fill="#263e4e"/>
    <path id="Path_1347" data-name="Path 1347" d="M702,181.967l-1.029-3.932a1.8,1.8,0,0,1,1.289-2.2l1.836-.482a1.8,1.8,0,0,1,2.2,1.287l1.029,3.93Z" fill="#263e4e"/>
    <path id="Path_1348" data-name="Path 1348" d="M708.168,190.74v-2.134a3.877,3.877,0,0,0-3.879-3.877h-1.736a3.877,3.877,0,0,0-3.877,3.877v4.364h12.658v-2.23Z" fill="#2c6a6b"/>
    <path id="Path_1349" data-name="Path 1349" d="M650.335,182.472V177.7a1.8,1.8,0,0,1,1.8-1.8h.116a1.8,1.8,0,0,1,1.8,1.8v4.777Z" fill="#f79417"/>
    <path id="Path_1350" data-name="Path 1350" d="M645.565,187.035V184.73h-1.849a3.879,3.879,0,0,0-3.879,3.876v4.364h21.832v-2.23h-12.4a3.706,3.706,0,0,1-3.706-3.705" fill="#2c6a6b"/>
    <path id="Path_1351" data-name="Path 1351" d="M659.943,178.361h-7.131a2.925,2.925,0,0,0-1.238,3.193l.121.467h-1.324a3.04,3.04,0,0,1-3.02,2.709h-1.785v3.16a2.851,2.851,0,0,0,2.85,2.851h13.252v-2.679a23.734,23.734,0,0,0-.749-5.912Z" fill="#263e4e"/>
    <path id="Path_1352" data-name="Path 1352" d="M635.024,44.443c13.686-.512,22.552,20.588,20.828,27.337l5.052-4.537A15.27,15.27,0,0,0,665.966,55.5c-.384-15.21-16.3-23.168-30.942-11.061" fill="#927e65"/>
    <path id="Path_1353" data-name="Path 1353" d="M709.565,91.71a7.413,7.413,0,0,0,1.922-6.7L709.3,74.755a16.5,16.5,0,0,0-17.144-13.1l-17.039.956a4.1,4.1,0,0,0-3.662,5.37l1.069,3.251a12.1,12.1,0,0,0,14.927,7.814l1.892-.56a7.228,7.228,0,0,1,8.627,3.857l3.826,8.084a4.787,4.787,0,0,0,7.769,1.279" fill="#927e65"/>
    <path id="Path_1354" data-name="Path 1354" d="M710.945,89.606c2.643,1.851,5.115,7.123.979,11.222a4.726,4.726,0,0,1-5.592.767l-.028-.363a4.81,4.81,0,0,0-2.159-3.655,15.044,15.044,0,0,1,.027-4.813Z" fill="#325687"/>
    <path id="Path_1355" data-name="Path 1355" d="M620.269,158.724a9.45,9.45,0,0,0-9.313,7.812,27.072,27.072,0,0,1-7.534,14.576l-11.706,11.861H640.67l11.787-12.045a27.9,27.9,0,0,0,7.37-13.837A6.964,6.964,0,0,0,653,158.724Z" fill="#325687"/>
    <path id="Path_1356" data-name="Path 1356" d="M696.8,110.216a2.152,2.152,0,0,1-1.539-3.652l10.677-10.937a2.15,2.15,0,0,1,3.078,3l-10.677,10.937a2.146,2.146,0,0,1-1.539.648" fill="#990014"/>
    <path id="Path_1357" data-name="Path 1357" d="M643.2,183.5a3.518,3.518,0,1,1-3.519-3.516A3.52,3.52,0,0,1,643.2,183.5" fill="#f5ede6"/>
    <path id="Path_1358" data-name="Path 1358" d="M621.545,174.2a3.516,3.516,0,1,1-3.516-3.516,3.516,3.516,0,0,1,3.516,3.516" fill="#cad8d4"/>
    <path id="Path_1359" data-name="Path 1359" d="M625.947,181.11l-1.4.9a6.764,6.764,0,0,1-8.808-1.289,8.1,8.1,0,0,0-9.966-1.89l-6.381,3.393a7.583,7.583,0,0,1-7.691.063,9.31,9.31,0,0,0-11.333,1.738l-8.5,9.108h72.447l-6.845-9.764a8.47,8.47,0,0,0-11.53-2.26" fill="#fff"/>
    <path id="Path_1360" data-name="Path 1360" d="M325.486,135.342l-32.554,40.647a10.012,10.012,0,0,1-15.575.067l-.79-.97a15.293,15.293,0,0,0-17.452-4.568l-15.77,6.2a28.508,28.508,0,0,1-25.135-2.1l-7.126-4.285a33.707,33.707,0,0,0-41.437,5.277l-8.359,8.521a5.774,5.774,0,0,0,4.121,9.818H379.956a7.2,7.2,0,0,0,6.168-10.9L358.39,136.9c-5.1-8.483-26.717-9.288-32.9-1.563" fill="#f5ede6"/>
    <path id="Path_1361" data-name="Path 1361" d="M291.737,186.722l-6.538,7.229h46.366l-6.069-6.944a22.587,22.587,0,0,0-33.759-.285" fill="#cad8d4"/>
    <path id="Path_1362" data-name="Path 1362" d="M257.286,48.661l.207-4.007A6.431,6.431,0,0,0,251.4,37.9a7.706,7.706,0,0,0-8.092,7.3,6.43,6.43,0,0,0,6.089,6.754l4.008.208a3.691,3.691,0,0,0,3.877-3.495" fill="#990014"/>
    <path id="Path_1363" data-name="Path 1363" d="M270.491,103.464a1.519,1.519,0,0,1-1.382-.89c-2.306-5.065-3.335-11.527-3.335-20.955a1.519,1.519,0,1,1,3.037,0c0,8.972.943,15.047,3.062,19.7a1.52,1.52,0,0,1-1.382,2.148" fill="#927e65"/>
    <path id="Path_1364" data-name="Path 1364" d="M274.776,190.54a8.21,8.21,0,0,0-1.039-.984,12.077,12.077,0,0,0-4.477-2.151,9.854,9.854,0,0,1-4.447-2.376l-.046-.046a11.662,11.662,0,0,1-3.425-8.687l.071-1.96a4.34,4.34,0,0,0-8.675-.308l-.012.379a22.059,22.059,0,0,1-2.9,10.365,11.127,11.127,0,0,0-1.324,4.784c-.03.452-.043.9-.035,1.337l.058,3h24.737a2.02,2.02,0,0,0,1.513-3.355" fill="#263e4e"/>
    <path id="Path_1365" data-name="Path 1365" d="M190.121,184.984c-3.925-3.9.363-3.182,1.867-4.9,3.7-4.232-2.571-10.246-6.783-5.427-6.167,7.051-11.515,9.329-11.384,16.24l.056,3h20.794c5.552-3.406-4.172-8.534-4.55-8.912" fill="#263e4e"/>
    <path id="Path_1366" data-name="Path 1366" d="M231.654,138.791l-12.688-10.576,7.855-20.615L252.7,126.585a25.366,25.366,0,0,1,10.354,20.939l-.6,30.966a6.113,6.113,0,0,1-6.992,5.932l-5.083-.741-1.7-13.692a48.345,48.345,0,0,0-17.028-31.2" fill="#927e65"/>
    <path id="Path_1367" data-name="Path 1367" d="M202.73,151.276l-2.906-29.442,26.609-6.154.277,32.008a25.524,25.524,0,0,1-10.642,20.961l-20.923,15.014a10.641,10.641,0,0,1-15.558-3.571L198.954,161.5a12.472,12.472,0,0,0,3.776-10.222" fill="#927e65"/>
    <path id="Path_1368" data-name="Path 1368" d="M206.847,100.736c-5.521,9.325-9.552,20.3-6.268,30.351a31.767,31.767,0,0,0,30.266-4.825l1.468-1.144a20.411,20.411,0,0,1,12.538-4.3l-5.917-5.214Z" fill="#536b7c"/>
    <path id="Path_1369" data-name="Path 1369" d="M272.907,156.324h0a7.367,7.367,0,0,0-2.061-6.374l-6.719-6.847-7.3,4.107,1.027,2.85A13.47,13.47,0,0,0,265.978,158l2.22.831a3.535,3.535,0,0,0,4.709-2.5" fill="#263e4e"/>
    <path id="Path_1370" data-name="Path 1370" d="M262.467,97.9l-4.046,16.138a28.852,28.852,0,0,0,1.3,17.976l4.737,11.53-3.879,2.195a7.6,7.6,0,0,1-10.516-3.165l-5.42-10.64a28.188,28.188,0,0,1-2.974-15.105l.678-8.263A13.149,13.149,0,0,1,258.81,96.933Z" fill="#2c6a6b"/>
    <path id="Path_1371" data-name="Path 1371" d="M239.3,118.491c20.666-4.894,25.574-19.218,23.12-29.375-3.607-14.922-21.793-20.744-33.684-11.036l-8.159,6.661a61.3,61.3,0,0,0-13.735,15.994c10.662,9.323,21.728,17.142,32.458,17.756" fill="#536b7c"/>
    <path id="Path_1372" data-name="Path 1372" d="M242.374,60.919l8.657-.877a13.681,13.681,0,0,1,14.808,16.221l-3.594,18.514-24.1-19.991a7.859,7.859,0,0,1,4.225-13.867" fill="#492d67"/>
    <path id="Path_1373" data-name="Path 1373" d="M254.136,104.023a5.012,5.012,0,0,0-3.4-5.645,12.359,12.359,0,0,1-8.415-11.316l-.323-9.977a5.743,5.743,0,0,1,7.976-5.472l11.421,4.833,7.343,35.894a5.887,5.887,0,0,1-5.812,7.068,9.742,9.742,0,0,1-9.5-11.518Z" fill="#990014"/>
    <path id="Path_1374" data-name="Path 1374" d="M240.255,77.432a3.205,3.205,0,0,0-3.438-3.766L215.73,75.545a13.233,13.233,0,0,0-10,5.336c-.008.011-.018.024-.025.036a13.227,13.227,0,0,0-2.19,11.16l4.942,19.049,8.291,1.976,2.4-16.574a6.742,6.742,0,0,1,7.33-5.748,12.175,12.175,0,0,0,13.162-9.942Z" fill="#2c6a6b"/>
    <rect id="Rectangle_302" data-name="Rectangle 302" width="4.299" height="120.729" transform="matrix(0.522, -0.853, 0.853, 0.522, 212.225, 121.148)" fill="#3c4349"/>
    <path id="Path_1375" data-name="Path 1375" d="M265.259,147.565l-6.293,3.614,9.832,7.241a2.16,2.16,0,0,0,2.479.056c.051-.033.1-.068.154-.1a4.355,4.355,0,0,0,1.628-4.738c-1-3.522-3.862-5.3-7.8-6.069" fill="#263e4e"/>
    <path id="Path_1376" data-name="Path 1376" d="M207.566,122.111l3.617,2.67a3.326,3.326,0,0,0,4.134-.146h0a7.168,7.168,0,0,0,2.374-6.863l-.939-4.669-8.291-1.976-2.338,4.036a5.316,5.316,0,0,0,1.443,6.949" fill="#263e4e"/>
    <path id="Path_1377" data-name="Path 1377" d="M274.512,77.023l-1.745,5.355a16.693,16.693,0,0,1-7.59,9.312,6.441,6.441,0,0,1-6.092.1c-7.315-3.718-11.245-11.531-9.413-17.355L252.6,65.13c.008-.021.013-.041.02-.062a6,6,0,0,1,7.524-3.821l12.306,3.871a5.05,5.05,0,0,1,3.512,5.415,34.2,34.2,0,0,1-1.445,6.49" fill="#a589be"/>
    <path id="Path_1378" data-name="Path 1378" d="M266.831,85.132a1.075,1.075,0,0,1,.5,1.89,5.186,5.186,0,0,1-8.3-2.609,1.075,1.075,0,0,1,1.5-1.26,24.589,24.589,0,0,0,6.3,1.979" fill="#fff"/>
    <path id="Path_1379" data-name="Path 1379" d="M270.65,79.363a1.144,1.144,0,1,1,1.433-.752,1.143,1.143,0,0,1-1.433.752" fill="#0d2148"/>
    <path id="Path_1380" data-name="Path 1380" d="M261.345,76.569a1.143,1.143,0,1,1,1.433-.752,1.145,1.145,0,0,1-1.433.752" fill="#0d2148"/>
    <path id="Path_1381" data-name="Path 1381" d="M252.842,78.17l-1.624-.038a4.374,4.374,0,0,1-4.271-4.475l.03-1.333a3.022,3.022,0,1,1,6.042.164Z" fill="#ed6166"/>
    <path id="Path_1382" data-name="Path 1382" d="M276.857,66.485a15.872,15.872,0,0,1-.209,2.683,1.966,1.966,0,0,1-2.313,1.616l-8.607-1.678c-3.044-.285-5.486.176-7.33,2.807-2.272,3.248-8.006,17.585-8.006,17.585s-4.479-16.285-4.633-19.824a34.457,34.457,0,0,1,4.6-18.193,5.971,5.971,0,0,1,7.319-2.708l8.99,3.4a15.571,15.571,0,0,1,10.188,14.317" fill="#2c6a6b"/>
    <path id="Path_1383" data-name="Path 1383" d="M254.161,103.464a1.519,1.519,0,0,1-1.382-.89c-2.306-5.065-3.335-11.528-3.335-20.955a1.519,1.519,0,1,1,3.037,0c0,8.972.943,15.047,3.062,19.7a1.52,1.52,0,0,1-1.382,2.148" fill="#927e65"/>
    <path id="Path_1384" data-name="Path 1384" d="M318.691,170.814c4.863,0,10.2,2.218,12.624,5.265,3.073,3.853,7.573,7.149,13.124,9.823l16.585,7.993H315.177l-16.738-8.114a39.03,39.03,0,0,1-12.688-9.327c-2.469-2.911-.388-5.64,4.289-5.64Z" fill="#2c6a6b"/>
    <path id="Path_1385" data-name="Path 1385" d="M307.908,185.937l14.678,8.014h57.588a6.2,6.2,0,0,0,5.95-7.928A19.463,19.463,0,0,0,371.063,172.2a14.456,14.456,0,0,1-8.337-4.724l-7.476-8.554a22.588,22.588,0,0,0-33.759-.285l-15.339,16.962a6.68,6.68,0,0,0,1.756,10.343" fill="#fff"/>
    <path id="Path_1386" data-name="Path 1386" d="M322.585,193.951h57.588a6.2,6.2,0,0,0,5.95-7.928,20.19,20.19,0,0,0-1.765-4.2,20.537,20.537,0,0,0-4.876,1.92c-4.482,2.468-9.933,3.349-16.484-.136l-13.5-7.18a17.612,17.612,0,0,0-21.531,3.959l-.106.122a14.478,14.478,0,0,1-8.337,4.725,18.69,18.69,0,0,0-7.337,3.044Z" fill="#f5ede6"/>
    <path id="Path_1387" data-name="Path 1387" d="M115,142.322,62.4,177a11.648,11.648,0,0,1-16.251-3.488L40,163.81A4.851,4.851,0,0,0,31.262,165L28,175.779A15.379,15.379,0,0,0,42.718,195.61H106.13a21.07,21.07,0,0,0,20.676-17.018l4.914-25.057A10.916,10.916,0,0,0,115,142.322" fill="#f5ede6"/>
    <path id="Path_1388" data-name="Path 1388" d="M87.735,8.441A9.877,9.877,0,1,0,79.4,19.651a9.878,9.878,0,0,0,8.334-11.21" fill="#ab161b"/>
    <path id="Path_1389" data-name="Path 1389" d="M40.567,73.1l1.647-9.049c-7.262-.336-11.88-.608-13.666,2.334a5.753,5.753,0,0,0,.83,6.9l.028.028A5.814,5.814,0,0,0,33.6,75.035L37.258,75A3.915,3.915,0,0,0,40.567,73.1" fill="#cad8d4"/>
    <path id="Path_1390" data-name="Path 1390" d="M78.846,127.646l2.906.349,8.114-69.663L65.074,55.35l-5.567,47.765a22.131,22.131,0,0,0,19.339,24.531" fill="#990014"/>
    <path id="Path_1391" data-name="Path 1391" d="M69.572,43.874A58.473,58.473,0,0,1,47.04,60.029l-4.472,1.8a4.815,4.815,0,0,0-2.82,5.826l.845,2.864a4.813,4.813,0,0,0,6.19,3.188l12.069-4.172A58.525,58.525,0,0,0,79.038,57.583Z" fill="#927e65"/>
    <path id="Path_1392" data-name="Path 1392" d="M76.849,177.428H66.043l-1.866-9.222a145.666,145.666,0,0,1,.33-57.543l1.9-9.466h25.13L87.211,112.84A159.154,159.154,0,0,0,76.824,168.5Z" fill="#536b7c"/>
    <path id="Path_1393" data-name="Path 1393" d="M81.694,101.2h21.284l-1.935,76.231H90.24Z" fill="#536b7c"/>
    <path id="Path_1394" data-name="Path 1394" d="M67.685,90.622q-.4,5.162-1.281,10.575c5.2,5.561,15.774,6.85,36.574,0,3.37-12.548,3.385-25.094,1.665-37.642A30.927,30.927,0,0,0,73.956,36.93H72.039A10.551,10.551,0,0,0,61.533,48.45a63.29,63.29,0,0,0,3.44,23.089,45.9,45.9,0,0,1,2.712,19.083" fill="#cad8d4"/>
    <path id="Path_1395" data-name="Path 1395" d="M75.582,64.181c9.7,7.286,20.754,5.165,29.037-.768.008.048.018.1.023.142a113.661,113.661,0,0,1,1.12,16.725,40.075,40.075,0,0,1-16.625,3.695,37.485,37.485,0,0,1-22.671-7.653c-.015-.012-.03-.024-.048-.036a49.31,49.31,0,0,0-1.445-4.747A63.315,63.315,0,0,1,61.532,48.45c-.017-.192-.03-.383-.037-.572a53.738,53.738,0,0,0,14.087,16.3" fill="#2c6a6b"/>
    <path id="Path_1396" data-name="Path 1396" d="M63.389,117.428a4.578,4.578,0,0,1-5.693-2.022l-.779-1.379a6.075,6.075,0,0,1-.389-5.242,7.3,7.3,0,0,1,3.584-3.832l3.327-1.614,4.2,5.771.288,2.358a5.012,5.012,0,0,1-2.792,5.113Z" fill="#cad8d4"/>
    <path id="Path_1397" data-name="Path 1397" d="M104.6,58.191c2.141,8.212,2.8,14.261,6.767,20.836l2.944,4.117c9.338,13.05,5.824,31.453-7.905,39.759a21.821,21.821,0,0,1-17.278,2.711L81.321,88.023a51.992,51.992,0,0,1,2.1-27.687l3.857-10.7c2.563-7.214-10.6-12.26-16.6-4.12-4.222,5.729-6.286,13.908-7.083,21.611a66.174,66.174,0,0,1-2.065-18.677C59.414,25.5,99.068,36.768,104.6,58.191" fill="#990014"/>
    <path id="Path_1398" data-name="Path 1398" d="M67.644,109.11l10.382-7.438A58.489,58.489,0,0,0,99.035,73.831l2.124-5.934A8.618,8.618,0,1,0,84.64,63.085,58.5,58.5,0,0,1,64,95.924l-3.774,3Z" fill="#927e65"/>
    <path id="Path_1399" data-name="Path 1399" d="M89.433,189.049a39.59,39.59,0,0,0-.212,6.505H104.4c.8-5.8-.906-6.475-2.059-8.361l-.015-.026a8.49,8.49,0,0,1-1.173-4.725l.777-21.129-14.4.119,2.038,21.59a24.361,24.361,0,0,1-.131,6.027" fill="#927e65"/>
    <path id="Path_1400" data-name="Path 1400" d="M77.527,162.8l-.467,15.975a31.463,31.463,0,0,0,1.062,9.1c.442,1.635.283,3.193-.61,7.683H56.195c-1.642,0-2.661-2.989-1.251-4.1,2.946-2.32,5.338-1.422,8.71-4.263a.338.338,0,0,0,.05-.042c.01-.008.021-.016.028-.023a4.842,4.842,0,0,0,1.6-4.64l-3.692-18.615Z" fill="#927e65"/>
    <path id="Path_1401" data-name="Path 1401" d="M87.526,164.469h.025l14.4-.119a3.037,3.037,0,0,0-.022-6.073H101.9l-14.4.119a3.037,3.037,0,0,0,.025,6.073" fill="#3c4349"/>
    <path id="Path_1402" data-name="Path 1402" d="M61.636,166.909a3.036,3.036,0,0,1-.2-6.066l15.889-1.071a3.036,3.036,0,0,1,.408,6.059L61.843,166.9c-.068.005-.139.007-.207.007" fill="#3c4349"/>
    <rect id="Rectangle_303" data-name="Rectangle 303" width="4.299" height="70.704" transform="matrix(0.832, -0.555, 0.555, 0.832, 35.568, 80.078)" fill="#990014"/>
    <path id="Path_1403" data-name="Path 1403" d="M27.872,72.945l.048.071c1.63,2.358,5.951,4.351,9.436,4.352h0c1.8,0,2.714-.522,2.949-.969.275-.524-.212-1.331-.437-1.653l-.691-1a2.729,2.729,0,0,0-1.851-.8ZM37.359,80.4h0c-4.5,0-9.741-2.488-11.933-5.662l-.691-1a2.374,2.374,0,0,1-.252-2.5,2.769,2.769,0,0,1,2.59-1.33h0l10.256,0a5.588,5.588,0,0,1,4.348,2.107l.691,1c1.554,2.247,1.06,3.965.628,4.79-.865,1.649-2.92,2.594-5.637,2.594" fill="#990014"/>
    <path id="Path_1404" data-name="Path 1404" d="M85.712,119.419a8.983,8.983,0,0,1,8.856,7.428,25.739,25.739,0,0,0,7.166,13.862l7.686,7.788a2.05,2.05,0,0,1-1.461,3.49H71.6a12.58,12.58,0,0,1-8.992-3.781L55.1,140.535A26.506,26.506,0,0,1,48.1,127.376a6.622,6.622,0,0,1,6.488-7.957Z" fill="#2c6a6b"/>
    <path id="Path_1405" data-name="Path 1405" d="M31.141,74.133h0A2.667,2.667,0,0,1,29.8,71.21l.111-.506a3.961,3.961,0,0,1,5.025-2.935l2.58.788a6.368,6.368,0,0,0-4.195,4.137l-.207.644a1.384,1.384,0,0,1-1.977.8" fill="#cad8d4"/>
    <path id="Path_1406" data-name="Path 1406" d="M57.747,114.976l.921,1.106,5.188-5.807-3.589-4a6.368,6.368,0,0,1-2.147,5.486l-.123.107a2.23,2.23,0,0,0-.25,3.111" fill="#cad8d4"/>
    <path id="Path_1407" data-name="Path 1407" d="M93.105,19.7A11.7,11.7,0,0,0,84.9,18.576L75.08,36.665a7.792,7.792,0,0,0,.083,7.692,19.2,19.2,0,0,0,6.324,6.426,6.2,6.2,0,0,0,4.273.865,10.837,10.837,0,0,0,7.368-4.666,13.744,13.744,0,0,0,2.388-5.147,14.413,14.413,0,0,1,1.014-2.842c.416-.893.865-1.852,1.33-2.835A33.781,33.781,0,0,0,93.105,19.7" fill="#a589be"/>
    <path id="Path_1408" data-name="Path 1408" d="M85.667,36.588a1.028,1.028,0,1,1-.156-1.446,1.028,1.028,0,0,1,.156,1.446" fill="#0d2148"/>
    <path id="Path_1409" data-name="Path 1409" d="M82.547,35.987a.8.8,0,0,0,.293.023l.1-.011a2.67,2.67,0,0,1,1.648.361.786.786,0,0,0,.809-1.349,4.25,4.25,0,0,0-2.625-.576l-.1.011a.787.787,0,0,0-.124,1.541" fill="#0d2148"/>
    <path id="Path_1410" data-name="Path 1410" d="M94.856,39.037a1.028,1.028,0,1,1-.156-1.446,1.028,1.028,0,0,1,.156,1.446" fill="#0d2148"/>
    <path id="Path_1411" data-name="Path 1411" d="M91.738,38.436a.776.776,0,0,0,.29.023l.1-.011a2.667,2.667,0,0,1,1.647.361.786.786,0,0,0,.808-1.349,4.248,4.248,0,0,0-2.624-.576l-.1.011a.787.787,0,0,0-.121,1.541" fill="#0d2148"/>
    <path id="Path_1412" data-name="Path 1412" d="M91.99,16.866c-.113-.049-.227-.1-.343-.145a15.5,15.5,0,0,0-12.019.125L75.69,24.659a4.431,4.431,0,0,0,1.524,5.734A12.011,12.011,0,0,0,92.923,28.07l.714.507a8.576,8.576,0,0,1,2.908,10.41,3.259,3.259,0,0,0,2-1.588l.224-.41a14.853,14.853,0,0,0,1.155-2.773,9.02,9.02,0,0,0-1.273-7.686Z" fill="#153675"/>
    <path id="Path_1413" data-name="Path 1413" d="M75.988,36.887h0A4.759,4.759,0,0,1,73.8,31.032l.459-1.22a2.233,2.233,0,0,1,3.156-1.178,2.679,2.679,0,0,1,1.077,3.635Z" fill="#153675"/>
    <path id="Path_1414" data-name="Path 1414" d="M83.434,42.839a.966.966,0,0,0-1.143,1.216,4.292,4.292,0,0,0,7.257,1.67.966.966,0,0,0-.5-1.593Z" fill="#fff"/>
    <path id="Path_1415" data-name="Path 1415" d="M71.118,35.178c-3.839-9.558.441-26.465,12.016-26.787C93.746,8.1,99.855,17.4,99.27,26.351a2.886,2.886,0,0,1-3.539,2.6,25.151,25.151,0,0,0-13.545.666,11.207,11.207,0,0,0-6.631,5.822l-.24.495a2.111,2.111,0,0,1-3.778.049Z" fill="#927e65"/>
    <path id="Path_1416" data-name="Path 1416" d="M105.876,151.987H71.605L57.331,135.015a6.783,6.783,0,0,1,5.193-11.149h7.519a11.226,11.226,0,0,1,7.84,3.192l.126.124a16.577,16.577,0,0,0,15.3,4.289l1.839-.425a9.691,9.691,0,0,1,11.817,10.448Z" fill="#fff"/>
    <path id="Path_1417" data-name="Path 1417" d="M68.964,146.127a6.994,6.994,0,0,0-1.534.9l4.175,4.965h34.271l1.092-10.493a9.645,9.645,0,0,0-.214-3.285,9.6,9.6,0,0,0-4.941,1.82l-1.529,1.107a16.573,16.573,0,0,1-15.765,2.011l-.164-.064a11.228,11.228,0,0,0-8.465.114Z" fill="#f5ede6"/>
    <path id="Path_1418" data-name="Path 1418" d="M96.19,173.579A2.582,2.582,0,1,1,93.607,171a2.582,2.582,0,0,1,2.583,2.582" fill="#fff"/>
    <path id="Path_1419" data-name="Path 1419" d="M104.837,165.6a2.581,2.581,0,1,1-2.583-2.582,2.581,2.581,0,0,1,2.583,2.582" fill="#fff"/>
    <path id="Path_1420" data-name="Path 1420" d="M73.178,153.584A2.582,2.582,0,1,1,70.6,151a2.583,2.583,0,0,1,2.583,2.582" fill="#fff"/>
    <path id="Path_1421" data-name="Path 1421" d="M97.229,154.769l-2.374,1.823a2.705,2.705,0,0,1-4.27-1.482l-.489-1.929a2.8,2.8,0,0,1,2.716-3.488H95.5a2.831,2.831,0,0,1,1.725,5.076" fill="#fff"/>
  </g>
</svg>
