<?xml version="1.0" encoding="utf-8"?>
<!-- Generator: Adobe Illustrator 26.0.3, SVG Export Plug-In . SVG Version: 6.00 Build 0)  -->
<svg version="1.1" id="Layer_1" xmlns="http://www.w3.org/2000/svg" xmlns:xlink="http://www.w3.org/1999/xlink" x="0px" y="0px"
	 viewBox="0 0 653 174.3" style="enable-background:new 0 0 653 174.3;" xml:space="preserve">
<style type="text/css">
	.st0{fill:#FFFFFF;stroke:#FFFFFF;}
	.st1{enable-background:new    ;}
	.st2{fill:#FFFFFF;}
</style>
<path id="Path_1324" class="st0" d="M11,19.9l56.6,35.7l57.7,50.6l55.7,10.2l59.1,14l57.5,3.3h56l60.3-6.8l59.3-20.7l54.5-86.3
	l61.6-19.4h54.4v136.8H11L11,19.9z"/>
<g class="st1">
	<path class="st2" d="M12.8,173.6l-1.8-1.5c0.7-0.5,1-1.1,1-1.7c0-0.8-0.5-1.2-1.4-1.2H6.3v3.4H4.2v-6.1h6.2c2.5,0,3.8,1.3,3.8,3.8
		C14.2,171.6,13.7,172.8,12.8,173.6z"/>
	<path class="st2" d="M9.8,157.6H14v2.5h-1c0.7,0.4,1.1,1.1,1.1,2.2c0,1.8-1,2.8-2.3,2.8c-1.4,0-2.3-1-2.3-3.4v-1.5
		c-0.8,0-1.2,0.6-1.2,1.6c0,0.7,0.3,1.5,0.7,2.1l-1.8,0.9c-0.6-0.9-0.9-2.2-0.9-3.3C6.3,159,7.4,157.6,9.8,157.6z M11.6,160.2h-0.7
		v1.1c0,0.9,0.3,1.2,0.8,1.2c0.4,0,0.8-0.4,0.8-1C12.4,160.9,12.2,160.4,11.6,160.2z"/>
	<path class="st2" d="M9.7,147.8H14v2.7h-3.9c-1.1,0-1.6,0.5-1.6,1.2c0,0.9,0.5,1.5,1.8,1.5H14v2.7H6.4v-2.5h0.8
		c-0.6-0.6-1-1.5-1-2.4C6.3,149.2,7.3,147.8,9.7,147.8z"/>
</g>
<g class="st1">
	<path class="st2" d="M64.3,168.6h2.2v-4.3h2.1v4.3H72v2.8h-9.8v-7.7h2.1V168.6z"/>
	<path class="st2" d="M68.9,154.9v5.5c0.8-0.2,1.2-0.9,1.2-1.9c0-0.7-0.2-1.2-0.7-1.8l1.5-1.4c0.8,0.7,1.2,1.8,1.2,3.2
		c0,2.7-1.7,4.5-3.9,4.5c-2.3,0-3.9-1.8-3.9-4.2c0-2.2,1.4-4.1,3.9-4.1C68.4,154.9,68.7,154.9,68.9,154.9z M67.5,160.5v-3.1
		c-0.8,0.1-1.3,0.7-1.3,1.6C66.2,159.8,66.7,160.3,67.5,160.5z"/>
	<path class="st2" d="M68.2,145.2c2.4,0,3.9,1.7,3.9,3.7c0,1-0.3,1.7-0.9,2.2H72v2.5H61.6V151h3.5c-0.5-0.5-0.8-1.2-0.8-2.1
		C64.3,146.8,65.8,145.2,68.2,145.2z M68.2,147.8c-1.1,0-1.8,0.7-1.8,1.6s0.6,1.6,1.8,1.6c1.2,0,1.8-0.7,1.8-1.6
		S69.4,147.8,68.2,147.8z"/>
</g>
<g class="st1">
	<path class="st2" d="M129,163.5l-5.2,0l4.2,2.5v1.2l-4.1,2.5h5.1v2.6h-9.8v-2.3l5.7-3.4l-5.7-3.4V161l9.8,0V163.5z"/>
	<path class="st2" d="M124.8,152h4.2v2.5h-1c0.7,0.4,1.1,1.1,1.1,2.2c0,1.8-1,2.8-2.3,2.8c-1.4,0-2.3-1-2.3-3.4v-1.5
		c-0.8,0-1.2,0.6-1.2,1.6c0,0.7,0.3,1.5,0.7,2.1l-1.8,0.9c-0.6-0.9-0.9-2.2-0.9-3.3C121.3,153.4,122.4,152,124.8,152z M126.6,154.7
		h-0.7v1.1c0,0.9,0.3,1.2,0.8,1.2c0.4,0,0.8-0.4,0.8-1C127.4,155.4,127.2,154.9,126.6,154.7z"/>
	<path class="st2" d="M121.3,145.2h2.4c0,0.2,0,0.4,0,0.6c0,1.1,0.5,1.8,1.9,1.8h3.5v2.7h-7.6v-2.5h0.9
		C121.6,147.2,121.3,146.4,121.3,145.2z"/>
</g>
<g class="st1">
	<path class="st2" d="M185.1,164.8v4.1l1.9,0.8v2.8l-9.8-4.3v-2.7l9.8-4.3v2.9L185.1,164.8z M183,165.6l-3.1,1.3l3.1,1.3V165.6z"/>
	<path class="st2" d="M183.2,152c2.4,0,3.9,1.7,3.9,3.7c0,0.9-0.3,1.6-0.8,2.1h3.4v2.7h-10.3v-2.5h0.8c-0.6-0.5-0.9-1.2-0.9-2.2
		C179.3,153.6,180.8,152,183.2,152z M183.2,154.7c-1.1,0-1.8,0.7-1.8,1.6s0.7,1.6,1.8,1.6s1.8-0.7,1.8-1.6S184.4,154.7,183.2,154.7z
		"/>
	<path class="st2" d="M179.3,145.7h2.4c0,0.2,0,0.4,0,0.6c0,1.1,0.5,1.8,1.9,1.8h3.5v2.7h-7.6v-2.5h0.9
		C179.6,147.7,179.3,146.8,179.3,145.7z"/>
</g>
<g class="st1">
	<path class="st2" d="M245,162.5l-5.2,0l4.2,2.5v1.2l-4.1,2.5h5.1v2.6h-9.8v-2.3l5.7-3.4l-5.7-3.4V160l9.8,0V162.5z"/>
	<path class="st2" d="M240.8,151h4.2v2.5h-1c0.7,0.4,1.1,1.1,1.1,2.2c0,1.8-1,2.8-2.3,2.8c-1.4,0-2.3-1-2.3-3.4v-1.5
		c-0.8,0-1.2,0.6-1.2,1.6c0,0.7,0.3,1.5,0.7,2.1l-1.8,0.9c-0.6-0.9-0.9-2.2-0.9-3.3C237.3,152.4,238.4,151,240.8,151z M242.6,153.7
		h-0.7v1.1c0,0.9,0.3,1.2,0.8,1.2c0.4,0,0.8-0.4,0.8-1C243.4,154.4,243.2,153.9,242.6,153.7z"/>
	<path class="st2" d="M237.4,141.5l7.9,3.3c2,0.8,2.5,1.9,2.5,3.4c0,0.8-0.3,1.7-0.7,2.2l-1.9-0.9c0.3-0.3,0.4-0.8,0.4-1.2
		c0-0.5-0.2-0.8-0.6-1l-7.7,3.2v-2.7l4.6-1.9l-4.6-1.9V141.5z"/>
</g>
<g class="st1">
	<path class="st2" d="M301.8,172.6l-1.8-1.5c0.7-0.5,1-1.1,1-1.7c0-0.8-0.5-1.2-1.4-1.2h-4.2v3.4h-2.1v-6.1h6.2
		c2.5,0,3.8,1.3,3.8,3.8C303.2,170.6,302.7,171.8,301.8,172.6z"/>
	<path class="st2" d="M295.4,155.7h7.6v2.5h-0.8c0.6,0.6,0.9,1.4,0.9,2.3c0,1.9-1.1,3.2-3.5,3.2h-4.2V161h3.8c1.2,0,1.6-0.5,1.6-1.3
		c0-0.8-0.5-1.4-1.8-1.4h-3.7V155.7z"/>
	<path class="st2" d="M298.7,145.9h4.3v2.7h-3.9c-1.1,0-1.6,0.5-1.6,1.2c0,0.9,0.5,1.5,1.8,1.5h3.7v2.7h-7.6v-2.5h0.8
		c-0.6-0.6-1-1.5-1-2.4C295.3,147.3,296.3,145.9,298.7,145.9z"/>
</g>
<g class="st1">
	<path class="st2" d="M358.8,172.6l-1.8-1.5c0.7-0.5,1-1.1,1-1.7c0-0.8-0.5-1.2-1.4-1.2h-4.2v3.4h-2.1v-6.1h6.2
		c2.5,0,3.8,1.3,3.8,3.8C360.2,170.6,359.7,171.8,358.8,172.6z"/>
	<path class="st2" d="M352.4,155.7h7.6v2.5h-0.8c0.6,0.6,0.9,1.4,0.9,2.3c0,1.9-1.1,3.2-3.5,3.2h-4.2V161h3.8c1.2,0,1.6-0.5,1.6-1.3
		c0-0.8-0.5-1.4-1.8-1.4h-3.7V155.7z"/>
	<path class="st2" d="M349.6,154v-2.7H360v2.7H349.6z"/>
</g>
<g class="st1">
	<path class="st2" d="M416.1,164.8v4.1l1.9,0.8v2.8l-9.8-4.3v-2.7l9.8-4.3v2.9L416.1,164.8z M414,165.6l-3.1,1.3l3.1,1.3V165.6z"/>
	<path class="st2" d="M410.4,152.6h7.6v2.5h-0.8c0.6,0.6,0.9,1.4,0.9,2.3c0,1.9-1.1,3.2-3.5,3.2h-4.2V158h3.8c1.2,0,1.6-0.5,1.6-1.3
		c0-0.8-0.5-1.4-1.8-1.4h-3.7V152.6z"/>
	<path class="st2" d="M410.4,142.8h6.2c2.9,0,4.2,1.6,4.2,4.5c0,1.5-0.3,2.8-1,3.8l-1.9-1c0.5-0.6,0.8-1.7,0.8-2.6
		c0-1.4-0.6-2-1.8-2h-0.3c0.6,0.5,0.9,1.3,0.9,2.3c0,2-1.4,3.7-3.7,3.7c-2.2,0-3.7-1.7-3.7-3.7c0-1.1,0.3-1.9,1-2.4h-0.9V142.8z
		 M413.9,145.4c-0.9,0-1.5,0.7-1.5,1.7c0,1,0.6,1.7,1.5,1.7c0.9,0,1.6-0.7,1.6-1.7C415.5,146.1,414.9,145.4,413.9,145.4z"/>
</g>
<g class="st1">
	<path class="st2" d="M475.1,172l-2-0.9c0.6-0.9,1-2.1,1-3.2c0-1.1-0.3-1.6-0.8-1.6c-1.6,0-0.4,5.6-4.1,5.6c-1.8,0-3.2-1.4-3.2-4.3
		c0-1.3,0.3-2.6,0.9-3.6l2.1,0.9c-0.5,0.9-0.8,1.9-0.8,2.7c0,1.2,0.4,1.6,0.9,1.6c1.5,0,0.4-5.6,4-5.6c1.7,0,3.2,1.4,3.2,4.3
		C476.2,169.5,475.8,171.1,475.1,172z"/>
	<path class="st2" d="M472.9,154.7v5.5c0.8-0.2,1.2-0.9,1.2-1.9c0-0.7-0.2-1.2-0.7-1.8l1.5-1.4c0.8,0.7,1.2,1.8,1.2,3.2
		c0,2.7-1.7,4.5-3.9,4.5c-2.3,0-3.9-1.8-3.9-4.2c0-2.2,1.4-4.1,3.9-4.1C472.4,154.7,472.7,154.7,472.9,154.7z M471.5,160.3v-3.1
		c-0.8,0.1-1.3,0.7-1.3,1.6S470.7,160.1,471.5,160.3z"/>
	<path class="st2" d="M472.2,144.9c2.4,0,3.9,1.7,3.9,3.7c0,0.9-0.3,1.6-0.8,2.1h3.4v2.7h-10.3v-2.5h0.8c-0.6-0.5-0.9-1.2-0.9-2.2
		C468.3,146.6,469.8,144.9,472.2,144.9z M472.2,147.6c-1.1,0-1.8,0.7-1.8,1.6s0.7,1.6,1.8,1.6s1.8-0.7,1.8-1.6
		S473.4,147.6,472.2,147.6z"/>
</g>
<g class="st1">
	<path class="st2" d="M529.1,172.8c-2.9,0-5.1-2.3-5.1-5.4c0-3.1,2.2-5.4,5.1-5.4s5.1,2.3,5.1,5.4
		C534.2,170.5,532,172.8,529.1,172.8z M529.1,164.8c-1.7,0-2.8,1.2-2.8,2.6c0,1.5,1.1,2.6,2.8,2.6c1.7,0,2.8-1.2,2.8-2.6
		C531.9,165.9,530.8,164.8,529.1,164.8z"/>
	<path class="st2" d="M530.2,161.1c-2.3,0-3.9-1.8-3.9-4.4c0-1.7,0.8-3,2.1-3.6l1.1,2.1c-0.7,0.4-1,0.9-1,1.5c0,0.9,0.6,1.7,1.8,1.7
		c1.2,0,1.8-0.7,1.8-1.7c0-0.6-0.3-1.1-1-1.5l1.1-2.1c1.3,0.5,2.1,1.8,2.1,3.6C534.1,159.3,532.5,161.1,530.2,161.1z"/>
	<path class="st2" d="M533.7,146.8c0.3,0.5,0.4,1.1,0.4,1.8c0,1.9-1,3.1-2.9,3.1h-2.5v1.1h-2v-1.1h-2v-2.7h2v-1.7h2v1.7h2.5
		c0.6,0,0.9-0.3,0.9-0.8c0-0.3-0.1-0.6-0.2-0.8L533.7,146.8z"/>
</g>
<g class="st1">
	<path class="st2" d="M581.2,162h9.8v2.3l-5.2,4.3h5.2v2.7h-9.8v-2.3l5.2-4.3h-5.2V162z"/>
	<path class="st2" d="M587.2,160.7c-2.3,0-3.9-1.8-3.9-4.3c0-2.5,1.6-4.3,3.9-4.3c2.3,0,3.9,1.8,3.9,4.3
		C591.1,158.9,589.5,160.7,587.2,160.7z M587.2,154.8c-1.1,0-1.8,0.7-1.8,1.6c0,0.9,0.6,1.6,1.8,1.6c1.2,0,1.8-0.7,1.8-1.6
		C589,155.5,588.4,154.8,587.2,154.8z"/>
	<path class="st2" d="M583.4,143.1l7.6,3.1v2.7l-7.6,3.1v-2.7l4.6-1.8l-4.6-1.9V143.1z"/>
</g>
<g class="st1">
	<path class="st2" d="M639.2,171.3v-4.6c0-3.2,1.9-5.5,4.9-5.5s4.9,2.2,4.9,5.5v4.6H639.2z M646.8,166.8c0-1.7-1-2.8-2.7-2.8
		c-1.7,0-2.7,1.1-2.7,2.8v1.8h5.4V166.8z"/>
	<path class="st2" d="M645.9,152.2v5.5c0.8-0.2,1.2-0.9,1.2-1.9c0-0.7-0.2-1.2-0.7-1.8l1.5-1.4c0.8,0.7,1.2,1.8,1.2,3.2
		c0,2.7-1.7,4.5-3.9,4.5c-2.3,0-3.9-1.8-3.9-4.2c0-2.2,1.4-4.1,3.9-4.1C645.4,152.1,645.7,152.2,645.9,152.2z M644.5,157.8v-3.1
		c-0.8,0.1-1.3,0.7-1.3,1.6C643.2,157,643.7,157.6,644.5,157.8z"/>
	<path class="st2" d="M645.2,151.4c-2.3,0-3.9-1.8-3.9-4.4c0-1.7,0.8-3,2.1-3.6l1.1,2.1c-0.7,0.4-1,0.9-1,1.5c0,0.9,0.6,1.7,1.8,1.7
		c1.2,0,1.8-0.7,1.8-1.7c0-0.6-0.3-1.1-1-1.5l1.1-2.1c1.3,0.5,2.1,1.8,2.1,3.6C649.1,149.6,647.5,151.4,645.2,151.4z"/>
</g>
<g class="st1">
	<path class="st2" d="M108.4,52.1l1.3-2.9c1.2,0.8,3,1.4,4.6,1.4c1.6,0,2.3-0.5,2.3-1.1c0-2.2-8-0.6-8-5.8c0-2.5,2-4.5,6.2-4.5
		c1.8,0,3.7,0.4,5.1,1.2l-1.2,2.9c-1.3-0.7-2.7-1.1-3.9-1.1c-1.7,0-2.3,0.6-2.3,1.3c0,2.1,7.9,0.5,7.9,5.7c0,2.4-2,4.5-6.2,4.5
		C112,53.6,109.7,53,108.4,52.1z"/>
	<path class="st2" d="M133.7,47.1v6.2h-3.8v-5.6c0-1.6-0.7-2.2-1.8-2.2c-1.2,0-2.2,0.8-2.2,2.6v5.2h-3.8V38.5h3.8v5
		c0.8-0.8,2-1.2,3.3-1.2C131.8,42.3,133.7,43.8,133.7,47.1z"/>
	<path class="st2" d="M135.6,47.9c0-3.3,2.6-5.6,6.1-5.6c3.6,0,6.1,2.3,6.1,5.6c0,3.3-2.5,5.6-6.1,5.6
		C138.1,53.5,135.6,51.2,135.6,47.9z M144,47.9c0-1.6-1-2.6-2.3-2.6c-1.3,0-2.3,0.9-2.3,2.6c0,1.7,1,2.6,2.3,2.6
		C143,50.5,144,49.5,144,47.9z"/>
	<path class="st2" d="M160.7,42.5l-4.5,10.8h-3.9l-4.5-10.8h3.9l2.6,6.6l2.7-6.6H160.7z"/>
	<path class="st2" d="M172.4,48.9h-7.9c0.3,1.1,1.3,1.7,2.7,1.7c1.1,0,1.8-0.3,2.5-0.9l2,2.1c-1,1.2-2.6,1.8-4.6,1.8
		c-3.9,0-6.4-2.4-6.4-5.6c0-3.3,2.5-5.6,6-5.6c3.2,0,5.8,2,5.8,5.6C172.4,48.2,172.4,48.6,172.4,48.9z M164.4,46.9h4.4
		c-0.2-1.1-1-1.9-2.2-1.9S164.7,45.7,164.4,46.9z"/>
	<path class="st2" d="M174.2,38.5h3.8v14.8h-3.8V38.5z"/>
	<path class="st2" d="M186.5,39.3h6.6c4.6,0,7.8,2.7,7.8,7c0,4.3-3.2,7-7.8,7h-6.6V39.3z M192.9,50.2c2.4,0,4-1.4,4-3.8
		c0-2.4-1.6-3.8-4-3.8h-2.5v7.7H192.9z"/>
	<path class="st2" d="M213.8,48.9h-7.9c0.3,1.1,1.3,1.7,2.7,1.7c1.1,0,1.8-0.3,2.5-0.9l2,2.1c-1,1.2-2.6,1.8-4.6,1.8
		c-3.9,0-6.4-2.4-6.4-5.6c0-3.3,2.5-5.6,6-5.6c3.2,0,5.8,2,5.8,5.6C213.9,48.2,213.8,48.6,213.8,48.9z M205.9,46.9h4.4
		c-0.2-1.1-1-1.9-2.2-1.9S206.1,45.7,205.9,46.9z"/>
	<path class="st2" d="M234.1,47.1v6.2h-3.8v-5.6c0-1.6-0.6-2.2-1.6-2.2c-1.1,0-1.9,0.7-1.9,2.4v5.4H223v-5.6c0-1.6-0.6-2.2-1.6-2.2
		c-1.1,0-1.9,0.7-1.9,2.4v5.4h-3.8V42.5h3.6v1.1c0.8-0.9,2-1.3,3.2-1.3c1.5,0,2.7,0.5,3.5,1.7c0.9-1.1,2.2-1.7,3.8-1.7
		C232.3,42.3,234.1,43.8,234.1,47.1z"/>
	<path class="st2" d="M246.7,47.3v6h-3.5v-1.4c-0.5,1-1.6,1.6-3.2,1.6c-2.6,0-4-1.5-4-3.3c0-2,1.5-3.2,4.8-3.2h2.2
		c-0.1-1.1-0.8-1.7-2.3-1.7c-1,0-2.2,0.4-2.9,0.9l-1.3-2.6c1.2-0.8,3.1-1.3,4.8-1.3C244.7,42.3,246.7,43.9,246.7,47.3z M242.9,49.8
		v-0.9h-1.6c-1.2,0-1.7,0.4-1.7,1.1c0,0.6,0.5,1.1,1.4,1.1C241.9,51.1,242.6,50.7,242.9,49.8z"/>
	<path class="st2" d="M260.6,47.1v6.2h-3.8v-5.6c0-1.6-0.7-2.2-1.8-2.2c-1.2,0-2.2,0.8-2.2,2.6v5.2h-3.8V42.5h3.6v1.2
		c0.9-0.9,2.1-1.4,3.4-1.4C258.7,42.3,260.6,43.8,260.6,47.1z"/>
	<path class="st2" d="M274.7,38.5v14.8h-3.6v-1.1c-0.7,0.9-1.8,1.3-3.2,1.3c-3,0-5.3-2.2-5.3-5.6c0-3.4,2.4-5.6,5.3-5.6
		c1.3,0,2.3,0.4,3,1.1v-4.9H274.7z M271,47.9c0-1.6-1-2.6-2.3-2.6c-1.3,0-2.3,0.9-2.3,2.6c0,1.7,1,2.6,2.3,2.6
		C270,50.5,271,49.5,271,47.9z"/>
</g>
</svg>
