<svg id="Group_473" data-name="Group 473" xmlns="http://www.w3.org/2000/svg" xmlns:xlink="http://www.w3.org/1999/xlink" width="358.793" height="254.185" viewBox="0 0 358.793 254.185">
  <defs>
    <clipPath id="clip-path">
      <rect id="Rectangle_309" data-name="Rectangle 309" width="358.793" height="254.185" fill="none"/>
    </clipPath>
  </defs>
  <g id="Group_472" data-name="Group 472" clip-path="url(#clip-path)">
    <path id="Path_2991" data-name="Path 2991" d="M0,170.064c0-18.844,6-34.121,13.4-34.121s13.4,15.276,13.4,34.121-6,34.121-13.4,34.121S0,188.908,0,170.064" transform="translate(0 -44.166)" fill="#394e5f"/>
    <path id="Path_2992" data-name="Path 2992" d="M66.656,195.055c-1.778-.4-46.806,9.13-46.806,9.13V135.943L66.656,144.2Z" transform="translate(-6.449 -44.166)" fill="#394e5f"/>
    <path id="Path_2993" data-name="Path 2993" d="M447.455,314.376c0,14.043-4.471,25.427-9.987,25.427s-9.987-11.384-9.987-25.427,4.471-25.427,9.987-25.427,9.987,11.384,9.987,25.427" transform="translate(-138.883 -93.876)" fill="#394e5f"/>
    <path id="Path_2994" data-name="Path 2994" d="M442.274,284.555c1.778.4,46.806-9.13,46.806-9.13v68.242l-46.806-8.256Z" transform="translate(-143.689 -89.482)" fill="#394e5f"/>
    <path id="Path_2995" data-name="Path 2995" d="M518.558,309.546c0,18.844-6,34.121-13.4,34.121s-13.4-15.276-13.4-34.121,6-34.121,13.4-34.121,13.4,15.276,13.4,34.121" transform="translate(-159.765 -89.482)" fill="#487a7d" stroke="#fff" stroke-width="3"/>
    <path id="Path_2996" data-name="Path 2996" d="M74.388,173.6c0-14.043,4.471-25.427,9.987-25.427s9.987,11.384,9.987,25.427-4.471,25.427-9.987,25.427-9.987-11.384-9.987-25.427" transform="translate(-24.168 -48.139)" fill="#487a7d" stroke="#fff" stroke-width="3"/>
    <path id="Path_2997" data-name="Path 2997" d="M91.178,126.059c25.419.857,54.394,2.517,75.214-14.718,14.155-11.717,21.192-28.209,21.911-46.208.757-18.967-4.77-39.1-18.91-51.764-6.066-5.431-13.733-9.351-21.861-9.824s-16.656,2.86-21.4,9.477c-14.942,20.838,10.483,45.245,29.461,50.322,25.646,6.861,43.085-11.056,65.344-19.551a78.877,78.877,0,0,1,73.189,9.742c16.657,12.127,16.313,29.039,2.7,43.759-4.548,4.918-9.93,9.408-16.4,11.142s-14.193.107-18.145-5.3c-4.7-6.427-2.669-15.65,1.464-22.454a43.708,43.708,0,0,1,58.237-15.7c7.486,4.072,13.87,10.611,16.509,18.714,4.818,14.792-4.024,31.271-16.763,40.2-17.5,12.265-41.214,14.369-61.183,20.831-35.513,11.491-76.6,27.07-103.265,54.2-6.819,6.939-13.439,17.494-9.331,27.466,3.718,9.025,14.7,12.893,24.451,12.577A46.6,46.6,0,0,0,202.576,226.4a47.858,47.858,0,0,0,14.164-40.8c-1.9-14.094-11.251-26.869-26.361-27.481-7.807-.316-15.455,2.287-22.507,5.653a104.879,104.879,0,0,0-40.752,34.644c-8.612,12.4-8.477,27.644,2.821,38.512,7.777,7.48,18.661,10.972,29.4,12.037,26.369,2.617,49.389-9.67,73.418-18.261,26.9-9.617,51.8-13.643,80.287-11.531" transform="translate(-29.623 -1.137)" fill="none" stroke="#394e5f" stroke-linecap="round" stroke-width="7"/>
  </g>
</svg>
