<?xml version="1.0" encoding="UTF-8"?><svg id="Layer_1" xmlns="http://www.w3.org/2000/svg" viewBox="0 0 500 500"><defs><style>.cls-1{fill:#c6002b;}</style></defs><path class="cls-1" d="M360.45,69.91c-45.81,0-86.75,24.27-110.45,59.72-23.7-35.44-64.64-59.72-110.45-59.72C66.54,69.91,7.4,129.06,7.4,202.06c0,46.32,29.33,79.71,59.98,110.6l119.81,113.27c6.28,5.94,16.61,1.48,16.61-7.15v-88.25c0-25.53,20.68-46.24,46.2-46.28,25.52,.04,46.2,20.74,46.2,46.28v88.25c0,8.64,10.33,13.09,16.61,7.15l119.81-113.27c30.64-30.9,59.98-64.29,59.98-110.6,0-73-59.15-132.15-132.15-132.15Zm-230.42,234.05c-1.81,2.05-4.33,3.08-6.85,3.08-2.16,0-4.33-.75-6.07-2.29-39.46-34.98-59.47-71.48-59.47-108.51v-.44c0-31.82,19.42-68,45.16-84.16,4.29-2.68,9.94-1.39,12.62,2.9,2.69,4.28,1.4,9.93-2.89,12.62-20.52,12.87-36.59,43.02-36.59,68.64v.44c0,31.56,17.94,63.46,53.3,94.8,3.8,3.36,4.14,9.15,.79,12.93Zm58.91-33.98c-1.68,2.99-4.79,4.68-8,4.68-1.52,0-3.06-.37-4.47-1.17-26.75-14.98-44.76-44.4-44.88-73.29v-.28c.11-27.47,15.25-52.46,39.6-65.26,4.47-2.35,10.01-.63,12.37,3.84,2.36,4.48,.64,10.01-3.84,12.37-18.35,9.65-29.76,28.49-29.81,49.18,.05,22.52,14.31,45.59,35.51,57.46,4.42,2.46,5.99,8.05,3.52,12.46Zm61.06-23.39c-21.94-.01-39.72-17.8-39.72-39.74s17.78-39.73,39.72-39.74c21.94,.01,39.72,17.8,39.72,39.74s-17.78,39.73-39.72,39.74Zm73.53,26.9c-1.42,.79-2.95,1.17-4.47,1.17-3.2,0-6.32-1.69-8-4.68-2.47-4.41-.89-10,3.52-12.46,21.2-11.87,35.45-34.94,35.51-57.46-.05-20.69-11.46-39.53-29.81-49.18-4.48-2.36-6.2-7.89-3.84-12.37,2.36-4.47,7.9-6.2,12.37-3.84,24.35,12.8,39.49,37.79,39.6,65.26v.28c-.12,28.89-18.13,58.31-44.88,73.29Zm118.84-77.26c0,37.03-20.01,73.53-59.47,108.51-1.74,1.54-3.91,2.29-6.07,2.29-2.52,0-5.04-1.03-6.85-3.08-3.35-3.78-3.01-9.57,.79-12.93,35.37-31.34,53.3-63.24,53.3-94.8v-.44c0-25.62-16.07-55.77-36.59-68.64-4.29-2.69-5.58-8.34-2.89-12.62,2.68-4.29,8.34-5.58,12.62-2.9,25.74,16.16,45.16,52.34,45.16,84.16v.44Z"/></svg>