<?xml version="1.0" encoding="UTF-8"?><svg id="a" xmlns="http://www.w3.org/2000/svg" viewBox="0 0 500 500"><defs><style>.b{fill:none;stroke:#354f61;stroke-linecap:round;stroke-linejoin:round;stroke-width:13px;}</style></defs><path class="b" d="M116.04,327.54l-4.44,.36c-3.36,.27-6.05-2.72-5.43-6.03l7.79-41.66c.46-2.48-.95-4.92-3.33-5.76l-39.97-14.08c-3.18-1.12-4.42-4.95-2.51-7.72l24.06-34.89c1.43-2.07,1.14-4.88-.7-6.61l-30.79-29.13c-2.45-2.31-2.03-6.32,.85-8.08l36.17-22.09c2.15-1.31,3.02-4,2.06-6.33l-16.28-39.13c-1.29-3.11,.72-6.6,4.06-7.03l42.03-5.47c2.5-.32,4.39-2.42,4.45-4.94l1.04-42.37c.08-3.37,3.34-5.73,6.57-4.77l40.62,12.1c2.42,.72,4.99-.43,6.08-2.71l18.19-38.28c1.44-3.04,5.39-3.88,7.94-1.69l32.18,27.58c1.91,1.64,4.74,1.64,6.65,0l32.18-27.58c2.56-2.19,6.5-1.35,7.94,1.69l18.19,38.28c1.08,2.28,3.66,3.42,6.08,2.71l40.62-12.1c3.23-.96,6.49,1.41,6.57,4.77l1.04,42.37c.06,2.52,1.95,4.62,4.45,4.94l42.03,5.47c3.34,.43,5.35,3.92,4.06,7.03l-16.28,39.13c-.97,2.33-.1,5.01,2.06,6.33l36.17,22.09c2.87,1.75,3.3,5.76,.85,8.08l-30.79,29.13c-1.83,1.73-2.13,4.54-.7,6.61l24.06,34.89c1.91,2.77,.67,6.6-2.51,7.72l-39.97,14.08c-2.38,.84-3.79,3.28-3.33,5.76l7.79,41.66c.62,3.31-2.08,6.3-5.43,6.03l-42.25-3.39c-2.51-.2-4.8,1.46-5.38,3.91l-9.83,41.23c-.78,3.28-4.46,4.91-7.42,3.3l-37.21-20.28c-2.21-1.21-4.97-.62-6.51,1.38l-25.75,33.67c-2.05,2.67-6.07,2.67-8.12,0l-25.75-33.67c-1.53-2-4.29-2.59-6.51-1.38l-37.21,20.28c-2.96,1.61-6.64-.03-7.42-3.3l-9.83-41.23c-.58-2.45-2.87-4.11-5.38-3.91l-37.8,3.04"/><path class="b" d="M353.05,326.66l65.74,114.29c.84,1.46-.37,3.25-2.04,3l-55.96-8.13c-.94-.14-1.84,.4-2.18,1.28l-19.58,51.6c-.6,1.59-2.78,1.77-3.63,.29l-68.79-117.64"/><path class="b" d="M225.26,365.82l-69.87,121.01c-.84,1.46-3,1.3-3.62-.26l-20.94-52.53c-.35-.88-1.26-1.4-2.2-1.24l-54.48,8.84c-1.68,.27-2.92-1.53-2.07-3l64.93-111.97"/></svg>