<?xml version="1.0" encoding="UTF-8"?><svg id="a" xmlns="http://www.w3.org/2000/svg" viewBox="0 0 500 500"><defs><style>.b{fill:none;stroke:#354f61;stroke-linecap:round;stroke-linejoin:round;stroke-width:13px;}</style></defs><line class="b" x1="212.9" y1="438.08" x2="288.87" y2="438.08"/><line class="b" x1="201.83" y1="463.01" x2="299.95" y2="463.01"/><line class="b" x1="223.98" y1="487.03" x2="277.79" y2="487.03"/><path class="b" d="M382.59,209.85c.05,41.18-18.75,77.98-48.24,102.24-24.71,20.32-39.17,50.53-39.17,82.53h0c0,6.23-5.05,11.28-11.28,11.28h-66.83c-6.23,0-11.28-5.05-11.28-11.28h0c0-31.9-14.28-62.14-38.96-82.36-29.58-24.22-48.45-61.03-48.45-102.24,0-71.44,56.72-129.63,127.58-132.02,74.12-2.5,136.54,57.68,136.63,131.85Z"/><path class="b" d="M233.89,369.28s10.86-80.88-34.4-156.33c0,0,27.96,29.77,50.9,2.01"/><path class="b" d="M267.25,369.28s-10.86-80.88,34.4-156.33c0,0-28.34,29.77-51.27,2.01"/><line class="b" x1="251.51" y1="10" x2="251.51" y2="46.86"/><g><line class="b" x1="355.44" y1="45.67" x2="338.87" y2="71.03"/><line class="b" x1="423.7" y1="126.62" x2="405.08" y2="136.04"/></g><g><line class="b" x1="144.56" y1="45.67" x2="161.13" y2="71.03"/><line class="b" x1="76.3" y1="126.62" x2="94.92" y2="136.04"/></g></svg>