<?xml version="1.0" encoding="UTF-8"?><svg id="a" xmlns="http://www.w3.org/2000/svg" viewBox="0 0 500 500"><defs><style>.b{fill:none;stroke:#354f61;stroke-linecap:round;stroke-linejoin:round;stroke-width:13px;}</style></defs><path class="b" d="M239.84,147.27l-86.27,171.73c-2.62,5.21-8.87,7.45-14.2,5.07l-80.92-36.03c-10.22-4.55-22.21-.14-27.05,9.95l-2.61,5.44c-4.66,9.73-1.06,21.4,8.27,26.81l89.27,51.74c15.74,9.13,35.83,4.97,46.66-9.66l60.89-82.26,76.78,55.63c4.11,2.98,6.61,7.69,6.77,12.76l3.38,108.78c.35,11.16,9.49,20.03,20.66,20.03h2.76c10.68,0,19.6-8.14,20.58-18.78l10.45-113.78c1.95-21.25-6.89-42.07-23.54-55.42l-71.93-57.67,30.6-45.9,41.53,61c7.43,10.91,21.65,14.87,33.65,9.36l75.61-34.72c10.21-4.69,14.8-16.67,10.35-26.98h0c-4.5-10.43-16.59-15.27-27.05-10.83l-58.17,24.68c-3.94,1.67-8.49-.1-10.25-4l-24.11-53.12c-18.96-41.78-61.32-67.92-107.17-66.15l-54.44,2.11c-14.98,.58-28.96,7.66-38.3,19.38l-42.34,53.19c-7.02,8.82-5.68,21.64,3.02,28.82l2.07,1.71c8.93,7.36,22.16,5.97,29.35-3.1l36.72-46.32c3.41-4.3,8.71-6.66,14.18-6.31l44.81,2.84Z"/><circle class="b" cx="349.87" cy="54.21" r="43.95"/></svg>