<?xml version="1.0" encoding="UTF-8"?><svg id="Layer_2" xmlns="http://www.w3.org/2000/svg" xmlns:xlink="http://www.w3.org/1999/xlink" viewBox="0 0 261.71 234.76"><defs><style>.cls-1{fill:none;}.cls-2{fill:url(#linear-gradient);}.cls-3{clip-path:url(#clippath);}.cls-4,.cls-5{fill:#221f20;}.cls-6{fill:#9d2824;}.cls-7{clip-path:url(#clippath-1);}.cls-8{clip-path:url(#clippath-3);}.cls-9{clip-path:url(#clippath-2);}.cls-10{fill:url(#linear-gradient-3);}.cls-11{fill:url(#linear-gradient-4);}.cls-12{fill:url(#linear-gradient-2);}.cls-5{fill-rule:evenodd;}</style><clipPath id="clippath"><path class="cls-1" d="M186.7,162.91c-13.6,16.6-34.18,26.57-55.86,26.57s-42.25-9.97-55.85-26.57h111.71m-55.86-117.63c21.64,0,42.2,9.95,55.8,26.51H75.04c13.6-16.56,34.16-26.5,55.8-26.51M60.47,30.77c-19.52,15.89-33.24,38.09-38.64,62.58L7.11,162.93H28.91c17.98,40.27,57.57,66.07,101.93,66.07,52.52,0,98.48-37.31,109.27-88.71l14.5-68.5h-21.85C214.77,31.55,175.19,5.76,130.84,5.76c-25.57,0-50.56,8.88-70.37,25.01"/></clipPath><linearGradient id="linear-gradient" x1="724.56" y1="414.19" x2="725.56" y2="414.19" gradientTransform="translate(-91216.08 -159791.75) rotate(90) scale(220.55 -220.55)" gradientUnits="userSpaceOnUse"><stop offset="0" stop-color="#c7c8ca"/><stop offset="1" stop-color="#58595b"/></linearGradient><clipPath id="clippath-1"><path class="cls-1" d="M130.84,45.28c21.64,0,42.2,9.95,55.8,26.51H75.04c13.6-16.56,34.16-26.5,55.8-26.51m-49.49-9.14l-24.65,44.45H205.38l-24.21-44.45H81.35Z"/></clipPath><linearGradient id="linear-gradient-2" x1="723.45" y1="442.6" x2="724.45" y2="442.6" gradientTransform="translate(18435.29 29996.37) rotate(-90) scale(41.36 -41.36)" gradientUnits="userSpaceOnUse"><stop offset="0" stop-color="#b2b3b6"/><stop offset="1" stop-color="#6d6e71"/></linearGradient><clipPath id="clippath-2"><path class="cls-1" d="M186.7,162.91c-13.6,16.6-34.18,26.57-55.86,26.57s-42.25-9.97-55.85-26.57h111.71m-128.37-8.9l21.57,44.63h101.46l22.83-44.63H58.34Z"/></clipPath><linearGradient id="linear-gradient-3" x1="723.4" y1="444.03" x2="724.4" y2="444.03" gradientTransform="translate(17457.83 28421.62) rotate(-90) scale(39.02 -39.02)" gradientUnits="userSpaceOnUse"><stop offset="0" stop-color="#fff"/><stop offset="1" stop-color="#636466"/></linearGradient><clipPath id="clippath-3"><path class="cls-1" d="M197.77,157.15c-13.6,22.8-38.51,38.09-66.92,38.09s-53.32-15.3-66.91-38.09H197.77M130.84,39.52c28.39,0,53.27,15.27,66.88,38.02H63.96c13.61-22.76,38.49-38.02,66.88-38.02M27.46,94.53l-13.25,62.64h18.51c15.73,38.74,53.74,66.07,98.12,66.07,50.97,0,93.56-36.17,103.63-84.14l13.02-61.55h-18.54c-15.74-38.72-53.74-66.04-98.11-66.04-50.6,0-92.91,35.57-103.38,83.01"/></clipPath><linearGradient id="linear-gradient-4" x1="724.58" y1="413.56" x2="725.58" y2="413.56" gradientTransform="translate(-79878.12 -140154.16) rotate(90) scale(193.47 -193.47)" gradientUnits="userSpaceOnUse"><stop offset="0" stop-color="#fff"/><stop offset="1" stop-color="#9d9fa1"/></linearGradient></defs><g id="Layer_1-2"><g><path class="cls-5" d="M130.84,234.76c-22.86,0-44.99-6.52-64-18.86-17.93-11.64-32.25-27.91-41.61-47.21H0L16.19,92.15c5.69-25.78,20.12-49.15,40.64-65.85C77.67,9.34,103.95,0,130.84,0c22.85,0,44.97,6.52,63.98,18.85,17.92,11.63,32.25,27.89,41.61,47.18h25.28l-15.97,75.45c-11.34,54.04-59.67,93.28-114.9,93.28m-41.93-66.09c11.8,9.58,26.74,15.05,41.93,15.05s30.14-5.48,41.94-15.05H88.92Zm83.78-102.65c-11.79-9.53-26.7-14.98-41.85-14.98s-30.07,5.45-41.85,14.98h83.7Z"/><g class="cls-3"><rect class="cls-2" x="7.11" y="5.76" width="247.5" height="223.24"/></g><g class="cls-7"><rect class="cls-12" x="56.7" y="36.14" width="148.68" height="44.45"/></g><g class="cls-9"><rect class="cls-10" x="58.34" y="154.02" width="145.86" height="44.63"/></g><g class="cls-8"><rect class="cls-11" x="14.21" y="11.52" width="233.29" height="211.73"/></g><path class="cls-6" d="M129.84,99.74h-8.14l-2.05,9.69h-14.92l3.93-18.59h64.34l-1.63,7.68c4.76-6.15,13.84-8.77,23.28-8.77,4.45,0,12.59,.94,13.48,5h.19l.83-3.91h14.92l-3.42,16.17h-14.82c1.8-5.78-2.3-8.36-8.99-8.36-3.78,0-9.16,1.17-9.95,4.92-1.82,8.59,34.9,4.06,30.9,22.97-2.58,12.18-12.88,16.48-27.03,16.48-5.72,0-12.92-1.25-14.43-6.02h-.19l-1.04,4.92h-14.92l3.71-17.58h15.99c-1.4,5.7,1.71,9.76,9.08,9.76,4.26,0,9.33-1.48,10.17-5.47,1.79-8.5-28.75-5.5-30.96-19.21h-14.01l2.05-9.69h-8.14l-7.03,33.28h8.14l-1.88,8.91h-34.5l1.88-8.91h8.14l7.03-33.28Z"/><path class="cls-6" d="M67.94,118.88h14.63l-3.6-16.88h-.19l-10.83,16.88Zm-30.02,14.14h3.88l30.23-42.19h21.61l11.92,42.19h3.88l-1.88,8.9h-30.14l1.88-8.9h7.17l-1.6-5.7h-22.77l-4.02,5.7h7.17l-1.88,8.9h-27.33l1.88-8.9Z"/><path class="cls-4" d="M226.89,196.52c4.3,0,7.73,3.33,7.73,7.59s-3.43,7.64-7.78,7.64-7.82-3.38-7.82-7.64,3.47-7.59,7.82-7.59h.05Zm-.09,1.53c-3.29,0-5.83,2.73-5.83,6.06s2.55,6.07,5.93,6.07c3.29,.05,5.79-2.69,5.79-6.02s-2.5-6.11-5.83-6.11h-.05Zm-1.16,10h-1.76v-7.59c.7-.09,1.67-.23,2.92-.23,1.43,0,2.08,.23,2.59,.6,.46,.32,.79,.88,.79,1.62,0,.93-.7,1.53-1.57,1.8v.09c.74,.23,1.11,.83,1.34,1.85,.23,1.16,.42,1.57,.56,1.85h-1.85c-.23-.28-.37-.93-.6-1.85-.14-.79-.6-1.16-1.57-1.16h-.83v3.01Zm.05-4.26h.83c.97,0,1.76-.32,1.76-1.11,0-.7-.51-1.16-1.62-1.16-.46,0-.79,.05-.97,.09v2.18Z"/></g></g></svg>