<?xml version="1.0" encoding="utf-8"?>
<!-- Generator: Adobe Illustrator 26.3.1, SVG Export Plug-In . SVG Version: 6.00 Build 0)  -->
<svg version="1.1" id="Layer_1" xmlns="http://www.w3.org/2000/svg" xmlns:xlink="http://www.w3.org/1999/xlink" x="0px" y="0px"
	 viewBox="0 0 458 154" style="enable-background:new 0 0 458 154;" xml:space="preserve">
<style type="text/css">
	.st0{opacity:0.2;fill:#354F60;}
	.st1{enable-background:new    ;}
	.st2{fill:#405E76;}
	.st3{fill:#E89D52;}
	.st4{fill:#FFFFFF;}
</style>
<g id="Group_129" transform="translate(-511 -639)">
	<rect id="Rectangle_164" x="544.9" y="697" class="st0" width="424.1" height="6"/>
	<g class="st1">
		<path class="st2" d="M649.8,745.1c-1.4,0.9-3.4,1.3-5.4,1.3c-5.7,0-9-2.8-9-8.5v-7.5h-3.2v-5.8h3.2v-5.8h7.8v5.8h5.1v5.8h-5.1v7.4
			c0,1.6,0.9,2.5,2.3,2.5c0.9,0,1.7-0.2,2.4-0.7L649.8,745.1z"/>
		<path class="st2" d="M650.8,734.8c0-6.7,5.3-11.4,12.5-11.4c7.3,0,12.5,4.8,12.5,11.4c0,6.7-5.2,11.5-12.5,11.5
			C656.1,746.4,650.8,741.6,650.8,734.8z M668,734.8c0-3.4-2-5.2-4.7-5.2c-2.6,0-4.7,1.9-4.7,5.2c0,3.4,2.1,5.3,4.7,5.3
			C666,740.2,668,738.3,668,734.8z"/>
		<path class="st2" d="M704.4,734.9c0,7.1-4.9,11.5-10.9,11.5c-2.6,0-4.7-0.8-6.2-2.3v9.9h-7.8v-30.2h7.4v2.2
			c1.5-1.8,3.6-2.6,6.6-2.6C699.5,723.4,704.4,727.8,704.4,734.9z M696.5,734.9c0-3.4-2-5.3-4.7-5.3s-4.7,1.9-4.7,5.3
			c0,3.4,2.1,5.3,4.7,5.3S696.5,738.3,696.5,734.9z"/>
		<path class="st2" d="M744.8,734.9c0,7.1-4.9,11.5-10.9,11.5c-2.6,0-4.7-0.8-6.2-2.3v9.9h-7.8v-30.2h7.4v2.2
			c1.5-1.8,3.6-2.6,6.6-2.6C739.9,723.4,744.8,727.8,744.8,734.9z M736.9,734.9c0-3.4-2-5.3-4.7-5.3s-4.7,1.9-4.7,5.3
			c0,3.4,2.1,5.3,4.7,5.3S736.9,738.3,736.9,734.9z"/>
		<path class="st2" d="M763.3,723.4v7c-0.7-0.1-1.2-0.1-1.8-0.1c-3.2,0-5.3,1.6-5.3,5.5V746h-7.8v-22.2h7.4v2.7
			C757.4,724.4,760,723.4,763.3,723.4z"/>
		<path class="st2" d="M765.6,717.2c0-2.3,1.9-4.1,4.8-4.1s4.8,1.7,4.8,4c0,2.5-1.9,4.3-4.8,4.3S765.6,719.5,765.6,717.2z
			 M766.5,723.8h7.8V746h-7.8V723.8z"/>
		<path class="st2" d="M777.9,734.8c0-6.7,5.3-11.4,12.5-11.4c7.3,0,12.5,4.8,12.5,11.4c0,6.7-5.2,11.5-12.5,11.5
			C783.2,746.4,777.9,741.6,777.9,734.8z M795.1,734.8c0-3.4-2-5.2-4.7-5.2c-2.6,0-4.7,1.9-4.7,5.2c0,3.4,2,5.3,4.7,5.3
			C793.1,740.2,795.1,738.3,795.1,734.8z"/>
		<path class="st2" d="M821.5,723.4v7c-0.7-0.1-1.2-0.1-1.8-0.1c-3.2,0-5.3,1.6-5.3,5.5V746h-7.8v-22.2h7.4v2.7
			C815.6,724.4,818.2,723.4,821.5,723.4z"/>
		<path class="st2" d="M823.8,717.2c0-2.3,1.9-4.1,4.8-4.1c2.9,0,4.8,1.7,4.8,4c0,2.5-1.9,4.3-4.8,4.3
			C825.7,721.3,823.8,719.5,823.8,717.2z M824.7,723.8h7.8V746h-7.8V723.8z"/>
		<path class="st2" d="M852.9,745.1c-1.4,0.9-3.4,1.3-5.4,1.3c-5.7,0-9-2.8-9-8.5v-7.5h-3.2v-5.8h3.2v-5.8h7.8v5.8h5.1v5.8h-5.1v7.4
			c0,1.6,0.9,2.5,2.3,2.5c0.9,0,1.7-0.2,2.4-0.7L852.9,745.1z"/>
		<path class="st2" d="M855,717.2c0-2.3,1.9-4.1,4.8-4.1c2.9,0,4.8,1.7,4.8,4c0,2.5-1.9,4.3-4.8,4.3
			C856.9,721.3,855,719.5,855,717.2z M855.9,723.8h7.8V746h-7.8V723.8z"/>
		<path class="st2" d="M891.3,736.9h-16.2c0.7,2.3,2.6,3.6,5.5,3.6c2.2,0,3.6-0.6,5.1-1.9l4.1,4.3c-2.1,2.4-5.2,3.6-9.5,3.6
			c-7.9,0-13-4.9-13-11.5c0-6.7,5.2-11.4,12.2-11.4c6.6,0,11.9,4.2,11.9,11.5C891.4,735.5,891.3,736.2,891.3,736.9z M875,732.8h9.1
			c-0.4-2.3-2.1-3.8-4.6-3.8C877.1,728.9,875.5,730.4,875,732.8z"/>
		<path class="st2" d="M893.2,744.1l2.3-5.3c2.1,1.3,5,2,7.8,2c2.6,0,3.5-0.6,3.5-1.5c0-3-13.1,0.4-13.1-8.5c0-4.2,3.9-7.4,10.8-7.4
			c3.1,0,6.6,0.7,8.8,1.9l-2.3,5.3c-2.2-1.2-4.4-1.6-6.4-1.6c-2.6,0-3.6,0.7-3.6,1.6c0,3.1,13.1-0.2,13.1,8.6c0,4.1-3.8,7.3-11,7.3
			C899.3,746.4,895.4,745.4,893.2,744.1z"/>
		<path class="st2" d="M929,725.7c0-1.6-1.5-2.6-3.6-2.6c-2.2,0-4.1,1.1-5.1,3l-6.1-3.3c2.2-3.6,6.2-6.1,12.2-6.1
			c6.3,0,10.8,2.7,10.8,7.7c0,6.4-6.7,7.3-6.7,11.1h-7.3C923.1,730.2,929,728.8,929,725.7z M922.2,742.1c0-2.4,1.9-4.2,4.6-4.2
			c2.7,0,4.7,1.8,4.7,4.2s-1.9,4.3-4.7,4.3C924,746.4,922.2,744.4,922.2,742.1z"/>
	</g>
	<g id="Group_128" transform="translate(-216 82)">
		<circle id="Ellipse_1" class="st3" cx="785.6" cy="651.5" r="47.5"/>
		<g class="st1">
			<path class="st4" d="M808,667.9V679h-44.4v-8.8l22.7-21.4c5.2-5,6.1-8,6.1-10.8c0-4.6-3.2-7.3-9.4-7.3c-5,0-9.3,1.9-12.2,5.9
				l-9.9-6.4c4.5-6.6,12.8-10.9,23.4-10.9c13.1,0,21.8,6.7,21.8,17.4c0,5.7-1.6,10.9-9.8,18.6l-13.5,12.8H808V667.9z"/>
		</g>
	</g>
	<g class="st1">
		<path class="st2" d="M570.2,650.3V679h-8.1v-11.2H551V679h-8.1v-28.7h8.1v10.8h11.1v-10.8H570.2z"/>
		<path class="st2" d="M574.2,667.8c0-6.7,5.3-11.4,12.5-11.4c7.3,0,12.5,4.8,12.5,11.4c0,6.7-5.2,11.5-12.5,11.5
			C579.4,679.4,574.2,674.6,574.2,667.8z M591.4,667.8c0-3.4-2-5.2-4.7-5.2c-2.6,0-4.7,1.9-4.7,5.2c0,3.4,2.1,5.3,4.7,5.3
			C589.4,673.2,591.4,671.3,591.4,667.8z"/>
		<path class="st2" d="M639.1,656.8l-7.9,22.2h-7.5l-4.2-12.1l-4.3,12.1h-7.5l-7.9-22.2h7.4l4.6,13.4l4.7-13.4h6.6l4.6,13.6
			l4.7-13.6H639.1z"/>
		<path class="st2" d="M652,667.8c0-6.7,5.3-11.4,12.8-11.4c5,0,8.9,2.3,10.4,6.1l-6,3.1c-1.1-2.1-2.6-3-4.4-3
			c-2.7,0-4.8,1.9-4.8,5.2c0,3.4,2.1,5.3,4.8,5.3c1.8,0,3.4-0.9,4.4-3l6,3.1c-1.5,3.9-5.4,6.1-10.4,6.1
			C657.3,679.4,652,674.6,652,667.8z"/>
		<path class="st2" d="M698.9,666.7V679h-7.3v-2.9c-1.1,2.1-3.3,3.2-6.6,3.2c-5.3,0-8.3-3-8.3-6.8c0-4.1,3-6.6,9.9-6.6h4.4
			c-0.1-2.3-1.6-3.5-4.7-3.5c-2.1,0-4.5,0.7-6,1.9l-2.6-5.3c2.5-1.7,6.3-2.6,9.8-2.6C694.8,656.4,698.9,659.6,698.9,666.7z
			 M691.1,671.9V670h-3.4c-2.5,0-3.4,0.9-3.4,2.3c0,1.3,1.1,2.3,2.9,2.3C689,674.4,690.5,673.6,691.1,671.9z"/>
		<path class="st2" d="M727.5,666.3V679h-7.8v-11.4c0-3.2-1.4-4.6-3.6-4.6c-2.5,0-4.4,1.6-4.4,5.2V679h-7.8v-22.2h7.4v2.4
			c1.8-1.8,4.3-2.8,7.1-2.8C723.5,656.4,727.5,659.4,727.5,666.3z"/>
		<path class="st2" d="M767.7,656.8l-9.6,23.1c-2.3,5.7-5.6,7.4-10,7.4c-2.3,0-5-0.8-6.4-2l2.7-5.5c0.9,0.8,2.2,1.3,3.4,1.3
			c1.5,0,2.4-0.6,3-1.9l-9.5-22.5h8l5.5,13.6l5.5-13.6h7.4V656.8z"/>
		<path class="st2" d="M767.7,667.8c0-6.7,5.3-11.4,12.5-11.4c7.3,0,12.5,4.8,12.5,11.4c0,6.7-5.2,11.5-12.5,11.5
			C773,679.4,767.7,674.6,767.7,667.8z M784.9,667.8c0-3.4-2-5.2-4.7-5.2c-2.6,0-4.7,1.9-4.7,5.2c0,3.4,2,5.3,4.7,5.3
			C782.9,673.2,784.9,671.3,784.9,667.8z"/>
		<path class="st2" d="M819.8,656.8V679h-7.4v-2.4c-1.7,1.8-4.1,2.7-6.6,2.7c-5.5,0-9.4-3.1-9.4-10.2v-12.4h7.8v11.2
			c0,3.4,1.4,4.8,3.7,4.8s4.2-1.5,4.2-5.2v-10.7L819.8,656.8L819.8,656.8z"/>
		<path class="st2" d="M860.4,666.3V679h-7.8v-11.4c0-3.2-1.4-4.6-3.6-4.6c-2.5,0-4.4,1.6-4.4,5.2V679h-7.8v-30.4h7.8v10.2
			c1.7-1.6,4.1-2.4,6.7-2.4C856.4,656.4,860.4,659.4,860.4,666.3z"/>
		<path class="st2" d="M886.1,666.7V679h-7.3v-2.9c-1.1,2.1-3.3,3.2-6.6,3.2c-5.3,0-8.3-3-8.3-6.8c0-4.1,3-6.6,9.9-6.6h4.4
			c-0.1-2.3-1.6-3.5-4.7-3.5c-2.1,0-4.5,0.7-6,1.9l-2.6-5.3c2.5-1.7,6.3-2.6,9.8-2.6C881.9,656.4,886.1,659.6,886.1,666.7z
			 M878.3,671.9V670h-3.4c-2.5,0-3.4,0.9-3.4,2.3c0,1.3,1.1,2.3,2.9,2.3C876.2,674.4,877.7,673.6,878.3,671.9z"/>
		<path class="st2" d="M914,656.8l-9.2,22.2h-8l-9.1-22.2h8l5.3,13.6l5.6-13.6H914z"/>
		<path class="st2" d="M938,669.9h-16.2c0.7,2.3,2.6,3.6,5.5,3.6c2.2,0,3.6-0.6,5.1-1.9l4.1,4.3c-2.1,2.4-5.2,3.6-9.5,3.6
			c-7.9,0-13-4.9-13-11.5c0-6.7,5.2-11.4,12.2-11.4c6.6,0,11.9,4.2,11.9,11.5C938.1,668.5,938,669.2,938,669.9z M921.7,665.8h9.1
			c-0.4-2.3-2.1-3.8-4.6-3.8S922.2,663.4,921.7,665.8z"/>
	</g>
</g>
</svg>
