<?xml version="1.0" encoding="utf-8"?>
<!-- Generator: Adobe Illustrator 26.0.3, SVG Export Plug-In . SVG Version: 6.00 Build 0)  -->
<svg version="1.1" id="Layer_1" xmlns="http://www.w3.org/2000/svg" xmlns:xlink="http://www.w3.org/1999/xlink" x="0px" y="0px"
	 viewBox="0 0 800 100" style="enable-background:new 0 0 800 100;" xml:space="preserve">
<style type="text/css">
	.st0{opacity:0.2;fill:#3C4B57;}
	.st1{enable-background:new    ;}
	.st2{fill:#405E76;}
	.st3{fill:#E89D52;}
</style>
<g id="Group_1538" transform="translate(-320 -566)">
	<g id="Group_131" transform="translate(0 62)">
		<rect id="Rectangle_164" x="320" y="533" class="st0" width="800" height="6"/>
		<g class="st1">
			<path class="st2" d="M369.7,516c0-4.3,3.3-7.3,7.7-7.3c2.6,0,4.7,0.9,6,2.6l-2.5,2.3c-0.9-1.1-2-1.6-3.3-1.6
				c-2.3,0-3.9,1.6-3.9,4c0,2.4,1.6,4,3.9,4c1.3,0,2.4-0.6,3.3-1.6l2.5,2.3c-1.4,1.7-3.4,2.6-6,2.6
				C372.9,523.3,369.7,520.3,369.7,516z"/>
			<path class="st2" d="M396.1,512.2V523h-3.6v-1.2c-0.8,0.9-2,1.3-3.2,1.3c-2.7,0-4.6-1.5-4.6-5v-6.1h3.8v5.4
				c0,1.7,0.7,2.3,1.8,2.3c1.1,0,2-0.7,2-2.6v-5.2H396.1z"/>
			<path class="st2" d="M397.7,522.1l1.1-2.6c1,0.6,2.5,1,3.8,1c1.3,0,1.7-0.3,1.7-0.7c0-1.5-6.4,0.2-6.4-4.1c0-2,1.9-3.6,5.3-3.6
				c1.5,0,3.2,0.3,4.3,0.9l-1.1,2.6c-1.1-0.6-2.2-0.8-3.1-0.8c-1.3,0-1.7,0.4-1.7,0.8c0,1.5,6.4-0.1,6.4,4.2c0,2-1.8,3.6-5.4,3.6
				C400.7,523.2,398.8,522.7,397.7,522.1z"/>
			<path class="st2" d="M417,522.6c-0.7,0.4-1.6,0.6-2.6,0.6c-2.8,0-4.4-1.4-4.4-4.1v-3.6h-1.6v-2.8h1.6v-2.8h3.8v2.8h2.5v2.8h-2.5
				v3.6c0,0.8,0.5,1.2,1.1,1.2c0.4,0,0.8-0.1,1.2-0.3L417,522.6z"/>
			<path class="st2" d="M417.5,517.6c0-3.3,2.6-5.6,6.1-5.6c3.6,0,6.1,2.3,6.1,5.6c0,3.3-2.5,5.6-6.1,5.6
				C420,523.2,417.5,520.8,417.5,517.6z M425.9,517.6c0-1.6-1-2.6-2.3-2.6c-1.3,0-2.3,0.9-2.3,2.6c0,1.7,1,2.6,2.3,2.6
				C424.9,520.2,425.9,519.2,425.9,517.6z"/>
			<path class="st2" d="M450,516.8v6.2h-3.8v-5.6c0-1.6-0.6-2.2-1.6-2.2c-1.1,0-1.9,0.7-1.9,2.4v5.4h-3.8v-5.6
				c0-1.6-0.6-2.2-1.6-2.2c-1.1,0-1.9,0.7-1.9,2.4v5.4h-3.8v-10.8h3.6v1.1c0.8-0.9,2-1.3,3.2-1.3c1.5,0,2.7,0.5,3.5,1.7
				c0.9-1.1,2.2-1.7,3.8-1.7C448.1,512,450,513.4,450,516.8z"/>
			<path class="st2" d="M463.5,518.5h-7.9c0.3,1.1,1.3,1.7,2.7,1.7c1.1,0,1.8-0.3,2.5-0.9l2,2.1c-1,1.2-2.6,1.8-4.6,1.8
				c-3.9,0-6.4-2.4-6.4-5.6c0-3.3,2.5-5.6,6-5.6c3.2,0,5.8,2,5.8,5.6C463.6,517.9,463.6,518.2,463.5,518.5z M455.6,516.5h4.4
				c-0.2-1.1-1-1.9-2.2-1.9S455.8,515.4,455.6,516.5z"/>
			<path class="st2" d="M472.6,512v3.4c-0.3,0-0.6-0.1-0.9-0.1c-1.5,0-2.6,0.8-2.6,2.7v5h-3.8v-10.8h3.6v1.3
				C469.8,512.5,471,512,472.6,512z"/>
			<path class="st2" d="M479.2,521.7l1.3-2.9c1.2,0.8,3,1.4,4.6,1.4c1.6,0,2.3-0.5,2.3-1.1c0-2.2-8-0.6-8-5.8c0-2.5,2-4.5,6.2-4.5
				c1.8,0,3.7,0.4,5.1,1.2l-1.2,2.9c-1.3-0.7-2.7-1.1-3.9-1.1c-1.7,0-2.3,0.6-2.3,1.3c0,2.1,7.9,0.5,7.9,5.7c0,2.4-2,4.5-6.2,4.5
				C482.8,523.3,480.6,522.7,479.2,521.7z"/>
			<path class="st2" d="M504.4,512.2V523h-3.6v-1.2c-0.8,0.9-2,1.3-3.2,1.3c-2.7,0-4.6-1.5-4.6-5v-6.1h3.8v5.4
				c0,1.7,0.7,2.3,1.8,2.3c1.1,0,2-0.7,2-2.6v-5.2H504.4z"/>
			<path class="st2" d="M519,517.6c0,3.4-2.4,5.6-5.3,5.6c-1.3,0-2.3-0.4-3-1.1v4.8h-3.8v-14.7h3.6v1.1c0.7-0.9,1.8-1.3,3.2-1.3
				C516.6,512,519,514.1,519,517.6z M515.1,517.6c0-1.6-1-2.6-2.3-2.6s-2.3,0.9-2.3,2.6c0,1.6,1,2.6,2.3,2.6
				S515.1,519.2,515.1,517.6z"/>
			<path class="st2" d="M532.9,517.6c0,3.4-2.4,5.6-5.3,5.6c-1.3,0-2.3-0.4-3-1.1v4.8h-3.8v-14.7h3.6v1.1c0.7-0.9,1.8-1.3,3.2-1.3
				C530.5,512,532.9,514.1,532.9,517.6z M529,517.6c0-1.6-1-2.6-2.3-2.6s-2.3,0.9-2.3,2.6c0,1.6,1,2.6,2.3,2.6S529,519.2,529,517.6z
				"/>
			<path class="st2" d="M534.6,508.2h3.8V523h-3.8V508.2z"/>
			<path class="st2" d="M552.3,512.2l-4.7,11.3c-1.1,2.8-2.7,3.6-4.9,3.6c-1.1,0-2.4-0.4-3.1-1l1.3-2.7c0.4,0.4,1.1,0.6,1.7,0.6
				c0.7,0,1.2-0.3,1.5-0.9l-4.6-11h3.9l2.7,6.6l2.7-6.6H552.3z"/>
			<path class="st2" d="M558.6,516c0-4.3,3.3-7.3,7.7-7.3c2.6,0,4.7,0.9,6,2.6l-2.5,2.3c-0.9-1.1-2-1.6-3.3-1.6
				c-2.3,0-3.9,1.6-3.9,4c0,2.4,1.6,4,3.9,4c1.3,0,2.4-0.6,3.3-1.6l2.5,2.3c-1.4,1.7-3.4,2.6-6,2.6
				C561.8,523.3,558.6,520.3,558.6,516z"/>
			<path class="st2" d="M585.4,516.8v6.2h-3.8v-5.6c0-1.6-0.7-2.2-1.8-2.2c-1.2,0-2.2,0.8-2.2,2.6v5.2h-3.8v-14.8h3.8v5
				c0.8-0.8,2-1.2,3.3-1.2C583.5,512,585.4,513.4,585.4,516.8z"/>
			<path class="st2" d="M597.9,517v6h-3.5v-1.4c-0.5,1-1.6,1.6-3.2,1.6c-2.6,0-4-1.5-4-3.3c0-2,1.5-3.2,4.8-3.2h2.2
				c-0.1-1.1-0.8-1.7-2.3-1.7c-1,0-2.2,0.4-2.9,0.9l-1.3-2.6c1.2-0.8,3.1-1.3,4.8-1.3C595.9,512,597.9,513.5,597.9,517z
				 M594.1,519.5v-0.9h-1.6c-1.2,0-1.7,0.4-1.7,1.1c0,0.6,0.5,1.1,1.4,1.1C593.1,520.8,593.8,520.4,594.1,519.5z"/>
			<path class="st2" d="M599.9,508.9c0-1.1,0.9-2,2.3-2s2.3,0.8,2.3,2c0,1.2-0.9,2.1-2.3,2.1S599.9,510.1,599.9,508.9z M600.3,512.2
				h3.8V523h-3.8V512.2z"/>
			<path class="st2" d="M618.1,516.8v6.2h-3.8v-5.6c0-1.6-0.7-2.2-1.8-2.2c-1.2,0-2.2,0.8-2.2,2.6v5.2h-3.8v-10.8h3.6v1.2
				c0.9-0.9,2.1-1.4,3.4-1.4C616.2,512,618.1,513.4,618.1,516.8z"/>
		</g>
		<g class="st1">
			<path class="st2" d="M824.7,516c0-4.3,3.3-7.3,7.7-7.3c2.6,0,4.7,0.9,6,2.6l-2.5,2.3c-0.9-1.1-2-1.6-3.3-1.6
				c-2.3,0-3.9,1.6-3.9,4c0,2.4,1.6,4,3.9,4c1.3,0,2.4-0.6,3.3-1.6l2.5,2.3c-1.4,1.7-3.4,2.6-6,2.6
				C827.9,523.3,824.7,520.3,824.7,516z"/>
			<path class="st2" d="M850.1,517v6h-3.5v-1.4c-0.5,1-1.6,1.6-3.2,1.6c-2.6,0-4-1.5-4-3.3c0-2,1.5-3.2,4.8-3.2h2.2
				c-0.1-1.1-0.8-1.7-2.3-1.7c-1,0-2.2,0.4-2.9,0.9l-1.3-2.6c1.2-0.8,3.1-1.3,4.8-1.3C848.1,512,850.1,513.5,850.1,517z
				 M846.3,519.5v-0.9h-1.6c-1.2,0-1.7,0.4-1.7,1.1c0,0.6,0.5,1.1,1.4,1.1C845.3,520.8,846,520.4,846.3,519.5z"/>
			<path class="st2" d="M859.8,512v3.4c-0.3,0-0.6-0.1-0.9-0.1c-1.5,0-2.6,0.8-2.6,2.7v5h-3.8v-10.8h3.6v1.3
				C856.9,512.5,858.2,512,859.8,512z"/>
			<path class="st2" d="M868.6,512v3.4c-0.3,0-0.6-0.1-0.9-0.1c-1.5,0-2.6,0.8-2.6,2.7v5h-3.8v-10.8h3.6v1.3
				C865.7,512.5,867,512,868.6,512z"/>
			<path class="st2" d="M869.7,508.9c0-1.1,0.9-2,2.3-2s2.3,0.8,2.3,2c0,1.2-0.9,2.1-2.3,2.1S869.7,510.1,869.7,508.9z M870.1,512.2
				h3.8V523h-3.8V512.2z"/>
			<path class="st2" d="M887.4,518.5h-7.9c0.3,1.1,1.3,1.7,2.7,1.7c1.1,0,1.8-0.3,2.5-0.9l2,2.1c-1,1.2-2.6,1.8-4.6,1.8
				c-3.9,0-6.4-2.4-6.4-5.6c0-3.3,2.5-5.6,6-5.6c3.2,0,5.8,2,5.8,5.6C887.5,517.9,887.4,518.2,887.4,518.5z M879.5,516.5h4.4
				c-0.2-1.1-1-1.9-2.2-1.9C880.5,514.7,879.7,515.4,879.5,516.5z"/>
			<path class="st2" d="M896.5,512v3.4c-0.3,0-0.6-0.1-0.9-0.1c-1.5,0-2.6,0.8-2.6,2.7v5h-3.8v-10.8h3.6v1.3
				C893.6,512.5,894.9,512,896.5,512z"/>
			<path class="st2" d="M910.2,519.3h-2.2v3.7h-4v-14h6.4c3.8,0,6.2,2,6.2,5.2c0,2.1-1,3.6-2.7,4.4l3,4.4h-4.2L910.2,519.3z
				 M910.3,512.1h-2.2v4.1h2.2c1.6,0,2.5-0.8,2.5-2C912.7,512.9,911.9,512.1,910.3,512.1z"/>
			<path class="st2" d="M929.7,518.5h-7.9c0.3,1.1,1.3,1.7,2.7,1.7c1.1,0,1.8-0.3,2.5-0.9l2,2.1c-1,1.2-2.6,1.8-4.6,1.8
				c-3.9,0-6.4-2.4-6.4-5.6c0-3.3,2.5-5.6,6-5.6c3.2,0,5.8,2,5.8,5.6C929.8,517.9,929.8,518.2,929.7,518.5z M921.8,516.5h4.4
				c-0.2-1.1-1-1.9-2.2-1.9C922.8,514.7,922,515.4,921.8,516.5z"/>
			<path class="st2" d="M931.6,508.2h3.8V523h-3.8V508.2z"/>
			<path class="st2" d="M948,517v6h-3.5v-1.4c-0.5,1-1.6,1.6-3.2,1.6c-2.6,0-4-1.5-4-3.3c0-2,1.5-3.2,4.8-3.2h2.2
				c-0.1-1.1-0.8-1.7-2.3-1.7c-1,0-2.2,0.4-2.9,0.9l-1.3-2.6c1.2-0.8,3.1-1.3,4.8-1.3C946,512,948,513.5,948,517z M944.2,519.5v-0.9
				h-1.6c-1.2,0-1.7,0.4-1.7,1.1c0,0.6,0.5,1.1,1.4,1.1C943.1,520.8,943.9,520.4,944.2,519.5z"/>
			<path class="st2" d="M957.9,522.6c-0.7,0.4-1.6,0.6-2.6,0.6c-2.8,0-4.4-1.4-4.4-4.1v-3.6h-1.6v-2.8h1.6v-2.8h3.8v2.8h2.5v2.8
				h-2.5v3.6c0,0.8,0.5,1.2,1.1,1.2c0.4,0,0.8-0.1,1.2-0.3L957.9,522.6z"/>
			<path class="st2" d="M958.9,508.9c0-1.1,0.9-2,2.3-2s2.3,0.8,2.3,2c0,1.2-0.9,2.1-2.3,2.1S958.9,510.1,958.9,508.9z M959.3,512.2
				h3.8V523h-3.8V512.2z"/>
			<path class="st2" d="M964.9,517.6c0-3.3,2.6-5.6,6.1-5.6c3.6,0,6.1,2.3,6.1,5.6c0,3.3-2.5,5.6-6.1,5.6
				C967.5,523.2,964.9,520.8,964.9,517.6z M973.3,517.6c0-1.6-1-2.6-2.3-2.6c-1.3,0-2.3,0.9-2.3,2.6c0,1.7,1,2.6,2.3,2.6
				C972.3,520.2,973.3,519.2,973.3,517.6z"/>
			<path class="st2" d="M990.4,516.8v6.2h-3.8v-5.6c0-1.6-0.7-2.2-1.8-2.2c-1.2,0-2.2,0.8-2.2,2.6v5.2h-3.8v-10.8h3.6v1.2
				c0.9-0.9,2.1-1.4,3.4-1.4C988.5,512,990.4,513.4,990.4,516.8z"/>
			<path class="st2" d="M992,522.1l1.1-2.6c1,0.6,2.5,1,3.8,1c1.3,0,1.7-0.3,1.7-0.7c0-1.5-6.4,0.2-6.4-4.1c0-2,1.9-3.6,5.3-3.6
				c1.5,0,3.2,0.3,4.3,0.9l-1.1,2.6c-1.1-0.6-2.2-0.8-3.1-0.8c-1.3,0-1.7,0.4-1.7,0.8c0,1.5,6.4-0.1,6.4,4.2c0,2-1.8,3.6-5.4,3.6
				C994.9,523.2,993,522.7,992,522.1z"/>
			<path class="st2" d="M1015.3,516.8v6.2h-3.8v-5.6c0-1.6-0.7-2.2-1.8-2.2c-1.2,0-2.2,0.8-2.2,2.6v5.2h-3.8v-14.8h3.8v5
				c0.8-0.8,2-1.2,3.3-1.2C1013.4,512,1015.3,513.4,1015.3,516.8z"/>
			<path class="st2" d="M1017.3,508.9c0-1.1,0.9-2,2.3-2s2.3,0.8,2.3,2c0,1.2-0.9,2.1-2.3,2.1S1017.3,510.1,1017.3,508.9z
				 M1017.7,512.2h3.8V523h-3.8V512.2z"/>
			<path class="st2" d="M1036.1,517.6c0,3.4-2.4,5.6-5.3,5.6c-1.3,0-2.3-0.4-3-1.1v4.8h-3.8v-14.7h3.6v1.1c0.7-0.9,1.8-1.3,3.2-1.3
				C1033.7,512,1036.1,514.1,1036.1,517.6z M1032.2,517.6c0-1.6-1-2.6-2.3-2.6c-1.3,0-2.3,0.9-2.3,2.6c0,1.6,1,2.6,2.3,2.6
				C1031.2,520.2,1032.2,519.2,1032.2,517.6z"/>
			<path class="st2" d="M1037,522.1l1.1-2.6c1,0.6,2.5,1,3.8,1c1.3,0,1.7-0.3,1.7-0.7c0-1.5-6.4,0.2-6.4-4.1c0-2,1.9-3.6,5.3-3.6
				c1.5,0,3.2,0.3,4.3,0.9l-1.1,2.6c-1.1-0.6-2.2-0.8-3.1-0.8c-1.3,0-1.7,0.4-1.7,0.8c0,1.5,6.4-0.1,6.4,4.2c0,2-1.8,3.6-5.4,3.6
				C1039.9,523.2,1038,522.7,1037,522.1z"/>
		</g>
	</g>
	<circle id="Ellipse_202" class="st3" cx="720.5" cy="633.5" r="32.5"/>
</g>
</svg>
